<svg width="257" height="232" viewBox="0 0 257 232" fill="none" xmlns="http://www.w3.org/2000/svg">
<path d="M6.5 45L21.5 53.6603V36.3397L6.5 45ZM213 45L198 36.3397V53.6603L213 45ZM20 46.5H199.5V43.5H20V46.5Z" fill="white"/>
<path d="M248 184L256.66 169H239.34L248 184ZM248 79L239.34 94H256.66L248 79ZM249.5 170.5V92.5H246.5V170.5H249.5Z" fill="white"/>
<path d="M209.4 137.2H116.4C116.533 147.733 120.133 156 127.2 162C134.4 168 144.2 171 156.6 171C167.267 171 176 168.8 182.8 164.4C189.733 160 193.333 154.267 193.6 147.2H209.4C209 154.667 206.533 161.2 202 166.8C197.6 172.267 191.533 176.533 183.8 179.6C176.2 182.667 167.4 184.2 157.4 184.2C146.333 184.2 136.667 182.333 128.4 178.6C120.267 174.867 113.933 169.533 109.4 162.6C99 177 81.7333 184.2 57.6 184.2C43.4667 184.2 32.6667 181.867 25.2 177.2C17.8667 172.533 14.2 165.8 14.2 157C14.2 149 17.2 142.667 23.2 138C29.2 133.2 38.2 130.267 50.2 129.2L101.8 124.4C101.8 114.8 98.7333 107.533 92.6 102.6C86.4667 97.6667 77.4 95.2 65.4 95.2C54.6 95.2 45.9333 97.3333 39.4 101.6C32.8667 105.867 29.6 111.467 29.6 118.4V119.6H14.8V118.4C14.8 111.067 16.9333 104.6 21.2 99C25.4667 93.2667 31.4667 88.8667 39.2 85.8C47.0667 82.7333 56.1333 81.2 66.4 81.2C88.8 81.2 103.533 88.3333 110.6 102.6C115 95.8 121.2 90.5333 129.2 86.8C137.2 83.0667 146.467 81.2 157 81.2C167.533 81.2 176.733 83.2 184.6 87.2C192.6 91.0667 198.733 96.7333 203 104.2C207.267 111.533 209.4 120.133 209.4 130V137.2ZM156.6 94.6C145.133 94.6 135.867 97.2667 128.8 102.6C121.733 107.933 117.667 115.333 116.6 124.8H193.8C193 115.333 189.333 107.933 182.8 102.6C176.267 97.2667 167.533 94.6 156.6 94.6ZM56.8 171C67.8667 171 77.4 169.267 85.4 165.8C93.5333 162.2 99.6667 157.067 103.8 150.4C102.733 146.533 102.067 142 101.8 136.8L54.4 141C45.7333 141.8 39.3333 143.467 35.2 146C31.0667 148.533 29 152.067 29 156.6C29 166.2 38.2667 171 56.8 171Z" fill="white"/>
</svg>
