<svg width="652" height="253" viewBox="0 0 652 253" fill="none" xmlns="http://www.w3.org/2000/svg">
<rect x="6.89648" y="1.01953" width="637.964" height="248.698" rx="9.19536" fill="#4ADE80"/>
<path d="M164.93 11.6463L164.671 12.9439L149.489 40.0195H138.849L137.076 22.8918L127.734 40.0195H117.007L113.85 12.9439L114.109 11.6463H122.63L124.36 29.6823L134.351 11.6463H143.953L145.856 29.7689L155.545 11.6463H164.93ZM178.197 40.5818C174.91 40.5818 172.027 40.0484 169.547 38.9815C167.067 37.9146 165.15 36.4152 163.795 34.4833C162.439 32.5514 161.762 30.3455 161.762 27.8658C161.762 26.8854 161.863 25.9339 162.065 25.0112L162.108 24.7949C162.973 20.4409 165.006 17.0672 168.206 14.674C171.407 12.2807 175.501 11.0841 180.49 11.0841C183.777 11.0841 186.66 11.6175 189.14 12.6844C191.62 13.7513 193.523 15.2362 194.849 17.1393C196.205 19.0424 196.882 21.2338 196.882 23.7136C196.882 24.7516 196.781 25.732 196.579 26.6547L196.536 26.871C195.7 31.2538 193.682 34.6419 190.481 37.0352C187.309 39.3996 183.215 40.5818 178.197 40.5818ZM178.543 32.6667C183.791 32.6667 186.848 30.6051 187.713 26.4817L187.799 26.0059C187.915 25.5158 187.972 24.9967 187.972 24.4489C187.972 22.7476 187.28 21.4068 185.896 20.4265C184.512 19.4461 182.551 18.9559 180.014 18.9559C174.91 18.9559 171.883 21.0464 170.931 25.2274L170.845 25.7032C170.7 26.3375 170.628 26.8854 170.628 27.3468C170.628 29.0192 171.306 30.3311 172.661 31.2827C174.045 32.2054 176.006 32.6667 178.543 32.6667ZM250.293 11.6463L250.034 12.9439L234.853 40.0195H224.213L222.439 22.8918L213.097 40.0195H202.37L199.213 12.9439L199.473 11.6463H207.993L209.723 29.6823L219.714 11.6463H229.316L231.219 29.7689L240.908 11.6463H250.293ZM313.355 11.6463L313.095 12.9439L297.914 40.0195H287.274L285.501 22.8918L276.158 40.0195H265.432L262.275 12.9439L262.534 11.6463H271.055L272.785 29.6823L282.776 11.6463H292.378L294.281 29.7689L303.969 11.6463H313.355ZM326.622 40.5818C323.335 40.5818 320.452 40.0484 317.972 38.9815C315.492 37.9146 313.574 36.4152 312.219 34.4833C310.864 32.5514 310.186 30.3455 310.186 27.8658C310.186 26.8854 310.287 25.9339 310.489 25.0112L310.532 24.7949C311.397 20.4409 313.43 17.0672 316.631 14.674C319.832 12.2807 323.926 11.0841 328.914 11.0841C332.202 11.0841 335.085 11.6175 337.565 12.6844C340.045 13.7513 341.948 15.2362 343.274 17.1393C344.629 19.0424 345.307 21.2338 345.307 23.7136C345.307 24.7516 345.206 25.732 345.004 26.6547L344.961 26.871C344.125 31.2538 342.106 34.6419 338.906 37.0352C335.734 39.3996 331.639 40.5818 326.622 40.5818ZM326.968 32.6667C332.216 32.6667 335.272 30.6051 336.138 26.4817L336.224 26.0059C336.339 25.5158 336.397 24.9967 336.397 24.4489C336.397 22.7476 335.705 21.4068 334.321 20.4265C332.937 19.4461 330.976 18.9559 328.439 18.9559C323.335 18.9559 320.307 21.0464 319.356 25.2274L319.269 25.7032C319.125 26.3375 319.053 26.8854 319.053 27.3468C319.053 29.0192 319.731 30.3311 321.086 31.2827C322.47 32.2054 324.431 32.6667 326.968 32.6667ZM398.718 11.6463L398.459 12.9439L383.277 40.0195H372.637L370.864 22.8918L361.522 40.0195H350.795L347.638 12.9439L347.897 11.6463H356.418L358.148 29.6823L368.139 11.6463H377.741L379.644 29.7689L389.332 11.6463H398.718ZM461.78 11.6463L461.52 12.9439L446.339 40.0195H435.699L433.925 22.8918L424.583 40.0195H413.857L410.699 12.9439L410.959 11.6463H419.479L421.209 29.6823L431.201 11.6463H440.802L442.706 29.7689L452.394 11.6463H461.78ZM475.047 40.5818C471.76 40.5818 468.876 40.0484 466.396 38.9815C463.917 37.9146 461.999 36.4152 460.644 34.4833C459.289 32.5514 458.611 30.3455 458.611 27.8658C458.611 26.8854 458.712 25.9339 458.914 25.0112L458.957 24.7949C459.822 20.4409 461.855 17.0672 465.056 14.674C468.256 12.2807 472.351 11.0841 477.339 11.0841C480.626 11.0841 483.51 11.6175 485.989 12.6844C488.469 13.7513 490.372 15.2362 491.699 17.1393C493.054 19.0424 493.732 21.2338 493.732 23.7136C493.732 24.7516 493.631 25.732 493.429 26.6547L493.386 26.871C492.549 31.2538 490.531 34.6419 487.33 37.0352C484.158 39.3996 480.064 40.5818 475.047 40.5818ZM475.393 32.6667C480.641 32.6667 483.697 30.6051 484.562 26.4817L484.649 26.0059C484.764 25.5158 484.822 24.9967 484.822 24.4489C484.822 22.7476 484.13 21.4068 482.746 20.4265C481.362 19.4461 479.401 18.9559 476.863 18.9559C471.76 18.9559 468.732 21.0464 467.78 25.2274L467.694 25.7032C467.55 26.3375 467.478 26.8854 467.478 27.3468C467.478 29.0192 468.155 30.3311 469.511 31.2827C470.895 32.2054 472.855 32.6667 475.393 32.6667ZM547.143 11.6463L546.883 12.9439L531.702 40.0195H521.062L519.289 22.8918L509.946 40.0195H499.22L496.062 12.9439L496.322 11.6463H504.842L506.573 29.6823L516.564 11.6463H526.166L528.069 29.7689L537.757 11.6463H547.143Z" fill="black"/>
<path d="M168.347 62.1092L167.871 63.277L146.289 90.4824H136.817L138.763 71.9706L124.23 90.4824H114.715L117.31 63.277L117.786 62.1092H125.009L122.933 81.5293L138.114 62.1092H146.721L144.645 81.6591L159.61 62.1092H168.347ZM178.817 91.0447C175.76 91.0447 173.079 90.5545 170.772 89.5741C168.494 88.5938 166.735 87.2385 165.495 85.5085C164.255 83.7784 163.635 81.8176 163.635 79.6262C163.635 77.9538 163.996 76.2526 164.717 74.5225L164.847 74.2197C168.393 65.7712 174.708 61.547 183.791 61.547C186.847 61.547 189.514 62.0372 191.792 63.0175C194.099 63.9979 195.872 65.3531 197.112 67.0832C198.352 68.7844 198.972 70.7308 198.972 72.9222C198.972 74.5369 198.597 76.267 197.848 78.1124L197.718 78.4152C194.229 86.8349 187.929 91.0447 178.817 91.0447ZM179.379 84.2542C181.801 84.2542 183.921 83.6775 185.737 82.5241C187.554 81.3707 188.967 79.6983 189.976 77.5069L190.235 76.9879C190.725 75.9786 190.971 74.9694 190.971 73.9602C190.971 72.2878 190.264 70.9326 188.851 69.8946C187.438 68.8565 185.506 68.3375 183.056 68.3375C178.211 68.3375 174.708 70.601 172.545 75.128L172.286 75.6471C171.767 76.7139 171.507 77.7376 171.507 78.7179C171.507 80.3903 172.214 81.7311 173.627 82.7403C175.04 83.7496 176.957 84.2542 179.379 84.2542ZM253.71 62.1092L253.235 63.277L231.652 90.4824H222.18L224.126 71.9706L209.594 90.4824H200.078L202.673 63.277L203.149 62.1092H210.372L208.296 81.5293L223.477 62.1092H232.084L230.008 81.6591L244.974 62.1092H253.71ZM316.772 62.1092L316.296 63.277L294.713 90.4824H285.241L287.188 71.9706L272.655 90.4824H263.14L265.735 63.277L266.21 62.1092H273.434L271.357 81.5293L286.539 62.1092H295.146L293.07 81.6591L308.035 62.1092H316.772ZM327.241 91.0447C324.185 91.0447 321.503 90.5545 319.197 89.5741C316.919 88.5938 315.16 87.2385 313.92 85.5085C312.68 83.7784 312.06 81.8176 312.06 79.6262C312.06 77.9538 312.421 76.2526 313.141 74.5225L313.271 74.2197C316.818 65.7712 323.133 61.547 332.215 61.547C335.272 61.547 337.939 62.0372 340.217 63.0175C342.524 63.9979 344.297 65.3531 345.537 67.0832C346.777 68.7844 347.397 70.7308 347.397 72.9222C347.397 74.5369 347.022 76.267 346.272 78.1124L346.143 78.4152C342.654 86.8349 336.353 91.0447 327.241 91.0447ZM327.804 84.2542C330.226 84.2542 332.345 83.6775 334.162 82.5241C335.978 81.3707 337.391 79.6983 338.4 77.5069L338.66 76.9879C339.15 75.9786 339.395 74.9694 339.395 73.9602C339.395 72.2878 338.689 70.9326 337.276 69.8946C335.863 68.8565 333.931 68.3375 331.48 68.3375C326.636 68.3375 323.133 70.601 320.97 75.128L320.71 75.6471C320.191 76.7139 319.932 77.7376 319.932 78.7179C319.932 80.3903 320.638 81.7311 322.051 82.7403C323.464 83.7496 325.382 84.2542 327.804 84.2542ZM402.135 62.1092L401.659 63.277L380.077 90.4824H370.604L372.551 71.9706L358.018 90.4824H348.503L351.098 63.277L351.574 62.1092H358.797L356.721 81.5293L371.902 62.1092H380.509L378.433 81.6591L393.398 62.1092H402.135ZM465.196 62.1092L464.721 63.277L443.138 90.4824H433.666L435.612 71.9706L421.08 90.4824H411.564L414.159 63.277L414.635 62.1092H421.858L419.782 81.5293L434.963 62.1092H443.571L441.495 81.6591L456.46 62.1092H465.196ZM475.666 91.0447C472.61 91.0447 469.928 90.5545 467.621 89.5741C465.343 88.5938 463.584 87.2385 462.345 85.5085C461.105 83.7784 460.485 81.8176 460.485 79.6262C460.485 77.9538 460.845 76.2526 461.566 74.5225L461.696 74.2197C465.242 65.7712 471.557 61.547 480.64 61.547C483.697 61.547 486.364 62.0372 488.642 63.0175C490.948 63.9979 492.722 65.3531 493.962 67.0832C495.202 68.7844 495.821 70.7308 495.821 72.9222C495.821 74.5369 495.447 76.267 494.697 78.1124L494.567 78.4152C491.078 86.8349 484.778 91.0447 475.666 91.0447ZM476.228 84.2542C478.651 84.2542 480.77 83.6775 482.586 82.5241C484.403 81.3707 485.816 79.6983 486.825 77.5069L487.085 76.9879C487.575 75.9786 487.82 74.9694 487.82 73.9602C487.82 72.2878 487.113 70.9326 485.701 69.8946C484.288 68.8565 482.356 68.3375 479.905 68.3375C475.061 68.3375 471.557 70.601 469.395 75.128L469.135 75.6471C468.616 76.7139 468.357 77.7376 468.357 78.7179C468.357 80.3903 469.063 81.7311 470.476 82.7403C471.889 83.7496 473.806 84.2542 476.228 84.2542ZM550.56 62.1092L550.084 63.277L528.501 90.4824H519.029L520.975 71.9706L506.443 90.4824H496.927L499.523 63.277L499.998 62.1092H507.221L505.145 81.5293L520.327 62.1092H528.934L526.858 81.6591L541.823 62.1092H550.56Z" fill="white"/>
<path d="M164.714 112.568L164.455 113.736L148.927 140.941H139.541L137.336 122.43L126.955 140.941H117.526L114.066 113.736L114.282 112.568H121.765L123.928 132.118L134.957 112.568H143.391L145.727 132.161L156.453 112.568H164.714ZM178.111 141.504C174.91 141.504 172.099 140.97 169.677 139.903C167.255 138.836 165.381 137.352 164.054 135.448C162.757 133.545 162.108 131.354 162.108 128.874C162.108 127.894 162.209 126.913 162.411 125.933L162.497 125.674C163.391 121.348 165.409 117.989 168.552 115.596C171.695 113.203 175.703 112.006 180.576 112.006C183.777 112.006 186.588 112.539 189.01 113.606C191.433 114.644 193.292 116.115 194.59 118.018C195.916 119.921 196.579 122.098 196.579 124.549C196.579 125.472 196.464 126.481 196.233 127.577L196.19 127.879C195.296 132.205 193.278 135.564 190.135 137.957C187.021 140.321 183.013 141.504 178.111 141.504ZM178.37 134.54C181.167 134.54 183.417 133.949 185.118 132.767C186.819 131.556 187.915 129.797 188.405 127.49L188.535 127.014C188.679 126.466 188.751 125.832 188.751 125.111C188.751 123.208 188.001 121.709 186.502 120.613C185.002 119.517 182.912 118.969 180.23 118.969C177.491 118.969 175.271 119.575 173.57 120.786C171.897 121.968 170.787 123.727 170.239 126.063L170.109 126.582C169.936 127.216 169.85 127.851 169.85 128.485C169.85 130.359 170.6 131.844 172.099 132.94C173.598 134.007 175.689 134.54 178.37 134.54ZM250.077 112.568L249.818 113.736L234.29 140.941H224.905L222.699 122.43L212.318 140.941H202.889L199.429 113.736L199.646 112.568H207.128L209.291 132.118L220.32 112.568H228.754L231.09 132.161L241.816 112.568H250.077ZM313.139 112.568L312.879 113.736L297.352 140.941H287.966L285.76 122.43L275.38 140.941H265.951L262.491 113.736L262.707 112.568H270.19L272.352 132.118L283.381 112.568H291.816L294.151 132.161L304.878 112.568H313.139ZM326.536 141.504C323.335 141.504 320.524 140.97 318.101 139.903C315.679 138.836 313.805 137.352 312.479 135.448C311.181 133.545 310.532 131.354 310.532 128.874C310.532 127.894 310.633 126.913 310.835 125.933L310.922 125.674C311.816 121.348 313.834 117.989 316.977 115.596C320.12 113.203 324.128 112.006 329.001 112.006C332.202 112.006 335.013 112.539 337.435 113.606C339.857 114.644 341.717 116.115 343.015 118.018C344.341 119.921 345.004 122.098 345.004 124.549C345.004 125.472 344.889 126.481 344.658 127.577L344.615 127.879C343.721 132.205 341.703 135.564 338.56 137.957C335.445 140.321 331.437 141.504 326.536 141.504ZM326.795 134.54C329.592 134.54 331.841 133.949 333.542 132.767C335.244 131.556 336.339 129.797 336.83 127.49L336.959 127.014C337.103 126.466 337.176 125.832 337.176 125.111C337.176 123.208 336.426 121.709 334.926 120.613C333.427 119.517 331.337 118.969 328.655 118.969C325.916 118.969 323.695 119.575 321.994 120.786C320.322 121.968 319.212 123.727 318.664 126.063L318.534 126.582C318.361 127.216 318.275 127.851 318.275 128.485C318.275 130.359 319.024 131.844 320.524 132.94C322.023 134.007 324.113 134.54 326.795 134.54ZM398.502 112.568L398.242 113.736L382.715 140.941H373.329L371.123 122.43L360.743 140.941H351.314L347.854 113.736L348.07 112.568H355.553L357.715 132.118L368.745 112.568H377.179L379.514 132.161L390.241 112.568H398.502ZM461.563 112.568L461.304 113.736L445.776 140.941H436.391L434.185 122.43L423.805 140.941H414.376L410.915 113.736L411.132 112.568H418.614L420.777 132.118L431.806 112.568H440.24L442.576 132.161L453.302 112.568H461.563ZM474.96 141.504C471.76 141.504 468.948 140.97 466.526 139.903C464.104 138.836 462.23 137.352 460.903 135.448C459.606 133.545 458.957 131.354 458.957 128.874C458.957 127.894 459.058 126.913 459.26 125.933L459.346 125.674C460.24 121.348 462.259 117.989 465.402 115.596C468.545 113.203 472.553 112.006 477.426 112.006C480.626 112.006 483.438 112.539 485.86 113.606C488.282 114.644 490.142 116.115 491.439 118.018C492.766 119.921 493.429 122.098 493.429 124.549C493.429 125.472 493.313 126.481 493.083 127.577L493.04 127.879C492.146 132.205 490.127 135.564 486.984 137.957C483.87 140.321 479.862 141.504 474.96 141.504ZM475.22 134.54C478.017 134.54 480.266 133.949 481.967 132.767C483.668 131.556 484.764 129.797 485.254 127.49L485.384 127.014C485.528 126.466 485.6 125.832 485.6 125.111C485.6 123.208 484.85 121.709 483.351 120.613C481.852 119.517 479.761 118.969 477.08 118.969C474.34 118.969 472.12 119.575 470.419 120.786C468.746 121.968 467.636 123.727 467.088 126.063L466.959 126.582C466.786 127.216 466.699 127.851 466.699 128.485C466.699 130.359 467.449 131.844 468.948 132.94C470.448 134.007 472.538 134.54 475.22 134.54ZM546.927 112.568L546.667 113.736L531.14 140.941H521.754L519.548 122.43L509.168 140.941H499.739L496.279 113.736L496.495 112.568H503.977L506.14 132.118L517.169 112.568H525.603L527.939 132.161L538.665 112.568H546.927Z" fill="black"/>
<path d="M168.088 163.029L167.655 164.024L145.64 191.402H137.595L139.368 171.377L123.365 191.402H115.277L117.613 164.024L118.002 163.029H124.101L122.111 184.006L138.849 163.029H146.159L144.213 184.093L160.692 163.029H168.088ZM178.601 191.921C175.659 191.921 173.079 191.446 170.859 190.494C168.667 189.543 166.966 188.216 165.755 186.515C164.573 184.814 163.981 182.882 163.981 180.719C163.981 179.018 164.371 177.245 165.149 175.399L165.322 175.01C168.984 166.677 175.227 162.51 184.05 162.51C186.963 162.51 189.529 162.986 191.749 163.937C193.969 164.889 195.671 166.215 196.853 167.917C198.064 169.618 198.669 171.535 198.669 173.669C198.669 175.428 198.266 177.216 197.458 179.032L197.285 179.422C195.469 183.603 193.003 186.731 189.889 188.807C186.804 190.883 183.041 191.921 178.601 191.921ZM179.033 186.212C181.657 186.212 183.964 185.563 185.953 184.266C187.972 182.968 189.587 181.094 190.798 178.643L191.057 178.081C191.663 176.87 191.965 175.659 191.965 174.448C191.965 172.573 191.201 171.074 189.673 169.949C188.174 168.796 186.126 168.219 183.531 168.219C180.907 168.219 178.601 168.868 176.611 170.166C174.65 171.434 173.064 173.323 171.853 175.832L171.551 176.394C170.916 177.663 170.599 178.874 170.599 180.027C170.599 181.901 171.349 183.401 172.848 184.525C174.376 185.65 176.438 186.212 179.033 186.212ZM253.451 163.029L253.018 164.024L231.003 191.402H222.958L224.732 171.377L208.729 191.402H200.64L202.976 164.024L203.365 163.029H209.464L207.474 184.006L224.213 163.029H231.522L229.576 184.093L246.055 163.029H253.451ZM316.512 163.029L316.08 164.024L294.065 191.402H286.02L287.793 171.377L271.79 191.402H263.702L266.037 164.024L266.427 163.029H272.525L270.536 184.006L287.274 163.029H294.584L292.637 184.093L309.116 163.029H316.512ZM327.025 191.921C324.084 191.921 321.503 191.446 319.283 190.494C317.092 189.543 315.39 188.216 314.179 186.515C312.997 184.814 312.406 182.882 312.406 180.719C312.406 179.018 312.795 177.245 313.574 175.399L313.747 175.01C317.409 166.677 323.652 162.51 332.475 162.51C335.387 162.51 337.954 162.986 340.174 163.937C342.394 164.889 344.095 166.215 345.277 167.917C346.489 169.618 347.094 171.535 347.094 173.669C347.094 175.428 346.69 177.216 345.883 179.032L345.71 179.422C343.893 183.603 341.428 186.731 338.314 188.807C335.229 190.883 331.466 191.921 327.025 191.921ZM327.458 186.212C330.082 186.212 332.388 185.563 334.378 184.266C336.396 182.968 338.011 181.094 339.222 178.643L339.482 178.081C340.087 176.87 340.39 175.659 340.39 174.448C340.39 172.573 339.626 171.074 338.098 169.949C336.598 168.796 334.551 168.219 331.956 168.219C329.332 168.219 327.025 168.868 325.036 170.166C323.075 171.434 321.489 173.323 320.278 175.832L319.975 176.394C319.341 177.663 319.024 178.874 319.024 180.027C319.024 181.901 319.773 183.401 321.273 184.525C322.801 185.65 324.863 186.212 327.458 186.212ZM401.876 163.029L401.443 164.024L379.428 191.402H371.383L373.156 171.377L357.153 191.402H349.065L351.401 164.024L351.79 163.029H357.888L355.899 184.006L372.637 163.029H379.947L378.001 184.093L394.479 163.029H401.876ZM464.937 163.029L464.504 164.024L442.489 191.402H434.444L436.218 171.377L420.215 191.402H412.127L414.462 164.024L414.851 163.029H420.95L418.96 184.006L435.699 163.029H443.008L441.062 184.093L457.541 163.029H464.937ZM475.45 191.921C472.509 191.921 469.928 191.446 467.708 190.494C465.516 189.543 463.815 188.216 462.604 186.515C461.422 184.814 460.831 182.882 460.831 180.719C460.831 179.018 461.22 177.245 461.999 175.399L462.172 175.01C465.834 166.677 472.076 162.51 480.9 162.51C483.812 162.51 486.378 162.986 488.598 163.937C490.819 164.889 492.52 166.215 493.702 167.917C494.913 169.618 495.519 171.535 495.519 173.669C495.519 175.428 495.115 177.216 494.308 179.032L494.135 179.422C492.318 183.603 489.853 186.731 486.739 188.807C483.653 190.883 479.89 191.921 475.45 191.921ZM475.882 186.212C478.506 186.212 480.813 185.563 482.803 184.266C484.821 182.968 486.436 181.094 487.647 178.643L487.906 178.081C488.512 176.87 488.815 175.659 488.815 174.448C488.815 172.573 488.051 171.074 486.522 169.949C485.023 168.796 482.976 168.219 480.381 168.219C477.757 168.219 475.45 168.868 473.46 170.166C471.5 171.434 469.914 173.323 468.703 175.832L468.4 176.394C467.765 177.663 467.448 178.874 467.448 180.027C467.448 181.901 468.198 183.401 469.697 184.525C471.226 185.65 473.287 186.212 475.882 186.212ZM550.3 163.029L549.868 164.024L527.852 191.402H519.808L521.581 171.377L505.578 191.402H497.49L499.825 164.024L500.215 163.029H506.313L504.324 184.006L521.062 163.029H528.372L526.425 184.093L542.904 163.029H550.3Z" fill="white"/>
<path d="M167.828 213.492L167.482 214.314L145.034 241.865H138.33L139.974 220.456L122.544 241.865H115.796L117.872 214.314L118.218 213.492H123.279L121.419 235.896L139.541 213.492H145.597L143.823 235.94L161.686 213.492H167.828ZM178.428 242.384C175.602 242.384 173.122 241.908 170.988 240.957C168.855 240.005 167.197 238.693 166.014 237.021C164.861 235.349 164.284 233.46 164.284 231.355C164.284 229.567 164.717 227.722 165.582 225.819L165.798 225.343C169.547 217.096 175.703 212.973 184.267 212.973C187.092 212.973 189.572 213.449 191.706 214.4C193.84 215.352 195.483 216.664 196.637 218.336C197.819 220.009 198.41 221.897 198.41 224.002C198.41 225.79 197.977 227.635 197.112 229.538L196.896 230.014C193.148 238.261 186.991 242.384 178.428 242.384ZM178.73 237.627C181.556 237.627 184.05 236.92 186.213 235.507C188.404 234.094 190.178 232.018 191.533 229.279L191.836 228.673C192.556 227.203 192.917 225.804 192.917 224.478C192.917 222.46 192.11 220.83 190.495 219.591C188.909 218.351 186.746 217.731 184.007 217.731C181.181 217.731 178.673 218.437 176.481 219.85C174.29 221.263 172.516 223.339 171.161 226.078L170.859 226.684C170.138 228.126 169.777 229.51 169.777 230.836C169.777 232.854 170.585 234.498 172.199 235.767C173.814 237.007 175.991 237.627 178.73 237.627ZM253.191 213.492L252.845 214.314L230.398 241.865H223.694L225.337 220.456L207.907 241.865H201.159L203.236 214.314L203.582 213.492H208.642L206.782 235.896L224.905 213.492H230.96L229.187 235.94L247.05 213.492H253.191ZM316.253 213.492L315.907 214.314L293.459 241.865H286.755L288.399 220.456L270.968 241.865H264.221L266.297 214.314L266.643 213.492H271.703L269.844 235.896L287.966 213.492H294.021L292.248 235.94L310.111 213.492H316.253ZM326.852 242.384C324.026 242.384 321.547 241.908 319.413 240.957C317.279 240.005 315.621 238.693 314.439 237.021C313.286 235.349 312.709 233.46 312.709 231.355C312.709 229.567 313.141 227.722 314.006 225.819L314.223 225.343C317.971 217.096 324.127 212.973 332.691 212.973C335.517 212.973 337.997 213.449 340.131 214.4C342.264 215.352 343.908 216.664 345.061 218.336C346.243 220.009 346.835 221.897 346.835 224.002C346.835 225.79 346.402 227.635 345.537 229.538L345.321 230.014C341.572 238.261 335.416 242.384 326.852 242.384ZM327.155 237.627C329.981 237.627 332.475 236.92 334.638 235.507C336.829 234.094 338.602 232.018 339.958 229.279L340.26 228.673C340.981 227.203 341.342 225.804 341.342 224.478C341.342 222.46 340.534 220.83 338.919 219.591C337.334 218.351 335.171 217.731 332.432 217.731C329.606 217.731 327.097 218.437 324.906 219.85C322.714 221.263 320.941 223.339 319.586 226.078L319.283 226.684C318.562 228.126 318.202 229.51 318.202 230.836C318.202 232.854 319.009 234.498 320.624 235.767C322.239 237.007 324.416 237.627 327.155 237.627ZM401.616 213.492L401.27 214.314L378.822 241.865H372.118L373.762 220.456L356.331 241.865H349.584L351.66 214.314L352.006 213.492H357.067L355.207 235.896L373.329 213.492H379.385L377.611 235.94L395.474 213.492H401.616ZM464.677 213.492L464.331 214.314L441.884 241.865H435.18L436.823 220.456L419.393 241.865H412.646L414.722 214.314L415.068 213.492H420.128L418.268 235.896L436.391 213.492H442.446L440.673 235.94L458.536 213.492H464.677ZM475.277 242.384C472.451 242.384 469.971 241.908 467.838 240.957C465.704 240.005 464.046 238.693 462.864 237.021C461.71 235.349 461.134 233.46 461.134 231.355C461.134 229.567 461.566 227.722 462.431 225.819L462.647 225.343C466.396 217.096 472.552 212.973 481.116 212.973C483.942 212.973 486.421 213.449 488.555 214.4C490.689 215.352 492.333 216.664 493.486 218.336C494.668 220.009 495.259 221.897 495.259 224.002C495.259 225.79 494.827 227.635 493.962 229.538L493.745 230.014C489.997 238.261 483.841 242.384 475.277 242.384ZM475.58 237.627C478.405 237.627 480.9 236.92 483.062 235.507C485.254 234.094 487.027 232.018 488.382 229.279L488.685 228.673C489.406 227.203 489.766 225.804 489.766 224.478C489.766 222.46 488.959 220.83 487.344 219.591C485.758 218.351 483.596 217.731 480.856 217.731C478.031 217.731 475.522 218.437 473.331 219.85C471.139 221.263 469.366 223.339 468.011 226.078L467.708 226.684C466.987 228.126 466.627 229.51 466.627 230.836C466.627 232.854 467.434 234.498 469.049 235.767C470.663 237.007 472.84 237.627 475.58 237.627ZM550.041 213.492L549.695 214.314L527.247 241.865H520.543L522.187 220.456L504.756 241.865H498.009L500.085 214.314L500.431 213.492H505.491L503.631 235.896L521.754 213.492H527.809L526.036 235.94L543.899 213.492H550.041Z" fill="black"/>
<path d="M55.1722 140.23C55.1722 196.248 54.3648 195.402 110.344 195.402C54.3263 195.402 55.1722 194.595 55.1722 250.574C55.1722 194.556 55.9796 195.402 -2.41165e-06 195.402C55.9796 195.402 55.1722 196.248 55.1722 140.23Z" fill="black"/>
<path d="M596.549 140.47C596.549 196.488 595.742 195.642 651.721 195.642C595.703 195.642 596.549 194.835 596.549 250.814C596.549 194.796 597.357 195.642 541.377 195.642C597.357 195.642 596.549 196.488 596.549 140.47Z" fill="black"/>
<path d="M55.1722 73.5619C55.1722 129.58 54.3648 128.734 110.344 128.734C54.3263 128.734 55.1722 127.927 55.1722 183.906C55.1722 127.888 55.9796 128.734 -2.41165e-06 128.734C55.9796 128.734 55.1722 129.58 55.1722 73.5619Z" fill="black"/>
<path d="M596.549 73.8041C596.549 129.822 595.742 128.976 651.721 128.976C595.703 128.976 596.549 128.169 596.549 184.148C596.549 128.13 597.357 128.976 541.377 128.976C597.357 128.976 596.549 129.822 596.549 73.8041Z" fill="black"/>
<path d="M55.1722 -0.000571709C55.1722 56.0174 54.3648 55.1716 110.344 55.1716C54.3263 55.1716 55.1722 54.3642 55.1722 110.344C55.1722 54.3257 55.9796 55.1716 -2.41165e-06 55.1716C55.9796 55.1716 55.1722 56.0174 55.1722 -0.000571709Z" fill="black"/>
<path d="M596.549 0.241616C596.549 56.2596 595.742 55.4138 651.721 55.4138C595.703 55.4138 596.549 54.6064 596.549 110.586C596.549 54.5679 597.357 55.4138 541.377 55.4138C597.357 55.4138 596.549 56.2596 596.549 0.241616Z" fill="black"/>
</svg>
