<svg width="32" height="35" viewBox="0 0 32 35" fill="none" xmlns="http://www.w3.org/2000/svg">
<path d="M12.5393 27.36C10.5393 27.36 8.76926 27 7.22926 26.28C5.70926 25.56 4.51926 24.55 3.65926 23.25C2.81926 21.95 2.39926 20.46 2.39926 18.78V15.57C2.39926 13.87 2.81926 12.37 3.65926 11.07C4.51926 9.77 5.70926 8.76 7.22926 8.04C8.76926 7.32 10.5393 6.96 12.5393 6.96C14.5193 6.96 16.2693 7.32 17.7893 8.04C19.3093 8.76 20.4893 9.77 21.3293 11.07C22.1693 12.37 22.5893 13.87 22.5893 15.57V18.78C22.5893 20.48 22.1693 21.98 21.3293 23.28C20.4893 24.56 19.3093 25.56 17.7893 26.28C16.2693 27 14.5193 27.36 12.5393 27.36ZM12.5393 24.57C14.7393 24.57 16.4693 24.06 17.7293 23.04C18.9893 22.02 19.6193 20.61 19.6193 18.81V15.54C19.6193 13.76 18.9793 12.35 17.6993 11.31C16.4393 10.27 14.7093 9.75 12.5093 9.75C10.2893 9.75 8.53926 10.27 7.25926 11.31C5.99926 12.33 5.36926 13.74 5.36926 15.54V18.81C5.36926 20.61 5.99926 22.02 7.25926 23.04C8.53926 24.06 10.2993 24.57 12.5393 24.57Z" fill="white"/>
<circle cx="28.5" cy="6.5" r="3" stroke="white"/>
</svg>
