<svg width="1440" height="1356" viewBox="0 0 1440 1356" fill="none" xmlns="http://www.w3.org/2000/svg">
<rect width="83.1952" height="1777.05" transform="matrix(-0.539638 -0.841897 -0.841897 0.539638 1488.99 301.564)" fill="#4ADE80"/>
<path d="M-182.025 1314.47C-179.829 1313.05 -177.711 1312.08 -175.669 1311.56C-173.619 1311 -171.816 1310.91 -170.261 1311.3C-168.707 1311.7 -167.524 1312.52 -166.715 1313.78C-166.498 1314.11 -166.3 1314.49 -166.121 1314.92L-165.972 1315.3C-165.195 1317.24 -165.386 1319.15 -166.546 1321.05C-164.705 1321.1 -163.336 1321.81 -162.44 1323.2C-162.237 1323.52 -162.061 1323.86 -161.912 1324.24L-161.762 1324.62C-160.813 1326.93 -161.045 1329.35 -162.458 1331.88C-163.85 1334.4 -166.282 1336.78 -169.755 1339.02C-173.519 1341.45 -176.903 1342.65 -179.905 1342.61C-182.886 1342.57 -185.164 1341.33 -186.74 1338.88C-187.173 1338.21 -187.493 1337.59 -187.699 1337.03L-187.784 1336.75L-181.196 1332.5L-181.078 1332.76C-180.958 1333.09 -180.81 1333.39 -180.637 1333.66C-179.986 1334.67 -179.039 1335.11 -177.794 1334.97C-176.549 1334.83 -174.93 1334.12 -172.935 1332.83C-171.457 1331.88 -170.367 1330.99 -169.667 1330.15C-168.981 1329.3 -168.752 1328.59 -168.981 1328.04L-169.13 1327.66C-169.151 1327.58 -169.212 1327.46 -169.313 1327.31C-169.574 1326.9 -170.039 1326.82 -170.708 1327.06C-171.377 1327.31 -172.541 1327.96 -174.199 1329.03L-178.299 1331.68L-180.402 1326.13L-176.436 1323.57C-174.823 1322.53 -173.753 1321.73 -173.227 1321.17C-172.715 1320.58 -172.559 1320.04 -172.759 1319.53L-172.909 1319.15C-173.129 1318.57 -173.737 1318.39 -174.731 1318.62C-175.718 1318.81 -176.962 1319.39 -178.463 1320.36C-180.457 1321.64 -181.774 1322.92 -182.415 1324.19C-183.047 1325.43 -183.064 1326.8 -182.465 1328.32L-182.381 1328.6L-189.204 1333L-189.288 1332.72C-190.676 1329.05 -190.766 1325.71 -189.56 1322.71C-188.368 1319.69 -185.857 1316.94 -182.025 1314.47ZM-132.848 1313.15L-132.433 1314.31L-138.819 1318.44L-141.843 1315.15L-151.321 1321.27L-151.255 1326.46L-158.313 1331.01L-158.762 1329.88L-158.491 1299.9L-150.895 1295L-132.848 1313.15ZM-146.298 1310.31L-151.605 1304.6L-151.44 1313.63L-146.298 1310.31ZM-115.575 1273.64L-119.901 1290.61L-107.758 1296.96L-107.342 1298.12L-114.064 1302.46L-123.538 1297.15L-127.1 1299.45L-123.677 1308.66L-130.567 1313.11L-139.887 1287.9L-132.997 1283.45L-129.573 1292.67L-127.288 1291.19L-124.225 1277.79L-116.024 1272.5L-115.575 1273.64ZM-99.127 1261.59C-97.5361 1260.57 -95.9846 1259.95 -94.4724 1259.73C-92.9523 1259.48 -91.5677 1259.64 -90.3186 1260.19C-89.0471 1260.74 -88.0137 1261.63 -87.2185 1262.86C-86.8715 1263.4 -86.5982 1263.92 -86.3987 1264.42L-86.249 1264.8C-85.2014 1267.46 -85.1347 1269.92 -86.0489 1272.2C-86.9406 1274.45 -88.7981 1276.49 -91.6214 1278.32L-99.5869 1283.46L-96.6967 1291.25L-103.587 1295.7L-112.907 1270.49L-99.127 1261.59ZM-94.7706 1272.25C-93.3142 1271.31 -92.8426 1270.2 -93.3559 1268.91L-93.5056 1268.53C-93.5555 1268.41 -93.6383 1268.26 -93.7539 1268.08C-94.3323 1267.18 -95.2376 1267.13 -96.47 1267.92L-103.595 1272.52L-102.03 1276.94L-94.7706 1272.25ZM-79.5623 1248.97L-76.6938 1256.73L-71.5515 1253.42C-69.0867 1251.83 -66.7838 1251.16 -64.6428 1251.43C-62.4938 1251.66 -60.7975 1252.74 -59.5541 1254.67C-59.1926 1255.23 -58.8694 1255.88 -58.5846 1256.62L-58.4035 1257.12C-57.4202 1259.63 -57.3697 1261.94 -58.2521 1264.07C-59.1345 1266.19 -60.9874 1268.16 -63.8106 1269.99L-77.1201 1278.57L-86.4524 1253.41L-79.5623 1248.97ZM-56.5395 1234.11L-47.2192 1259.33L-54.1092 1263.77L-63.4295 1238.56L-56.5395 1234.11ZM-66.9717 1263.98C-66.2099 1263.49 -65.7253 1262.99 -65.5179 1262.47C-65.2881 1261.94 -65.2939 1261.34 -65.5354 1260.67L-65.7067 1260.26C-65.8065 1260.01 -65.8853 1259.84 -65.9431 1259.75C-66.2323 1259.3 -66.6172 1259.07 -67.0979 1259.06C-67.5707 1259.02 -68.1207 1259.2 -68.7481 1259.6L-74.2601 1263.16L-72.6854 1267.67L-66.9717 1263.98ZM-51.5108 1239.2L-53.9954 1232.47L-31.7792 1218.14L-29.2946 1224.86L-36.7896 1229.7L-29.9875 1248.21L-36.8776 1252.65L-43.6796 1234.15L-51.5108 1239.2ZM-6.34299 1233.57C-8.89735 1235.22 -11.4055 1236.25 -13.8674 1236.66C-16.3294 1237.08 -18.5713 1236.87 -20.5931 1236.05C-22.615 1235.23 -24.2476 1233.86 -25.4911 1231.93C-25.9827 1231.17 -26.3814 1230.38 -26.6872 1229.56L-26.762 1229.37C-28.2731 1225.55 -28.3851 1221.91 -27.098 1218.45C-25.811 1214.98 -23.2293 1212 -19.3529 1209.5C-16.7986 1207.85 -14.2904 1206.82 -11.8285 1206.4C-9.36652 1205.99 -7.14306 1206.19 -5.15808 1207C-3.1507 1207.8 -1.52528 1209.16 -0.28183 1211.09C0.238683 1211.9 0.651855 1212.71 0.957686 1213.53L1.03252 1213.72C2.58045 1217.54 2.71088 1221.19 1.42381 1224.65C0.144698 1228.08 -2.44424 1231.05 -6.34299 1233.57ZM-10.043 1227.24C-5.96502 1224.61 -4.62371 1221.48 -6.01911 1217.84L-6.19045 1217.43C-6.34663 1216.99 -6.56207 1216.56 -6.83678 1216.13C-7.68985 1214.81 -8.89994 1214.11 -10.467 1214.05C-12.0342 1213.98 -13.8036 1214.58 -15.7754 1215.85C-19.7414 1218.41 -21.0458 1221.56 -19.6887 1225.28L-19.5174 1225.69C-19.3113 1226.26 -19.0926 1226.72 -18.8613 1227.08C-18.0227 1228.38 -16.8382 1229.06 -15.308 1229.12C-13.7698 1229.14 -12.0148 1228.52 -10.043 1227.24ZM23.3433 1181.95C25.5391 1180.53 27.658 1179.56 29.7 1179.03C31.7499 1178.47 33.5523 1178.39 35.1072 1178.78C36.662 1179.18 37.8443 1180 38.654 1181.25C38.8708 1181.59 39.0686 1181.97 39.2472 1182.39L39.3968 1182.77C40.174 1184.72 39.9827 1186.63 38.8227 1188.52C40.6637 1188.57 42.0325 1189.29 42.9289 1190.68C43.1313 1191 43.3074 1191.34 43.4571 1191.72L43.6067 1192.1C44.556 1194.41 44.3238 1196.83 42.9102 1199.36C41.5189 1201.88 39.0868 1204.25 35.6138 1206.49C31.8495 1208.92 28.466 1210.12 25.4633 1210.09C22.4831 1210.05 20.2049 1208.81 18.6289 1206.36C18.1952 1205.69 17.8753 1205.07 17.6692 1204.51L17.5846 1204.23L24.1722 1199.98L24.2904 1200.23C24.4111 1200.57 24.5582 1200.87 24.7317 1201.14C25.3824 1202.15 26.3301 1202.58 27.5748 1202.45C28.8195 1202.31 30.4389 1201.6 32.4331 1200.31C33.912 1199.36 35.0015 1198.46 35.7019 1197.63C36.3878 1196.78 36.6165 1196.07 36.388 1195.52L36.2384 1195.14C36.2174 1195.06 36.1563 1194.94 36.0551 1194.78C35.7949 1194.38 35.3301 1194.3 34.6607 1194.54C33.9914 1194.78 32.8277 1195.44 31.1696 1196.51L27.0692 1199.16L24.9664 1193.61L28.9323 1191.05C30.5456 1190.01 31.6153 1189.21 32.1415 1188.65C32.6532 1188.06 32.8093 1187.52 32.6098 1187.01L32.4601 1186.63C32.2396 1186.04 31.632 1185.86 30.6374 1186.09C29.6508 1186.29 28.4068 1186.87 26.9056 1187.84C24.9114 1189.12 23.5941 1190.4 22.9538 1191.67C22.3214 1192.9 22.3046 1194.28 22.9032 1195.8L22.9878 1196.08L16.165 1200.48L16.0804 1200.2C14.6929 1196.53 14.6023 1193.19 15.8084 1190.19C17.0001 1187.17 19.5117 1184.42 23.3433 1181.95ZM72.5202 1180.63L72.9356 1181.79L66.5497 1185.91L63.5254 1182.63L54.0474 1188.74L54.114 1193.94L47.0559 1198.49L46.6069 1197.35L46.8775 1167.38L54.4734 1162.48L72.5202 1180.63ZM59.0709 1177.79L53.764 1172.08L53.9286 1181.11L59.0709 1177.79ZM89.7937 1141.11L85.468 1158.09L97.6111 1164.44L98.0265 1165.6L91.3045 1169.94L81.8309 1164.63L78.2682 1166.93L81.692 1176.14L74.802 1180.59L65.4817 1155.37L72.3717 1150.93L75.7955 1160.14L78.081 1158.67L81.1439 1145.27L89.3448 1139.98L89.7937 1141.11ZM106.242 1129.07C107.833 1128.05 109.384 1127.43 110.896 1127.21C112.416 1126.96 113.801 1127.11 115.05 1127.67C116.322 1128.22 117.355 1129.11 118.15 1130.34C118.497 1130.88 118.77 1131.4 118.97 1131.9L119.12 1132.28C120.167 1134.94 120.234 1137.4 119.32 1139.67C118.428 1141.93 116.57 1143.97 113.747 1145.79L105.782 1150.93L108.672 1158.73L101.782 1163.18L92.4616 1137.96L106.242 1129.07ZM110.598 1139.73C112.054 1138.79 112.526 1137.68 112.013 1136.39L111.863 1136.01C111.813 1135.89 111.73 1135.73 111.615 1135.55C111.036 1134.66 110.131 1134.61 108.899 1135.4L101.773 1140L103.338 1144.42L110.598 1139.73ZM125.806 1116.45L128.675 1124.21L133.817 1120.89C136.282 1119.3 138.585 1118.64 140.726 1118.91C142.875 1119.14 144.571 1120.22 145.815 1122.15C146.176 1122.71 146.499 1123.36 146.784 1124.09L146.965 1124.6C147.948 1127.1 147.999 1129.42 147.116 1131.54C146.234 1133.67 144.381 1135.64 141.558 1137.46L128.248 1146.05L118.916 1120.89L125.806 1116.45ZM148.829 1101.59L158.149 1126.81L151.259 1131.25L141.939 1106.04L148.829 1101.59ZM138.397 1131.46C139.159 1130.97 139.643 1130.46 139.851 1129.95C140.081 1129.42 140.075 1128.82 139.833 1128.15L139.662 1127.74C139.562 1127.49 139.483 1127.31 139.425 1127.22C139.136 1126.78 138.751 1126.55 138.271 1126.54C137.798 1126.5 137.248 1126.68 136.621 1127.08L131.108 1130.64L132.683 1135.15L138.397 1131.46ZM153.858 1106.68L151.373 1099.95L173.589 1085.61L176.074 1092.34L168.579 1097.18L175.381 1115.69L168.491 1120.13L161.689 1101.62L153.858 1106.68ZM199.026 1101.05C196.471 1102.7 193.963 1103.73 191.501 1104.14C189.039 1104.56 186.797 1104.35 184.775 1103.53C182.754 1102.71 181.121 1101.33 179.878 1099.41C179.386 1098.65 178.987 1097.86 178.681 1097.04L178.607 1096.85C177.096 1093.03 176.984 1089.39 178.271 1085.93C179.558 1082.46 182.139 1079.48 186.016 1076.98C188.57 1075.33 191.078 1074.3 193.54 1073.88C196.002 1073.47 198.226 1073.67 200.211 1074.48C202.218 1075.28 203.843 1076.64 205.087 1078.57C205.607 1079.38 206.02 1080.19 206.326 1081.01L206.401 1081.2C207.949 1085.02 208.079 1088.67 206.792 1092.13C205.513 1095.56 202.924 1098.53 199.026 1101.05ZM195.326 1094.72C199.404 1092.09 200.745 1088.96 199.35 1085.32L199.178 1084.91C199.022 1084.47 198.807 1084.04 198.532 1083.61C197.679 1082.29 196.469 1081.59 194.902 1081.52C193.334 1081.46 191.565 1082.06 189.593 1083.33C185.627 1085.89 184.323 1089.03 185.68 1092.76L185.851 1093.17C186.057 1093.74 186.276 1094.2 186.507 1094.56C187.346 1095.86 188.53 1096.54 190.061 1096.6C191.599 1096.62 193.354 1096 195.326 1094.72ZM228.712 1049.42C230.908 1048.01 233.027 1047.04 235.069 1046.51C237.119 1045.95 238.921 1045.87 240.476 1046.26C242.031 1046.65 243.213 1047.48 244.023 1048.73C244.239 1049.07 244.437 1049.45 244.616 1049.87L244.765 1050.25C245.543 1052.2 245.351 1054.11 244.191 1056C246.032 1056.05 247.401 1056.77 248.298 1058.16C248.5 1058.47 248.676 1058.82 248.826 1059.2L248.975 1059.58C249.925 1061.89 249.692 1064.31 248.279 1066.84C246.888 1069.35 244.455 1071.73 240.982 1073.97C237.218 1076.4 233.835 1077.6 230.832 1077.57C227.852 1077.53 225.574 1076.28 223.998 1073.84C223.564 1073.17 223.244 1072.55 223.038 1071.99L222.953 1071.71L229.541 1067.46L229.659 1067.71C229.78 1068.05 229.927 1068.35 230.1 1068.62C230.751 1069.63 231.699 1070.06 232.943 1069.93C234.188 1069.79 235.808 1069.08 237.802 1067.79C239.281 1066.84 240.37 1065.94 241.071 1065.11C241.756 1064.25 241.985 1063.55 241.757 1063L241.607 1062.62C241.586 1062.54 241.525 1062.42 241.424 1062.26C241.163 1061.86 240.699 1061.78 240.029 1062.02C239.36 1062.26 238.196 1062.92 236.538 1063.99L232.438 1066.63L230.335 1061.09L234.301 1058.53C235.914 1057.49 236.984 1056.69 237.51 1056.12C238.022 1055.54 238.178 1055 237.978 1054.49L237.829 1054.11C237.608 1053.52 237.001 1053.34 236.006 1053.57C235.019 1053.76 233.775 1054.35 232.274 1055.31C230.28 1056.6 228.963 1057.88 228.322 1059.15C227.69 1060.38 227.673 1061.76 228.272 1063.28L228.356 1063.55L221.534 1067.96L221.449 1067.68C220.062 1064 219.971 1060.67 221.177 1057.67C222.369 1054.64 224.88 1051.9 228.712 1049.42ZM277.889 1048.11L278.304 1049.27L271.918 1053.39L268.894 1050.11L259.416 1056.22L259.483 1061.42L252.425 1065.97L251.976 1064.83L252.246 1034.86L259.842 1029.96L277.889 1048.11ZM264.439 1045.27L259.133 1039.55L259.297 1048.59L264.439 1045.27ZM295.162 1008.59L290.837 1025.57L302.98 1031.92L303.395 1033.08L296.673 1037.42L287.199 1032.11L283.637 1034.4L287.061 1043.62L280.171 1048.07L270.85 1022.85L277.74 1018.41L281.164 1027.62L283.45 1026.15L286.513 1012.75L294.713 1007.45L295.162 1008.59ZM311.61 996.55C313.201 995.524 314.753 994.904 316.265 994.689C317.785 994.439 319.169 994.592 320.419 995.151C321.69 995.695 322.723 996.583 323.519 997.816C323.866 998.354 324.139 998.875 324.339 999.381L324.488 999.761C325.536 1002.42 325.603 1004.88 324.688 1007.15C323.797 1009.41 321.939 1011.45 319.116 1013.27L311.15 1018.41L314.041 1026.21L307.15 1030.66L297.83 1005.44L311.61 996.55ZM315.967 1007.21C317.423 1006.27 317.895 1005.16 317.381 1003.87L317.232 1003.49C317.182 1003.36 317.099 1003.21 316.983 1003.03C316.405 1002.14 315.5 1002.09 314.267 1002.88L307.142 1007.48L308.707 1011.9L315.967 1007.21ZM331.175 983.926L334.043 991.691L339.186 988.373C341.651 986.782 343.953 986.121 346.094 986.39C348.243 986.622 349.94 987.701 351.183 989.628C351.545 990.188 351.868 990.837 352.153 991.573L352.334 992.075C353.317 994.583 353.367 996.899 352.485 999.023C351.603 1001.15 349.75 1003.12 346.927 1004.94L333.617 1013.53L324.285 988.372L331.175 983.926ZM354.198 969.069L363.518 994.284L356.628 998.73L347.308 973.515L354.198 969.069ZM343.766 998.937C344.527 998.446 345.012 997.942 345.219 997.428C345.449 996.899 345.443 996.299 345.202 995.63L345.031 995.217C344.931 994.964 344.852 994.793 344.794 994.703C344.505 994.255 344.12 994.027 343.639 994.02C343.167 993.976 342.617 994.156 341.989 994.561L336.477 998.118L338.052 1002.62L343.766 998.937ZM359.226 974.155L356.742 967.428L378.958 953.092L381.443 959.819L373.948 964.656L380.75 983.165L373.86 987.611L367.058 969.102L359.226 974.155ZM404.394 968.526C401.84 970.174 399.332 971.206 396.87 971.62C394.408 972.034 392.166 971.831 390.144 971.009C388.122 970.187 386.49 968.813 385.246 966.886C384.755 966.124 384.356 965.334 384.05 964.516L383.975 964.326C382.464 960.509 382.352 956.868 383.639 953.404C384.926 949.939 387.508 946.956 391.384 944.454C393.939 942.806 396.447 941.775 398.909 941.36C401.371 940.946 403.594 941.146 405.579 941.959C407.587 942.759 409.212 944.122 410.455 946.049C410.976 946.855 411.389 947.668 411.695 948.486L411.77 948.676C413.318 952.501 413.448 956.146 412.161 959.611C410.882 963.038 408.293 966.01 404.394 968.526ZM400.694 962.202C404.772 959.57 406.114 956.436 404.718 952.798L404.547 952.385C404.391 951.946 404.175 951.514 403.9 951.088C403.047 949.766 401.837 949.071 400.27 949.003C398.703 948.935 396.934 949.538 394.962 950.81C390.996 953.369 389.691 956.512 391.049 960.238L391.22 960.651C391.426 961.216 391.645 961.678 391.876 962.037C392.715 963.336 393.899 964.016 395.429 964.076C396.967 964.099 398.722 963.474 400.694 962.202ZM434.081 916.903C436.276 915.486 438.395 914.516 440.437 913.991C442.487 913.43 444.29 913.346 445.844 913.739C447.399 914.132 448.582 914.956 449.391 916.211C449.608 916.547 449.806 916.927 449.984 917.352L450.134 917.731C450.911 919.673 450.72 921.59 449.56 923.481C451.401 923.531 452.77 924.25 453.666 925.639C453.869 925.953 454.045 926.3 454.194 926.679L454.344 927.059C455.293 929.366 455.061 931.785 453.647 934.316C452.256 936.832 449.824 939.211 446.351 941.452C442.587 943.881 439.203 945.08 436.201 945.05C433.22 945.006 430.942 943.762 429.366 941.32C428.932 940.648 428.612 940.029 428.406 939.464L428.322 939.185L434.909 934.934L435.028 935.191C435.148 935.526 435.295 935.828 435.469 936.097C436.12 937.105 437.067 937.541 438.312 937.404C439.557 937.267 441.176 936.555 443.17 935.269C444.649 934.314 445.739 933.421 446.439 932.588C447.125 931.733 447.354 931.03 447.125 930.479L446.976 930.1C446.955 930.018 446.894 929.899 446.792 929.742C446.532 929.339 446.067 929.258 445.398 929.499C444.729 929.741 443.565 930.396 441.907 931.466L437.806 934.112L435.704 928.566L439.67 926.007C441.283 924.966 442.353 924.165 442.879 923.603C443.39 923.019 443.547 922.474 443.347 921.968L443.197 921.589C442.977 921.001 442.369 920.822 441.375 921.051C440.388 921.243 439.144 921.824 437.643 922.793C435.649 924.079 434.331 925.358 433.691 926.628C433.059 927.861 433.042 929.237 433.64 930.755L433.725 931.033L426.902 935.436L426.818 935.157C425.43 931.482 425.34 928.145 426.546 925.145C427.737 922.123 430.249 919.376 434.081 916.903ZM483.257 915.59L483.673 916.75L477.287 920.87L474.263 917.585L464.785 923.701L464.851 928.895L457.793 933.449L457.344 932.311L457.615 902.336L465.211 897.434L483.257 915.59ZM469.808 912.748L464.501 907.032L464.666 916.066L469.808 912.748ZM500.531 876.071L496.205 893.048L508.348 899.399L508.764 900.559L502.042 904.896L492.568 899.584L489.005 901.883L492.429 911.099L485.539 915.545L476.219 890.331L483.109 885.885L486.533 895.101L488.818 893.626L491.881 880.224L500.082 874.932L500.531 876.071ZM516.979 864.029C518.57 863.002 520.121 862.382 521.633 862.168C523.153 861.917 524.538 862.071 525.787 862.629C527.059 863.174 528.092 864.062 528.887 865.294C529.234 865.832 529.508 866.354 529.707 866.86L529.857 867.239C530.904 869.896 530.971 872.36 530.057 874.632C529.165 876.889 527.308 878.929 524.484 880.751L516.519 885.891L519.409 893.69L512.519 898.136L503.199 872.921L516.979 864.029ZM521.335 874.69C522.792 873.75 523.263 872.637 522.75 871.349L522.6 870.97C522.55 870.843 522.468 870.69 522.352 870.511C521.774 869.615 520.868 869.564 519.636 870.36L512.511 874.957L514.075 879.375L521.335 874.69ZM536.544 851.404L539.412 859.169L544.554 855.851C547.019 854.261 549.322 853.6 551.463 853.868C553.612 854.1 555.308 855.18 556.552 857.107C556.913 857.667 557.236 858.315 557.521 859.052L557.702 859.554C558.686 862.061 558.736 864.377 557.854 866.502C556.971 868.626 555.118 870.599 552.295 872.421L538.986 881.009L529.653 855.85L536.544 851.404ZM559.566 836.548L568.887 861.762L561.997 866.208L552.676 840.994L559.566 836.548ZM549.134 866.416C549.896 865.924 550.381 865.421 550.588 864.906C550.818 864.377 550.812 863.778 550.57 863.108L550.399 862.695C550.299 862.442 550.221 862.271 550.163 862.181C549.874 861.733 549.489 861.506 549.008 861.498C548.535 861.454 547.985 861.635 547.358 862.04L541.846 865.596L543.42 870.103L549.134 866.416ZM564.595 841.634L562.11 834.906L584.327 820.57L586.811 827.298L579.316 832.134L586.118 850.643L579.228 855.089L572.426 836.58L564.595 841.634ZM609.763 836.004C607.208 837.653 604.7 838.684 602.238 839.098C599.776 839.513 597.535 839.309 595.513 838.487C593.491 837.666 591.858 836.291 590.615 834.364C590.123 833.603 589.724 832.813 589.419 831.994L589.344 831.805C587.833 827.988 587.721 824.347 589.008 820.882C590.295 817.417 592.877 814.434 596.753 811.933C599.307 810.285 601.815 809.253 604.277 808.839C606.739 808.424 608.963 808.624 610.948 809.438C612.955 810.237 614.581 811.6 615.824 813.527C616.345 814.334 616.758 815.146 617.064 815.965L617.138 816.154C618.686 819.979 618.817 823.624 617.53 827.089C616.251 830.517 613.662 833.489 609.763 836.004ZM606.063 829.68C610.141 827.049 611.482 823.914 610.087 820.276L609.915 819.863C609.759 819.424 609.544 818.992 609.269 818.566C608.416 817.244 607.206 816.549 605.639 816.482C604.072 816.414 602.302 817.016 600.33 818.288C596.364 820.848 595.06 823.99 596.417 827.716L596.588 828.13C596.795 828.695 597.013 829.157 597.245 829.515C598.083 830.815 599.268 831.494 600.798 831.554C602.336 831.577 604.091 830.953 606.063 829.68ZM639.449 784.382C641.645 782.965 643.764 781.994 645.806 781.47C647.856 780.909 649.658 780.825 651.213 781.218C652.768 781.611 653.95 782.435 654.76 783.69C654.977 784.026 655.174 784.406 655.353 784.83L655.503 785.21C656.28 787.152 656.088 789.068 654.929 790.96C656.77 791.009 658.138 791.729 659.035 793.118C659.237 793.432 659.413 793.778 659.563 794.158L659.713 794.537C660.662 796.844 660.43 799.263 659.016 801.794C657.625 804.31 655.193 806.689 651.72 808.93C647.955 811.359 644.572 812.559 641.569 812.529C638.589 812.484 636.311 811.241 634.735 808.798C634.301 808.126 633.981 807.507 633.775 806.942L633.69 806.664L640.278 802.413L640.396 802.67C640.517 803.004 640.664 803.306 640.838 803.575C641.488 804.583 642.436 805.019 643.681 804.882C644.925 804.746 646.545 804.034 648.539 802.747C650.018 801.793 651.107 800.899 651.808 800.066C652.494 799.211 652.722 798.508 652.494 797.958L652.344 797.578C652.323 797.496 652.262 797.377 652.161 797.22C651.901 796.817 651.436 796.736 650.767 796.977C650.097 797.219 648.934 797.875 647.275 798.945L643.175 801.591L641.072 796.045L645.038 793.486C646.651 792.445 647.721 791.643 648.247 791.082C648.759 790.497 648.915 789.952 648.716 789.446L648.566 789.067C648.345 788.479 647.738 788.3 646.743 788.529C645.757 788.722 644.513 789.302 643.011 790.271C641.017 791.558 639.7 792.836 639.06 794.106C638.427 795.34 638.41 796.715 639.009 798.233L639.094 798.512L632.271 802.914L632.186 802.636C630.799 798.961 630.708 795.624 631.914 792.624C633.106 789.601 635.618 786.854 639.449 784.382ZM688.626 783.068L689.041 784.228L682.656 788.349L679.631 785.064L670.153 791.18L670.22 796.373L663.162 800.928L662.713 799.789L662.983 769.814L670.579 764.913L688.626 783.068ZM675.177 780.226L669.87 774.511L670.034 783.545L675.177 780.226ZM705.9 743.549L701.574 760.527L713.717 766.877L714.132 768.037L707.41 772.375L697.937 767.063L694.374 769.362L697.798 778.578L690.908 783.024L681.588 757.809L688.478 753.363L691.901 762.579L694.187 761.104L697.25 747.703L705.451 742.411L705.9 743.549ZM722.347 731.507C723.938 730.481 725.49 729.86 727.002 729.646C728.522 729.395 729.907 729.549 731.156 730.108C732.427 730.652 733.461 731.54 734.256 732.773C734.603 733.31 734.876 733.832 735.076 734.338L735.225 734.718C736.273 737.374 736.34 739.838 735.426 742.11C734.534 744.368 732.676 746.407 729.853 748.229L721.888 753.369L724.778 761.168L717.888 765.614L708.567 740.399L722.347 731.507ZM726.704 742.168C728.16 741.229 728.632 740.115 728.119 738.828L727.969 738.448C727.919 738.322 727.836 738.169 727.721 737.99C727.142 737.093 726.237 737.043 725.004 737.838L717.879 742.436L719.444 746.853L726.704 742.168ZM741.912 718.883L744.781 726.648L749.923 723.329C752.388 721.739 754.691 721.078 756.832 721.347C758.981 721.579 760.677 722.658 761.92 724.585C762.282 725.145 762.605 725.794 762.89 726.53L763.071 727.032C764.054 729.539 764.105 731.855 763.222 733.98C762.34 736.104 760.487 738.078 757.664 739.899L744.354 748.488L735.022 723.329L741.912 718.883ZM764.935 704.026L774.255 729.241L767.365 733.687L758.045 708.472L764.935 704.026ZM754.503 733.894C755.265 733.402 755.749 732.899 755.957 732.385C756.186 731.855 756.181 731.256 755.939 730.587L755.768 730.174C755.668 729.921 755.589 729.75 755.531 729.66C755.242 729.212 754.857 728.984 754.377 728.977C753.904 728.933 753.354 729.113 752.726 729.518L747.214 733.075L748.789 737.581L754.503 733.894ZM769.964 709.112L767.479 702.385L789.695 688.049L792.18 694.776L784.685 699.613L791.487 718.121L784.597 722.567L777.795 704.059L769.964 709.112ZM815.131 703.483C812.577 705.131 810.069 706.162 807.607 706.577C805.145 706.991 802.903 706.788 800.881 705.966C798.859 705.144 797.227 703.77 795.983 701.843C795.492 701.081 795.093 700.291 794.787 699.473L794.712 699.283C793.201 695.466 793.089 691.825 794.376 688.36C795.663 684.896 798.245 681.913 802.122 679.411C804.676 677.763 807.184 676.732 809.646 676.317C812.108 675.903 814.331 676.103 816.316 676.916C818.324 677.716 819.949 679.079 821.193 681.006C821.713 681.812 822.126 682.625 822.432 683.443L822.507 683.633C824.055 687.458 824.185 691.103 822.898 694.567C821.619 697.995 819.03 700.967 815.131 703.483ZM811.431 697.159C815.509 694.527 816.851 691.392 815.455 687.755L815.284 687.341C815.128 686.903 814.912 686.471 814.638 686.045C813.785 684.723 812.575 684.028 811.007 683.96C809.44 683.892 807.671 684.495 805.699 685.767C801.733 688.326 800.429 691.469 801.786 695.195L801.957 695.608C802.163 696.173 802.382 696.635 802.613 696.994C803.452 698.293 804.636 698.973 806.166 699.033C807.705 699.056 809.46 698.431 811.431 697.159ZM844.818 651.86C847.014 650.443 849.132 649.473 851.174 648.948C853.224 648.387 855.027 648.303 856.582 648.696C858.136 649.089 859.319 649.913 860.128 651.168C860.345 651.504 860.543 651.884 860.722 652.309L860.871 652.688C861.648 654.63 861.457 656.547 860.297 658.438C862.138 658.488 863.507 659.207 864.403 660.596C864.606 660.91 864.782 661.257 864.932 661.636L865.081 662.016C866.03 664.323 865.798 666.742 864.385 669.273C862.993 671.789 860.561 674.168 857.088 676.409C853.324 678.838 849.94 680.037 846.938 680.007C843.958 679.963 841.679 678.719 840.103 676.277C839.67 675.605 839.35 674.986 839.144 674.421L839.059 674.142L845.647 669.891L845.765 670.148C845.886 670.483 846.033 670.785 846.206 671.053C846.857 672.062 847.805 672.497 849.049 672.361C850.294 672.224 851.913 671.512 853.908 670.225C855.386 669.271 856.476 668.378 857.176 667.545C857.862 666.69 858.091 665.987 857.863 665.436L857.713 665.056C857.692 664.975 857.631 664.856 857.53 664.699C857.269 664.295 856.805 664.214 856.135 664.456C855.466 664.697 854.302 665.353 852.644 666.423L848.544 669.069L846.441 663.523L850.407 660.964C852.02 659.923 853.09 659.122 853.616 658.56C854.128 657.976 854.284 657.431 854.084 656.925L853.935 656.545C853.714 655.958 853.106 655.779 852.112 656.008C851.125 656.2 849.881 656.781 848.38 657.749C846.386 659.036 845.069 660.315 844.428 661.585C843.796 662.818 843.779 664.194 844.378 665.711L844.462 665.99L837.639 670.393L837.555 670.114C836.167 666.439 836.077 663.102 837.283 660.102C838.475 657.08 840.986 654.333 844.818 651.86ZM893.995 650.546L894.41 651.707L888.024 655.827L885 652.542L875.522 658.658L875.588 663.852L868.53 668.406L868.081 667.268L868.352 637.293L875.948 632.391L893.995 650.546ZM880.545 647.705L875.238 641.989L875.403 651.023L880.545 647.705ZM911.268 611.027L906.942 628.005L919.086 634.356L919.501 635.516L912.779 639.853L903.305 634.541L899.743 636.84L903.166 646.056L896.276 650.502L886.956 625.288L893.846 620.842L897.27 630.057L899.555 628.583L902.618 615.181L910.819 609.889L911.268 611.027ZM927.716 598.986C929.307 597.959 930.858 597.339 932.371 597.125C933.891 596.874 935.275 597.028 936.524 597.586C937.796 598.13 938.829 599.019 939.625 600.251C939.972 600.789 940.245 601.311 940.444 601.817L940.594 602.196C941.642 604.853 941.708 607.317 940.794 609.589C939.902 611.846 938.045 613.886 935.222 615.708L927.256 620.848L930.146 628.646L923.256 633.092L913.936 607.878L927.716 598.986ZM932.072 609.647C933.529 608.707 934 607.593 933.487 606.306L933.337 605.927C933.288 605.8 933.205 605.647 933.089 605.468C932.511 604.572 931.605 604.521 930.373 605.316L923.248 609.914L924.813 614.331L932.072 609.647ZM947.281 586.361L950.149 594.126L955.292 590.808C957.756 589.217 960.059 588.557 962.2 588.825C964.349 589.057 966.046 590.136 967.289 592.063C967.65 592.624 967.974 593.272 968.258 594.008L968.44 594.51C969.423 597.018 969.473 599.334 968.591 601.458C967.709 603.583 965.856 605.556 963.032 607.378L949.723 615.966L940.391 590.807L947.281 586.361ZM970.304 571.505L979.624 596.719L972.734 601.165L963.414 575.951L970.304 571.505ZM959.871 601.372C960.633 600.881 961.118 600.378 961.325 599.863C961.555 599.334 961.549 598.735 961.308 598.065L961.136 597.652C961.037 597.399 960.958 597.228 960.9 597.138C960.611 596.69 960.226 596.463 959.745 596.455C959.272 596.411 958.722 596.592 958.095 596.997L952.583 600.553L954.158 605.059L959.871 601.372ZM975.332 576.591L972.848 569.863L995.064 555.527L997.548 562.255L990.053 567.091L996.856 585.6L989.965 590.046L983.163 571.537L975.332 576.591ZM1020.5 570.961C1017.95 572.61 1015.44 573.641 1012.98 574.055C1010.51 574.47 1008.27 574.266 1006.25 573.444C1004.23 572.623 1002.6 571.248 1001.35 569.321C1000.86 568.56 1000.46 567.769 1000.16 566.951L1000.08 566.762C998.57 562.944 998.458 559.303 999.745 555.839C1001.03 552.374 1003.61 549.391 1007.49 546.89C1010.04 545.241 1012.55 544.21 1015.01 543.796C1017.48 543.381 1019.7 543.581 1021.68 544.395C1023.69 545.194 1025.32 546.557 1026.56 548.484C1027.08 549.291 1027.49 550.103 1027.8 550.921L1027.88 551.111C1029.42 554.936 1029.55 558.581 1028.27 562.046C1026.99 565.474 1024.4 568.445 1020.5 570.961ZM1016.8 564.637C1020.88 562.006 1022.22 558.871 1020.82 555.233L1020.65 554.82C1020.5 554.381 1020.28 553.949 1020.01 553.523C1019.15 552.201 1017.94 551.506 1016.38 551.439C1014.81 551.371 1013.04 551.973 1011.07 553.245C1007.1 555.805 1005.8 558.947 1007.15 562.673L1007.33 563.086C1007.53 563.652 1007.75 564.113 1007.98 564.472C1008.82 565.772 1010 566.451 1011.54 566.511C1013.07 566.534 1014.83 565.909 1016.8 564.637ZM1050.19 519.338C1052.38 517.922 1054.5 516.951 1056.54 516.427C1058.59 515.866 1060.4 515.782 1061.95 516.175C1063.51 516.568 1064.69 517.392 1065.5 518.646C1065.71 518.983 1065.91 519.363 1066.09 519.787L1066.24 520.167C1067.02 522.109 1066.83 524.025 1065.67 525.916C1067.51 525.966 1068.88 526.686 1069.77 528.075C1069.97 528.388 1070.15 528.735 1070.3 529.115L1070.45 529.494C1071.4 531.801 1071.17 534.22 1069.75 536.751C1068.36 539.267 1065.93 541.646 1062.46 543.887C1058.69 546.316 1055.31 547.516 1052.31 547.486C1049.33 547.441 1047.05 546.198 1045.47 543.755C1045.04 543.083 1044.72 542.464 1044.51 541.899L1044.43 541.62L1051.02 537.37L1051.13 537.627C1051.25 537.961 1051.4 538.263 1051.57 538.532C1052.23 539.54 1053.17 539.976 1054.42 539.839C1055.66 539.702 1057.28 538.991 1059.28 537.704C1060.76 536.75 1061.84 535.856 1062.54 535.023C1063.23 534.168 1063.46 533.465 1063.23 532.914L1063.08 532.535C1063.06 532.453 1063 532.334 1062.9 532.177C1062.64 531.774 1062.17 531.693 1061.5 531.934C1060.83 532.176 1059.67 532.832 1058.01 533.901L1053.91 536.547L1051.81 531.002L1055.78 528.442C1057.39 527.401 1058.46 526.6 1058.98 526.038C1059.5 525.454 1059.65 524.909 1059.45 524.403L1059.3 524.024C1059.08 523.436 1058.48 523.257 1057.48 523.486C1056.49 523.679 1055.25 524.259 1053.75 525.228C1051.75 526.515 1050.44 527.793 1049.8 529.063C1049.16 530.296 1049.15 531.672 1049.75 533.19L1049.83 533.469L1043.01 537.871L1042.92 537.593C1041.54 533.918 1041.45 530.58 1042.65 527.581C1043.84 524.558 1046.35 521.811 1050.19 519.338ZM1099.36 518.025L1099.78 519.185L1093.39 523.306L1090.37 520.021L1080.89 526.137L1080.96 531.33L1073.9 535.885L1073.45 534.746L1073.72 504.771L1081.32 499.87L1099.36 518.025ZM1085.91 515.183L1080.61 509.467L1080.77 518.501L1085.91 515.183ZM1116.64 478.506L1112.31 495.484L1124.45 501.834L1124.87 502.994L1118.15 507.332L1108.67 502.02L1105.11 504.319L1108.54 513.535L1101.65 517.981L1092.32 492.766L1099.21 488.32L1102.64 497.536L1104.92 496.061L1107.99 482.659L1116.19 477.368L1116.64 478.506ZM1133.08 466.464C1134.68 465.438 1136.23 464.817 1137.74 464.603C1139.26 464.352 1140.64 464.506 1141.89 465.065C1143.16 465.609 1144.2 466.497 1144.99 467.73C1145.34 468.267 1145.61 468.789 1145.81 469.295L1145.96 469.675C1147.01 472.331 1147.08 474.795 1146.16 477.067C1145.27 479.325 1143.41 481.364 1140.59 483.186L1132.62 488.326L1135.51 496.125L1128.62 500.571L1119.3 475.356L1133.08 466.464ZM1137.44 477.125C1138.9 476.185 1139.37 475.072 1138.86 473.785L1138.71 473.405C1138.66 473.279 1138.57 473.126 1138.46 472.946C1137.88 472.05 1136.97 472 1135.74 472.795L1128.62 477.393L1130.18 481.81L1137.44 477.125ZM1152.65 453.839L1155.52 461.605L1160.66 458.286C1163.12 456.696 1165.43 456.035 1167.57 456.304C1169.72 456.535 1171.41 457.615 1172.66 459.542C1173.02 460.102 1173.34 460.75 1173.63 461.487L1173.81 461.989C1174.79 464.496 1174.84 466.812 1173.96 468.937C1173.08 471.061 1171.22 473.034 1168.4 474.856L1155.09 483.445L1145.76 458.285L1152.65 453.839ZM1175.67 438.983L1184.99 464.198L1178.1 468.644L1168.78 443.429L1175.67 438.983ZM1165.24 468.851C1166 468.359 1166.49 467.856 1166.69 467.341C1166.92 466.812 1166.92 466.213 1166.68 465.544L1166.5 465.131C1166.41 464.878 1166.33 464.706 1166.27 464.617C1165.98 464.169 1165.59 463.941 1165.11 463.934C1164.64 463.89 1164.09 464.07 1163.46 464.475L1157.95 468.032L1159.53 472.538L1165.24 468.851ZM1180.7 444.069L1178.22 437.341L1200.43 423.006L1202.92 429.733L1195.42 434.57L1202.22 453.078L1195.33 457.524L1188.53 439.016L1180.7 444.069ZM1225.87 438.44C1223.31 440.088 1220.81 441.119 1218.34 441.534C1215.88 441.948 1213.64 441.744 1211.62 440.923C1209.6 440.101 1207.96 438.727 1206.72 436.8C1206.23 436.038 1205.83 435.248 1205.52 434.43L1205.45 434.24C1203.94 430.423 1203.83 426.782 1205.11 423.317C1206.4 419.853 1208.98 416.87 1212.86 414.368C1215.41 412.72 1217.92 411.689 1220.38 411.274C1222.85 410.86 1225.07 411.059 1227.05 411.873C1229.06 412.672 1230.69 414.036 1231.93 415.963C1232.45 416.769 1232.86 417.582 1233.17 418.4L1233.24 418.59C1234.79 422.415 1234.92 426.06 1233.64 429.524C1232.36 432.952 1229.77 435.924 1225.87 438.44ZM1222.17 432.116C1226.25 429.484 1227.59 426.349 1226.19 422.711L1226.02 422.298C1225.87 421.86 1225.65 421.427 1225.37 421.002C1224.52 419.68 1223.31 418.985 1221.74 418.917C1220.18 418.849 1218.41 419.451 1216.44 420.724C1212.47 423.283 1211.17 426.426 1212.52 430.152L1212.69 430.565C1212.9 431.13 1213.12 431.592 1213.35 431.95C1214.19 433.25 1215.37 433.93 1216.9 433.99C1218.44 434.013 1220.2 433.388 1222.17 432.116ZM1255.55 386.817C1257.75 385.4 1259.87 384.429 1261.91 383.905C1263.96 383.344 1265.76 383.26 1267.32 383.653C1268.87 384.046 1270.06 384.87 1270.87 386.125C1271.08 386.461 1271.28 386.841 1271.46 387.265L1271.61 387.645C1272.39 389.587 1272.19 391.504 1271.03 393.395C1272.88 393.445 1274.24 394.164 1275.14 395.553C1275.34 395.867 1275.52 396.213 1275.67 396.593L1275.82 396.972C1276.77 399.28 1276.54 401.699 1275.12 404.229C1273.73 406.746 1271.3 409.124 1267.83 411.366C1264.06 413.795 1260.68 414.994 1257.67 414.964C1254.69 414.919 1252.42 413.676 1250.84 411.234C1250.41 410.561 1250.09 409.943 1249.88 409.377L1249.8 409.099L1256.38 404.848L1256.5 405.105C1256.62 405.44 1256.77 405.741 1256.94 406.01C1257.59 407.019 1258.54 407.454 1259.79 407.318C1261.03 407.181 1262.65 406.469 1264.64 405.182C1266.12 404.228 1267.21 403.334 1267.91 402.502C1268.6 401.647 1268.83 400.944 1268.6 400.393L1268.45 400.013C1268.43 399.932 1268.37 399.812 1268.27 399.656C1268.01 399.252 1267.54 399.171 1266.87 399.413C1266.2 399.654 1265.04 400.31 1263.38 401.38L1259.28 404.026L1257.18 398.48L1261.14 395.921C1262.76 394.88 1263.83 394.079 1264.35 393.517C1264.86 392.933 1265.02 392.388 1264.82 391.882L1264.67 391.502C1264.45 390.915 1263.84 390.735 1262.85 390.965C1261.86 391.157 1260.62 391.738 1259.12 392.706C1257.12 393.993 1255.81 395.272 1255.17 396.542C1254.53 397.775 1254.52 399.15 1255.11 400.668L1255.2 400.947L1248.38 405.35L1248.29 405.071C1246.9 401.396 1246.81 398.059 1248.02 395.059C1249.21 392.037 1251.72 389.289 1255.55 386.817ZM1304.73 385.503L1305.15 386.663L1298.76 390.784L1295.74 387.499L1286.26 393.615L1286.33 398.809L1279.27 403.363L1278.82 402.225L1279.09 372.249L1286.69 367.348L1304.73 385.503ZM1291.28 382.662L1285.98 376.946L1286.14 385.98L1291.28 382.662ZM1322.01 345.984L1317.68 362.962L1329.82 369.312L1330.24 370.473L1323.52 374.81L1314.04 369.498L1310.48 371.797L1313.9 381.013L1307.01 385.459L1297.69 360.244L1304.58 355.798L1308.01 365.014L1310.29 363.539L1313.36 350.138L1321.56 344.846L1322.01 345.984ZM1338.45 333.943C1340.04 332.916 1341.6 332.296 1343.11 332.082C1344.63 331.831 1346.01 331.984 1347.26 332.543C1348.53 333.087 1349.57 333.976 1350.36 335.208C1350.71 335.746 1350.98 336.268 1351.18 336.774L1351.33 337.153C1352.38 339.809 1352.45 342.273 1351.53 344.545C1350.64 346.803 1348.78 348.843 1345.96 350.664L1337.99 355.804L1340.88 363.603L1333.99 368.049L1324.67 342.835L1338.45 333.943ZM1342.81 344.604C1344.27 343.664 1344.74 342.55 1344.22 341.263L1344.07 340.883C1344.02 340.757 1343.94 340.604 1343.83 340.425C1343.25 339.529 1342.34 339.478 1341.11 340.273L1333.98 344.871L1335.55 349.288L1342.81 344.604ZM1358.02 321.318L1360.89 329.083L1366.03 325.765C1368.49 324.174 1370.8 323.513 1372.94 323.782C1375.09 324.014 1376.78 325.093 1378.03 327.02C1378.39 327.58 1378.71 328.229 1379 328.965L1379.18 329.467C1380.16 331.975 1380.21 334.291 1379.33 336.415C1378.45 338.54 1376.59 340.513 1373.77 342.335L1360.46 350.923L1351.13 325.764L1358.02 321.318ZM1381.04 306.461L1390.36 331.676L1383.47 336.122L1374.15 310.908L1381.04 306.461ZM1370.61 336.329C1371.37 335.838 1371.86 335.335 1372.06 334.82C1372.29 334.291 1372.29 333.691 1372.04 333.022L1371.87 332.609C1371.77 332.356 1371.69 332.185 1371.64 332.095C1371.35 331.647 1370.96 331.419 1370.48 331.412C1370.01 331.368 1369.46 331.549 1368.83 331.953L1363.32 335.51L1364.89 340.016L1370.61 336.329ZM1386.07 311.547L1383.58 304.82L1405.8 290.484L1408.29 297.212L1400.79 302.048L1407.59 320.557L1400.7 325.003L1393.9 306.494L1386.07 311.547ZM1431.24 305.918C1428.68 307.566 1426.17 308.598 1423.71 309.012C1421.25 309.427 1419.01 309.223 1416.99 308.401C1414.97 307.579 1413.33 306.205 1412.09 304.278C1411.6 303.516 1411.2 302.726 1410.89 301.908L1410.82 301.718C1409.31 297.901 1409.2 294.26 1410.48 290.796C1411.77 287.331 1414.35 284.348 1418.23 281.847C1420.78 280.198 1423.29 279.167 1425.75 278.753C1428.21 278.338 1430.44 278.538 1432.42 279.352C1434.43 280.151 1436.06 281.514 1437.3 283.441C1437.82 284.248 1438.23 285.06 1438.54 285.878L1438.61 286.068C1440.16 289.893 1440.29 293.538 1439 297.003C1437.72 300.43 1435.14 303.402 1431.24 305.918ZM1427.54 299.594C1431.62 296.962 1432.96 293.828 1431.56 290.19L1431.39 289.777C1431.23 289.338 1431.02 288.906 1430.74 288.48C1429.89 287.158 1428.68 286.463 1427.11 286.395C1425.55 286.328 1423.78 286.93 1421.8 288.202C1417.84 290.761 1416.53 293.904 1417.89 297.63L1418.06 298.043C1418.27 298.608 1418.49 299.07 1418.72 299.429C1419.56 300.728 1420.74 301.408 1422.27 301.468C1423.81 301.491 1425.57 300.866 1427.54 299.594ZM1460.92 254.295C1463.12 252.878 1465.24 251.908 1467.28 251.384C1469.33 250.822 1471.13 250.738 1472.69 251.132C1474.24 251.525 1475.42 252.349 1476.23 253.603C1476.45 253.939 1476.65 254.32 1476.83 254.744L1476.98 255.123C1477.75 257.066 1477.56 258.982 1476.4 260.873C1478.24 260.923 1479.61 261.642 1480.51 263.032C1480.71 263.345 1480.89 263.692 1481.04 264.071L1481.19 264.451C1482.14 266.758 1481.9 269.177 1480.49 271.708C1479.1 274.224 1476.67 276.603 1473.19 278.844C1469.43 281.273 1466.05 282.472 1463.04 282.442C1460.06 282.398 1457.79 281.154 1456.21 278.712C1455.78 278.04 1455.46 277.421 1455.25 276.856L1455.16 276.577L1461.75 272.326L1461.87 272.583C1461.99 272.918 1462.14 273.22 1462.31 273.489C1462.96 274.497 1463.91 274.933 1465.16 274.796C1466.4 274.659 1468.02 273.948 1470.01 272.661C1471.49 271.706 1472.58 270.813 1473.28 269.98C1473.97 269.125 1474.2 268.422 1473.97 267.871L1473.82 267.492C1473.8 267.41 1473.74 267.291 1473.64 267.134C1473.38 266.731 1472.91 266.65 1472.24 266.891C1471.57 267.133 1470.41 267.788 1468.75 268.858L1464.65 271.504L1462.55 265.959L1466.51 263.399C1468.13 262.358 1469.2 261.557 1469.72 260.995C1470.23 260.411 1470.39 259.866 1470.19 259.36L1470.04 258.981C1469.82 258.393 1469.21 258.214 1468.22 258.443C1467.23 258.635 1465.99 259.216 1464.49 260.185C1462.49 261.472 1461.17 262.75 1460.53 264.02C1459.9 265.253 1459.88 266.629 1460.48 268.147L1460.57 268.425L1453.75 272.828L1453.66 272.549C1452.27 268.875 1452.18 265.537 1453.39 262.537C1454.58 259.515 1457.09 256.768 1460.92 254.295ZM1510.1 252.982L1510.52 254.142L1504.13 258.263L1501.11 254.978L1491.63 261.094L1491.69 266.287L1484.64 270.842L1484.19 269.703L1484.46 239.728L1492.05 234.826L1510.1 252.982ZM1496.65 250.14L1491.34 244.424L1491.51 253.458L1496.65 250.14ZM1527.37 213.463L1523.05 230.44L1535.19 236.791L1535.61 237.951L1528.88 242.289L1519.41 236.977L1515.85 239.276L1519.27 248.491L1512.38 252.937L1503.06 227.723L1509.95 223.277L1513.38 232.493L1515.66 231.018L1518.72 217.616L1526.93 212.324L1527.37 213.463ZM1543.82 201.421C1545.41 200.394 1546.96 199.774 1548.48 199.56C1550 199.309 1551.38 199.463 1552.63 200.022C1553.9 200.566 1554.94 201.454 1555.73 202.686C1556.08 203.224 1556.35 203.746 1556.55 204.252L1556.7 204.631C1557.75 207.288 1557.81 209.752 1556.9 212.024C1556.01 214.281 1554.15 216.321 1551.33 218.143L1543.36 223.283L1546.25 231.082L1539.36 235.528L1530.04 210.313L1543.82 201.421ZM1548.18 212.082C1549.63 211.142 1550.11 210.029 1549.59 208.741L1549.44 208.362C1549.39 208.235 1549.31 208.083 1549.19 207.903C1548.62 207.007 1547.71 206.957 1546.48 207.752L1539.35 212.35L1540.92 216.767L1548.18 212.082ZM1563.39 188.796L1566.26 196.561L1571.4 193.243C1573.86 191.653 1576.17 190.992 1578.31 191.26C1580.46 191.492 1582.15 192.572 1583.39 194.499C1583.76 195.059 1584.08 195.707 1584.36 196.444L1584.55 196.946C1585.53 199.453 1585.58 201.769 1584.7 203.894C1583.81 206.018 1581.96 207.991 1579.14 209.813L1565.83 218.402L1556.5 193.242L1563.39 188.796ZM1586.41 173.94L1595.73 199.154L1588.84 203.601L1579.52 178.386L1586.41 173.94ZM1575.98 203.808C1576.74 203.316 1577.22 202.813 1577.43 202.298C1577.66 201.769 1577.66 201.17 1577.41 200.501L1577.24 200.087C1577.14 199.835 1577.06 199.663 1577.01 199.574C1576.72 199.125 1576.33 198.898 1575.85 198.891C1575.38 198.847 1574.83 199.027 1574.2 199.432L1568.69 202.989L1570.26 207.495L1575.98 203.808ZM1591.44 179.026L1588.95 172.298L1611.17 157.962L1613.65 164.69L1606.16 169.526L1612.96 188.035L1606.07 192.481L1599.27 173.972L1591.44 179.026ZM1636.61 173.396C1634.05 175.045 1631.54 176.076 1629.08 176.491C1626.62 176.905 1624.38 176.701 1622.36 175.88C1620.33 175.058 1618.7 173.684 1617.46 171.757C1616.97 170.995 1616.57 170.205 1616.26 169.387L1616.19 169.197C1614.68 165.38 1614.56 161.739 1615.85 158.274C1617.14 154.809 1619.72 151.826 1623.6 149.325C1626.15 147.677 1628.66 146.645 1631.12 146.231C1633.58 145.817 1635.81 146.016 1637.79 146.83C1639.8 147.629 1641.42 148.992 1642.67 150.919C1643.19 151.726 1643.6 152.538 1643.91 153.357L1643.98 153.546C1645.53 157.372 1645.66 161.016 1644.37 164.481C1643.09 167.909 1640.5 170.881 1636.61 173.396ZM1632.91 167.072C1636.98 164.441 1638.33 161.306 1636.93 157.668L1636.76 157.255C1636.6 156.816 1636.39 156.384 1636.11 155.958C1635.26 154.636 1634.05 153.942 1632.48 153.874C1630.91 153.806 1629.15 154.408 1627.17 155.681C1623.21 158.24 1621.9 161.382 1623.26 165.109L1623.43 165.522C1623.64 166.087 1623.86 166.549 1624.09 166.907C1624.93 168.207 1626.11 168.887 1627.64 168.946C1629.18 168.969 1630.93 168.345 1632.91 167.072ZM1666.29 121.774C1668.49 120.357 1670.61 119.386 1672.65 118.862C1674.7 118.301 1676.5 118.217 1678.06 118.61C1679.61 119.003 1680.79 119.827 1681.6 121.082C1681.82 121.418 1682.02 121.798 1682.2 122.222L1682.35 122.602C1683.12 124.544 1682.93 126.461 1681.77 128.352C1683.61 128.401 1684.98 129.121 1685.88 130.51C1686.08 130.824 1686.26 131.17 1686.41 131.55L1686.56 131.929C1687.5 134.236 1687.27 136.655 1685.86 139.186C1684.47 141.703 1682.04 144.081 1678.56 146.322C1674.8 148.751 1671.41 149.951 1668.41 149.921C1665.43 149.876 1663.15 148.633 1661.58 146.19C1661.14 145.518 1660.82 144.9 1660.62 144.334L1660.53 144.056L1667.12 139.805L1667.24 140.062C1667.36 140.396 1667.51 140.698 1667.68 140.967C1668.33 141.975 1669.28 142.411 1670.52 142.274C1671.77 142.138 1673.39 141.426 1675.38 140.139C1676.86 139.185 1677.95 138.291 1678.65 137.459C1679.34 136.603 1679.57 135.9 1679.34 135.35L1679.19 134.97C1679.17 134.888 1679.11 134.769 1679 134.612C1678.74 134.209 1678.28 134.128 1677.61 134.37C1676.94 134.611 1675.78 135.267 1674.12 136.337L1670.02 138.983L1667.92 133.437L1671.88 130.878C1673.49 129.837 1674.56 129.035 1675.09 128.474C1675.6 127.89 1675.76 127.345 1675.56 126.839L1675.41 126.459C1675.19 125.871 1674.58 125.692 1673.59 125.921C1672.6 126.114 1671.36 126.694 1669.85 127.663C1667.86 128.95 1666.54 130.228 1665.9 131.498C1665.27 132.732 1665.25 134.107 1665.85 135.625L1665.94 135.904L1659.11 140.306L1659.03 140.028C1657.64 136.353 1657.55 133.016 1658.76 130.016C1659.95 126.994 1662.46 124.246 1666.29 121.774ZM1715.47 120.46L1715.88 121.62L1709.5 125.741L1706.47 122.456L1697 128.572L1697.06 133.766L1690 138.32L1689.56 137.182L1689.83 107.206L1697.42 102.305L1715.47 120.46ZM1702.02 117.618L1696.71 111.903L1696.88 120.937L1702.02 117.618ZM1732.74 80.9412L1728.42 97.9188L1740.56 104.269L1740.98 105.429L1734.25 109.767L1724.78 104.455L1721.22 106.754L1724.64 115.97L1717.75 120.416L1708.43 95.2013L1715.32 90.7552L1718.74 99.9711L1721.03 98.4963L1724.09 85.0947L1732.29 79.8028L1732.74 80.9412ZM1749.19 68.8995C1750.78 67.8729 1752.33 67.2526 1753.85 67.0385C1755.37 66.7875 1756.75 66.9413 1758 67.5C1759.27 68.0442 1760.3 68.9324 1761.1 70.1648C1761.45 70.7026 1761.72 71.2244 1761.92 71.7304L1762.07 72.1099C1763.12 74.7662 1763.18 77.2303 1762.27 79.5023C1761.38 81.7598 1759.52 83.7994 1756.7 85.6212L1748.73 90.7613L1751.62 98.5601L1744.73 103.006L1735.41 77.7916L1749.19 68.8995ZM1753.55 79.5605C1755 78.6207 1755.47 77.5072 1754.96 76.2198L1754.81 75.8403C1754.76 75.7139 1754.68 75.561 1754.56 75.3817C1753.99 74.4855 1753.08 74.4349 1751.85 75.2302L1744.72 79.828L1746.29 84.2452L1753.55 79.5605ZM1768.76 56.2746L1771.62 64.0398L1776.77 60.7215C1779.23 59.1311 1781.53 58.4702 1783.67 58.7389C1785.82 58.9708 1787.52 60.0502 1788.76 61.9771C1789.12 62.5373 1789.45 63.1857 1789.73 63.9222L1789.91 64.4242C1790.9 66.9316 1790.95 69.2476 1790.07 71.3721C1789.18 73.4966 1787.33 75.4697 1784.51 77.2915L1771.2 85.88L1761.87 60.7207L1768.76 56.2746ZM1791.78 41.4183L1801.1 66.6329L1794.21 71.079L1784.89 45.8644L1791.78 41.4183ZM1781.35 71.2861C1782.11 70.7945 1782.59 70.2914 1782.8 69.7767C1783.03 69.2476 1783.02 68.6483 1782.78 67.979L1782.61 67.5659C1782.51 67.3129 1782.43 67.1416 1782.37 67.052C1782.09 66.6039 1781.7 66.3762 1781.22 66.369C1780.75 66.325 1780.2 66.5054 1779.57 66.9102L1774.06 70.4671L1775.63 74.9731L1781.35 71.2861ZM1796.81 46.5042L1794.32 39.7766L1816.54 25.4408L1819.02 32.1684L1811.53 37.0049L1818.33 55.5136L1811.44 59.9596L1804.64 41.4509L1796.81 46.5042ZM1841.97 40.8749C1839.42 42.5232 1836.91 43.5546 1834.45 43.969C1831.99 44.3834 1829.75 44.1797 1827.72 43.358C1825.7 42.5364 1824.07 41.162 1822.83 39.2351C1822.33 38.4732 1821.94 37.6832 1821.63 36.865L1821.56 36.6752C1820.04 32.8581 1819.93 29.2172 1821.22 25.7525C1822.51 22.2878 1825.09 19.3048 1828.96 16.8035C1831.52 15.1552 1834.03 14.1238 1836.49 13.7094C1838.95 13.295 1841.17 13.4947 1843.16 14.3084C1845.17 15.1077 1846.79 16.4708 1848.04 18.3978C1848.56 19.2044 1848.97 20.0169 1849.28 20.8351L1849.35 21.0248C1850.9 24.8499 1851.03 28.4948 1849.74 31.9595C1848.46 35.3873 1845.87 38.3591 1841.97 40.8749ZM1838.27 34.5508C1842.35 31.9193 1843.69 28.7846 1842.3 25.1467L1842.13 24.7336C1841.97 24.2949 1841.76 23.8626 1841.48 23.4369C1840.63 22.1149 1839.42 21.42 1837.85 21.3522C1836.28 21.2844 1834.51 21.8867 1832.54 23.159C1828.58 25.7182 1827.27 28.8609 1828.63 32.587L1828.8 33.0001C1829.01 33.5653 1829.22 34.0272 1829.46 34.3857C1830.29 35.6853 1831.48 36.365 1833.01 36.4249C1834.55 36.4478 1836.3 35.8232 1838.27 34.5508Z" fill="black"/>
</svg>
