<svg width="711" height="308" viewBox="0 0 711 308" fill="none" xmlns="http://www.w3.org/2000/svg">
<path d="M503.307 3.61824V9.77257V12.6446H315.951C315.951 3.12589 324.028 1.01974 328.067 1.15651H495.518C501.749 1.15651 503.307 2.79766 503.307 3.61824Z" fill="black"/>
<path d="M540.397 146.967C540.397 183.308 510.585 212.864 473.691 212.864C436.797 212.864 406.985 183.308 406.985 146.967C406.985 110.627 436.797 81.0712 473.691 81.0712C510.585 81.0712 540.397 110.627 540.397 146.967Z" stroke="black" stroke-width="9.91187"/>
<path d="M711.35 307.701C694.831 140.247 589.754 101.082 539.28 102.432L525.109 156.279C599.605 149.154 586.92 254.258 571.265 307.701H711.35Z" fill="#4BDC80"/>
<circle cx="520.656" cy="125.916" r="30.3652" fill="black"/>
<path d="M528.754 88.667V96.7644V142.11H397.171C345.024 142.11 320.651 114.579 314.982 100.813V44.1313H0.398438V11.3368H314.982C316.278 10.0413 318.761 9.44746 319.841 9.3125H488.929C491.419 9.3125 493.906 9.9202 496.078 11.1379C545.855 39.0466 538.79 74.2724 528.754 88.667Z" fill="black"/>
<path d="M459.927 196.767C495.151 163.973 459.927 143.729 459.117 141.705H477.741C484.543 144.62 485.434 161.544 485.029 169.641C481.466 188.751 466.81 195.688 459.927 196.767Z" fill="black"/>
<path d="M502.177 10.123H493.529L534.016 54.2535C547.689 54.2535 553.984 50.9249 556.206 48.4004C556.954 47.5503 557.347 46.4649 557.872 45.4617C564.44 32.9264 578.064 10.5275 585.84 10.5275C593.937 10.5275 595.152 8.36848 594.747 7.28895C593.487 3.50864 587.079 2.58805 582.009 2.61993C579.469 2.6359 577.052 3.58356 574.998 5.07759C568.612 9.72263 557.688 18.1691 548.187 27.1276C537.535 37.1709 517.231 22.2634 506.758 12.0298C505.529 10.8295 503.895 10.123 502.177 10.123Z" fill="black"/>
<rect x="7.6875" width="22.6727" height="13.7656" fill="black"/>
<path d="M8.49609 43.7246H28.3347L22.2617 52.6317H8.49609V43.7246Z" fill="black"/>
<rect x="100.807" y="43.7246" width="42.1065" height="12.1461" fill="black"/>
<rect x="142.912" y="43.7246" width="174.904" height="9.71688" fill="black"/>
<rect x="268.422" y="52.6328" width="46.9649" height="16.1948" fill="black"/>
</svg>
