<svg width="600" height="706" viewBox="0 0 600 706" fill="none" xmlns="http://www.w3.org/2000/svg">
<rect x="4" width="592" height="702" fill="#4ADE80"/>
<mask id="mask0_38_170" style="mask-type:alpha" maskUnits="userSpaceOnUse" x="4" y="0" width="592" height="698">
<path d="M4.5 0.5H595.286V697.5H4.5V0.5Z" fill="#4ADE80" stroke="black"/>
</mask>
<g mask="url(#mask0_38_170)">
<path d="M501.786 33.0176V34.4287L489.039 51.9263V63.8736H479.585V51.9263L466.791 34.4287V33.0176H476.669L484.336 43.883L491.956 33.0176H501.786Z" fill="white"/>
<path d="M471.323 62.4625V63.8736H462.104L460.081 58.7936H446.535L444.512 63.8736H435.293V62.4625L448.087 33.0176H458.529L471.323 62.4625ZM456.93 50.9855L453.308 42.0016L449.686 50.9855H456.93Z" fill="white"/>
<path d="M417.46 33.0176C423.449 33.0176 427.949 34.3032 430.96 36.8746C434.001 39.4145 435.522 43.2245 435.522 48.3045V48.6337C435.522 58.7936 429.502 63.8736 417.46 63.8736H401.186V33.0176H417.46ZM417.46 55.407C420.439 55.407 422.587 54.8896 423.904 53.8548C425.221 52.82 425.88 51.1267 425.88 48.7748V48.2104C425.88 45.8899 425.19 44.1966 423.81 43.1304C422.462 42.0329 420.329 41.4842 417.413 41.4842H410.64V55.407H417.46Z" fill="white"/>
<path d="M377.529 64.4852C373.734 64.4852 370.395 63.8423 367.51 62.5567C364.625 61.2397 362.383 59.3739 360.783 56.9593C359.216 54.5448 358.432 51.754 358.432 48.5868V48.3516C358.432 45.1845 359.216 42.3937 360.783 39.9791C362.383 37.5646 364.625 35.6988 367.51 34.3818C370.395 33.0648 373.734 32.4062 377.529 32.4062C381.386 32.4062 384.756 33.0648 387.641 34.3818C390.526 35.6988 392.753 37.5646 394.321 39.9791C395.888 42.3623 396.672 45.1532 396.672 48.3516V48.5868C396.672 51.7853 395.888 54.5918 394.321 57.0064C392.753 59.3896 390.526 61.2397 387.641 62.5567C384.756 63.8423 381.386 64.4852 377.529 64.4852ZM377.529 55.6893C380.79 55.6893 383.189 55.1249 384.725 53.996C386.262 52.8358 387.03 51.0798 387.03 48.7279V48.2576C387.03 43.5539 383.863 41.2021 377.529 41.2021C374.424 41.2021 372.072 41.7979 370.473 42.9895C368.874 44.1811 368.074 45.9371 368.074 48.2576V48.7279C368.074 51.0798 368.858 52.8358 370.426 53.996C371.994 55.1249 374.361 55.6893 377.529 55.6893Z" fill="white"/>
<path d="M326.49 41.4842V33.0176H357.581V41.4842H346.763V63.8736H337.309V41.4842H326.49Z" fill="white"/>
<path d="M282.576 41.4842V33.0176H313.667V41.4842H302.849V63.8736H293.395V41.4842H282.576Z" fill="white"/>
<path d="M280.866 43.883C280.866 46.3603 280.129 48.3672 278.655 49.9037C277.212 51.4402 275.111 52.4437 272.352 52.914L280.677 62.4625V63.8736H270L261.251 53.2433H257.818V63.8736H248.363V33.0176H268.448C272.305 33.0176 275.331 33.9426 277.526 35.7927C279.752 37.6428 280.866 40.1828 280.866 43.4127V43.883ZM257.818 46.2348H268.213C270.22 46.2348 271.223 45.4666 271.223 43.9301V43.4597C271.223 41.9545 270.22 41.2019 268.213 41.2019H257.818V46.2348Z" fill="white"/>
<path d="M242.971 33.0176V41.1079H223.827V44.4475H242.031V52.3966H223.827V55.7833H242.971V63.8736H214.373V33.0176H242.971Z" fill="white"/>
<path d="M191.088 64.4852C187.231 64.4852 183.844 63.8423 180.928 62.5567C178.012 61.2397 175.754 59.3896 174.155 57.0064C172.555 54.5918 171.756 51.7853 171.756 48.5868V48.3516C171.756 45.1532 172.555 42.3623 174.155 39.9791C175.754 37.5646 178.012 35.6988 180.928 34.3818C183.844 33.0648 187.231 32.4062 191.088 32.4062C194.725 32.4062 197.971 32.9864 200.824 34.1466C203.709 35.3068 205.951 36.9374 207.551 39.0384C209.181 41.108 209.997 43.4598 209.997 46.0939V46.4231H200.354V46.0939C200.354 44.5887 199.507 43.3971 197.814 42.5191C196.152 41.6411 193.894 41.2021 191.041 41.2021C187.78 41.2021 185.349 41.7822 183.75 42.9424C182.182 44.1027 181.398 45.8744 181.398 48.2576V48.7279C181.398 51.1111 182.182 52.8671 183.75 53.996C185.318 55.1249 187.764 55.6893 191.088 55.6893C194.035 55.6893 196.309 55.2817 197.908 54.4664C199.539 53.6197 200.354 52.4281 200.354 50.8916V50.5624H209.997V50.8916C209.997 53.4943 209.181 55.8305 207.551 57.9001C205.951 59.9697 203.709 61.5846 200.824 62.7448C197.971 63.9051 194.725 64.4852 191.088 64.4852Z" fill="white"/>
<path d="M167.225 33.0176V63.8736H158.476L143.566 46.423V63.8736H134.723V33.0176H143.518L158.382 50.4211V33.0176H167.225Z" fill="white"/>
<path d="M111.066 64.4852C107.271 64.4852 103.932 63.8423 101.047 62.5567C98.1619 61.2397 95.9198 59.3739 94.3206 56.9593C92.7527 54.5448 91.9688 51.754 91.9688 48.5868V48.3516C91.9688 45.1845 92.7527 42.3937 94.3206 39.9791C95.9198 37.5646 98.1619 35.6988 101.047 34.3818C103.932 33.0648 107.271 32.4062 111.066 32.4062C114.923 32.4062 118.294 33.0648 121.178 34.3818C124.063 35.6988 126.29 37.5646 127.858 39.9791C129.426 42.3623 130.209 45.1532 130.209 48.3516V48.5868C130.209 51.7853 129.426 54.5918 127.858 57.0064C126.29 59.3896 124.063 61.2397 121.178 62.5567C118.294 63.8423 114.923 64.4852 111.066 64.4852ZM111.066 55.6893C114.327 55.6893 116.726 55.1249 118.262 53.996C119.799 52.8358 120.567 51.0798 120.567 48.7279V48.2576C120.567 43.5539 117.4 41.2021 111.066 41.2021C107.961 41.2021 105.609 41.7979 104.01 42.9895C102.411 44.1811 101.611 45.9371 101.611 48.2576V48.7279C101.611 51.0798 102.395 52.8358 103.963 53.996C105.531 55.1249 107.898 55.6893 111.066 55.6893Z" fill="white"/>
<path d="M70.1894 64.4852C66.3325 64.4852 62.9458 63.8423 60.0295 62.5567C57.1133 61.2397 54.8555 59.3896 53.2563 57.0064C51.657 54.5918 50.8574 51.7853 50.8574 48.5868V48.3516C50.8574 45.1532 51.657 42.3623 53.2563 39.9791C54.8555 37.5646 57.1133 35.6988 60.0295 34.3818C62.9458 33.0648 66.3325 32.4062 70.1894 32.4062C73.8269 32.4062 77.0725 32.9864 79.926 34.1466C82.8109 35.3068 85.053 36.9374 86.6522 39.0384C88.2828 41.108 89.0981 43.4598 89.0981 46.0939V46.4231H79.4556V46.0939C79.4556 44.5887 78.609 43.3971 76.9157 42.5191C75.2537 41.6411 72.996 41.2021 70.1424 41.2021C66.8812 41.2021 64.451 41.7822 62.8517 42.9424C61.2839 44.1027 60.4999 45.8744 60.4999 48.2576V48.7279C60.4999 51.1111 61.2839 52.8671 62.8517 53.996C64.4196 55.1249 66.8655 55.6893 70.1894 55.6893C73.1371 55.6893 75.4105 55.2817 77.0097 54.4664C78.6403 53.6197 79.4556 52.4281 79.4556 50.8916V50.5624H89.0981V50.8916C89.0981 53.4943 88.2828 55.8305 86.6522 57.9001C85.053 59.9697 82.8109 61.5846 79.926 62.7448C77.0725 63.9051 73.8269 64.4852 70.1894 64.4852Z" fill="white"/>
<path d="M411.479 85.567C411.439 85.807 411.419 85.987 411.419 86.107C411.419 86.567 411.569 86.927 411.869 87.187C412.189 87.427 412.639 87.547 413.219 87.547H416.639L415.979 90.637H412.589C411.109 90.637 409.939 90.267 409.079 89.527C408.219 88.767 407.789 87.777 407.789 86.557C407.789 86.117 407.829 85.727 407.909 85.387L409.349 78.787H404.129L404.789 75.697H409.139C409.519 75.697 409.799 75.627 409.979 75.487C410.159 75.347 410.289 75.087 410.369 74.707L411.029 71.707H414.599L413.699 75.697H420.209L419.549 78.787H413.009L411.479 85.567Z" fill="white"/>
<path d="M392.612 90.9959C389.992 90.9959 387.922 90.5959 386.402 89.7959C384.902 88.9959 384.152 87.9059 384.152 86.5259C384.152 86.3059 384.162 86.1459 384.182 86.0459L384.212 85.8359H387.872L387.842 86.0459C387.742 86.6659 388.082 87.1259 388.862 87.4259C389.662 87.7059 390.952 87.8459 392.732 87.8459C394.332 87.8459 395.532 87.7259 396.332 87.4859C397.132 87.2259 397.572 86.8359 397.652 86.3159L397.682 86.1359C397.742 85.7359 397.562 85.4359 397.142 85.2359C396.742 85.0359 395.992 84.8759 394.892 84.7559L391.472 84.3959C387.872 84.0359 386.072 82.8059 386.072 80.7059C386.072 80.4659 386.102 80.1959 386.162 79.8959L386.222 79.5959C386.462 78.2159 387.302 77.1659 388.742 76.4459C390.182 75.7059 392.152 75.3359 394.652 75.3359C397.172 75.3359 399.142 75.7359 400.562 76.5359C402.002 77.3159 402.722 78.3859 402.722 79.7459C402.722 79.9859 402.712 80.1659 402.692 80.2859L402.662 80.4959H399.062L399.092 80.2859C399.172 79.6659 398.832 79.2159 398.072 78.9359C397.312 78.6359 396.092 78.4859 394.412 78.4859C391.552 78.4859 390.032 78.9259 389.852 79.8059L389.822 80.0159C389.742 80.3959 389.872 80.6959 390.212 80.9159C390.572 81.1159 391.192 81.2659 392.072 81.3659L395.552 81.7559C399.472 82.1759 401.432 83.4459 401.432 85.5659C401.432 85.8859 401.412 86.1359 401.372 86.3159L401.312 86.6159C401.072 88.0159 400.192 89.0959 398.672 89.8559C397.172 90.6159 395.152 90.9959 392.612 90.9959Z" fill="white"/>
<path d="M373.685 75.3359C375.325 75.3359 376.765 75.6059 378.005 76.1459C379.265 76.6859 380.235 77.4359 380.915 78.3959C381.595 79.3559 381.935 80.4559 381.935 81.6959C381.935 82.0759 381.885 82.5359 381.785 83.0759L381.575 84.3659H367.925C367.945 85.3859 368.385 86.2159 369.245 86.8559C370.105 87.4759 371.265 87.7859 372.725 87.7859C373.945 87.7859 374.965 87.5959 375.785 87.2159C376.625 86.8359 377.165 86.3059 377.405 85.6259H381.335C380.815 87.3859 379.825 88.7259 378.365 89.6459C376.905 90.5459 375.025 90.9959 372.725 90.9959C371.045 90.9959 369.565 90.7159 368.285 90.1559C367.025 89.5959 366.055 88.8159 365.375 87.8159C364.695 86.7959 364.355 85.6359 364.355 84.3359C364.355 83.8159 364.415 83.2759 364.535 82.7159L364.655 82.1159C365.055 79.9759 366.035 78.3159 367.595 77.1359C369.175 75.9359 371.205 75.3359 373.685 75.3359ZM373.535 78.5459C370.895 78.5459 369.235 79.4859 368.555 81.3659H378.245C378.125 80.5059 377.645 79.8259 376.805 79.3259C375.965 78.8059 374.875 78.5459 373.535 78.5459Z" fill="white"/>
<path d="M363.637 69.7559L358.987 90.6359H355.747L355.867 89.3159C354.347 90.4359 352.597 90.9959 350.617 90.9959C349.097 90.9959 347.767 90.7159 346.627 90.1559C345.487 89.5959 344.607 88.8159 343.987 87.8159C343.367 86.7959 343.057 85.6359 343.057 84.3359C343.057 83.8159 343.097 83.3259 343.177 82.8659L343.267 82.4759C343.647 80.2359 344.637 78.4859 346.237 77.2259C347.857 75.9659 349.907 75.3359 352.387 75.3359C353.607 75.3359 354.717 75.5159 355.717 75.8759C356.717 76.2359 357.567 76.7459 358.267 77.4059L359.977 69.7559H363.637ZM346.837 83.1359C346.777 83.4559 346.747 83.7859 346.747 84.1259C346.747 85.2459 347.147 86.1359 347.947 86.7959C348.767 87.4559 349.867 87.7859 351.247 87.7859C352.267 87.7859 353.227 87.5959 354.127 87.2159C355.047 86.8159 355.817 86.2659 356.437 85.5659L357.517 80.7959C357.117 80.1159 356.467 79.5759 355.567 79.1759C354.687 78.7559 353.687 78.5459 352.567 78.5459C351.027 78.5459 349.767 78.9159 348.787 79.6559C347.807 80.3759 347.187 81.3959 346.927 82.7159L346.837 83.1359Z" fill="white"/>
<path d="M328.56 87.5459L327.9 90.6359H326.1C325.24 90.6359 324.5 90.4659 323.88 90.1259C323.28 89.7859 322.84 89.3259 322.56 88.7459C321.68 89.5259 320.68 90.0959 319.56 90.4559C318.46 90.8159 317.2 90.9959 315.78 90.9959C313.8 90.9959 312.24 90.6359 311.1 89.9159C309.98 89.1959 309.42 88.2159 309.42 86.9759C309.42 86.6159 309.46 86.2759 309.54 85.9559C309.84 84.7159 310.51 83.8059 311.55 83.2259C312.61 82.6459 313.94 82.2759 315.54 82.1159L323.37 81.3359C323.43 80.4759 323.09 79.8159 322.35 79.3559C321.63 78.8759 320.55 78.6359 319.11 78.6359C317.73 78.6359 316.61 78.8559 315.75 79.2959C314.89 79.7359 314.39 80.3459 314.25 81.1259L314.22 81.2159H310.56L310.59 81.1259C310.89 79.3459 311.82 77.9359 313.38 76.8959C314.96 75.8559 316.95 75.3359 319.35 75.3359C321.73 75.3359 323.6 75.8359 324.96 76.8359C326.32 77.8159 327 79.1359 327 80.7959C327 81.1759 326.95 81.6159 326.85 82.1159L326.01 86.1059C325.97 86.3059 325.95 86.4459 325.95 86.5259C325.95 86.8459 326.06 87.0959 326.28 87.2759C326.52 87.4559 326.86 87.5459 327.3 87.5459H328.56ZM315.84 87.9059C317.36 87.9059 318.71 87.6759 319.89 87.2159C321.07 86.7359 321.98 86.0659 322.62 85.2059L322.83 84.2159L315.54 84.9659C314.72 85.0659 314.1 85.2359 313.68 85.4759C313.28 85.6959 313.04 86.0259 312.96 86.4659C312.82 87.4259 313.78 87.9059 315.84 87.9059Z" fill="white"/>
<path d="M309.459 75.6953L309.339 76.2053L298.869 90.6353H294.129L290.049 76.2053L290.169 75.6953H293.709L296.859 87.5153L305.379 75.6953H309.459Z" fill="white"/>
<path d="M287.074 75.6962L283.744 90.6362H280.084L283.414 75.6962H287.074ZM286.114 73.6562C285.454 73.6562 284.904 73.4662 284.464 73.0862C284.024 72.6862 283.804 72.1862 283.804 71.5862C283.804 70.8262 284.044 70.2362 284.524 69.8163C285.004 69.3763 285.584 69.1562 286.264 69.1562C286.904 69.1562 287.444 69.3462 287.884 69.7262C288.324 70.1062 288.544 70.6162 288.544 71.2562C288.544 71.9962 288.304 72.5862 287.824 73.0262C287.364 73.4462 286.794 73.6562 286.114 73.6562Z" fill="white"/>
<path d="M271.938 85.567C271.898 85.807 271.878 85.987 271.878 86.107C271.878 86.567 272.028 86.927 272.328 87.187C272.648 87.427 273.098 87.547 273.678 87.547H277.098L276.438 90.637H273.048C271.568 90.637 270.398 90.267 269.538 89.527C268.678 88.767 268.248 87.777 268.248 86.557C268.248 86.117 268.288 85.727 268.368 85.387L269.808 78.787H264.588L265.248 75.697H269.598C269.978 75.697 270.258 75.627 270.438 75.487C270.618 75.347 270.748 75.087 270.828 74.707L271.488 71.707H275.058L274.158 75.697H280.668L280.008 78.787H273.468L271.938 85.567Z" fill="white"/>
<path d="M263.726 87.5459L263.066 90.6359H261.266C260.406 90.6359 259.666 90.4659 259.046 90.1259C258.446 89.7859 258.006 89.3259 257.726 88.7459C256.846 89.5259 255.846 90.0959 254.726 90.4559C253.626 90.8159 252.366 90.9959 250.946 90.9959C248.966 90.9959 247.406 90.6359 246.266 89.9159C245.146 89.1959 244.586 88.2159 244.586 86.9759C244.586 86.6159 244.626 86.2759 244.706 85.9559C245.006 84.7159 245.676 83.8059 246.716 83.2259C247.776 82.6459 249.106 82.2759 250.706 82.1159L258.536 81.3359C258.596 80.4759 258.256 79.8159 257.516 79.3559C256.796 78.8759 255.716 78.6359 254.276 78.6359C252.896 78.6359 251.776 78.8559 250.916 79.2959C250.056 79.7359 249.556 80.3459 249.416 81.1259L249.386 81.2159H245.726L245.756 81.1259C246.056 79.3459 246.986 77.9359 248.546 76.8959C250.126 75.8559 252.116 75.3359 254.516 75.3359C256.896 75.3359 258.766 75.8359 260.126 76.8359C261.486 77.8159 262.166 79.1359 262.166 80.7959C262.166 81.1759 262.116 81.6159 262.016 82.1159L261.176 86.1059C261.136 86.3059 261.116 86.4459 261.116 86.5259C261.116 86.8459 261.226 87.0959 261.446 87.2759C261.686 87.4559 262.026 87.5459 262.466 87.5459H263.726ZM251.006 87.9059C252.526 87.9059 253.876 87.6759 255.056 87.2159C256.236 86.7359 257.146 86.0659 257.786 85.2059L257.996 84.2159L250.706 84.9659C249.886 85.0659 249.266 85.2359 248.846 85.4759C248.446 85.6959 248.206 86.0259 248.126 86.4659C247.986 87.4259 248.946 87.9059 251.006 87.9059Z" fill="white"/>
<path d="M238.935 75.6959H245.385L244.725 78.7859H238.245L235.575 90.6359H231.915L234.585 78.7859H229.695L230.355 75.6959H235.275L235.545 74.4359C236.305 71.3159 238.255 69.7559 241.395 69.7559H245.505L244.845 72.8459H241.455C240.175 72.8459 239.405 73.4659 239.145 74.7059L238.935 75.6959Z" fill="white"/>
<path d="M207.875 75.3359C209.395 75.3359 210.725 75.6159 211.865 76.1759C213.025 76.7359 213.915 77.5159 214.535 78.5159C215.155 79.4959 215.465 80.6359 215.465 81.9359C215.465 82.3759 215.415 82.8759 215.315 83.4359L215.255 83.8259C214.855 86.0859 213.855 87.8459 212.255 89.1059C210.655 90.3659 208.615 90.9959 206.135 90.9959C204.875 90.9959 203.725 90.8159 202.685 90.4559C201.665 90.0759 200.815 89.5359 200.135 88.8359L199.565 90.6359H196.205L200.855 69.7559H204.515L202.955 76.7759C204.395 75.8159 206.035 75.3359 207.875 75.3359ZM211.685 83.1659C211.745 82.8259 211.775 82.5059 211.775 82.2059C211.775 81.0859 211.375 80.1959 210.575 79.5359C209.775 78.8759 208.665 78.5459 207.245 78.5459C206.225 78.5459 205.265 78.7359 204.365 79.1159C203.485 79.4759 202.725 79.9859 202.085 80.6459L201.005 85.5059C201.405 86.1859 202.045 86.7359 202.925 87.1559C203.805 87.5759 204.805 87.7859 205.925 87.7859C207.465 87.7859 208.725 87.4259 209.705 86.7059C210.685 85.9659 211.315 84.9259 211.595 83.5859L211.685 83.1659Z" fill="white"/>
<path d="M194.797 75.6953L191.467 90.6353H188.227L188.377 89.1053C186.817 90.3653 185.007 90.9953 182.947 90.9953C180.827 90.9953 179.157 90.4653 177.937 89.4053C176.717 88.3253 176.107 86.8553 176.107 84.9953C176.107 84.3353 176.177 83.6853 176.317 83.0453L177.937 75.6953H181.597L179.857 83.2853C179.757 83.7853 179.707 84.1953 179.707 84.5153C179.707 85.5553 180.037 86.3653 180.697 86.9453C181.377 87.5053 182.337 87.7853 183.577 87.7853C184.657 87.7853 185.677 87.5453 186.637 87.0653C187.597 86.5653 188.397 85.8853 189.037 85.0253L191.137 75.6953H194.797Z" fill="white"/>
<path d="M170.427 90.6359C169.147 90.6359 168.147 90.3359 167.427 89.7359C166.727 89.1159 166.377 88.2659 166.377 87.1859C166.377 86.8459 166.427 86.4459 166.527 85.9859L170.037 69.7559H173.697L170.067 85.9259C170.027 86.0659 170.007 86.2459 170.007 86.4659C170.007 87.1859 170.497 87.5459 171.477 87.5459H172.767L172.107 90.6359H170.427Z" fill="white"/>
<path d="M154.349 90.9959C152.649 90.9959 151.159 90.7159 149.879 90.1559C148.599 89.5759 147.609 88.7859 146.909 87.7859C146.209 86.7659 145.859 85.5959 145.859 84.2759C145.859 83.6559 145.929 83.0659 146.069 82.5059L146.189 82.0259C146.589 79.8859 147.579 78.2359 149.159 77.0759C150.739 75.9159 152.769 75.3359 155.249 75.3359C156.829 75.3359 158.249 75.5959 159.509 76.1159C160.769 76.6359 161.749 77.3559 162.449 78.2759C163.149 79.1759 163.499 80.1859 163.499 81.3059C163.499 81.6859 163.479 81.9759 163.439 82.1759L163.409 82.2659H159.719L159.749 82.1759C159.789 81.9359 159.809 81.7559 159.809 81.6359C159.809 80.7359 159.379 79.9959 158.519 79.4159C157.679 78.8359 156.569 78.5459 155.189 78.5459C153.669 78.5459 152.429 78.9059 151.469 79.6259C150.529 80.3259 149.939 81.3259 149.699 82.6259L149.609 83.0459C149.529 83.3659 149.489 83.7159 149.489 84.0959C149.489 85.2359 149.919 86.1359 150.779 86.7959C151.659 87.4559 152.879 87.7859 154.439 87.7859C155.739 87.7859 156.819 87.5059 157.679 86.9459C158.539 86.3859 159.039 85.6459 159.179 84.7259L159.209 84.6359H163.019L162.989 84.7259C162.669 86.6659 161.739 88.1959 160.199 89.3159C158.659 90.4359 156.709 90.9959 154.349 90.9959Z" fill="white"/>
<path d="M209.027 193.803H595.786V230.66H209.027V193.803Z" fill="black"/>
<path d="M549.828 222.783C549.213 222.783 548.691 222.599 548.261 222.23C547.851 221.862 547.646 221.38 547.646 220.786C547.646 220.049 547.872 219.465 548.322 219.035C548.773 218.585 549.336 218.359 550.012 218.359C550.626 218.359 551.138 218.544 551.548 218.912C551.978 219.281 552.193 219.783 552.193 220.418C552.193 221.155 551.968 221.739 551.517 222.169C551.067 222.578 550.504 222.783 549.828 222.783Z" fill="white"/>
<path d="M536.026 201.893C537.848 201.893 539.456 202.128 540.849 202.599C542.242 203.05 543.317 203.695 544.075 204.535C544.853 205.354 545.242 206.286 545.242 207.33C545.242 207.658 545.211 207.975 545.15 208.283L545.088 208.651C544.761 210.331 543.614 211.57 541.648 212.369C543.348 213.249 544.197 214.488 544.197 216.086C544.197 216.373 544.167 216.67 544.105 216.977L544.044 217.345C543.778 219.168 542.733 220.53 540.91 221.431C539.108 222.333 536.394 222.783 532.769 222.783C529.595 222.783 527.127 222.302 525.365 221.339C523.624 220.356 522.754 219.004 522.754 217.284C522.754 216.854 522.795 216.465 522.877 216.117L522.969 215.748C523.317 213.782 524.853 212.43 527.577 211.693C526.287 210.853 525.642 209.747 525.642 208.375C525.642 208.088 525.672 207.791 525.734 207.484L525.826 207.115C526.133 205.456 527.147 204.176 528.867 203.275C530.588 202.353 532.974 201.893 536.026 201.893ZM529.451 207.822C529.41 208.068 529.39 208.242 529.39 208.344C529.39 209.921 531.253 210.71 534.981 210.71C537.132 210.71 538.688 210.515 539.651 210.126C540.613 209.737 541.177 209.112 541.34 208.252L541.371 208.037C541.412 207.832 541.433 207.689 541.433 207.607C541.433 206.849 540.941 206.265 539.958 205.856C538.995 205.446 537.613 205.241 535.811 205.241C533.742 205.241 532.216 205.436 531.233 205.825C530.25 206.194 529.676 206.788 529.513 207.607L529.451 207.822ZM540.357 216.915C540.398 216.772 540.419 216.577 540.419 216.332C540.419 215.512 539.896 214.918 538.852 214.55C537.828 214.161 536.22 213.966 534.029 213.966C531.469 213.966 529.625 214.15 528.499 214.519C527.393 214.888 526.768 215.482 526.625 216.301L526.563 216.516C526.522 216.721 526.502 216.874 526.502 216.977C526.502 217.776 527.045 218.39 528.13 218.82C529.236 219.23 530.875 219.435 533.046 219.435C535.38 219.435 537.132 219.25 538.299 218.882C539.487 218.492 540.163 217.909 540.327 217.13L540.357 216.915Z" fill="white"/>
<path d="M515.241 222.415H511.37L514.688 207.515C513.746 207.884 512.64 208.068 511.37 208.068H507.775L508.513 204.597H511.769C513.019 204.597 513.961 204.412 514.596 204.044C515.251 203.654 515.671 203.06 515.855 202.262H519.726L515.241 222.415Z" fill="white"/>
<path d="M489.7 218.205L489.577 218.758L484.908 226.807H481.252L485.399 218.205H489.7Z" fill="white"/>
<path d="M460.997 206.746C463.188 206.746 464.909 207.299 466.158 208.405C467.428 209.491 468.063 210.965 468.063 212.829C468.063 213.423 467.981 214.099 467.817 214.857L466.158 222.414H462.41L464.161 214.642C464.264 214.129 464.315 213.699 464.315 213.351C464.315 212.307 463.967 211.498 463.27 210.924C462.594 210.33 461.621 210.033 460.352 210.033C459.246 210.033 458.201 210.289 457.218 210.801C456.235 211.293 455.416 211.979 454.76 212.86L452.641 222.414H448.893L452.303 207.115H455.621L455.467 208.651C457.085 207.381 458.928 206.746 460.997 206.746Z" fill="white"/>
<path d="M437.261 222.783C435.521 222.783 433.985 222.496 432.653 221.922C431.342 221.329 430.318 220.509 429.581 219.465C428.864 218.42 428.506 217.222 428.506 215.87C428.506 215.276 428.557 214.754 428.659 214.304L428.752 213.843C429.161 211.59 430.175 209.849 431.793 208.62C433.432 207.371 435.531 206.746 438.091 206.746C439.832 206.746 441.358 207.043 442.668 207.637C444 208.21 445.024 209.019 445.741 210.064C446.457 211.088 446.816 212.276 446.816 213.628C446.816 214.16 446.754 214.703 446.632 215.256L446.539 215.717C446.13 217.97 445.116 219.711 443.498 220.939C441.88 222.168 439.801 222.783 437.261 222.783ZM437.261 219.495C438.798 219.495 440.037 219.147 440.979 218.451C441.941 217.734 442.546 216.731 442.791 215.44L442.883 214.979C442.965 214.488 443.006 214.14 443.006 213.935C443.006 212.747 442.566 211.805 441.685 211.109C440.805 210.392 439.596 210.033 438.06 210.033C436.504 210.033 435.254 210.381 434.312 211.078C433.37 211.774 432.776 212.788 432.53 214.119L432.438 214.58C432.356 215.072 432.315 215.42 432.315 215.625C432.315 216.812 432.756 217.755 433.636 218.451C434.517 219.147 435.725 219.495 437.261 219.495Z" fill="white"/>
<path d="M426.32 207.115L422.91 222.415H419.162L422.572 207.115H426.32ZM425.337 205.026C424.661 205.026 424.098 204.832 423.647 204.442C423.197 204.033 422.972 203.521 422.972 202.906C422.972 202.128 423.217 201.524 423.709 201.094C424.2 200.643 424.794 200.418 425.491 200.418C426.146 200.418 426.699 200.613 427.15 201.002C427.6 201.391 427.826 201.913 427.826 202.568C427.826 203.326 427.58 203.93 427.088 204.381C426.617 204.811 426.033 205.026 425.337 205.026Z" fill="white"/>
<path d="M410.822 217.223C410.781 217.468 410.76 217.653 410.76 217.776C410.76 218.247 410.914 218.615 411.221 218.882C411.549 219.127 412.01 219.25 412.604 219.25H416.106L415.43 222.415H411.958C410.443 222.415 409.245 222.036 408.364 221.278C407.483 220.5 407.043 219.486 407.043 218.236C407.043 217.786 407.084 217.386 407.166 217.038L408.64 210.28H403.295L403.971 207.115H408.425C408.815 207.115 409.101 207.044 409.286 206.9C409.47 206.757 409.603 206.491 409.685 206.101L410.361 203.029H414.017L413.095 207.115H419.762L419.086 210.28H412.388L410.822 217.223Z" fill="white"/>
<path d="M402.411 219.25L401.735 222.414H399.892C399.011 222.414 398.253 222.24 397.618 221.892C397.004 221.544 396.553 221.073 396.267 220.479C395.365 221.277 394.341 221.861 393.194 222.23C392.068 222.598 390.778 222.783 389.324 222.783C387.296 222.783 385.698 222.414 384.531 221.677C383.384 220.939 382.811 219.936 382.811 218.666C382.811 218.297 382.852 217.949 382.933 217.621C383.241 216.352 383.927 215.42 384.992 214.826C386.077 214.232 387.439 213.853 389.078 213.689L397.096 212.89C397.157 212.01 396.809 211.334 396.051 210.863C395.314 210.371 394.208 210.125 392.734 210.125C391.32 210.125 390.173 210.351 389.293 210.801C388.412 211.252 387.9 211.877 387.757 212.675L387.726 212.767H383.978L384.009 212.675C384.316 210.853 385.268 209.409 386.866 208.344C388.484 207.279 390.522 206.746 392.979 206.746C395.417 206.746 397.332 207.258 398.724 208.282C400.117 209.286 400.813 210.637 400.813 212.337C400.813 212.727 400.762 213.177 400.66 213.689L399.8 217.775C399.759 217.98 399.738 218.123 399.738 218.205C399.738 218.533 399.851 218.789 400.076 218.973C400.322 219.158 400.67 219.25 401.121 219.25H402.411ZM389.385 219.618C390.942 219.618 392.324 219.383 393.532 218.912C394.741 218.42 395.673 217.734 396.328 216.853L396.543 215.84L389.078 216.608C388.238 216.71 387.603 216.884 387.173 217.13C386.763 217.355 386.518 217.693 386.436 218.144C386.292 219.127 387.275 219.618 389.385 219.618Z" fill="white"/>
<path d="M383.484 207.115L382.808 210.28H379.551C377.421 210.28 375.732 210.904 374.482 212.154L372.209 222.415H368.461L371.871 207.115H375.189L375.035 208.528C376.428 207.586 378.148 207.115 380.197 207.115H383.484Z" fill="white"/>
<path d="M357.957 206.746C359.636 206.746 361.111 207.023 362.381 207.576C363.671 208.129 364.664 208.897 365.361 209.88C366.057 210.863 366.405 211.989 366.405 213.259C366.405 213.648 366.354 214.119 366.252 214.672L366.036 215.993H352.058C352.079 217.038 352.529 217.888 353.41 218.543C354.291 219.178 355.479 219.495 356.974 219.495C358.223 219.495 359.268 219.301 360.107 218.912C360.967 218.523 361.52 217.98 361.766 217.284H365.791C365.258 219.086 364.244 220.458 362.749 221.4C361.254 222.322 359.329 222.783 356.974 222.783C355.253 222.783 353.738 222.496 352.427 221.922C351.137 221.349 350.143 220.55 349.447 219.526C348.751 218.482 348.402 217.294 348.402 215.963C348.402 215.43 348.464 214.877 348.587 214.304L348.71 213.689C349.119 211.498 350.123 209.798 351.72 208.589C353.338 207.361 355.417 206.746 357.957 206.746ZM357.803 210.033C355.1 210.033 353.4 210.996 352.703 212.921H362.626C362.503 212.04 362.012 211.344 361.152 210.832C360.292 210.3 359.175 210.033 357.803 210.033Z" fill="white"/>
<path d="M340.078 217.223C340.037 217.468 340.016 217.653 340.016 217.776C340.016 218.247 340.17 218.615 340.477 218.882C340.805 219.127 341.265 219.25 341.859 219.25H345.362L344.686 222.415H341.214C339.699 222.415 338.501 222.036 337.62 221.278C336.739 220.5 336.299 219.486 336.299 218.236C336.299 217.786 336.34 217.386 336.422 217.038L337.896 210.28H332.551L333.227 207.115H337.681C338.07 207.115 338.357 207.044 338.541 206.9C338.726 206.757 338.859 206.491 338.941 206.101L339.617 203.029H343.273L342.351 207.115H349.017L348.342 210.28H341.644L340.078 217.223Z" fill="white"/>
<path d="M320.755 222.783C318.072 222.783 315.952 222.373 314.396 221.554C312.86 220.735 312.092 219.618 312.092 218.205C312.092 217.98 312.102 217.816 312.123 217.714L312.153 217.499H315.901L315.871 217.714C315.768 218.349 316.116 218.82 316.915 219.127C317.734 219.414 319.055 219.557 320.878 219.557C322.517 219.557 323.745 219.434 324.565 219.188C325.384 218.922 325.835 218.523 325.916 217.99L325.947 217.806C326.009 217.396 325.824 217.089 325.394 216.884C324.985 216.679 324.217 216.516 323.09 216.393L319.588 216.024C315.901 215.655 314.058 214.396 314.058 212.245C314.058 211.999 314.089 211.723 314.15 211.416L314.212 211.109C314.457 209.695 315.318 208.62 316.792 207.883C318.267 207.125 320.284 206.746 322.844 206.746C325.425 206.746 327.442 207.156 328.896 207.975C330.371 208.774 331.108 209.869 331.108 211.262C331.108 211.508 331.098 211.692 331.078 211.815L331.047 212.03H327.36L327.391 211.815C327.473 211.18 327.125 210.719 326.347 210.433C325.568 210.125 324.319 209.972 322.599 209.972C319.67 209.972 318.113 210.422 317.929 211.324L317.898 211.539C317.816 211.928 317.949 212.235 318.298 212.46C318.666 212.665 319.301 212.819 320.202 212.921L323.766 213.32C327.78 213.751 329.787 215.051 329.787 217.222C329.787 217.55 329.767 217.806 329.726 217.99L329.664 218.297C329.419 219.731 328.518 220.837 326.961 221.615C325.425 222.394 323.356 222.783 320.755 222.783Z" fill="white"/>
<path d="M302.05 206.746C304.241 206.746 305.961 207.299 307.211 208.405C308.481 209.491 309.115 210.965 309.115 212.829C309.115 213.423 309.034 214.099 308.87 214.857L307.211 222.414H303.463L305.214 214.642C305.316 214.129 305.367 213.699 305.367 213.351C305.367 212.307 305.019 211.498 304.323 210.924C303.647 210.33 302.674 210.033 301.404 210.033C300.298 210.033 299.254 210.289 298.271 210.801C297.288 211.293 296.469 211.979 295.813 212.86L293.693 222.414H289.945L293.355 207.115H296.673L296.52 208.651C298.138 207.381 299.981 206.746 302.05 206.746Z" fill="white"/>
<path d="M289.365 202.262L284.88 222.415H280.979L285.464 202.262H289.365Z" fill="white"/>
<path d="M261.214 222.783C260.6 222.783 260.078 222.599 259.648 222.23C259.238 221.862 259.033 221.38 259.033 220.786C259.033 220.049 259.258 219.465 259.709 219.035C260.16 218.585 260.723 218.359 261.399 218.359C262.013 218.359 262.525 218.544 262.935 218.912C263.365 219.281 263.58 219.783 263.58 220.418C263.58 221.155 263.355 221.739 262.904 222.169C262.454 222.578 261.89 222.783 261.214 222.783Z" fill="white"/>
<path d="M249.384 217.223C249.343 217.468 249.323 217.653 249.323 217.776C249.323 218.247 249.476 218.615 249.784 218.882C250.111 219.127 250.572 219.25 251.166 219.25H254.668L253.992 222.415H250.521C249.005 222.415 247.807 222.036 246.926 221.278C246.046 220.5 245.605 219.486 245.605 218.236C245.605 217.786 245.646 217.386 245.728 217.038L247.203 210.28H241.857L242.533 207.115H246.988C247.377 207.115 247.664 207.044 247.848 206.9C248.032 206.757 248.166 206.491 248.247 206.101L248.923 203.029H252.579L251.658 207.115H258.324L257.648 210.28H250.951L249.384 217.223Z" fill="white"/>
<path d="M230.062 222.783C227.379 222.783 225.259 222.373 223.703 221.554C222.166 220.735 221.398 219.618 221.398 218.205C221.398 217.98 221.409 217.816 221.429 217.714L221.46 217.499H225.208L225.177 217.714C225.075 218.349 225.423 218.82 226.222 219.127C227.041 219.414 228.362 219.557 230.185 219.557C231.823 219.557 233.052 219.434 233.871 219.188C234.691 218.922 235.141 218.523 235.223 217.99L235.254 217.806C235.315 217.396 235.131 217.089 234.701 216.884C234.291 216.679 233.523 216.516 232.397 216.393L228.894 216.024C225.208 215.655 223.365 214.396 223.365 212.245C223.365 211.999 223.395 211.723 223.457 211.416L223.518 211.109C223.764 209.695 224.624 208.62 226.099 207.883C227.573 207.125 229.591 206.746 232.151 206.746C234.732 206.746 236.749 207.156 238.203 207.975C239.678 208.774 240.415 209.869 240.415 211.262C240.415 211.508 240.405 211.692 240.384 211.815L240.354 212.03H236.667L236.698 211.815C236.78 211.18 236.431 210.719 235.653 210.433C234.875 210.125 233.626 209.972 231.905 209.972C228.976 209.972 227.42 210.422 227.236 211.324L227.205 211.539C227.123 211.928 227.256 212.235 227.604 212.46C227.973 212.665 228.608 212.819 229.509 212.921L233.073 213.32C237.087 213.751 239.094 215.051 239.094 217.222C239.094 217.55 239.074 217.806 239.033 217.99L238.971 218.297C238.725 219.731 237.824 220.837 236.268 221.615C234.732 222.394 232.663 222.783 230.062 222.783Z" fill="white"/>
<path d="M117.755 674.558H107.302V684.047H98.6321V674.558H88.1797V665.887H98.6321V656.398H107.302V665.887H117.755V674.558Z" fill="white"/>
<path d="M76.4014 669.066C79.3878 670.511 80.881 672.679 80.881 675.569V676.05C80.881 679.583 79.3717 682.232 76.3532 683.998C73.3347 685.764 68.823 686.647 62.8181 686.647C50.744 686.647 44.707 683.115 44.707 676.05V675.569C44.707 672.679 46.2002 670.511 49.1866 669.066C47.1636 667.589 46.1521 665.71 46.1521 663.43V662.949C46.1521 660.059 47.6131 657.811 50.5353 656.205C53.4575 654.6 57.5517 653.797 62.8181 653.797C68.0523 653.797 72.1305 654.6 75.0527 656.205C77.9749 657.811 79.4359 660.059 79.4359 662.949V663.43C79.4359 665.71 78.4244 667.589 76.4014 669.066ZM55.2558 664.057C55.2558 664.699 55.4645 665.181 55.8819 665.502C56.3315 665.823 57.0861 666.048 58.1458 666.176C59.2055 666.304 60.7629 666.369 62.8181 666.369C64.8732 666.369 66.4146 666.304 67.4422 666.176C68.5019 666.048 69.2404 665.823 69.6579 665.502C70.1075 665.181 70.3322 664.699 70.3322 664.057V663.912C70.3322 663.27 70.1075 662.788 69.6579 662.467C69.2083 662.114 68.4537 661.873 67.394 661.745C66.3343 661.584 64.809 661.504 62.8181 661.504C60.8272 661.504 59.2858 661.584 58.194 661.745C57.1343 661.873 56.3797 662.114 55.9301 662.467C55.4805 662.788 55.2558 663.27 55.2558 663.912V664.057ZM71.1993 676.243C71.1993 675.665 70.9424 675.215 70.4286 674.894C69.9469 674.573 69.112 674.348 67.9239 674.22C66.7678 674.092 65.0659 674.027 62.8181 674.027C60.5703 674.027 58.8523 674.092 57.6641 674.22C56.476 674.348 55.625 674.573 55.1113 674.894C54.6296 675.215 54.3887 675.665 54.3887 676.243V676.388C54.3887 677.03 54.6296 677.527 55.1113 677.881C55.625 678.234 56.476 678.491 57.6641 678.651C58.8523 678.78 60.5703 678.844 62.8181 678.844C65.0659 678.844 66.7678 678.78 67.9239 678.651C69.112 678.491 69.9469 678.234 70.4286 677.881C70.9424 677.527 71.1993 677.03 71.1993 676.388V676.243Z" fill="white"/>
<path d="M37.7914 686.022H28.1097V665.551C26.9216 665.936 25.621 666.129 24.2081 666.129H19.7285V657.121H24.2081C25.5889 657.121 26.5844 656.912 27.1945 656.495C27.8046 656.078 28.1097 655.387 28.1097 654.424H37.7914V686.022Z" fill="white"/>
<path d="M305.528 576.229C266.537 575.792 236.201 571.423 206.917 561.737C187.826 555.401 170.029 547.026 154.416 535.155C141.068 525.032 130.228 513.161 124.565 498.086C117.204 478.641 120.52 460.288 132.493 443.028C142.848 428.171 157.328 417.32 173.831 408.362C195.025 396.856 218.08 389.719 242.187 385.131C265.485 380.688 289.107 379.086 312.89 379.96C350.102 381.344 385.938 388.044 419.348 403.483C435.204 410.839 449.603 420.015 461.414 432.25C472.092 443.247 479.454 455.773 481.476 470.411C483.579 485.487 479.454 499.324 470.717 512.141C461.414 525.76 448.471 536.101 433.667 544.768C412.634 557.076 389.498 564.795 365.148 569.748C342.902 574.481 320.332 576.448 305.528 576.229ZM267.831 479.369C268.074 493.206 268.964 506.752 271.633 520.152C291.534 520.152 311.191 520.152 331.01 520.152C333.599 506.606 334.57 493.061 334.732 479.369C312.324 479.369 290.239 479.369 267.831 479.369ZM334.57 474.49C335.379 468.445 332.628 440.771 330.849 435.964C311.191 435.964 291.453 435.964 271.633 435.964C269.206 448.709 268.155 461.526 267.912 474.49C290.239 474.49 312.324 474.49 334.57 474.49ZM411.097 520.152C411.825 520.225 412.149 520.225 412.472 520.225C427.033 520.225 441.514 520.225 456.075 520.152C457.046 520.152 458.259 519.57 458.825 518.914C465.135 512.214 470.07 504.786 473.225 496.483C475.328 490.949 476.461 485.268 476.622 479.296C458.583 479.296 440.786 479.296 422.746 479.296C422.503 493.789 418.539 507.262 411.097 520.152ZM191.547 520.298C184.023 507.262 180.06 493.789 179.817 479.442C161.777 479.442 143.899 479.442 126.021 479.442C126.021 479.952 125.94 480.316 125.94 480.607C126.911 495.391 133.464 508.063 143.899 519.206C144.466 519.861 145.76 520.225 146.731 520.225C155.306 520.298 163.8 520.298 172.374 520.298C178.684 520.298 184.913 520.298 191.547 520.298ZM191.466 436.037C190.98 435.964 190.738 435.818 190.576 435.818C175.772 435.818 161.049 435.818 146.245 435.818C145.436 435.818 144.466 436.401 143.899 436.911C136.78 444.412 131.36 452.86 128.448 462.4C127.235 466.26 126.669 470.266 125.86 474.344C144.304 474.344 162.101 474.344 179.979 474.344C180.545 460.871 184.509 448.126 191.466 436.037ZM476.461 474.49C476.38 473.179 476.38 471.941 476.218 470.775C474.276 458.103 468.128 447.179 459.23 437.348C458.259 436.255 457.207 435.818 455.59 435.818C441.595 435.891 427.681 435.818 413.686 435.891C412.958 435.891 412.149 435.964 411.178 436.037C418.216 448.272 422.099 461.017 422.827 474.562C440.705 474.49 458.502 474.49 476.461 474.49ZM272.442 431.157C291.857 431.157 310.868 431.157 330.202 431.157C329.15 427.152 328.26 423.438 327.208 419.651C324.701 411.203 321.788 402.9 316.53 395.545C314.184 392.195 311.11 389.136 307.713 386.587C303.749 383.601 299.057 383.82 294.85 386.514C292.585 387.971 290.482 389.792 288.864 391.758C279.399 403.556 275.921 417.247 272.442 431.157ZM272.685 524.886C273.898 535.3 280.694 553.289 286.761 561.591C288.459 563.922 290.482 566.106 292.747 568C298.167 572.588 304.315 572.588 309.816 568.073C311.191 566.907 312.566 565.669 313.699 564.286C319.604 557.294 323.002 549.283 325.671 540.981C327.37 535.737 328.745 530.348 330.282 524.813C310.868 524.886 291.857 524.886 272.685 524.886ZM379.548 479.369C379.467 493.425 376.959 506.898 372.105 520.079C372.672 520.152 372.995 520.298 373.238 520.298C383.269 520.298 393.381 520.371 403.412 520.225C404.302 520.225 405.434 519.278 405.92 518.477C411.016 510.175 414.414 501.363 416.113 491.968C416.841 487.817 417.083 483.666 417.569 479.369C404.625 479.369 392.248 479.369 379.548 479.369ZM185.318 479.369C185.318 479.879 185.237 480.243 185.237 480.607C185.56 494.226 189.686 506.898 196.805 518.914C197.452 520.079 198.342 520.371 199.636 520.371C208.13 520.298 216.543 520.371 225.037 520.371C226.736 520.371 228.516 520.371 230.619 520.371C225.604 506.971 223.258 493.425 223.096 479.442C210.395 479.369 198.018 479.369 185.318 479.369ZM230.619 435.818C219.698 435.818 209.263 435.818 198.827 435.891C198.099 435.891 197.128 436.838 196.724 437.493C192.437 444.485 189.201 451.913 187.421 459.706C186.289 464.512 185.722 469.392 184.913 474.417C198.018 474.417 210.557 474.417 223.096 474.417C223.5 461.308 225.846 448.636 230.619 435.818ZM417.326 474.562C417.326 473.907 417.326 473.47 417.326 473.033C416.517 460.215 412.472 448.199 405.596 437.056C405.192 436.401 403.816 435.964 402.927 435.891C393.381 435.818 383.754 435.818 374.209 435.818C373.642 435.818 372.995 435.891 372.105 435.964C376.797 448.563 379.143 461.381 379.548 474.49C392.248 474.562 404.625 474.562 417.326 474.562ZM336.997 520.298C337.401 520.298 338.129 520.298 338.938 520.298C347.351 520.298 355.684 520.225 364.097 520.371C365.957 520.371 366.685 519.861 367.252 518.332C370.487 509.52 372.591 500.489 373.642 491.24C374.047 487.38 374.128 483.447 374.37 479.442C362.722 479.442 351.477 479.442 340.556 479.442C339.343 493.061 338.21 506.534 336.997 520.298ZM265.647 520.298C264.434 506.461 263.22 492.988 262.088 479.442C251.086 479.442 239.922 479.442 228.678 479.442C228.597 479.733 228.435 479.952 228.435 480.17C228.516 493.498 231.024 506.461 235.635 519.06C236.12 520.371 237.01 520.371 238.223 520.371C245.1 520.371 251.976 520.371 258.852 520.371C261.198 520.298 263.544 520.298 265.647 520.298ZM353.338 567.344C369.679 564.65 386.181 560.499 402.037 554.527C420.076 547.681 436.741 539.015 450.978 526.78C451.545 526.27 452.111 525.687 452.92 524.959C452.111 524.886 451.787 524.813 451.545 524.813C437.631 524.813 423.717 524.813 409.884 524.886C408.994 524.886 407.78 525.76 407.214 526.488C398.558 538.65 387.556 548.773 374.128 556.639C367.171 560.571 359.971 563.921 353.338 567.344ZM250.439 567.563C249.872 567.126 249.791 566.98 249.63 566.907C249.144 566.689 248.659 566.47 248.093 566.252C226.17 557.513 208.292 544.404 195.43 526.051C194.54 524.813 193.569 524.74 192.275 524.74C178.927 524.74 165.579 524.74 152.232 524.74C151.584 524.74 150.856 524.813 150.209 524.886C178.118 549.356 212.66 560.936 250.439 567.563ZM352.286 388.845C353.257 389.282 353.985 389.573 354.713 389.864C376.555 398.604 394.352 411.713 407.214 429.992C408.104 431.23 409.075 431.376 410.369 431.303C423.717 431.303 437.064 431.303 450.412 431.303C451.059 431.303 451.787 431.23 452.596 431.157C440.3 415.135 382.136 390.52 352.286 388.845ZM249.953 389.063C249.872 388.772 249.791 388.481 249.711 388.262C238.871 390.884 227.95 393.142 217.271 396.127C194.863 402.536 174.154 411.785 156.195 425.695C154.092 427.37 152.07 429.118 149.966 430.866C150.047 431.012 150.128 431.157 150.209 431.303C151.018 431.303 151.746 431.303 152.555 431.303C165.741 431.303 178.927 431.303 192.113 431.303C193.812 431.303 194.863 430.793 195.753 429.482C203.115 418.922 212.418 410.11 223.5 402.609C231.671 397.147 240.488 392.705 249.953 389.063ZM374.29 474.49C373.885 461.745 371.62 449.583 367.171 437.712C366.604 436.182 365.796 435.818 364.097 435.818C355.684 435.891 347.351 435.818 338.938 435.818C338.129 435.818 337.401 435.818 336.916 435.818C338.129 448.782 339.262 461.599 340.475 474.49C351.477 474.49 362.721 474.49 374.29 474.49ZM265.647 435.964C265.242 435.964 264.514 435.891 263.786 435.891C255.292 435.891 246.879 435.964 238.385 435.818C236.686 435.818 235.958 436.328 235.392 437.785C232.075 446.67 230.053 455.773 229.001 465.095C228.678 468.226 228.516 471.358 228.354 474.49C240.003 474.49 251.248 474.49 262.168 474.49C263.301 461.599 264.514 448.927 265.647 435.964ZM268.155 567.272C265.242 565.232 262.411 563.339 259.742 561.227C247.769 551.759 239.437 539.961 233.37 526.78C232.642 525.105 231.752 524.668 229.891 524.74C222.287 524.813 214.764 524.813 207.16 524.813C205.218 524.813 203.277 524.813 201.173 524.813C207.402 539.889 250.115 566.907 268.155 567.272ZM201.173 431.303C210.881 431.303 220.426 431.23 229.891 431.376C231.752 431.376 232.642 430.939 233.37 429.337C239.356 416.155 247.688 404.357 259.742 394.889C262.411 392.777 265.323 390.884 268.155 388.845C250.034 389.209 207.402 416.228 201.173 431.303ZM402.037 524.813C391.925 524.813 382.622 524.886 373.238 524.74C370.811 524.668 369.84 525.469 368.95 527.362C361.589 543.239 350.992 556.93 334.974 566.762C334.813 566.907 334.651 567.126 334.246 567.708C362.56 560.499 385.21 546.953 402.037 524.813ZM401.47 431.303C395.161 416.155 352.69 389.209 334.489 388.772C337.401 390.811 340.233 392.705 342.902 394.817C354.875 404.284 363.207 416.082 369.274 429.264C370.002 430.939 370.892 431.376 372.753 431.303C380.761 431.23 388.689 431.23 396.698 431.23C398.235 431.303 399.772 431.303 401.47 431.303ZM335.541 524.886C331.739 540.762 327.532 556.347 315.883 569.675C329.797 565.815 340.313 558.387 349.05 548.701C355.522 541.564 360.537 533.698 364.42 524.886C354.551 524.886 345.086 524.886 335.541 524.886ZM315.964 386.587C327.613 399.842 331.658 415.5 335.541 431.157C345.167 431.157 354.551 431.157 364.097 431.157C356.816 412.659 338.372 392.195 315.964 386.587ZM286.68 386.514C273.17 390.228 262.897 397.366 254.322 406.615C247.526 413.97 242.268 422.127 238.223 431.157C248.174 431.157 257.638 431.157 267.022 431.157C270.905 415.354 275.031 399.842 286.68 386.514ZM286.275 569.456C274.95 556.347 270.905 540.69 267.022 525.032C257.396 525.032 247.931 525.032 238.062 525.032C248.174 545.496 262.007 562.101 286.275 569.456Z" fill="black"/>
<path d="M225.228 447.437C225.228 451.83 221.266 455.391 216.378 455.391C211.491 455.391 207.529 451.83 207.529 447.437C207.529 443.044 211.491 439.482 216.378 439.482C221.266 439.482 225.228 443.044 225.228 447.437Z" fill="#FF7355"/>
<path fill-rule="evenodd" clip-rule="evenodd" d="M195.391 431.079L190.891 436.862L208.461 439.295L201.783 422.863L197.277 428.654C166.86 405.152 126.731 375.084 101.004 355.807C87.2221 345.48 77.5729 338.25 75.7633 336.785L73.8301 339.173C75.645 340.642 85.3543 347.918 99.2058 358.297C124.983 377.613 165.106 407.679 195.391 431.079Z" fill="black"/>
<path d="M558.52 664.363C561.06 664.363 563.067 664.978 564.542 666.207C566.016 667.408 566.754 669.019 566.754 671.04C566.754 672.378 566.44 673.73 565.812 675.095L561.306 685.131H557.251L562.002 674.563C562.521 673.443 562.78 672.405 562.78 671.45C562.78 670.303 562.384 669.402 561.592 668.746C560.801 668.091 559.667 667.763 558.193 667.763C556.581 667.763 554.957 668.159 553.318 668.951C551.707 669.743 550.26 670.835 548.976 672.228C548.84 673.156 548.553 674.112 548.116 675.095L543.61 685.131H539.596L544.307 674.563C544.825 673.416 545.085 672.365 545.085 671.409C545.085 670.262 544.689 669.374 543.897 668.746C543.105 668.091 541.985 667.763 540.538 667.763C539.009 667.763 537.48 668.118 535.95 668.828C534.448 669.511 533.11 670.48 531.936 671.736L525.956 685.131H521.9L530.953 664.855H534.353L533.616 667.272C536.155 665.333 538.818 664.363 541.603 664.363C543.351 664.363 544.839 664.718 546.068 665.428C547.297 666.138 548.157 667.121 548.649 668.378C551.407 665.701 554.697 664.363 558.52 664.363Z" fill="black"/>
<path d="M516.828 679.56C516.637 680.024 516.541 680.379 516.541 680.625C516.541 681.007 516.692 681.308 516.992 681.526C517.292 681.745 517.729 681.854 518.303 681.854H520.023L518.59 685.131H516.705C515.64 685.131 514.725 684.899 513.961 684.435C513.224 683.943 512.746 683.301 512.527 682.509C511.053 683.574 509.496 684.366 507.858 684.885C506.219 685.377 504.417 685.623 502.451 685.623C499.993 685.623 498.054 685.186 496.634 684.312C495.241 683.411 494.545 682.209 494.545 680.707C494.545 679.97 494.722 679.205 495.077 678.413C495.569 677.239 496.293 676.338 497.248 675.71C498.204 675.082 499.228 674.645 500.321 674.399C501.44 674.153 502.792 673.962 504.376 673.825L515.804 672.801C515.968 672.31 516.05 671.859 516.05 671.45C516.05 670.33 515.517 669.456 514.452 668.828C513.387 668.173 511.899 667.845 509.988 667.845C507.967 667.845 506.246 668.227 504.826 668.992C503.434 669.757 502.492 670.808 502 672.146L501.959 672.31H497.904L497.945 672.146C498.819 669.688 500.348 667.777 502.532 666.411C504.717 665.046 507.366 664.363 510.479 664.363C512.418 664.363 514.111 664.636 515.558 665.183C517.033 665.701 518.153 666.452 518.917 667.435C519.709 668.419 520.105 669.538 520.105 670.794C520.105 671.695 519.873 672.692 519.409 673.785L516.828 679.56ZM498.641 679.437C498.532 679.683 498.477 679.956 498.477 680.257C498.477 680.939 498.832 681.458 499.542 681.813C500.28 682.168 501.345 682.346 502.737 682.346C504.785 682.346 506.738 682.004 508.595 681.322C510.452 680.639 512.008 679.683 513.265 678.454L514.411 675.915L503.516 676.939C502.014 677.075 500.894 677.335 500.157 677.717C499.419 678.099 498.914 678.673 498.641 679.437Z" fill="black"/>
<path d="M486.83 685.131C485.41 685.131 484.29 684.803 483.471 684.148C482.679 683.492 482.283 682.591 482.283 681.444C482.283 680.652 482.515 679.724 482.98 678.659L492.769 656.621H496.825L486.789 679.191C486.543 679.71 486.42 680.174 486.42 680.584C486.42 681.43 487.076 681.854 488.387 681.854H490.107L488.673 685.131H486.83Z" fill="black"/>
<path d="M463.914 685.623C460.609 685.623 457.974 685.131 456.008 684.148C454.069 683.165 453.1 681.868 453.1 680.257C453.1 679.902 453.168 679.492 453.304 679.028L453.386 678.741H457.401L457.319 679.028C457.237 679.273 457.196 679.506 457.196 679.724C457.196 680.543 457.783 681.171 458.957 681.608C460.131 682.045 461.852 682.264 464.118 682.264C466.549 682.264 468.392 682.059 469.648 681.649C470.932 681.24 471.737 680.584 472.065 679.683L472.188 679.437C472.27 679.191 472.311 678.959 472.311 678.741C472.311 678.195 471.997 677.758 471.369 677.43C470.741 677.102 469.757 676.857 468.419 676.693L463.955 676.16C461.961 675.915 460.432 675.423 459.367 674.686C458.302 673.921 457.769 672.952 457.769 671.777C457.769 671.177 457.906 670.549 458.179 669.893L458.343 669.484C459.599 666.07 463.449 664.363 469.894 664.363C471.969 664.363 473.785 664.582 475.342 665.019C476.926 665.456 478.141 666.07 478.988 666.862C479.834 667.654 480.257 668.569 480.257 669.606C480.257 669.989 480.189 670.426 480.053 670.917L479.971 671.204H475.997L476.12 670.917C476.202 670.699 476.243 670.494 476.243 670.303C476.243 669.511 475.656 668.883 474.482 668.419C473.307 667.954 471.655 667.722 469.525 667.722C467.286 667.722 465.579 667.913 464.405 668.296C463.258 668.651 462.535 669.224 462.234 670.016L462.111 670.344C462.002 670.589 461.947 670.849 461.947 671.122C461.947 672.105 463.026 672.733 465.183 673.006L469.689 673.58C471.928 673.853 473.622 674.385 474.768 675.177C475.943 675.942 476.53 676.925 476.53 678.126C476.53 678.673 476.407 679.26 476.161 679.888L475.997 680.297C475.315 682.045 473.963 683.37 471.942 684.271C469.921 685.172 467.245 685.623 463.914 685.623Z" fill="black"/>
<path d="M558.52 635.854C561.06 635.854 563.067 636.468 564.542 637.697C566.016 638.898 566.754 640.51 566.754 642.53C566.754 643.868 566.44 645.22 565.812 646.586L561.306 656.621H557.251L562.002 646.053C562.521 644.933 562.78 643.896 562.78 642.94C562.78 641.793 562.384 640.892 561.592 640.236C560.801 639.581 559.667 639.253 558.193 639.253C556.581 639.253 554.957 639.649 553.318 640.441C551.707 641.233 550.26 642.326 548.976 643.718C548.84 644.647 548.553 645.602 548.116 646.586L543.61 656.621H539.596L544.307 646.053C544.825 644.906 545.085 643.855 545.085 642.899C545.085 641.752 544.689 640.865 543.897 640.236C543.105 639.581 541.985 639.253 540.538 639.253C539.009 639.253 537.48 639.608 535.95 640.318C534.448 641.001 533.11 641.97 531.936 643.227L525.956 656.621H521.9L530.953 636.345H534.353L533.616 638.762C536.155 636.823 538.818 635.854 541.603 635.854C543.351 635.854 544.839 636.209 546.068 636.919C547.297 637.629 548.157 638.612 548.649 639.868C551.407 637.192 554.697 635.854 558.52 635.854Z" fill="black"/>
<path d="M516.828 651.05C516.637 651.515 516.541 651.87 516.541 652.115C516.541 652.498 516.692 652.798 516.992 653.017C517.292 653.235 517.729 653.344 518.303 653.344H520.023L518.59 656.621H516.705C515.64 656.621 514.725 656.389 513.961 655.925C513.224 655.433 512.746 654.792 512.527 654C511.053 655.065 509.496 655.857 507.858 656.375C506.219 656.867 504.417 657.113 502.451 657.113C499.993 657.113 498.054 656.676 496.634 655.802C495.241 654.901 494.545 653.699 494.545 652.197C494.545 651.46 494.722 650.695 495.077 649.903C495.569 648.729 496.293 647.828 497.248 647.2C498.204 646.572 499.228 646.135 500.321 645.889C501.44 645.643 502.792 645.452 504.376 645.316L515.804 644.292C515.968 643.8 516.05 643.35 516.05 642.94C516.05 641.82 515.517 640.946 514.452 640.318C513.387 639.663 511.899 639.335 509.988 639.335C507.967 639.335 506.246 639.718 504.826 640.482C503.434 641.247 502.492 642.298 502 643.636L501.959 643.8H497.904L497.945 643.636C498.819 641.179 500.348 639.267 502.532 637.902C504.717 636.536 507.366 635.854 510.479 635.854C512.418 635.854 514.111 636.127 515.558 636.673C517.033 637.192 518.153 637.943 518.917 638.926C519.709 639.909 520.105 641.028 520.105 642.285C520.105 643.186 519.873 644.182 519.409 645.275L516.828 651.05ZM498.641 650.928C498.532 651.173 498.477 651.446 498.477 651.747C498.477 652.429 498.832 652.948 499.542 653.303C500.28 653.658 501.345 653.836 502.737 653.836C504.785 653.836 506.738 653.494 508.595 652.812C510.452 652.129 512.008 651.173 513.265 649.944L514.411 647.405L503.516 648.429C502.014 648.565 500.894 648.825 500.157 649.207C499.419 649.589 498.914 650.163 498.641 650.928Z" fill="black"/>
<path d="M486.83 656.621C485.41 656.621 484.29 656.293 483.471 655.638C482.679 654.982 482.283 654.081 482.283 652.934C482.283 652.142 482.515 651.214 482.98 650.149L492.769 628.111H496.825L486.789 650.681C486.543 651.2 486.42 651.664 486.42 652.074C486.42 652.921 487.076 653.344 488.387 653.344H490.107L488.673 656.621H486.83Z" fill="black"/>
<path d="M463.914 657.113C460.609 657.113 457.974 656.621 456.008 655.638C454.069 654.655 453.1 653.358 453.1 651.747C453.1 651.392 453.168 650.982 453.304 650.518L453.386 650.231H457.401L457.319 650.518C457.237 650.764 457.196 650.996 457.196 651.214C457.196 652.033 457.783 652.662 458.957 653.098C460.131 653.535 461.852 653.754 464.118 653.754C466.549 653.754 468.392 653.549 469.648 653.139C470.932 652.73 471.737 652.074 472.065 651.173L472.188 650.928C472.27 650.682 472.311 650.45 472.311 650.231C472.311 649.685 471.997 649.248 471.369 648.92C470.741 648.593 469.757 648.347 468.419 648.183L463.955 647.651C461.961 647.405 460.432 646.913 459.367 646.176C458.302 645.411 457.769 644.442 457.769 643.268C457.769 642.667 457.906 642.039 458.179 641.383L458.343 640.974C459.599 637.56 463.449 635.854 469.894 635.854C471.969 635.854 473.785 636.072 475.342 636.509C476.926 636.946 478.141 637.56 478.988 638.352C479.834 639.144 480.257 640.059 480.257 641.097C480.257 641.479 480.189 641.916 480.053 642.407L479.971 642.694H475.997L476.12 642.407C476.202 642.189 476.243 641.984 476.243 641.793C476.243 641.001 475.656 640.373 474.482 639.909C473.307 639.445 471.655 639.212 469.525 639.212C467.286 639.212 465.579 639.404 464.405 639.786C463.258 640.141 462.535 640.714 462.234 641.506L462.111 641.834C462.002 642.08 461.947 642.339 461.947 642.612C461.947 643.595 463.026 644.223 465.183 644.496L469.689 645.07C471.928 645.343 473.622 645.876 474.768 646.667C475.943 647.432 476.53 648.415 476.53 649.617C476.53 650.163 476.407 650.75 476.161 651.378L475.997 651.788C475.315 653.535 473.963 654.86 471.942 655.761C469.921 656.662 467.245 657.113 463.914 657.113Z" fill="black"/>
<path d="M46.3037 498.289C43.1567 498.289 40.4433 497.792 38.1633 496.796C35.8834 495.769 34.1333 494.307 32.9131 492.413C31.7249 490.518 31.1309 488.303 31.1309 485.766V485.332C31.1309 482.731 31.7249 480.483 32.9131 478.589C34.1333 476.694 35.8834 475.233 38.1633 474.205C40.4433 473.178 43.1567 472.664 46.3037 472.664C51.0562 472.664 54.7491 473.788 57.3822 476.036C60.0154 478.284 61.332 481.382 61.332 485.332V485.766C61.332 489.651 60.0154 492.718 57.3822 494.966C54.7491 497.181 51.0562 498.289 46.3037 498.289ZM46.2555 489.812C48.0217 489.812 49.3704 489.475 50.3016 488.8C51.2328 488.094 51.6985 487.05 51.6985 485.669V485.477C51.6985 484.032 51.2328 482.956 50.3016 482.249C49.3704 481.511 48.0217 481.142 46.2555 481.142C44.4573 481.142 43.0925 481.511 42.1613 482.249C41.23 482.956 40.7644 484.032 40.7644 485.477V485.669C40.7644 487.05 41.23 488.094 42.1613 488.8C43.1246 489.475 44.4894 489.812 46.2555 489.812Z" fill="black"/>
<path d="M46.0628 442.289C43.0122 442.289 40.363 441.792 38.1152 440.796C35.8673 439.769 34.1333 438.323 32.9131 436.461C31.7249 434.566 31.1309 432.335 31.1309 429.766V429.332C31.1309 426.731 31.7249 424.483 32.9131 422.589C34.1333 420.662 35.8673 419.201 38.1152 418.205C40.363 417.178 43.0122 416.664 46.0628 416.664C48.9529 416.664 51.5058 417.13 53.7215 418.061C55.9693 418.992 57.7034 420.309 58.9236 422.011C60.1439 423.68 60.754 425.607 60.754 427.791V428.08H51.1686V427.791C51.1686 426.988 50.703 426.346 49.7718 425.864C48.8405 425.382 47.6042 425.142 46.0628 425.142C44.2325 425.142 42.8838 425.495 42.0168 426.201C41.1819 426.876 40.7644 427.967 40.7644 429.477V429.669C40.7644 431.082 41.1979 432.126 42.0649 432.8C42.9319 433.475 44.2646 433.812 46.0628 433.812C47.7005 433.812 48.9529 433.587 49.8199 433.137C50.7191 432.656 51.1686 431.997 51.1686 431.163V430.874H60.754V431.163C60.754 433.442 60.1599 435.417 58.9718 437.087C57.7837 438.757 56.0817 440.041 53.866 440.941C51.6824 441.84 49.0814 442.289 46.0628 442.289Z" fill="black"/>
<path d="M46.544 386.289C41.7914 386.289 38.1146 385.535 35.5136 384.025C32.9446 382.484 31.6602 380.3 31.6602 377.475V377.33H40.1858V377.475C40.1858 378.213 40.6836 378.759 41.679 379.112C42.6745 379.433 44.2961 379.594 46.544 379.594C48.2459 379.594 49.5625 379.514 50.4937 379.353C51.425 379.16 51.8906 378.888 51.8906 378.534V378.342C51.8906 378.053 51.73 377.844 51.4089 377.715C51.1199 377.555 50.574 377.442 49.7712 377.378L42.9314 376.704C39.2385 376.351 36.5251 375.58 34.7911 374.392C33.057 373.204 32.19 371.534 32.19 369.382V368.901C32.19 366.268 33.4424 364.245 35.9471 362.832C38.4518 361.387 41.9841 360.664 46.544 360.664C51.2323 360.664 54.7646 361.403 57.1409 362.88C59.5171 364.357 60.7053 366.557 60.7053 369.479V369.623H52.2278V369.479C52.2278 368.708 51.7782 368.162 50.8791 367.841C49.9799 367.52 48.4386 367.359 46.255 367.359C42.6906 367.359 40.9084 367.697 40.9084 368.371V368.564C40.9084 369.045 41.5988 369.35 42.9796 369.479L49.9639 370.201C53.721 370.587 56.4665 371.373 58.2006 372.561C59.9667 373.75 60.8498 375.419 60.8498 377.571V378.053C60.8498 380.654 59.5974 382.677 57.0927 384.122C54.588 385.567 51.0717 386.289 46.544 386.289Z" fill="black"/>
<path d="M46.3037 330.289C43.1567 330.289 40.4433 329.792 38.1633 328.796C35.8834 327.768 34.1333 326.307 32.9131 324.413C31.7249 322.518 31.1309 320.303 31.1309 317.766V317.332C31.1309 314.731 31.7249 312.483 32.9131 310.589C34.1333 308.694 35.8834 307.233 38.1633 306.205C40.4433 305.178 43.1567 304.664 46.3037 304.664C51.0562 304.664 54.7491 305.788 57.3822 308.036C60.0154 310.284 61.332 313.382 61.332 317.332V317.766C61.332 321.651 60.0154 324.718 57.3822 326.966C54.7491 329.181 51.0562 330.289 46.3037 330.289ZM46.2555 321.812C48.0217 321.812 49.3704 321.475 50.3016 320.8C51.2328 320.094 51.6985 319.05 51.6985 317.669V317.477C51.6985 316.032 51.2328 314.956 50.3016 314.249C49.3704 313.511 48.0217 313.142 46.2555 313.142C44.4573 313.142 43.0925 313.511 42.1613 314.249C41.23 314.956 40.7644 316.032 40.7644 317.477V317.669C40.7644 319.05 41.23 320.094 42.1613 320.8C43.1246 321.475 44.4894 321.812 46.2555 321.812Z" fill="black"/>
<path d="M55.3271 249.68C59.5017 249.68 62.6647 250.82 64.8162 253.1C66.9677 255.347 68.0434 258.671 68.0434 263.07V274.679H58.6989V263.07C58.6989 261.497 58.2975 260.293 57.4947 259.458C56.6919 258.623 55.5519 258.205 54.0748 258.205C52.8866 258.205 51.827 258.462 50.8957 258.976C49.9645 259.49 49.2259 260.212 48.68 261.144C48.7442 261.979 48.7763 262.621 48.7763 263.07V274.679H39.4318V263.07C39.4318 261.497 39.0304 260.293 38.2276 259.458C37.4569 258.623 36.333 258.205 34.8559 258.205C33.6998 258.205 32.6562 258.462 31.725 258.976C30.8258 259.458 30.1033 260.132 29.5574 260.999V274.679H20.2129V250.306H28.8831L29.0757 252.088C31.1309 250.482 33.6356 249.68 36.5899 249.68C40.8287 249.68 43.9756 250.948 46.0308 253.485C48.3749 250.948 51.4737 249.68 55.3271 249.68Z" fill="black"/>
<path d="M69.8012 525.223V526.523L61.0347 549.596H48.7519L44.0796 537.265L39.4555 549.596H27.2209L18.4062 526.523V525.223H28.5215L33.4346 540.155L39.1665 525.223H48.9446L54.8692 540.54L60.1676 525.223H69.8012Z" fill="black"/>
<path d="M281.522 669.513C281.522 681.323 255.658 690.896 223.752 690.896C191.847 690.896 165.982 681.323 165.982 669.513C165.982 657.704 191.847 648.131 223.752 648.131C255.658 648.131 281.522 657.704 281.522 669.513Z" fill="black"/>
<path d="M411.788 669.513C411.788 681.323 385.923 690.896 354.018 690.896C322.112 690.896 296.248 681.323 296.248 669.513C296.248 657.704 322.112 648.131 354.018 648.131C385.923 648.131 411.788 657.704 411.788 669.513Z" fill="black"/>
<path d="M240.746 659.841C240.746 665.183 232.631 669.514 222.622 669.514C212.612 669.514 204.498 665.183 204.498 659.841C204.498 654.499 212.612 650.168 222.622 650.168C232.631 650.168 240.746 654.499 240.746 659.841Z" fill="white"/>
<path d="M372.142 659.841C372.142 665.183 364.028 669.514 354.018 669.514C344.009 669.514 335.895 665.183 335.895 659.841C335.895 654.499 344.009 650.168 354.018 650.168C364.028 650.168 372.142 654.499 372.142 659.841Z" fill="white"/>
<path d="M229.417 655.768C229.417 658.861 226.628 661.368 223.187 661.368C219.746 661.368 216.957 658.861 216.957 655.768C216.957 652.675 219.746 650.168 223.187 650.168C226.628 650.168 229.417 652.675 229.417 655.768Z" fill="#4ADE80"/>
<path d="M360.814 655.768C360.814 658.861 358.024 661.368 354.584 661.368C351.143 661.368 348.354 658.861 348.354 655.768C348.354 652.675 351.143 650.168 354.584 650.168C358.024 650.168 360.814 652.675 360.814 655.768Z" fill="#4ADE80"/>
<path fill-rule="evenodd" clip-rule="evenodd" d="M239.025 432.7L441.703 250.032L439.646 247.75L236.968 430.418L232.059 424.971L226.586 441.842L243.934 438.146L239.025 432.7Z" fill="black"/>
<g filter="url(#filter0_dddddd_38_170)">
<path d="M644.001 367.512C505.988 367.512 508.072 365.724 508.072 489.697C508.072 365.639 510.061 367.512 372.143 367.512C510.156 367.512 508.072 369.3 508.072 245.326C508.072 369.3 505.988 367.512 644.001 367.512Z" fill="black"/>
</g>
</g>
<defs>
<filter id="filter0_dddddd_38_170" x="-866.546" y="-993.363" width="2749.23" height="2721.75" filterUnits="userSpaceOnUse" color-interpolation-filters="sRGB">
<feFlood flood-opacity="0" result="BackgroundImageFix"/>
<feColorMatrix in="SourceAlpha" type="matrix" values="0 0 0 0 0 0 0 0 0 0 0 0 0 0 0 0 0 0 127 0" result="hardAlpha"/>
<feOffset/>
<feGaussianBlur stdDeviation="14.7463"/>
<feColorMatrix type="matrix" values="0 0 0 0 0 0 0 0 0 0 0 0 0 0 0 0 0 0 1 0"/>
<feBlend mode="normal" in2="BackgroundImageFix" result="effect1_dropShadow_38_170"/>
<feColorMatrix in="SourceAlpha" type="matrix" values="0 0 0 0 0 0 0 0 0 0 0 0 0 0 0 0 0 0 127 0" result="hardAlpha"/>
<feOffset/>
<feGaussianBlur stdDeviation="29.4926"/>
<feColorMatrix type="matrix" values="0 0 0 0 0 0 0 0 0 0 0 0 0 0 0 0 0 0 1 0"/>
<feBlend mode="normal" in2="effect1_dropShadow_38_170" result="effect2_dropShadow_38_170"/>
<feColorMatrix in="SourceAlpha" type="matrix" values="0 0 0 0 0 0 0 0 0 0 0 0 0 0 0 0 0 0 127 0" result="hardAlpha"/>
<feOffset/>
<feGaussianBlur stdDeviation="103.224"/>
<feColorMatrix type="matrix" values="0 0 0 0 0 0 0 0 0 0 0 0 0 0 0 0 0 0 1 0"/>
<feBlend mode="normal" in2="effect2_dropShadow_38_170" result="effect3_dropShadow_38_170"/>
<feColorMatrix in="SourceAlpha" type="matrix" values="0 0 0 0 0 0 0 0 0 0 0 0 0 0 0 0 0 0 127 0" result="hardAlpha"/>
<feOffset/>
<feGaussianBlur stdDeviation="206.448"/>
<feColorMatrix type="matrix" values="0 0 0 0 0 0 0 0 0 0 0 0 0 0 0 0 0 0 1 0"/>
<feBlend mode="normal" in2="effect3_dropShadow_38_170" result="effect4_dropShadow_38_170"/>
<feColorMatrix in="SourceAlpha" type="matrix" values="0 0 0 0 0 0 0 0 0 0 0 0 0 0 0 0 0 0 127 0" result="hardAlpha"/>
<feOffset/>
<feGaussianBlur stdDeviation="353.911"/>
<feColorMatrix type="matrix" values="0 0 0 0 0 0 0 0 0 0 0 0 0 0 0 0 0 0 1 0"/>
<feBlend mode="normal" in2="effect4_dropShadow_38_170" result="effect5_dropShadow_38_170"/>
<feColorMatrix in="SourceAlpha" type="matrix" values="0 0 0 0 0 0 0 0 0 0 0 0 0 0 0 0 0 0 127 0" result="hardAlpha"/>
<feOffset/>
<feGaussianBlur stdDeviation="619.344"/>
<feColorMatrix type="matrix" values="0 0 0 0 0 0 0 0 0 0 0 0 0 0 0 0 0 0 1 0"/>
<feBlend mode="normal" in2="effect5_dropShadow_38_170" result="effect6_dropShadow_38_170"/>
<feBlend mode="normal" in="SourceGraphic" in2="effect6_dropShadow_38_170" result="shape"/>
</filter>
</defs>
</svg>
