<svg width="880" height="814" viewBox="0 0 880 814" fill="none" xmlns="http://www.w3.org/2000/svg">
<path d="M377.575 456.853C364.116 445.452 350.498 434.527 337.039 422.968C322.788 410.617 308.537 398.266 294.603 385.44C288.902 380.214 283.36 374.672 277.66 369.447C274.968 367.072 276.235 364.38 276.868 362.163C277.501 359.471 278.293 356.621 278.926 353.929C279.877 350.762 280.827 347.595 281.935 344.587C283.677 339.52 285.735 334.453 288.11 329.386C291.277 322.419 294.603 315.61 298.245 308.801C307.27 291.858 317.404 275.39 327.538 259.081C334.03 248.63 340.681 238.338 347.173 227.887C355.249 214.903 363.007 201.76 370.925 188.617C377.258 178.167 383.276 167.399 389.134 156.632C393.885 147.765 398.635 138.739 403.069 129.555C407.186 121.004 411.144 112.612 414.945 104.061C417.953 97.4109 420.645 90.4438 423.337 83.6349C427.612 73.1842 431.096 62.5751 434.579 51.966C436.004 47.6907 437.588 43.5738 438.38 39.1401C438.538 37.715 439.805 37.3983 441.071 37.715C448.83 38.9818 456.747 38.5067 464.506 38.6651C474.957 38.8234 485.408 38.9818 495.7 38.3484C502.667 38.0317 509.476 37.3983 516.443 36.7649C526.419 35.6565 536.395 34.2314 546.371 32.648C552.229 31.6979 558.088 30.5895 563.947 29.3228C569.964 28.056 576.139 26.7892 582.156 25.0474C587.699 23.464 593.241 21.8806 598.624 20.1388C606.066 17.7636 613.509 15.3884 620.793 12.5382C625.385 10.7964 629.977 8.89629 634.569 6.99615C639.161 5.09602 643.594 2.87919 648.186 0.97905C649.453 0.345671 650.403 0.504016 651.511 1.77077C661.962 13.6466 671.78 26.1559 680.964 39.1401C689.356 51.016 697.431 63.2085 704.874 75.8761C712.791 89.0187 720.233 102.478 727.992 115.779C733.217 124.805 738.284 133.672 743.826 142.381C749.368 151.248 754.91 159.799 761.086 168.191C769.161 179.275 778.029 189.726 787.688 199.543C788.48 200.335 790.38 201.127 789.746 202.393C789.43 203.343 787.529 202.71 786.421 202.71C781.671 202.71 776.92 202.71 772.17 202.71C767.578 202.71 762.986 202.235 758.552 201.602C751.11 200.652 743.668 199.385 736.384 197.801C727.517 195.901 719.125 193.051 710.574 190.201C708.516 189.409 706.774 187.984 705.19 186.401C694.264 175.158 684.764 162.649 676.213 149.506C672.571 143.806 669.246 137.947 665.762 132.088C665.446 131.455 664.971 130.822 664.337 130.347C664.179 130.98 664.337 131.455 664.496 132.088C666.396 137.789 668.138 143.331 669.879 149.031C671.463 153.782 673.205 158.374 674.788 163.124C677.48 170.725 680.647 178.008 683.814 185.451C688.247 195.743 692.998 205.877 697.748 215.853C701.707 224.245 706.14 232.321 710.257 240.554C715.008 249.58 719.916 258.606 725.142 267.473C729.892 275.549 734.801 283.624 739.868 291.542C746.043 301.359 752.694 311.018 759.502 320.36C767.895 332.078 776.762 343.32 786.263 354.246C787.371 355.354 788.321 356.621 789.271 357.73C789.905 358.363 790.063 359.155 788.796 359.313C786.421 359.788 783.888 360.263 781.512 360.896C778.187 361.688 774.862 362.48 771.695 363.113C768.845 363.747 765.995 364.538 763.144 365.013C758.869 365.805 754.594 366.914 750.318 367.864C747.31 368.497 744.301 369.289 741.293 370.08C735.117 371.822 728.784 372.931 722.767 374.831C718.016 376.256 713.266 377.206 708.516 378.473C704.715 379.423 701.073 380.69 697.431 381.64C694.106 382.59 690.623 383.381 687.297 384.331C683.022 385.598 678.588 386.707 674.313 387.973C666.871 390.032 659.429 392.249 652.145 394.307C648.186 395.574 644.228 396.999 640.111 398.266C635.994 399.374 632.035 400.641 628.076 401.908C623.168 403.491 618.259 404.916 613.35 406.5C606.225 408.875 599.099 411.092 592.132 413.625C585.798 415.684 579.465 417.9 573.289 420.117C566.164 422.809 559.038 425.184 551.913 427.718C546.371 429.776 540.67 431.835 535.128 434.052C528.003 436.744 521.035 439.594 513.91 442.286C506.468 445.136 499.026 448.303 491.583 451.311C482.874 454.953 474.165 458.595 465.456 462.395C462.923 463.504 460.389 464.612 457.856 465.721C454.056 466.671 451.047 468.887 447.405 470.313C447.88 470.788 448.355 470.788 448.83 470.629C450.572 469.996 452.472 469.521 454.056 468.729C455.006 468.254 456.431 468.729 456.906 467.462C460.706 466.196 464.665 465.087 468.465 463.82C474.64 461.762 480.816 459.703 486.991 457.803C492.217 456.22 497.284 454.478 502.509 452.895C506.468 451.786 510.426 450.52 514.385 449.094C519.135 447.353 524.202 446.086 529.111 444.661C534.336 443.077 539.403 441.494 544.629 439.91C549.221 438.644 553.813 437.377 558.246 436.11C561.73 435.16 565.055 433.893 568.539 432.943C572.814 431.676 577.089 430.726 581.365 429.46C589.282 427.243 597.358 425.184 605.275 422.968C605.908 422.809 607.017 422.492 607.333 422.968C607.808 423.918 606.7 424.234 606.067 424.709C594.982 433.26 583.265 440.702 571.231 447.669C558.721 454.953 545.737 461.762 532.911 468.729C521.51 474.905 509.951 480.605 498.55 486.622C486.991 492.798 475.274 498.815 463.873 505.307C443.922 516.549 424.604 528.742 406.552 542.993C385.651 559.777 365.699 577.512 345.431 595.088C335.456 603.797 325.321 612.348 314.712 620.423C309.012 624.699 303.312 628.815 296.819 631.824C294.761 632.932 292.544 633.883 290.327 634.674C289.694 634.991 288.585 635.308 288.11 634.674C287.635 634.041 288.269 633.408 288.744 632.774C289.219 632.141 289.061 631.507 288.269 631.032C284.944 628.974 281.777 626.915 278.451 624.857C277.501 624.224 276.868 624.54 276.235 625.49C274.493 628.499 272.434 631.507 270.693 634.516C269.901 635.941 268.792 635.783 267.684 635.308C267.684 635.308 267.526 635.308 267.526 635.149C263.725 633.091 263.567 632.774 265.784 628.974C267.209 626.599 268.634 624.224 270.218 621.848C270.851 620.74 270.851 619.948 269.742 619.156C266.892 617.098 263.725 615.673 260.875 613.614C260.083 613.139 258.975 612.664 258.025 613.773C257.392 614.723 256.6 614.406 256.283 613.456C252.958 603.48 251.216 593.346 251.533 582.896C251.691 576.72 252.483 570.545 253.75 564.528C255.333 557.877 257.55 551.227 260.083 544.734C264.992 532.7 271.326 521.458 278.293 510.69C283.36 503.09 288.902 495.648 294.444 488.522C306.795 472.846 320.413 458.278 334.347 444.186C336.247 442.286 338.147 440.385 340.048 438.485C340.839 437.694 341.473 437.377 342.581 438.169C348.915 441.811 355.407 445.294 361.741 448.936C366.649 451.628 371.558 454.32 376.467 457.012C378.209 458.912 380.584 459.703 382.801 460.495C381.534 459.703 379.95 457.803 377.575 456.853ZM450.255 84.2683C450.097 85.2184 450.73 85.6934 451.047 86.1685C453.422 89.3354 455.956 92.5022 458.331 95.5108C459.281 96.6192 459.281 97.4109 458.648 98.6777C451.839 110.395 445.03 122.271 438.38 134.147C432.521 144.756 426.979 155.523 421.12 166.291C413.994 179.275 407.344 192.576 400.694 205.877C394.835 217.436 389.134 229.154 383.592 240.871C377.892 253.064 372.033 265.256 366.649 277.607C361.424 289.8 356.04 301.992 351.132 314.501C348.756 320.835 346.223 327.011 343.689 333.344C343.056 335.086 342.898 336.828 343.214 338.57C343.848 341.578 344.323 344.745 345.273 347.754C347.015 353.929 349.231 359.946 351.923 365.963C359.366 381.956 370.133 395.257 383.117 406.975C394.201 416.95 406.394 425.343 419.853 431.993C421.437 432.785 422.703 432.785 424.287 432.152C430.779 429.301 436.954 426.134 443.447 423.284C449.78 420.592 456.114 417.9 462.29 415.209C473.849 410.142 485.25 404.6 496.492 398.899C506.309 393.99 515.81 388.448 525.311 383.065C539.087 375.147 552.863 367.389 567.272 360.738C573.923 357.73 580.415 354.721 587.223 352.187C593.716 349.812 600.366 347.279 607.017 345.062C612.084 343.479 617.151 341.737 622.376 340.312C623.801 339.837 623.959 339.362 623.643 338.253C621.743 331.603 619.367 325.111 616.834 318.618C611.45 305.001 605.275 291.7 598.783 278.557C594.032 268.898 589.124 259.239 583.898 249.738C577.406 237.863 570.756 225.987 563.63 214.428C555.871 201.918 548.112 189.409 539.72 177.375C532.436 166.766 524.994 156.315 517.077 146.181C510.585 137.947 504.093 129.872 496.967 122.113C486.2 110.395 474.799 99.1527 461.181 90.7605C458.173 87.9102 454.531 85.5351 450.255 84.2683ZM660.854 118.471C664.654 106.437 650.245 69.5423 639.794 64.3169C648.186 81.8932 655.153 99.7861 660.854 118.471ZM634.727 91.0772C642.802 102.478 651.036 112.77 660.062 123.063C661.012 115.146 644.228 93.6107 634.727 91.0772Z" fill="#4ADE80"/>
<path d="M322.947 813.129C321.047 813.129 319.147 813.129 317.405 813.129C232.057 813.129 146.868 813.129 61.5199 813.129C59.9364 813.129 58.353 813.129 56.7695 813.129C56.7695 812.812 56.7695 812.337 56.9279 812.179C59.303 807.27 61.8366 802.203 63.895 797.136C64.8451 794.761 67.537 792.703 66.1119 789.536C67.0619 789.852 67.6953 789.536 68.1703 788.586C69.1204 786.369 70.3872 784.31 71.4956 782.094C72.129 780.985 72.2873 779.718 71.9706 778.452C71.1789 773.543 70.2288 768.634 69.4371 763.726C66.9036 749 66.7452 734.273 67.2203 719.547C67.3786 713.055 68.1703 706.721 68.9621 700.229C70.3872 690.254 72.129 680.436 74.6625 670.777C75.7709 666.344 77.0376 662.068 78.4627 657.635C80.3629 651.618 82.5797 645.917 84.7965 640.058C85.4299 638.317 86.2216 638.158 88.1218 638.475C93.5055 639.425 98.8892 640.058 104.431 639.583C107.598 639.267 107.44 639.267 107.757 642.434C108.39 648.767 109.498 654.943 111.398 660.96C112.507 664.285 113.932 667.61 115.04 670.936C115.357 671.727 116.149 672.202 116.307 672.994C116.782 671.411 116.624 669.827 116.465 668.244C115.515 660.485 115.515 652.726 116.465 644.809C116.465 644.334 116.624 644.017 116.624 643.542C116.149 639.425 118.049 636.1 120.582 632.933C131.35 619.474 142.117 606.173 153.36 593.03C166.186 577.829 179.487 563.103 192.788 548.377C203.08 536.976 213.531 525.734 224.14 514.649C237.282 500.873 250.425 487.097 263.726 473.638C280.194 457.012 296.82 440.702 314.08 425.026C315.188 423.918 316.138 423.918 317.405 424.551C320.888 426.61 324.53 428.51 328.014 430.568C330.072 431.677 330.072 432.31 328.489 433.735C316.771 444.344 306.004 455.904 295.712 467.779C286.369 478.389 277.819 489.631 270.218 501.665C262.776 513.224 256.284 525.259 251.533 538.243C249.475 544.102 247.892 549.96 246.308 555.977C243.458 566.903 243.458 577.829 244.091 588.913C244.25 592.555 245.2 596.197 246.15 599.839C247.258 603.639 248.525 607.281 249.792 610.923C250.9 613.932 252.484 616.782 253.909 619.632C254.384 620.424 254.384 621.057 253.909 622.007C251.217 627.232 251.217 627.232 245.833 625.807C239.024 623.907 232.057 622.957 225.09 624.541C216.381 626.599 210.047 631.824 207.039 640.375C204.03 649.084 206.564 656.843 211.789 663.968C214.322 667.61 217.173 670.936 220.181 674.102C220.973 674.894 221.131 675.528 220.498 676.636C215.906 684.078 211.472 691.52 206.88 698.804C206.247 699.913 205.455 700.229 204.347 699.121C198.646 693.579 193.579 687.562 189.937 680.278C189.462 679.328 188.829 678.694 187.562 679.486C183.92 681.703 180.278 683.762 176.478 685.82C174.736 686.77 174.736 687.72 175.528 689.304C178.378 695.004 182.337 699.754 186.612 704.505C189.462 707.672 192.629 710.363 195.796 713.055C196.905 714.005 197.221 714.797 196.271 716.064C195.321 717.331 194.688 718.756 193.896 720.022C193.104 721.289 193.579 722.081 194.529 722.714C197.696 724.614 200.863 726.515 203.872 728.415C204.822 729.048 205.613 728.573 205.93 727.94C206.405 726.99 207.039 726.198 207.672 725.406C209.414 722.873 209.255 722.873 211.947 724.298L212.106 724.456C215.273 726.198 215.273 726.198 213.372 729.365C211.314 732.848 211.314 732.848 214.639 735.065C217.014 736.649 219.389 738.074 221.765 739.657C223.031 740.449 223.981 739.974 224.615 738.865C225.565 737.282 226.515 735.699 227.465 733.957C228.098 732.69 228.89 732.373 230.315 732.848C235.541 734.432 240.766 734.907 246.308 734.907C258.184 734.749 268.16 727.148 270.693 715.747C272.118 709.888 270.535 704.188 267.526 698.963C265.151 694.687 261.984 690.887 258.659 687.403C257.551 686.295 257.392 685.345 258.184 683.92C262.618 676.794 266.893 669.669 271.327 662.702C272.593 660.643 273.068 660.485 274.81 662.227C277.819 665.393 280.352 668.877 282.886 672.519C283.519 673.469 283.836 673.627 284.944 672.994C288.744 670.461 292.545 668.244 296.345 665.869C297.453 665.235 297.295 664.443 296.662 663.335C293.02 657.476 288.428 652.251 283.202 647.817C281.936 646.709 282.094 645.917 282.727 644.492C284.311 641.167 286.528 640.058 290.17 639.9C293.811 639.742 297.453 638.475 300.937 637.208C313.129 632.616 323.897 625.491 334.348 617.89C345.749 609.498 356.516 600.472 367.442 591.447C381.059 580.046 394.677 568.487 408.77 557.719C422.071 547.585 435.847 537.926 450.256 529.692C459.282 524.467 468.466 519.4 477.65 514.649C491.901 507.207 505.993 499.607 520.244 492.323C529.903 487.256 539.721 482.189 549.38 476.963C561.414 470.471 573.448 463.821 585.324 456.854C597.2 449.886 608.759 442.603 620.001 434.527C627.127 429.302 634.094 423.76 640.111 417.267C641.378 415.842 642.803 415.051 644.545 414.576C648.979 413.626 653.412 412.675 658.004 411.725C662.913 410.775 667.822 409.825 672.572 408.717C675.105 408.084 676.847 408.4 678.589 410.617C685.556 419.801 692.682 428.668 699.649 437.694C703.924 443.078 708.199 448.461 712 454.162C712 454.32 712 454.478 712 455.112C708.833 453.37 705.508 454.478 702.341 453.687C701.866 453.528 701.549 453.37 701.232 453.212C691.256 452.895 681.281 451.787 671.305 452.578C669.088 452.737 667.03 453.053 664.813 453.053C660.221 453.212 655.787 454.003 651.195 454.637C648.503 454.954 645.812 455.429 643.12 455.745C639.953 456.062 636.786 456.854 633.777 457.487C628.394 458.754 623.168 460.02 617.785 461.604C610.501 463.662 603.534 466.038 596.408 468.571C590.233 470.788 584.216 473.321 578.357 475.855C577.723 476.172 577.248 476.488 576.615 476.805C575.982 476.805 575.348 476.805 575.19 477.597C575.032 477.597 574.715 477.755 574.557 477.755C572.498 478.072 570.756 479.18 569.014 480.13C565.848 481.714 562.522 482.822 559.672 485.039C559.514 485.039 559.514 485.039 559.355 485.197C555.555 486.622 552.072 488.523 548.905 490.898C550.963 490.423 552.863 489.948 554.605 489.156C556.189 488.364 558.089 488.206 559.514 486.939C568.381 483.931 577.248 480.764 586.274 478.547C590.074 477.597 593.716 476.488 597.358 475.538C599.417 475.063 601.317 474.747 603.375 474.272C606.859 473.48 610.342 472.688 613.826 471.896C615.568 471.421 617.468 471.58 619.21 471.105C621.427 470.63 623.802 469.838 626.177 469.996C629.66 470.155 632.986 469.205 636.311 468.888C650.562 467.304 664.813 466.988 679.064 467.621C685.239 467.938 691.573 468.413 697.749 469.205C702.974 469.996 708.199 470.63 713.425 471.738C726.409 474.43 739.077 478.072 751.427 482.98C767.104 489.156 781.513 497.548 795.606 507.049C807.481 514.966 819.041 523.358 830.125 532.542C830.441 532.859 830.917 533.176 831.233 533.492C831.708 534.601 832.658 535.234 833.767 535.709C833.925 534.126 833.133 533.176 832.183 532.542C828.858 525.734 825.058 519.083 821.099 512.433C813.974 500.24 806.69 488.206 799.089 476.33C790.222 462.237 780.721 448.461 770.904 435.002C768.687 431.835 766.312 428.827 763.937 425.66C764.095 425.026 763.62 424.71 763.303 424.235C762.828 423.443 762.987 423.126 763.937 423.126C767.42 427.56 771.062 431.994 774.704 436.269C780.563 443.236 786.263 450.52 791.964 457.645C799.723 467.463 807.165 477.28 814.449 487.414C826.324 504.04 837.725 520.825 848.334 538.243C855.46 549.96 862.269 561.994 868.603 574.187C870.503 577.987 872.403 581.788 874.303 585.588C874.145 586.221 874.461 586.696 875.095 587.013C875.095 587.171 875.095 587.33 875.095 587.33C875.411 589.23 876.203 590.813 877.47 592.238C877.47 592.397 877.47 592.397 877.628 592.555C877.786 595.405 876.52 592.713 875.886 593.03C875.886 592.555 875.57 592.238 875.095 592.08C875.095 591.922 875.095 591.922 874.936 591.763C874.936 591.288 874.461 591.288 874.145 591.288C870.978 587.013 867.177 583.371 863.219 579.887C856.41 573.712 849.126 568.17 841.209 563.42C833.45 558.669 825.374 554.552 816.982 551.069C812.39 549.169 807.64 547.268 802.889 545.685C797.822 543.943 792.597 542.36 787.372 540.935C782.621 539.668 777.713 538.559 772.962 537.451C769.162 536.659 765.203 535.868 761.403 535.234C759.186 534.918 757.128 533.809 754.594 534.601C778.188 550.119 794.022 571.654 805.423 596.83C794.497 588.596 783.73 580.046 772.487 572.129C761.245 564.211 749.844 556.611 737.968 549.644C726.092 542.676 713.9 536.343 700.916 530.959C702.024 533.176 703.766 534.759 705.191 536.343C712.475 544.577 719.125 553.286 725.301 562.311C732.426 572.445 738.602 583.213 743.194 594.772C744.777 598.889 746.044 603.164 746.994 607.439C748.261 612.19 747.786 616.94 747.469 621.69C747.152 625.966 746.677 630.241 745.885 634.516C744.46 641.8 743.352 649.242 740.977 656.368C739.077 662.068 737.176 667.61 734.168 672.677C733.376 674.103 732.268 675.053 730.843 675.844C716.275 685.187 701.866 694.529 687.298 703.871C686.506 704.346 685.714 705.296 684.289 704.821C686.823 701.813 689.831 699.438 692.523 696.904C699.807 689.937 707.249 683.128 714.533 676.319C715.642 675.211 716.275 673.944 716.433 672.361C717.7 661.752 718.967 651.142 720.234 640.533C721.025 632.933 721.659 625.332 723.084 617.732C723.876 612.981 721.817 609.181 719.6 605.539C711.366 591.447 700.916 579.412 688.565 568.803C677.956 559.619 666.238 551.86 653.887 545.368C643.753 540.143 633.461 535.551 622.693 531.751C618.101 530.009 613.509 529.534 608.759 529.217C602.108 528.742 595.458 528.267 588.807 528.584C581.207 529.059 573.448 529.375 565.848 530.326C554.288 531.751 542.888 533.967 531.645 536.976C525.628 538.559 519.769 540.46 513.911 542.518C507.102 544.735 500.451 547.427 493.801 550.119C486.2 553.286 478.758 557.086 471.474 561.044C459.44 567.537 447.881 574.662 437.272 582.896C435.53 584.163 435.53 586.063 435.372 587.646C434.58 593.505 433.313 599.364 432.521 605.223C432.363 606.173 430.78 607.756 432.996 608.389C430.78 610.765 428.721 613.14 426.188 615.04C426.188 611.556 424.762 608.389 424.129 605.064C423.654 601.739 422.546 598.572 421.912 595.247C421.754 594.455 421.596 593.505 420.962 593.347C420.17 593.03 419.854 593.98 419.379 594.455C413.837 600.947 408.77 607.598 403.861 614.565C399.111 621.374 394.519 628.183 390.085 635.308C383.751 645.759 377.734 656.368 372.192 667.294C366.017 679.328 360.316 691.679 355.249 704.188C353.191 709.413 350.499 714.48 348.757 719.864C345.59 728.89 342.265 737.757 339.415 746.783C337.673 752.483 335.773 758.183 334.189 764.042C332.448 770.218 330.864 776.393 329.122 782.569C326.589 791.594 324.847 800.937 322.789 810.121C322.947 810.754 323.105 812.021 322.947 813.129ZM77.9877 769.584C78.9378 769.584 78.7794 768.793 78.7794 768.159C78.7794 768.001 78.7794 767.684 78.9378 767.526C84.1632 758.5 89.3885 749.475 94.6139 740.449C102.848 726.515 111.557 713.055 120.741 699.913C127.55 690.095 134.833 680.595 141.959 671.094C152.726 656.843 163.335 642.434 173.945 628.183C181.545 617.89 189.304 607.756 196.905 597.464C207.514 583.054 217.964 568.645 228.257 554.236C234.907 545.052 241.399 535.709 247.892 526.367C254.384 516.866 260.559 506.891 268.001 497.865C268.793 496.915 269.901 495.965 270.06 494.223C265.626 497.232 260.559 498.815 257.234 502.932C254.7 506.099 251.85 509.107 249.158 512.116C240.133 522.408 231.107 532.701 221.923 542.993C216.223 549.485 210.364 555.977 204.663 562.469C195.163 573.395 185.504 584.163 176.003 595.089C173.153 598.414 169.511 601.422 167.452 605.223C156.368 626.124 145.443 647.184 134.517 668.085C132.3 672.361 130.716 677.269 125.491 679.011C124.224 679.486 122.958 680.12 121.849 680.911C120.424 681.861 118.366 682.336 118.207 684.712C118.207 685.503 117.732 686.612 117.416 687.403C115.357 693.579 113.299 699.754 111.398 705.93C111.082 707.355 110.29 708.147 108.548 707.83C104.906 707.038 101.264 706.721 97.7808 705.771C95.564 705.138 93.1888 705.455 90.972 704.505C89.2302 703.713 87.8051 704.346 87.6467 706.722C87.4884 709.255 86.855 711.947 86.38 714.48C85.7466 718.281 85.1132 721.923 84.4798 725.723C83.6881 729.681 82.8964 733.798 82.1047 737.757C81.4713 741.874 80.9963 745.833 80.2045 749.95C79.2545 755.175 78.3044 760.242 77.671 765.467C76.2459 767.526 77.0376 769.901 76.4043 772.118C77.0376 771.326 78.1461 770.851 77.9877 769.584Z" fill="#4ADE80"/>
<path d="M426.503 614.406C429.037 612.506 431.095 609.973 433.312 607.756C440.596 600.472 447.88 593.03 455.48 586.063C458.806 582.896 463.239 581.154 467.356 578.937C476.065 574.187 485.249 570.07 494.591 566.428C500.608 564.211 506.467 562.153 512.643 560.411C522.46 557.561 532.436 555.66 542.57 554.394C556.663 552.652 570.597 552.81 584.69 553.919C590.548 554.394 596.565 555.185 602.266 556.452C609.55 558.036 616.675 559.777 623.801 561.994C628.551 563.578 633.301 565.003 637.893 566.744C644.86 569.436 651.828 572.445 658.478 575.77C668.137 580.679 677.638 586.063 686.505 592.238C695.214 598.255 703.765 604.747 711.524 611.873C712.632 612.823 712.79 613.773 712.157 615.04C711.365 616.781 711.365 618.682 711.049 620.582C708.673 630.399 705.19 639.9 700.756 648.925C695.847 658.901 689.83 667.927 682.705 676.319C679.538 679.961 676.529 683.761 672.571 686.77C670.671 688.195 669.562 690.253 668.77 692.47C668.454 693.42 667.979 694.37 667.504 695.479C667.029 695.479 667.029 695.795 667.187 696.112C667.029 696.587 666.87 697.062 666.712 697.537C665.762 698.804 665.287 697.695 664.654 697.062C661.012 693.42 656.578 691.362 651.511 690.887C651.511 690.412 651.353 690.095 650.878 690.095C650.561 690.095 650.244 689.937 649.769 689.937C649.294 689.303 648.661 688.512 648.502 687.72C646.919 683.603 644.227 680.594 640.427 678.377C635.835 675.527 630.926 675.052 626.017 676.952C621.584 678.694 618.1 682.019 615.567 686.136C614.775 687.403 613.825 688.512 612.083 688.195C609.391 687.72 606.858 688.987 604.324 689.145C603.216 689.303 602.266 689.937 600.999 689.937C600.207 690.095 599.574 690.57 599.891 691.52C599.891 692.153 599.891 692.629 599.891 693.262C599.574 699.121 598.307 704.821 597.515 710.68C596.882 715.43 595.615 720.18 597.04 725.089C597.674 727.306 597.5 727.5 594.824 727.148C594.19 726.989 593.398 726.831 592.765 726.831C587.223 726.989 581.523 726.198 575.981 725.723C571.547 725.248 567.113 725.406 562.68 724.931C560.779 724.772 558.879 724.297 556.979 724.297C556.029 724.297 556.029 723.506 555.712 722.872C553.654 718.28 551.595 713.688 549.537 709.096C549.22 708.305 549.379 707.355 549.379 706.563C549.379 696.587 549.379 686.611 549.379 676.636C549.379 675.844 549.537 674.894 549.062 673.944C547.479 675.844 547.479 678.061 547.003 680.119C545.42 685.661 544.153 691.362 542.887 697.062C542.411 699.437 542.57 702.129 542.57 704.504C542.57 706.88 542.57 706.879 540.195 706.246C538.295 705.771 536.394 705.454 534.653 705.296C530.377 704.821 526.102 703.871 521.985 703.238C517.551 702.604 512.959 701.971 508.526 700.862C507.734 700.704 507.576 700.229 507.417 699.596C506.467 695.637 505.359 691.678 504.25 687.878C503.775 686.453 503.934 684.87 504.409 683.445C505.676 678.377 506.309 673.152 507.417 668.085C508.209 664.126 509.001 660.009 509.792 655.893C510.268 653.517 510.901 651.142 511.059 648.609C511.376 648.609 511.534 648.45 511.693 648.134C512.168 646.867 511.376 645.283 512.326 644.017C512.484 643.7 512.168 643.542 511.851 643.542C511.534 643.542 511.059 643.7 511.059 644.017C511.218 645.6 510.268 647.025 510.109 648.45C510.109 649.4 509.951 650.35 509.317 651.142C507.576 650.034 505.834 648.925 504.092 647.659C500.45 645.125 496.333 643.383 492.375 641.325C493.958 637.049 495.541 632.933 497.125 628.657C497.917 626.44 498.55 624.065 498.55 621.69C499.025 621.69 499.183 621.373 499.183 620.898C499.658 618.682 498.233 617.89 496.808 616.781C492.216 613.298 487.149 610.923 481.924 608.706C474.323 605.539 466.406 603.322 458.489 601.422C457.064 601.105 455.639 600.947 454.689 602.689C449.622 612.031 444.554 621.215 439.487 630.557C438.537 630.557 438.221 631.349 437.904 631.824C434.895 638 431.412 644.017 427.928 650.034C426.662 652.409 426.82 652.567 429.67 653.359C431.095 654.467 432.362 655.418 433.787 656.526C434.895 657.318 435.212 658.109 434.262 659.376C432.045 662.86 429.828 666.343 427.612 669.827C427.295 670.46 426.82 671.41 425.87 669.827C420.169 660.326 414.152 650.984 408.294 641.641C407.344 640.058 406.393 638.475 405.285 636.891C404.652 636.099 404.652 635.624 405.443 634.833C412.411 628.499 419.378 621.532 426.503 614.406Z" fill="#E4F0E8"/>
<path d="M502.822 671.727C500.922 678.378 499.022 684.87 496.963 691.52C495.696 695.321 494.746 699.279 493.48 703.238C492.055 707.513 489.204 711.155 486.671 714.797C475.903 730.631 463.869 745.358 450.41 758.975C439.326 770.218 427.767 780.668 414.941 789.694C414.149 790.327 413.357 790.327 412.566 790.327C404.173 790.327 395.939 790.327 387.547 790.327C386.28 790.327 385.489 790.327 386.439 788.744C392.614 777.818 397.84 766.576 402.907 755.017C407.815 743.774 412.724 732.373 417.158 720.972C419.216 715.905 420.958 710.838 423.016 705.771C426.025 698.329 428.558 690.729 431.567 683.286C433.625 678.219 435.526 673.152 437.584 668.085C438.059 666.66 438.534 665.235 439.009 663.81C439.643 661.91 440.276 661.593 442.018 662.543C446.451 664.918 451.043 666.66 455.794 668.244C460.386 669.827 465.136 670.302 469.728 671.411C470.678 671.569 471.153 671.252 471.945 670.619C475.428 666.66 478.595 662.385 481.921 658.268C482.554 658.585 482.712 657.476 483.346 657.951C485.562 659.693 488.571 660.168 490.946 661.752C492.213 662.543 493.321 663.968 495.221 663.81C495.538 664.127 495.855 664.285 496.172 664.602C498.705 666.977 501.555 668.719 502.822 671.727Z" fill="#E4F0E8"/>
<path d="M659.745 714.005C658.32 717.172 656.895 720.18 655.787 723.347C655.47 724.297 656.103 725.564 656.42 726.672C658.954 734.906 661.487 742.982 663.862 751.216C665.446 756.758 667.029 762.142 668.613 767.525C669.088 769.109 668.929 769.901 666.871 770.059C660.854 770.851 654.678 771.642 648.819 773.067C646.128 773.701 643.752 773.542 641.377 771.484C636.31 766.734 630.927 762.458 625.543 758.025C622.376 755.491 620.476 751.849 618.101 748.682C613.667 742.665 609.392 736.49 604.8 730.631C603.058 728.414 603.375 725.881 602.741 723.506C602.424 722.239 602.424 720.972 602.583 719.705C602.9 714.955 601.633 710.205 601.791 705.454C605.591 705.454 609.55 705.454 613.35 705.296C614.142 705.296 614.775 705.613 614.934 706.404C615.092 707.671 616.042 708.621 616.675 709.571C621.584 717.013 627.285 718.597 634.568 717.647C635.994 717.488 637.735 717.172 639.002 716.222C641.536 714.322 644.386 712.896 645.811 709.888C645.969 709.571 646.603 709.571 646.919 709.413C647.711 709.413 648.503 709.413 649.295 709.571C652.461 711.155 656.262 712.105 659.745 714.005Z" fill="#E4F0E8"/>
<path d="M718.33 813.129C708.513 813.129 698.695 813.129 688.878 813.129C688.72 808.062 689.511 802.995 690.145 797.928C690.778 793.336 691.253 788.744 692.362 784.152C693.153 780.669 693.628 777.185 694.262 773.701C695.053 769.743 695.845 765.943 696.953 762.142C699.012 754.7 701.07 747.258 703.287 739.974C704.396 736.332 705.662 732.69 706.929 729.048C709.146 723.031 711.363 717.172 713.58 711.155C715.005 707.513 716.43 704.03 718.013 700.546C718.647 698.963 720.389 699.28 721.497 698.804C724.189 697.854 727.197 697.221 729.889 696.429C730.998 696.113 731.156 696.429 731.156 697.379C731.156 698.646 730.681 699.913 730.364 701.18C728.939 706.405 727.356 711.789 726.247 717.172C724.664 724.931 723.08 732.69 721.814 740.607C720.072 751.216 718.963 761.826 718.013 772.435C717.855 775.127 717.697 777.818 717.697 780.669C717.855 791.436 717.38 802.203 718.33 813.129Z" fill="#4ADE80"/>
<path d="M439.011 631.19C444.078 621.847 449.145 612.663 454.212 603.321C455.162 601.579 456.587 601.738 458.013 602.054C466.088 603.954 474.005 606.171 481.448 609.338C486.673 611.555 491.74 613.93 496.332 617.414C497.915 618.522 499.34 619.314 498.707 621.531C498.549 621.847 498.549 622.164 498.074 622.322C497.757 621.847 497.757 620.897 496.965 622.164C493.64 628.023 490.315 633.881 486.99 639.74C482.239 647.974 477.647 656.05 472.897 664.284C472.105 665.55 471.472 666.975 470.68 668.242C470.205 668.876 469.73 669.192 468.622 668.717C457.538 664.125 446.295 659.692 435.053 655.416C432.994 654.625 431.252 653.2 428.877 653.516C427.769 653.2 428.085 652.566 428.402 651.774C430.936 647.182 433.469 642.749 436.003 638.157C437.269 635.782 438.853 633.723 439.011 631.19ZM477.014 616.147C476.381 614.722 475.43 613.93 473.847 614.405C473.689 614.405 473.372 614.405 473.214 614.247C472.105 611.555 469.572 611.08 467.197 610.922C462.446 610.605 458.488 612.505 455.004 615.514C449.62 620.264 446.612 626.123 445.345 633.248C444.395 639.424 445.345 645.124 449.304 650.033C449.937 650.824 450.887 651.616 452.312 651.458C453.737 652.408 455.479 652.091 456.904 653.2C457.062 654.308 458.013 653.833 458.488 653.991C464.663 654.783 469.255 651.774 473.214 647.499C477.647 642.749 480.181 637.048 480.814 630.715C481.606 625.489 480.814 620.422 477.014 616.147Z" fill="#4ADE80"/>
<path d="M646.761 709.414C646.444 709.572 645.811 709.73 645.652 709.889C644.227 712.897 641.219 714.322 638.843 716.222C637.577 717.173 635.835 717.489 634.41 717.648C626.968 718.598 621.425 717.014 616.517 709.572C615.883 708.622 614.933 707.672 614.775 706.405C614.617 705.613 613.983 705.297 613.192 705.297C609.391 705.297 605.433 705.297 601.632 705.455C601.632 701.971 600.524 698.488 600.682 695.004C600.682 694.529 600.841 693.738 599.891 693.738C599.891 693.104 599.891 692.629 599.891 691.996C604.008 690.571 608.125 689.937 612.4 689.462C614.458 689.304 615.725 688.512 616.675 686.929C619.367 682.812 622.534 679.486 627.443 678.061C631.401 676.953 635.36 677.27 638.843 679.17C642.96 681.387 646.127 684.87 647.552 689.462C647.711 690.096 648.027 690.254 648.661 690.412C648.661 691.046 648.661 691.679 648.819 692.312C650.403 697.538 649.294 702.446 647.077 707.197C646.761 707.989 646.602 708.622 646.761 709.414ZM623.326 707.672C623.326 706.088 623.642 704.663 623.326 703.555C621.901 699.438 623.484 695.796 624.751 692.312C625.384 690.254 626.651 688.354 627.126 686.137C627.284 685.662 627.918 685.029 627.443 684.554C626.809 684.079 626.176 684.395 625.542 684.87C622.376 686.612 620.634 689.462 620.317 692.946C619.842 698.013 619.842 703.08 623.326 707.672Z" fill="#4ADE80"/>
<path d="M66.2681 789.535C67.5349 792.702 65.0014 794.76 64.0513 797.135C61.8345 802.202 59.4593 807.111 57.0841 812.178C56.9258 812.495 56.9258 812.811 56.9258 813.128C53.9172 813.128 50.9087 813.128 47.9001 813.128C46.475 813.128 46 812.653 46 811.228C46 797.294 46 783.359 46 769.425C47.4251 769.108 47.1084 767.525 47.5834 766.733C49.4836 762.458 51.5421 758.024 53.7589 753.749C53.9172 753.432 54.0756 752.799 54.5506 752.799C55.3423 752.799 55.0256 753.432 55.184 753.907C56.7674 760.874 58.6676 767.525 60.8844 774.334C62.4678 779.559 64.5263 784.468 66.2681 789.535Z" fill="#E4F0E8"/>
<path d="M502.824 671.727C501.399 668.718 498.708 666.977 496.491 664.76C496.174 664.443 495.857 664.285 495.541 663.968C494.749 661.593 492.215 661.276 490.474 660.168C488.098 658.743 485.565 657.476 482.873 657.001C485.882 652.092 489.048 647.5 491.424 642.275C491.582 642.116 491.899 641.958 492.057 641.8C496.016 643.858 500.133 645.442 503.775 648.134C505.516 649.4 507.258 650.509 509 651.617C508.525 654.626 507.416 657.476 506.466 660.484C505.358 664.126 504.408 668.085 502.824 671.727Z" fill="#4ADE80"/>
<path d="M659.744 714.006C656.419 712.106 652.618 711.156 649.135 709.572C652.143 703.713 653.093 697.696 651.668 691.204C656.894 691.521 661.169 693.738 664.811 697.38C665.444 698.013 665.919 699.121 666.869 697.855C666.078 701.338 664.019 704.188 662.911 707.514C661.961 709.731 661.011 711.947 659.744 714.006Z" fill="#4ADE80"/>
<path d="M242.98 672.519C240.763 670.935 241.555 669.352 242.822 667.451C246.78 661.276 250.739 654.942 254.539 648.45C255.331 647.183 255.806 647.342 256.914 647.817C261.665 650.034 261.665 650.509 258.973 654.784C255.331 660.643 251.689 666.501 248.047 672.36C248.047 672.519 248.047 672.677 247.889 672.835C247.255 673.152 246.939 673.469 247.097 674.26C246.305 674.577 245.514 674.419 244.722 674.26C244.722 673.152 243.93 672.677 242.98 672.519Z" fill="#4ADE80"/>
<path d="M236.803 690.728C236.328 691.52 236.011 692.312 235.536 693.104C231.894 699.121 228.094 705.138 224.452 711.155C224.293 711.313 224.293 711.63 224.135 711.788C221.76 713.372 220.335 710.997 218.593 710.363C217.484 709.888 217.326 709.096 218.118 707.83C222.393 701.179 226.51 694.37 230.627 687.562C231.577 686.136 232.369 685.82 233.636 687.245C234.269 688.037 235.219 688.828 236.169 689.462C236.486 689.778 236.644 690.095 236.803 690.728Z" fill="#4ADE80"/>
<path d="M227.62 651.618C227.145 646.234 232.687 641.8 237.754 641.8C238.863 641.8 240.288 641.167 240.921 642.275C241.396 643.225 240.13 644.017 239.655 644.967C237.121 649.242 234.429 653.359 231.896 657.635C230.946 659.06 230.312 659.218 229.52 657.635C228.412 655.735 227.462 653.834 227.62 651.618Z" fill="#4ADE80"/>
<path d="M217.488 634.357C222.08 629.606 227.78 628.181 234.114 628.815C236.173 628.973 237.914 630.081 239.498 631.507C239.815 631.823 240.29 631.982 240.131 632.457C239.973 632.932 239.498 632.932 239.023 632.932C235.698 632.773 232.372 632.773 228.889 632.457C225.089 631.982 221.288 633.248 217.963 635.465C216.855 635.624 217.171 634.99 217.488 634.357Z" fill="#E4F0E8"/>
<path d="M248.997 707.67C248.838 712.262 244.405 717.171 239.496 717.013C238.071 717.013 238.071 716.379 238.704 715.429C241.238 711.471 243.613 707.512 246.146 703.395C246.78 702.287 247.571 702.445 247.888 703.395C248.205 705.137 249.313 706.245 248.997 707.67Z" fill="#4ADE80"/>
<path d="M234.429 720.657C237.913 721.607 241.396 720.815 244.88 720.34C245.355 720.34 245.672 719.865 245.988 720.498C246.305 721.132 245.672 721.132 245.355 721.448C243.138 723.349 240.605 723.824 237.913 723.349C236.488 723.032 234.904 723.349 233.638 722.398C233.163 722.082 232.688 721.607 232.688 721.132C233.004 720.34 233.796 720.657 234.429 720.657Z" fill="#E4F0E8"/>
<path d="M439.011 631.19C438.695 633.724 437.269 635.782 436.003 637.841C433.628 642.433 430.936 646.867 428.402 651.459C428.085 652.092 427.769 652.884 428.877 653.2C429.036 653.517 429.036 653.675 429.194 653.992C426.502 653.359 426.185 653.042 427.452 650.667C430.936 644.65 434.419 638.633 437.428 632.457C437.745 631.982 438.22 631.19 439.011 631.19Z" fill="#E4F0E8"/>
<path d="M763.933 422.652C762.983 422.652 762.825 422.969 763.3 423.76C763.616 424.235 764.091 424.552 763.933 425.185C762.033 424.235 761.399 422.177 760.291 420.752C758.074 417.743 755.541 414.893 753.482 411.726C753.166 411.251 752.691 410.934 753.324 410.143C757.124 414.101 760.608 418.376 763.933 422.652Z" fill="#196432"/>
<path d="M559.353 486.463C557.928 487.73 556.028 487.889 554.445 488.68C552.703 489.63 550.803 490.105 548.744 490.422C552.069 488.047 555.553 486.147 559.195 484.722C559.195 485.672 558.245 485.672 557.77 486.305C558.403 486.305 558.878 486.463 559.353 486.463Z" fill="#196432"/>
<path d="M482.874 657.001C485.565 657.476 488.257 658.743 490.474 660.168C492.216 661.276 494.591 661.593 495.541 663.968C493.641 664.127 492.533 662.701 491.266 661.91C488.891 660.326 485.882 659.851 483.665 658.109C483.032 657.634 482.715 658.743 482.24 658.426C482.399 657.951 482.557 657.476 482.874 657.001Z" fill="#E4F0E8"/>
<path d="M456.905 467.937C456.43 469.362 455.005 468.887 454.055 469.204C452.313 469.996 450.571 470.471 448.829 471.104C448.354 471.262 447.879 471.262 447.404 470.787C450.888 469.362 454.055 467.145 457.855 466.195C457.697 466.829 457.063 466.987 456.747 467.304C455.797 467.937 456.747 467.779 456.905 467.937Z" fill="#196432"/>
<path d="M559.672 484.563C562.522 482.346 565.847 481.238 569.014 479.654C570.756 478.704 572.498 477.596 574.556 477.279C574.398 477.596 574.24 477.913 573.923 478.071C569.648 480.13 565.372 482.346 560.939 484.405C560.464 484.563 559.989 484.563 559.672 484.563Z" fill="#196432"/>
<path d="M377.575 456.854C379.95 457.805 381.533 459.705 383.275 461.446C380.9 460.655 378.683 459.863 376.941 457.963C377.258 457.805 377.575 457.488 377.575 456.854Z" fill="#196432"/>
<path d="M876.041 592.397C876.674 592.08 877.941 594.772 877.783 591.922C879.208 593.347 879.683 595.089 880 597.306C878.258 595.88 876.674 594.455 876.041 592.397Z" fill="#196432"/>
<path d="M217.486 634.357C217.169 634.99 217.011 635.624 217.961 635.624C217.961 636.257 217.486 636.416 217.011 636.732C216.694 637.049 216.219 637.366 215.744 636.891C215.269 636.415 215.744 635.94 216.061 635.624C216.377 635.149 216.694 634.674 217.169 634.357C217.169 634.199 217.327 634.199 217.486 634.357C217.327 634.357 217.327 634.199 217.486 634.357Z" fill="#4ADE80"/>
<path d="M877.785 591.763C876.519 590.338 875.569 588.755 875.41 586.854C876.677 588.121 877.469 589.863 877.785 591.763Z" fill="#196432"/>
<path d="M244.723 674.261C245.514 674.419 246.306 674.577 247.098 674.261C246.306 675.686 245.673 675.686 244.723 674.261Z" fill="#196432"/>
<path d="M242.98 672.518C243.931 672.676 244.722 673.151 244.722 674.259C243.772 674.101 243.139 673.468 242.98 672.518Z" fill="#196432"/>
<path d="M247.098 674.26C247.098 673.627 247.256 673.152 247.889 672.835C248.206 673.627 248.048 674.26 247.098 674.26Z" fill="#196432"/>
<path d="M875.25 586.378C874.617 586.062 874.3 585.745 874.458 584.953C875.25 585.27 875.408 585.745 875.25 586.378Z" fill="#196432"/>
<path d="M575.029 477.28C575.188 476.488 575.821 476.488 576.454 476.488C576.296 477.28 575.821 477.438 575.029 477.28Z" fill="#196432"/>
<path d="M875.25 591.446C875.725 591.605 876.042 591.921 876.042 592.396C875.408 592.396 875.25 592.08 875.25 591.446Z" fill="#196432"/>
<path d="M874.457 590.655C874.774 590.655 875.249 590.655 875.249 591.13C874.774 591.13 874.457 591.13 874.457 590.655Z" fill="#196432"/>
<path d="M450.254 84.2676C454.529 85.5343 458.171 87.9095 461.813 90.1263C475.431 98.5186 486.832 109.761 497.599 121.479C504.724 129.237 511.375 137.313 517.709 145.547C525.626 155.681 533.068 166.29 540.352 176.741C548.744 188.775 556.503 201.284 564.262 213.794C571.388 225.353 578.038 237.229 584.53 249.104C589.756 258.605 594.506 268.264 599.415 277.923C605.907 291.066 611.924 304.367 617.466 317.984C619.999 324.476 622.375 330.969 624.275 337.619C624.591 338.727 624.433 339.361 623.008 339.678C617.941 341.261 612.716 342.844 607.648 344.428C600.998 346.645 594.506 349.02 587.855 351.553C581.047 354.087 574.396 357.095 567.904 360.104C553.495 366.913 539.719 374.672 525.943 382.431C516.442 387.814 506.941 393.356 497.124 398.265C485.881 403.965 474.481 409.507 462.921 414.574C456.588 417.266 450.412 420.117 444.078 422.65C437.586 425.342 431.253 428.509 424.919 431.517C423.335 432.151 422.069 432.151 420.485 431.359C407.026 424.709 394.833 416.316 383.749 406.341C370.765 394.623 359.997 381.322 352.555 365.329C349.863 359.471 347.647 353.453 345.905 347.12C344.955 344.111 344.48 340.944 343.846 337.936C343.53 336.036 343.53 334.294 344.321 332.71C346.855 326.535 349.388 320.201 351.764 313.867C356.514 301.516 361.898 289.324 367.281 276.973C372.665 264.622 378.365 252.43 384.224 240.237C389.766 228.52 395.467 216.802 401.325 205.243C407.976 191.942 414.785 178.799 421.752 165.657C427.611 155.048 433.153 144.122 439.011 133.513C445.662 121.637 452.471 109.761 459.28 98.0436C460.071 96.7768 459.913 95.9851 458.963 94.8767C456.429 91.8681 454.054 88.7013 451.679 85.5344C450.729 85.6927 450.096 85.2176 450.254 84.2676ZM349.863 345.061C349.23 343.003 347.488 341.578 346.538 339.678C346.38 339.202 346.063 338.886 345.588 339.202C345.43 339.361 345.271 339.677 345.43 339.994C346.38 342.053 346.855 344.586 349.072 346.011C349.23 347.278 350.18 348.07 350.813 349.02C354.614 355.354 358.889 361.371 363.481 367.388C369.656 375.463 376.465 382.906 383.907 389.714C391.191 396.523 399.109 402.382 407.501 407.449C413.201 410.933 419.377 413.783 425.552 416.316C427.452 417.108 429.511 418.058 432.361 418.216C400.85 397.473 372.507 374.355 349.863 345.061ZM483.031 257.972C484.298 258.922 485.565 260.03 486.99 260.98C491.582 264.305 496.807 266.522 502.033 268.422C506.941 270.164 511.85 271.906 517.075 272.856C519.767 273.331 522.459 273.964 524.993 274.598C529.268 275.706 533.702 276.181 537.977 276.973C540.669 277.448 543.361 277.448 546.052 278.081C547.636 278.398 549.061 278.24 550.328 277.448C554.761 274.756 559.037 272.223 562.837 268.739C567.746 264.305 572.179 259.397 574.238 252.905C574.871 250.688 574.713 250.529 572.496 250.846C564.579 251.955 556.661 253.221 548.744 254.013C542.41 254.646 536.077 255.438 529.901 255.596C523.409 255.913 516.917 256.863 510.425 256.705C501.716 256.547 493.165 257.497 484.456 257.497C483.981 257.497 483.506 257.338 483.031 257.972ZM465.138 257.813C464.188 257.338 463.397 257.497 462.763 257.497C457.538 257.338 452.471 257.497 447.245 257.18C437.428 256.547 427.611 256.23 417.635 255.755C417.318 255.755 416.843 255.755 416.526 255.755C409.718 254.488 402.592 254.646 395.783 253.38C393.408 252.905 393.25 253.38 393.883 255.755C396.1 264.939 401.325 272.381 409.084 277.606C409.718 278.081 410.509 278.556 411.459 278.24C414.626 277.29 417.793 276.815 420.96 276.181C426.661 275.073 432.203 273.331 437.586 271.431C447.245 268.106 456.588 263.989 465.138 257.813Z" fill="#08110E"/>
<path d="M660.851 118.47C655.15 99.7856 648.183 81.8927 639.791 64.3164C650.083 69.5418 664.651 106.436 660.851 118.47Z" fill="#08110E"/>
<path d="M634.727 91.0771C644.069 93.6107 661.012 115.146 660.062 123.063C651.194 112.929 642.802 102.478 634.727 91.0771Z" fill="#08110E"/>
<path d="M77.669 765.625C78.3024 760.4 79.2525 755.333 80.2025 750.107C80.9942 746.149 81.4693 742.032 82.1027 737.915C82.736 733.956 83.6861 729.839 84.4778 725.881C85.1112 722.239 85.7446 718.439 86.378 714.638C86.853 712.105 87.4864 709.413 87.6447 706.879C87.8031 704.504 89.2282 703.712 90.97 704.663C93.1868 705.771 95.562 705.454 97.7788 705.929C101.262 706.879 105.063 707.196 108.546 707.988C110.288 708.305 110.921 707.513 111.396 706.088C113.138 699.912 115.197 693.737 117.414 687.561C117.73 686.611 118.047 685.661 118.205 684.869C118.364 682.494 120.422 682.019 121.847 681.069C122.956 680.277 124.222 679.644 125.489 679.169C130.714 677.269 132.298 672.519 134.515 668.243C145.441 647.342 156.366 626.282 167.45 605.381C169.509 601.58 173.151 598.572 176.001 595.246C185.502 584.321 195.002 573.553 204.661 562.627C210.362 556.135 216.221 549.643 221.921 543.151C230.947 532.859 240.131 522.566 249.156 512.274C251.848 509.265 254.698 506.257 257.232 503.09C260.557 498.815 265.624 497.231 270.058 494.381C269.899 496.123 268.791 497.073 267.999 498.023C260.715 507.048 254.54 516.866 247.89 526.525C241.397 535.867 234.905 545.21 228.255 554.394C217.804 568.803 207.353 583.212 196.903 597.622C189.302 607.914 181.543 618.048 173.943 628.34C163.333 642.591 152.724 657.001 141.957 671.252C134.831 680.753 127.548 690.253 120.739 700.071C111.555 713.213 102.687 726.672 94.6119 740.607C89.3865 749.632 84.1611 758.658 78.9358 767.684C78.7774 767.842 78.7774 768.159 78.7774 768.317C77.9857 768.475 77.8274 768.951 77.9857 769.742C76.7189 768.317 77.9857 766.892 77.669 765.625Z" fill="#08110E"/>
<path d="M77.6671 765.626C77.9838 766.893 76.5587 768.318 77.8255 769.743C77.9838 770.851 76.8754 771.485 76.4004 772.276C77.1921 770.06 76.242 767.684 77.6671 765.626Z" fill="#196432"/>
<path d="M77.9888 769.583C77.8304 768.95 77.9888 768.317 78.7805 768.158C78.7805 768.95 78.7805 769.583 77.9888 769.583Z" fill="#196432"/>
<path d="M648.66 690.253C648.185 690.095 647.868 689.937 647.552 689.303C646.127 684.553 642.96 681.228 638.843 679.011C635.359 677.111 631.401 676.794 627.442 677.903C622.533 679.328 619.208 682.653 616.674 686.77C615.724 688.353 614.458 689.145 612.399 689.303C608.124 689.778 604.007 690.412 599.89 691.837C599.573 690.728 600.207 690.253 600.998 690.253C602.107 690.095 603.215 689.462 604.324 689.462C606.857 689.145 609.391 688.037 612.082 688.512C613.824 688.828 614.774 687.72 615.566 686.453C618.1 682.178 621.583 679.011 626.017 677.269C630.925 675.369 635.834 676.002 640.426 678.694C644.068 680.911 646.918 683.92 648.502 688.037C648.818 688.828 649.452 689.462 649.768 690.253C649.452 690.253 649.135 690.253 648.66 690.253Z" fill="#E4F0E8"/>
<path d="M648.659 690.254C648.976 690.254 649.451 690.254 649.768 690.096C650.084 690.096 650.401 690.254 650.876 690.254C650.876 690.729 650.876 691.046 651.509 691.046C653.093 697.538 652.143 703.555 648.976 709.414C648.184 709.414 647.392 709.414 646.601 709.255C646.442 708.464 646.759 707.672 647.076 707.039C649.134 702.288 650.401 697.38 648.818 692.154C648.659 691.679 648.818 691.046 648.659 690.254Z" fill="#4ADE80"/>
<path d="M651.51 691.204C650.877 691.204 650.877 690.887 650.877 690.412C651.352 690.412 651.51 690.729 651.51 691.204Z" fill="#4ADE80"/>
<path d="M473.212 614.407C473.37 614.407 473.687 614.407 473.845 614.565C474.479 615.515 475.112 616.465 476.062 617.099C475.745 617.891 476.695 618.207 477.012 618.841C478.595 623.274 479.229 627.708 478.12 632.458C477.012 636.892 475.429 640.851 472.737 644.334C468.778 649.56 463.869 653.201 456.902 653.36C455.635 652.251 453.735 652.726 452.31 651.618C451.043 650.351 449.935 648.768 448.827 647.343C446.293 644.176 446.927 640.217 445.976 636.734C445.818 635.784 446.927 634.992 446.768 633.883C446.293 630.717 447.877 628.025 449.143 625.333C451.043 621.057 454.21 617.574 458.327 615.04C462.444 612.507 466.72 611.398 471.312 613.774C471.787 613.932 472.262 614.565 473.212 614.407Z" fill="#E4F0E8"/>
<path d="M456.904 653.201C463.871 653.043 468.78 649.559 472.739 644.175C475.431 640.692 477.014 636.575 478.122 632.3C479.231 627.549 478.598 623.116 477.014 618.682C476.856 618.049 475.906 617.732 476.064 616.94C476.222 616.465 476.381 616.148 476.856 616.148C480.656 620.424 481.448 625.491 480.973 630.874C480.339 637.208 477.806 642.909 473.372 647.659C469.414 651.934 464.822 654.785 458.646 654.151C458.013 653.993 457.063 654.309 456.904 653.201Z" fill="#08110E"/>
<path d="M473.214 614.407C472.423 614.723 471.948 613.931 471.314 613.615C466.722 611.24 462.605 612.348 458.33 614.882C454.213 617.415 451.204 620.899 449.146 625.174C447.879 627.866 446.296 630.558 446.771 633.725C446.929 634.833 445.821 635.625 445.979 636.575C446.929 640.058 446.296 644.017 448.829 647.184C449.938 648.609 451.046 650.192 452.313 651.459C451.046 651.618 450.096 650.826 449.304 650.034C445.346 645.125 444.237 639.425 445.346 633.25C446.454 626.282 449.621 620.265 455.005 615.515C458.488 612.506 462.447 610.606 467.197 610.923C469.572 611.24 471.948 611.715 473.214 614.407Z" fill="#4ADE80"/>
<path d="M477.014 616.148C476.539 616.148 476.223 616.464 476.223 616.939C475.114 616.464 474.639 615.356 474.006 614.406C475.431 613.931 476.381 614.722 477.014 616.148Z" fill="#196432"/>
<path d="M623.324 707.671C619.84 703.079 619.84 698.012 620.157 692.945C620.474 689.462 622.057 686.611 625.382 684.87C626.016 684.553 626.808 684.236 627.283 684.553C627.916 685.028 627.124 685.503 626.966 686.137C626.491 688.353 625.224 690.253 624.591 692.312C623.482 695.954 621.741 699.596 623.166 703.554C623.641 704.663 623.324 706.088 623.324 707.671Z" fill="#E4F0E8"/>
<path d="M349.865 345.061C349.231 345.061 348.915 345.378 348.915 346.012C346.698 344.586 346.223 342.211 345.273 339.994C345.114 339.836 345.273 339.361 345.431 339.203C345.906 338.886 346.223 339.203 346.381 339.678C347.489 341.578 349.073 343.003 349.865 345.061Z" fill="#196432"/>
<path d="M492 641.5C496.833 643.833 507.1 649.2 509.5 652" stroke="black"/>
<path d="M464.499 257.5C459 257.5 415.833 255.167 394.499 253C392.099 264.6 404.499 274.5 410.999 278C429.799 277.6 454.499 264.167 464.499 257.5Z" fill="#E4F0E8" stroke="#E4F0E8"/>
<path d="M491.001 257.5C493.5 257.5 539.667 255.167 561.001 253C563.401 264.6 551.001 274.5 544.501 278C525.701 277.6 501.001 264.167 491.001 257.5Z" fill="#E4F0E8" stroke="#E4F0E8"/>
<path d="M232.5 612L225.029 584.116L204.616 604.529L232.5 612ZM218.358 594.322L4.26777 380.232L0.732233 383.768L214.822 597.858L218.358 594.322Z" fill="white"/>
</svg>
