<svg width="1177" height="200" viewBox="0 0 1177 200" fill="none" xmlns="http://www.w3.org/2000/svg">
<path d="M1 1C1.23171 1.80712 1.46922 2.62508 1.7125 3.45348C18.2428 32.3112 318.287 67.75 470.419 82.2113C387.125 124.453 203.939 206.795 137.542 198.227C72.0071 189.771 20.2088 66.437 1.7125 3.45348C1.24084 2.63008 1 1.81204 1 1Z" fill="#E5F7EB" stroke="#E4F7EB" stroke-width="1.78486"/>
<path d="M1175.44 1C1175.21 1.80712 1174.97 2.62508 1174.73 3.45348C1158.2 32.3112 858.153 67.75 706.02 82.2113C789.314 124.453 972.501 206.795 1038.9 198.227C1104.43 189.771 1156.23 66.437 1174.73 3.45348C1175.2 2.63008 1175.44 1.81204 1175.44 1Z" fill="#E5F7EB" stroke="#E4F7EB" stroke-width="1.78486"/>
<ellipse cx="211" cy="77.5" rx="58" ry="28.5" fill="black"/>
<ellipse cx="975" cy="77.5" rx="58" ry="28.5" fill="black"/>
<circle cx="219" cy="62" r="11" fill="white"/>
<circle cx="968" cy="61" r="11" fill="white"/>
</svg>
