<svg width="428" height="428" viewBox="0 0 428 428" fill="none" xmlns="http://www.w3.org/2000/svg">
<path d="M381.655 213.605C381.655 306.278 306.528 381.405 213.855 381.405C121.181 381.405 46.0547 306.278 46.0547 213.605C46.0547 120.931 121.181 45.8047 213.855 45.8047C306.528 45.8047 381.655 120.931 381.655 213.605Z" fill="black" stroke="#4ADE80" stroke-width="45"/>
<path d="M389.914 229.703C390.212 226.49 391.019 223.713 392.334 221.371C393.676 219.031 395.432 217.28 397.602 216.115C399.77 214.977 402.195 214.533 404.877 214.782L405.076 214.8C407.758 215.049 410.059 215.932 411.98 217.45C413.899 218.994 415.303 221.039 416.191 223.585C417.08 226.131 417.375 229.011 417.077 232.224C416.774 235.49 415.951 238.293 414.609 240.632C413.267 242.971 411.512 244.71 409.345 245.848C407.203 246.988 404.779 247.432 402.07 247.181L401.871 247.163C399.163 246.911 396.848 246.027 394.927 244.509C393.032 242.994 391.64 240.964 390.752 238.418C389.89 235.874 389.61 232.969 389.914 229.703ZM397.362 230.394C397.105 233.155 397.395 235.231 398.23 236.621C399.092 238.013 400.518 238.802 402.51 238.987L402.908 239.024C406.891 239.393 409.131 236.896 409.629 231.533C409.873 228.904 409.553 226.866 408.67 225.418C407.787 223.97 406.362 223.155 404.398 222.973L403.999 222.936C402.008 222.751 400.459 223.277 399.354 224.513C398.275 225.752 397.611 227.712 397.362 230.394Z" fill="white"/>
<path d="M406.915 251.458L413.885 253.262L407.261 278.859L400.29 277.055L402.595 268.149L384.163 263.378L386.177 255.594L404.61 260.365L406.915 251.458Z" fill="white"/>
<path d="M367.724 303.527L371.025 296.328L384.296 302.414L373.593 290.729L376.878 283.566L392.627 284.056L379.429 278.003L382.747 270.768L406.598 281.706L402.113 291.486L383.408 290.917L396.077 304.648L391.575 314.465L367.724 303.527Z" fill="white"/>
<path d="M372.673 341.517L367.065 337.531L376.497 324.261L374.182 322.616L365.214 335.233L359.704 331.317L368.672 318.699L366.325 317.031L356.893 330.3L351.285 326.314L365.375 306.492L386.763 321.694L372.673 341.517Z" fill="white"/>
<path d="M362.768 352.476L355.988 345.793L347.873 354.027L354.654 360.709L349.01 366.436L330.321 348.016L335.965 342.29L342.745 348.973L350.86 340.739L344.079 334.057L349.723 328.33L368.412 346.75L362.768 352.476Z" fill="white"/>
<path d="M305.571 367.634L304.865 366.664L311.205 362.052L315.137 364.533L324.453 357.757L323.303 353.252L329.643 348.64L330.349 349.61L336.28 376.26L329.099 381.483L305.571 367.634ZM321.211 368.327L328.196 372.693L326.192 364.703L321.211 368.327Z" fill="white"/>
<path d="M283.866 375.982C286.828 374.703 289.652 374.079 292.338 374.11C295.034 374.166 297.414 374.866 299.476 376.212C301.514 377.569 303.067 379.484 304.135 381.956L304.214 382.14C305.282 384.613 305.611 387.056 305.201 389.469C304.766 391.894 303.645 394.106 301.836 396.107C300.028 398.108 297.643 399.748 294.68 401.027C291.669 402.327 288.815 402.949 286.119 402.894C283.423 402.838 281.055 402.132 279.017 400.775C276.99 399.443 275.437 397.529 274.359 395.031L274.279 394.848C273.201 392.351 272.867 389.895 273.277 387.482C273.698 385.092 274.812 382.897 276.621 380.897C278.44 378.92 280.855 377.282 283.866 375.982ZM286.831 382.849C284.285 383.948 282.602 385.198 281.783 386.597C280.975 388.021 280.967 389.651 281.76 391.487L281.919 391.854C283.504 395.526 286.77 396.295 291.715 394.16C294.139 393.113 295.774 391.855 296.621 390.386C297.468 388.916 297.5 387.276 296.718 385.464L296.559 385.097C295.766 383.261 294.562 382.154 292.947 381.777C291.343 381.424 289.304 381.781 286.831 382.849Z" fill="white"/>
<path d="M272.889 401.265L274.64 408.249L248.994 414.679L247.243 407.695L256.167 405.458L251.536 386.99L259.335 385.034L263.965 403.503L272.889 401.265Z" fill="white"/>
<path d="M208.353 391.722L216.254 391.173L217.267 405.737L222.399 390.745L230.26 390.198L237.372 404.259L236.365 389.774L244.306 389.221L246.126 415.398L235.392 416.145L226.934 399.451L220.947 417.149L210.173 417.899L208.353 391.722Z" fill="white"/>
<path d="M176.758 414.17L177.578 407.339L193.742 409.28L194.081 406.46L178.711 404.615L179.517 397.903L194.886 399.748L195.23 396.889L179.066 394.948L179.886 388.117L204.032 391.016L200.905 417.069L176.758 414.17Z" fill="white"/>
<path d="M162.263 410.627L164.927 401.487L153.829 398.253L151.165 407.392L143.446 405.143L150.788 379.951L158.507 382.2L155.843 391.34L166.941 394.575L169.605 385.435L177.324 387.684L169.982 412.876L162.263 410.627Z" fill="white"/>
<path d="M121.897 367.492L122.417 366.411L129.482 369.811L129.158 374.449L139.539 379.445L142.962 376.299L150.026 379.699L149.506 380.78L128.843 398.624L120.842 394.773L121.897 367.492ZM128.693 381.595L128.156 389.815L134.244 384.266L128.693 381.595Z" fill="white"/>
<path d="M104.329 352.377C106.86 354.378 108.749 356.569 109.995 358.948C111.225 361.348 111.737 363.775 111.53 366.229C111.302 368.667 110.353 370.942 108.683 373.055L108.559 373.212C106.888 375.324 104.893 376.773 102.574 377.556C100.234 378.324 97.7539 378.386 95.1348 377.743C92.5157 377.1 89.9406 375.778 87.4095 373.776C84.8366 371.742 82.9352 369.525 81.7054 367.125C80.4755 364.724 79.9744 362.305 80.202 359.868C80.4131 357.451 81.3621 355.176 83.0491 353.042L83.1732 352.885C84.8602 350.752 86.8634 349.293 89.1828 348.509C91.4857 347.746 93.9467 347.687 96.5658 348.33C99.1683 348.994 101.756 350.343 104.329 352.377ZM99.6898 358.245C97.5143 356.525 95.6164 355.636 93.996 355.578C92.359 355.542 90.9203 356.308 89.6799 357.877L89.4318 358.191C86.951 361.329 87.8232 364.568 92.0487 367.909C94.1196 369.546 96.0027 370.389 97.698 370.438C99.3933 370.486 100.853 369.737 102.077 368.189L102.325 367.875C103.565 366.306 103.969 364.721 103.535 363.12C103.084 361.54 101.803 359.915 99.6898 358.245Z" fill="white"/>
<path d="M76.8993 354.763L71.5911 359.628L53.7279 340.135L59.0361 335.27L65.2518 342.053L79.2892 329.189L84.7211 335.117L70.6837 347.981L76.8993 354.763Z" fill="white"/>
<path d="M54.5602 293.569L58.8118 300.251L46.4938 308.088L62.1186 305.448L66.3487 312.096L57.3835 325.054L69.634 317.26L73.9071 323.976L51.7684 338.062L45.9923 328.984L56.6296 313.587L38.2192 316.767L32.4215 307.655L54.5602 293.569Z" fill="white"/>
<path d="M20.0085 277.075L26.4036 274.538L32.4075 289.671L35.0473 288.623L29.3384 274.234L35.6219 271.741L41.3308 286.13L44.0078 285.068L38.0039 269.936L44.3989 267.398L53.3679 290.004L28.9775 299.681L20.0085 277.075Z" fill="white"/>
<path d="M16.2499 262.924L25.5503 260.891L23.0818 249.597L13.7814 251.63L12.0645 243.776L37.6993 238.172L39.4161 246.027L30.1157 248.06L32.5842 259.353L41.8846 257.32L43.6015 265.175L17.9667 270.778L16.2499 262.924Z" fill="white"/>
<path d="M34.7705 206.511L35.969 206.451L36.3621 214.281L32.1338 216.216L32.7115 227.721L37.1123 229.222L37.5054 237.052L36.3069 237.113L10.7528 227.502L10.3076 218.633L34.7705 206.511ZM25.6365 219.225L18.1606 222.684L25.9454 225.377L25.6365 219.225Z" fill="white"/>
<path d="M39.6332 183.457C39.0773 186.635 38.0494 189.338 36.5497 191.567C35.0237 193.79 33.1323 195.395 30.8753 196.381C28.6229 197.34 26.1702 197.588 23.5172 197.124L23.3202 197.09C20.6671 196.626 18.4441 195.56 16.6513 193.893C14.863 192.199 13.6286 190.048 12.9481 187.438C12.2676 184.828 12.2053 181.934 12.7613 178.756C13.3264 175.525 14.372 172.798 15.898 170.574C17.424 168.351 19.3132 166.759 21.5655 165.799C23.7916 164.835 26.2443 164.587 28.9236 165.056L29.1207 165.091C31.8 165.559 34.0361 166.627 35.8289 168.294C37.5956 169.957 38.8191 172.093 39.4996 174.703C40.1539 177.308 40.1984 180.226 39.6332 183.457ZM32.2651 182.168C32.743 179.436 32.6217 177.344 31.9012 175.891C31.1544 174.434 29.796 173.533 27.8259 173.189L27.4319 173.12C23.4917 172.43 21.0576 174.739 20.1294 180.045C19.6745 182.645 19.829 184.703 20.5928 186.217C21.3566 187.731 22.7105 188.659 24.6543 188.999L25.0483 189.067C27.0184 189.412 28.6043 189.013 29.8059 187.869C30.9813 186.721 31.801 184.821 32.2651 182.168Z" fill="white"/>
<path d="M24.5413 160.013L17.7449 157.636L26.4731 132.678L33.2694 135.055L30.2324 143.739L48.2051 150.025L45.551 157.614L27.5783 151.329L24.5413 160.013Z" fill="white"/>
<path d="M67.6514 111.779L63.7748 118.685L51.0433 111.539L60.7597 124.057L56.9028 130.929L41.2455 129.158L53.9072 136.265L50.0111 143.207L27.1292 130.363L32.3958 120.98L50.9928 123.07L39.4833 108.353L44.7695 98.9354L67.6514 111.779Z" fill="white"/>
<path d="M65.7081 73.5012L70.9784 77.9237L60.5136 90.3947L62.6891 92.2202L72.6397 80.3621L77.8181 84.7074L67.8675 96.5656L70.0737 98.4169L80.5385 85.9459L85.8088 90.3684L70.1758 108.998L50.0752 92.1311L65.7081 73.5012Z" fill="white"/>
<path d="M75.976 63.7403L82.201 70.9431L90.9472 63.3842L84.7223 56.1814L90.8053 50.9242L107.963 70.7773L101.88 76.0345L95.6552 68.8317L86.909 76.3906L93.1339 83.5934L87.0509 88.8506L69.893 68.9975L75.976 63.7403Z" fill="white"/>
<path d="M134.588 52.8251L135.214 53.8492L128.523 57.9357L124.803 55.1455L114.972 61.1501L115.756 65.7334L109.065 69.8199L108.44 68.7958L104.673 41.7553L112.251 37.1267L134.588 52.8251ZM119.055 50.8757L112.444 45.961L113.798 54.0865L119.055 50.8757Z" fill="white"/>
<path d="M156.438 46.3502C153.38 47.3809 150.514 47.77 147.84 47.5176C145.158 47.24 142.844 46.3455 140.899 44.8341C138.98 43.3143 137.59 41.2782 136.73 38.726L136.666 38.5365C135.805 35.9843 135.679 33.5223 136.287 31.1507C136.92 28.7705 138.22 26.6579 140.187 24.8129C142.154 22.9679 144.666 21.5301 147.724 20.4994C150.832 19.4517 153.727 19.0666 156.41 19.3443C159.092 19.6219 161.393 20.5207 163.313 22.0406C165.223 23.5351 166.613 25.5712 167.482 28.1487L167.546 28.3382C168.415 30.9157 168.545 33.3903 167.938 35.762C167.322 38.1084 166.03 40.204 164.063 42.049C162.088 43.8688 159.546 45.3025 156.438 46.3502ZM154.048 39.2621C156.676 38.3762 158.456 37.2697 159.388 35.9426C160.311 34.5902 160.453 32.9665 159.814 31.0712L159.686 30.6922C158.408 26.9017 155.217 25.8669 150.113 27.5875C147.611 28.4308 145.878 29.5498 144.913 30.9444C143.948 32.3391 143.78 33.9714 144.411 35.8414L144.538 36.2204C145.177 38.1156 146.286 39.3178 147.865 39.8269C149.435 40.3107 151.496 40.1224 154.048 39.2621Z" fill="white"/>
<path d="M170.164 21.7672L169.005 14.6611L195.1 10.4048L196.259 17.5109L187.179 18.9919L190.244 37.7836L182.309 39.0778L179.244 20.2862L170.164 21.7672Z" fill="white"/>
<path d="M233.889 36.5917L225.97 36.4694L226.196 21.8711L219.811 36.3743L211.932 36.2526L206.037 21.6399L205.813 36.1581L197.853 36.0352L198.259 9.79836L209.017 9.96449L216.03 27.3148L223.496 10.1881L234.294 10.3548L233.889 36.5917Z" fill="white"/>
<path d="M266.033 16.4627L264.667 23.2056L248.711 19.9723L248.147 22.7558L263.319 25.8302L261.976 32.4555L246.804 29.3811L246.232 32.2037L262.188 35.437L260.822 42.18L236.986 37.3499L242.198 11.6326L266.033 16.4627Z" fill="white"/>
<path d="M281.133 21.3535L277.722 30.2413L288.515 34.3835L291.926 25.4957L299.432 28.3766L290.03 52.8742L282.523 49.9933L285.935 41.1054L275.142 36.9632L271.731 45.8511L264.225 42.9702L273.627 18.4726L281.133 21.3535Z" fill="white"/>
<path d="M317.802 67.588L317.196 68.6234L310.431 64.6607L311.13 60.0638L301.19 54.241L297.522 57.0992L290.758 53.1365L291.364 52.101L313.408 35.9944L321.071 40.4828L317.802 67.588ZM312.174 52.9798L313.378 44.8308L306.859 49.8663L312.174 52.9798Z" fill="white"/>
<path d="M334.253 84.1582C331.898 81.9525 330.199 79.612 329.156 77.1369C328.131 74.6424 327.824 72.1809 328.235 69.7526C328.666 67.3425 329.802 65.1546 331.643 63.1889L331.78 63.0429C333.621 61.0772 335.73 59.8007 338.107 59.2136C340.503 58.6447 342.979 58.7901 345.535 59.6498C348.091 60.5095 350.547 62.0422 352.902 64.248C355.296 66.4902 357.005 68.8586 358.03 71.3532C359.055 73.8477 359.352 76.3 358.922 78.7101C358.509 81.1008 357.374 83.2887 355.514 85.2739L355.377 85.4198C353.518 87.405 351.4 88.6912 349.023 89.2783C346.665 89.846 344.207 89.7 341.651 88.8403C339.113 87.9612 336.647 86.4005 334.253 84.1582ZM339.367 78.699C341.391 80.5948 343.208 81.6391 344.818 81.8317C346.446 82.0048 347.943 81.3615 349.311 79.9018L349.584 79.6099C352.319 76.6905 351.72 73.3896 347.789 69.7072C345.862 67.9025 344.056 66.9051 342.37 66.715C340.685 66.5248 339.168 67.1499 337.819 68.5901L337.546 68.882C336.178 70.3417 335.644 71.8874 335.943 73.519C336.26 75.1311 337.401 76.8578 339.367 78.699Z" fill="white"/>
<path d="M362 84.203L367.696 79.7994L383.867 100.718L378.17 105.121L372.544 97.8426L357.48 109.488L352.563 103.127L367.626 91.4817L362 84.203Z" fill="white"/>
<path d="M378.839 146.265L375.142 139.26L388.054 132.446L372.267 133.813L368.589 126.844L378.574 114.654L365.733 121.431L362.017 114.391L385.223 102.144L390.246 111.66L378.397 126.145L397.004 124.466L402.045 134.017L378.839 146.265Z" fill="white"/>
<path d="M412.227 166.177L405.644 168.177L400.912 152.6L398.194 153.426L402.694 168.237L396.226 170.202L391.726 155.391L388.97 156.228L393.703 171.805L387.12 173.805L380.051 150.535L405.158 142.908L412.227 166.177Z" fill="white"/>
<path d="M414.87 180.919L405.432 182.162L406.942 193.623L416.38 192.38L417.431 200.351L391.415 203.778L390.365 195.807L399.804 194.564L398.294 183.103L388.855 184.346L387.805 176.375L413.82 172.948L414.87 180.919Z" fill="white"/>
<path d="M424.456 199.805C424.556 205.105 421.156 208.605 418.456 212.005C407.256 225.605 393.856 236.605 378.156 244.805C371.256 248.405 366.056 247.605 360.956 242.605C359.356 241.005 359.456 240.105 362.156 239.105C359.256 238.705 357.056 238.505 354.856 238.005C345.756 236.205 341.656 231.405 340.956 222.105C340.356 214.205 341.256 206.305 341.856 198.505C342.056 195.305 342.156 192.105 342.356 188.905C342.456 187.905 342.456 186.605 343.456 186.205C344.756 185.705 345.656 186.805 346.356 187.605C349.756 191.605 351.156 196.505 352.256 201.605C353.256 206.305 353.256 211.105 353.156 216.605C360.556 212.705 365.856 207.405 371.256 202.205C379.256 194.505 386.156 185.805 393.556 177.505C394.256 176.705 394.956 175.105 396.156 175.605C397.656 176.205 397.156 177.905 396.856 179.105C393.856 194.005 385.156 205.205 373.756 214.505C373.056 215.105 371.956 215.105 370.756 215.505C375.156 219.205 379.256 223.105 382.656 227.705C383.856 229.305 384.056 228.905 385.256 227.705C387.156 225.805 389.756 224.505 392.056 223.005C392.956 222.405 393.656 222.005 394.656 223.105C397.756 226.505 399.456 223.705 400.356 221.305C404.556 209.605 416.656 207.305 424.456 199.805Z" fill="#E6F2E9"/>
<path d="M50.8539 236.604C51.6539 230.104 54.1539 228.004 59.1539 229.504C58.4539 224.804 55.1539 221.004 55.0539 216.304C55.0539 214.204 53.7539 210.804 55.5539 210.304C58.1539 209.504 58.7539 213.104 59.6539 215.004C64.6539 225.304 70.8539 234.804 77.9539 243.704C80.5539 247.004 80.5539 247.004 76.6539 249.204C81.6539 249.404 85.8539 247.604 90.1539 246.404C92.8539 245.604 94.2539 245.804 93.9539 249.204C93.6539 252.704 93.6539 256.204 93.9539 259.704C94.1539 262.304 93.2539 263.904 90.9539 264.704C82.0539 268.004 73.3539 271.804 63.9539 273.304C59.5539 274.004 55.4539 273.004 51.4539 272.004C43.7539 270.104 36.0539 267.804 28.2539 264.804C32.4539 261.504 36.8539 261.204 41.2539 261.904C46.1539 262.604 50.9539 263.804 55.8539 264.804C56.9539 265.004 58.3539 265.604 59.1539 264.504C59.9539 263.304 58.4539 262.404 57.7539 261.604C50.7539 253.104 44.1539 244.204 39.2539 234.204C37.2539 230.104 35.9539 225.904 35.5539 221.304C35.4539 219.904 34.9539 218.004 36.6539 217.404C38.1539 216.904 38.8539 218.604 39.4539 219.704C42.7539 225.504 46.9539 230.504 50.8539 236.604Z" fill="#E6F2E9"/>
<path d="M303.655 234.203C299.455 236.803 297.555 240.903 295.855 245.203C295.355 246.303 295.555 249.503 292.755 248.203C290.255 247.103 290.855 244.903 291.855 242.903C295.055 236.503 298.255 230.103 302.355 224.203C309.755 213.503 317.755 203.303 327.355 194.303C329.155 192.603 331.155 191.403 333.555 192.903C336.055 194.403 338.255 195.803 338.155 199.603C338.155 204.003 336.855 207.303 333.955 210.503C323.355 222.003 314.155 234.603 307.155 248.703C306.455 250.103 305.955 251.703 305.255 253.103C304.455 254.603 304.555 257.503 301.655 256.403C299.255 255.403 296.755 254.203 297.455 250.703C298.255 246.303 300.255 242.403 302.255 238.603C302.955 237.203 304.355 236.003 303.655 234.203Z" fill="#4ADE80"/>
<path d="M106.656 285.004C107.156 286.804 107.656 288.604 108.156 290.404C108.556 291.904 109.556 293.604 107.156 294.304C105.256 294.904 103.656 294.504 102.656 292.704C100.556 289.304 99.7556 285.404 98.9556 281.504C96.2556 269.004 96.0555 256.404 97.3555 243.704C97.6555 240.704 98.7555 239.204 101.556 238.604C104.356 237.904 107.156 236.804 109.956 236.204C112.256 235.704 113.656 236.204 113.256 239.404C111.956 248.704 112.156 258.004 113.256 267.304C114.156 274.804 116.956 281.704 118.956 288.804C119.456 290.604 121.256 292.804 118.256 294.004C115.556 295.104 112.756 295.504 110.956 292.404C109.556 289.904 108.156 287.304 106.856 284.704C106.856 284.904 106.756 284.904 106.656 285.004Z" fill="#4ADE80"/>
<path d="M204.456 127.004C207.956 134.704 211.256 141.904 214.656 149.204C215.356 150.704 214.556 151.304 213.456 151.804C211.756 152.504 209.956 153.304 207.956 154.104C209.856 155.504 211.956 155.304 213.856 155.704C217.856 156.504 219.356 159.004 219.456 164.904C219.456 168.904 217.256 171.604 213.056 172.604C208.956 173.604 205.556 172.104 204.056 168.404C199.856 158.504 200.256 148.204 201.856 137.804C202.256 134.304 202.256 130.704 204.456 127.004Z" fill="#E6F2E9"/>
<path d="M198.455 130.504C199.155 137.304 198.555 143.204 197.555 149.104C197.055 152.204 195.355 154.004 192.155 154.404C191.055 154.604 189.955 155.104 188.755 155.404C189.055 155.804 189.155 156.104 189.355 156.104C194.855 158.104 194.955 158.404 191.755 163.304C189.955 166.104 188.155 169.004 184.755 170.204C181.655 171.304 178.555 171.604 176.255 169.104C173.755 166.404 174.655 163.304 176.555 160.704C181.555 153.704 186.655 146.804 191.755 139.904C193.955 137.104 195.155 133.604 198.455 130.504Z" fill="#E6F2E9"/>
<path d="M393.056 209.703C391.656 211.503 391.756 212.903 391.956 214.403C392.156 216.203 393.656 218.403 392.056 219.803C389.656 221.903 386.856 223.503 384.156 225.203C383.256 225.803 382.556 224.903 382.056 224.303C381.456 223.503 380.856 222.703 380.156 221.903C375.656 216.603 375.656 216.503 380.856 212.103C386.256 207.603 392.756 204.803 399.256 202.303C402.156 201.203 403.556 202.203 402.756 205.303C401.656 209.903 401.356 214.803 399.156 219.203C398.556 220.403 397.956 222.003 396.556 221.803C395.356 221.703 395.256 220.103 394.856 219.003C393.756 216.103 393.356 213.103 393.056 209.703Z" fill="#E6F2E9"/>
<path d="M337.655 211.703C336.755 218.203 337.955 223.503 338.355 229.103C334.355 228.603 331.255 226.303 327.755 225.403C326.155 225.003 326.855 224.003 327.455 223.103C330.155 219.303 333.155 215.603 337.655 211.703Z" fill="#E6F2E9"/>
<path d="M244.355 129.505C236.955 124.405 229.955 120.405 221.355 119.605C222.555 123.305 223.555 126.805 224.855 130.805C221.955 129.505 221.155 127.005 219.955 125.105C218.055 122.205 216.555 119.005 214.855 116.005C209.955 107.705 200.755 106.505 193.355 112.905C189.555 116.205 186.955 120.405 183.355 123.705C187.655 115.605 191.855 107.405 201.755 104.605C207.055 103.105 212.955 105.605 216.355 110.805C218.155 113.605 220.255 115.405 223.755 116.205C230.055 117.605 235.755 120.705 240.855 124.705C242.155 125.805 243.755 126.605 244.355 129.505Z" fill="#1B1A1A"/>
<path d="M245.855 130.204C245.755 130.404 245.555 130.704 245.455 130.904C245.355 130.704 245.055 130.404 245.055 130.204C245.055 130.004 245.255 129.804 245.455 129.504C245.555 129.704 245.755 129.904 245.855 130.204Z" fill="#1B1A1A"/>
<path d="M232.855 91.2047C232.555 91.2047 232.355 91.3047 232.055 91.3047C232.055 91.1047 232.155 90.9047 232.155 90.8047C232.455 91.0047 232.655 91.1047 232.855 91.2047Z" fill="#1B1A1A"/>
<path d="M235.155 206.604L235.055 206.804C234.955 206.804 235.155 206.604 235.155 206.604Z" fill="#1B1A1A"/>
<path d="M273.054 85.2041C273.054 85.2041 277.954 81.2041 277.254 89.6041C276.554 98.0041 273.354 118.104 259.954 123.704C259.954 123.704 237.654 92.0041 232.854 91.2041C232.854 91.2041 254.754 119.804 256.754 130.204C256.754 130.204 256.254 134.804 243.254 141.104C243.254 141.104 242.654 141.304 240.954 139.604C239.254 137.904 237.354 139.104 237.354 139.104C237.354 139.104 235.854 139.904 236.554 142.704C237.254 145.504 243.054 163.604 260.654 178.904C260.654 178.904 267.054 189.404 271.154 189.404L247.854 189.604C247.854 189.604 230.454 165.304 227.054 154.004C227.054 154.004 211.254 110.004 201.254 115.404C191.254 120.804 177.954 146.704 177.954 146.704L164.054 170.604C164.054 170.604 148.754 199.604 112.054 202.904L110.654 202.204C110.654 202.204 134.654 190.004 144.654 177.504C144.654 177.504 165.254 149.704 170.254 138.804C170.254 138.804 201.354 68.5041 227.054 71.8041C227.054 71.8041 242.754 71.2041 259.854 100.704C259.854 100.704 260.054 94.6041 254.154 88.5041C254.154 88.5041 260.554 85.2041 268.754 99.8041C268.754 99.8041 270.054 99.4041 268.854 97.8041C268.854 97.7041 264.454 92.8041 273.054 85.2041Z" fill="#4ADE80"/>
<path d="M97.3104 346.594L81.6804 329.452C77.8189 325.235 78.1866 318.726 82.4159 314.967L327.163 93.6725C331.392 89.8223 337.92 90.189 341.69 94.4059L357.32 111.548C361.181 115.765 360.813 122.274 356.584 126.033L111.837 347.327C107.608 351.178 101.172 350.811 97.3104 346.594Z" fill="#4ADE80"/>
</svg>
