<svg width="359" height="656" viewBox="0 0 359 656" fill="none" xmlns="http://www.w3.org/2000/svg">
<path d="M262.657 149.867C237.203 157.614 213.857 177.07 192.975 192.838C161.777 216.396 130.181 242.426 107.421 274.521C80.2371 312.853 75.4456 364.953 75.2903 410.788C75.167 447.148 84.5445 487.549 99.2918 520.73C121.57 570.855 174.572 606.86 221.332 632.221C236.951 640.693 256.567 651.577 274.852 651.577" stroke="#4ADE80" stroke-width="7" stroke-linecap="round" stroke-dasharray="14 14"/>
<path d="M124.845 147.557C127.067 145.132 129.289 142.91 130.097 139.476C130.501 138.062 130.501 136.446 130.299 135.032C129.895 133.012 128.279 130.789 128.683 128.567C129.289 125.739 132.521 124.123 133.531 121.497C134.945 118.265 133.935 114.628 133.733 111.194C133.531 106.75 135.349 103.316 137.168 99.4774C138.986 95.6392 140.804 91.801 142.622 87.9627C146.056 80.8922 149.894 73.6198 150.096 65.5392C150.096 63.9231 147.672 63.9231 147.672 65.5392C147.47 73.8218 143.026 81.2962 139.592 88.5687C137.774 92.205 135.956 96.0432 134.339 99.6794C132.925 102.71 131.511 105.538 131.309 108.77C131.107 112.204 132.319 116.042 131.713 119.477C131.107 122.709 127.875 124.325 126.663 127.153C125.451 129.981 126.865 132.204 127.673 135.032C129.087 139.678 126.057 142.91 123.027 145.94C121.815 146.951 123.633 148.567 124.845 147.557Z" fill="black"/>
<path d="M150.095 64.9339C148.479 60.2876 152.115 55.6413 154.338 51.8031C156.358 48.5709 158.378 44.9347 159.186 41.0964C160.802 33.6219 159.59 25.1374 154.742 19.077C152.721 16.6528 150.297 13.2186 147.065 12.2086C143.631 10.9965 139.187 11.6025 135.55 11.8045C128.278 12.2085 121.005 14.4306 116.763 20.491C115.753 21.9051 117.975 23.1172 118.985 21.7031C123.429 15.4407 131.308 14.2287 138.378 14.0267C142.217 14.0267 146.055 13.4206 148.883 16.2488C151.509 18.673 154.136 21.7031 155.55 24.9354C158.58 32.2078 157.57 41.0964 153.731 47.7628C150.701 53.0152 145.449 59.0756 147.671 65.54C148.277 67.1561 150.701 66.348 150.095 64.9339Z" fill="black"/>
<path d="M118.782 21.5006C120.802 13.016 127.67 6.75368 135.751 4.12751C145.448 0.895299 156.154 2.91538 165.447 6.34961C174.538 9.78383 183.426 14.6322 189.688 22.1067C192.719 25.7429 194.941 29.9851 195.951 34.6315C196.961 39.6818 196.557 44.9341 197.567 49.9845C197.971 52.4086 198.981 54.8328 200.193 56.8529C200.799 57.661 201.405 58.469 202.011 59.0751C203.223 60.6912 203.627 61.4992 203.425 63.5194C203.223 67.5596 204.637 71.5999 207.87 74.2261C209.082 75.2361 210.9 73.418 209.688 72.4079C207.87 70.9939 206.658 68.9737 206.254 66.5496C205.85 64.3274 206.658 61.9032 205.85 59.8831C205.041 58.065 203.425 56.8529 202.213 55.0348C200.597 52.6106 199.991 49.7825 199.587 46.9543C198.981 41.4999 199.183 35.8435 197.365 30.5912C195.951 26.3489 193.527 22.5107 190.497 19.2785C183.83 11.804 174.336 6.95566 164.841 3.52143C155.346 0.0872088 144.438 -1.52887 134.741 1.90535C126.054 4.93555 118.378 11.804 116.358 20.8946C115.954 22.5107 118.378 23.1167 118.782 21.5006Z" fill="black"/>
<path d="M259.183 173.414C250.497 170.586 240.598 173.616 232.316 169.778C230.296 168.768 228.073 167.152 228.275 164.526C228.477 162.304 230.498 160.485 231.912 159.071C234.538 156.041 236.154 152.405 236.558 148.567C237.164 144.122 236.356 139.476 235.548 135.032C234.74 130.587 233.73 126.345 232.72 122.103C230.7 113.618 228.073 105.336 224.639 97.4573C220.801 88.5687 215.953 80.0842 209.69 72.6097C208.68 71.3976 206.862 73.2157 207.872 74.4278C219.791 88.5687 226.457 106.144 230.498 123.921C231.508 128.365 232.518 133.012 233.326 137.658C234.134 142.708 234.538 147.961 232.72 152.809C231.104 156.849 227.265 159.071 225.851 162.91C224.639 166.142 226.255 169.172 228.881 170.99C237.366 176.848 248.881 173.01 258.173 176.04C259.992 176.444 260.598 174.02 259.183 173.414Z" fill="black"/>
<path d="M258.78 175.84C263.224 176.446 267.668 176.648 272.113 176.648C275.951 176.648 279.789 176.648 283.425 174.83C286.86 173.213 289.688 170.385 292.92 168.567C296.556 166.345 300.394 164.729 304.637 164.325C306.253 164.123 306.253 161.699 304.637 161.901C296.758 162.709 291.102 167.153 284.839 171.395C281.001 174.021 277.163 174.425 272.719 174.425C268.072 174.425 263.628 174.223 258.982 173.617C257.164 173.213 257.164 175.84 258.78 175.84Z" fill="black"/>
<path d="M124.843 145.737C122.621 143.111 122.015 139.677 119.389 137.455C117.975 136.243 116.359 135.637 115.147 134.627C113.733 133.415 112.723 131.597 111.915 129.98C110.298 126.344 109.692 122.304 108.48 118.466C107.268 114.425 105.046 111.193 102.622 107.961C101.612 106.749 99.3897 107.961 100.4 109.173C103.026 112.809 105.248 116.244 106.46 120.486C107.47 124.324 108.278 128.162 110.096 131.799C111.713 135.031 114.137 137.051 117.167 138.869C120.197 140.889 121.005 144.929 123.227 147.758C124.035 148.768 125.853 146.95 124.843 145.737Z" fill="black"/>
<path d="M101.005 108.368C97.5709 107.964 94.7428 110.59 92.3186 113.014C89.2884 116.448 86.6622 120.084 84.0361 123.721C79.7938 129.579 75.5515 135.437 72.5213 141.902C69.4911 148.366 67.673 155.639 68.481 162.911C68.8851 165.941 69.6931 168.972 71.5112 171.598C73.3294 174.022 76.1575 176.042 79.1877 176.042C82.2179 176.244 85.4501 174.628 88.2783 176.042C89.4904 176.648 90.5005 177.456 91.7126 178.062C93.9347 178.87 96.7629 177.86 98.985 179.072C100.803 180.284 101.409 182.708 102.621 184.527C103.631 185.941 104.843 186.951 106.258 187.961C109.894 190.789 113.53 193.617 116.358 197.253C119.186 200.89 121.207 205.132 121.409 209.778" fill="black"/>
<path d="M101.005 107.155C96.5611 106.953 93.3289 110.186 90.5007 113.216C87.0665 117.256 84.0363 121.7 80.8041 125.943C74.9457 134.225 69.2894 143.114 67.6733 153.214C66.2592 161.295 67.0672 172.81 75.7538 176.446C80.4001 178.466 85.2484 175.234 89.4907 178.062C91.1068 179.274 92.7229 179.476 94.743 179.678C95.9551 179.678 97.3692 179.476 98.3792 180.082C99.5913 180.688 99.9954 182.102 100.601 183.314C102.824 187.961 107.672 190.183 111.51 193.617C116.156 197.859 119.793 203.314 120.197 209.576C120.399 211.192 122.823 211.192 122.621 209.576C122.015 200.486 115.752 193.617 108.884 188.163C107.066 186.749 105.046 185.537 103.632 183.718C102.622 182.304 102.218 180.486 101.005 179.072C99.9954 177.86 98.5813 177.254 96.9652 177.052C96.1571 176.85 95.3491 177.052 94.541 177.052C92.7229 177.052 91.7128 176.648 90.2987 175.638C88.8846 174.628 87.2685 174.224 85.4504 174.224C83.0263 174.224 80.4001 175.234 77.9759 174.628C72.7236 173.416 70.2994 167.759 69.6934 162.911C68.4813 152.608 72.7236 142.912 77.9759 134.427C80.8041 129.781 84.2383 125.337 87.4705 120.892C90.5007 116.852 94.945 109.378 100.601 109.782C102.622 109.782 102.622 107.155 101.005 107.155Z" fill="black"/>
<path d="M100.603 107.961C103.633 116.445 101.007 125.738 98.9865 134.627C97.1684 142.505 95.9563 150.384 92.9261 157.858C89.8959 165.333 84.8456 172.201 77.3711 175.433" fill="black"/>
<path d="M99.3895 108.365C101.612 114.628 100.602 121.294 99.1875 127.557C97.7734 133.617 96.5613 139.879 94.9452 145.94C92.319 157.051 87.6727 168.969 76.562 174.222C75.1479 174.828 76.36 177.05 77.7741 176.444C89.0868 171.191 94.3392 159.071 97.1673 147.556C98.7835 140.687 100.4 133.819 101.814 126.951C103.228 120.486 103.834 114.022 101.612 107.759C101.41 106.143 98.9854 106.749 99.3895 108.365Z" fill="black"/>
<path d="M111.309 336.036C105.249 342.096 96.1583 342.904 87.8757 342.096C78.5831 341.288 69.6946 339.268 60.1999 339.268C44.0389 339.268 27.8778 343.51 15.151 353.611C8.68657 358.863 3.63623 365.328 0.40402 372.802C1.21207 373.004 2.02012 373.206 2.82817 373.408C3.03019 366.338 3.83826 359.267 5.65638 352.197C7.47449 345.733 10.5047 339.874 14.5449 334.42C22.4235 323.511 32.3221 313.814 41.4127 303.916C50.7053 294.017 60.402 284.321 70.9066 275.634C79.7952 268.159 89.2898 261.291 98.1784 253.817C107.875 245.534 116.966 236.039 122.622 224.323C123.43 222.909 121.208 221.494 120.4 223.111C109.491 244.726 88.2798 258.059 70.0986 272.806C59.3919 281.492 49.4932 291.391 39.9986 301.29C30.908 310.986 21.2114 320.481 13.3329 331.188C9.09061 336.844 5.45435 343.106 3.43422 349.975C1.21207 357.449 0.404026 365.328 0 373.004C0 374.216 1.81811 374.822 2.42415 373.61C8.48455 359.469 21.4134 349.369 35.9584 344.723C44.6449 341.894 53.7355 340.884 62.8261 341.086C71.9167 341.288 80.6032 343.308 89.6938 343.915C97.9764 344.521 106.865 343.106 112.925 337.046C114.339 336.642 112.521 334.824 111.309 336.036Z" fill="black"/>
<path d="M120.2 209.576C120.604 214.627 120.604 219.677 119.998 224.727C119.998 225.333 120.604 225.939 121.21 225.939C122.018 225.939 122.422 225.333 122.422 224.727C123.028 219.677 123.23 214.627 122.624 209.576C122.624 208.97 122.018 208.364 121.412 208.364C120.806 208.364 120.2 208.97 120.2 209.576Z" fill="black"/>
<path d="M304.434 164.325C307.464 164.123 308.878 167.355 310.091 169.577C311.505 172.405 312.717 175.436 313.929 178.466C315.949 183.92 317.363 189.375 318.171 195.031C319.181 201.091 319.383 207.556 319.181 213.616C318.979 216.242 318.777 219.07 317.161 221.293C315.343 223.717 312.515 225.333 309.485 225.737C306.252 226.141 303.02 225.535 299.99 224.121C297.768 223.111 295.546 221.495 292.919 221.293C290.091 221.091 287.061 222.303 284.233 221.697C281.809 221.091 279.789 219.474 277.566 218.06C268.476 212.606 258.577 218.666 252.719 226.343C249.285 230.989 247.264 236.646 247.871 242.504C248.679 248.564 252.719 253.211 256.355 257.655C257.365 258.867 259.183 257.049 258.173 255.837C254.133 250.786 249.891 246.14 250.295 239.272C250.699 233.009 254.133 227.555 258.981 223.515C263.83 219.474 269.89 216.848 275.95 220.283C277.768 221.293 279.587 222.707 281.607 223.515C284.031 224.525 286.253 224.525 288.879 224.323C290.697 224.121 292.515 223.717 294.334 224.323C295.748 224.727 296.96 225.535 298.374 226.141C300.798 227.353 303.424 228.161 306.252 228.363C310.899 228.767 315.747 227.151 318.777 223.515C322.009 219.676 321.807 214.02 322.009 209.172C322.009 203.313 321.403 197.455 320.393 191.597C319.181 184.93 317.161 178.466 314.333 172.203C312.515 168.163 310.091 161.295 304.636 161.699C302.818 161.901 302.818 164.325 304.434 164.325Z" fill="black"/>
<path d="M302.009 164.323C295.949 173.414 293.929 183.919 293.121 194.625C292.717 200.282 291.909 206.544 292.717 212.2C293.525 217.251 296.757 221.897 299.787 225.937C300.797 227.149 303.02 225.937 302.009 224.725C298.979 220.685 295.545 216.039 295.141 210.786C294.535 205.534 295.343 199.878 295.747 194.625C296.555 184.525 298.575 174.222 304.232 165.535C305.242 164.323 303.02 163.111 302.009 164.323Z" fill="black"/>
<path d="M278.577 288.764C279.991 285.33 280.193 281.693 279.385 277.855C278.577 274.017 277.163 270.179 275.547 266.542C272.113 259.674 264.638 256.644 257.77 255.028C256.154 254.624 255.547 257.048 257.164 257.452C263.426 259.068 270.092 261.492 273.325 267.35C274.941 270.179 275.951 273.613 276.759 276.845C277.769 280.279 277.971 284.118 276.557 287.35C275.749 288.966 277.971 290.178 278.577 288.764Z" fill="black"/>
<path d="M111.916 339.267C117.976 335.833 124.643 334.217 131.511 334.621C137.773 335.025 143.43 336.237 149.692 334.419C155.349 332.803 159.793 329.57 164.035 325.732C168.883 321.086 173.53 317.248 179.994 315.227C186.055 313.409 192.115 313.409 198.377 315.025C204.438 316.439 210.094 317.046 216.154 315.227C221.811 313.611 226.053 309.571 231.103 306.743C236.76 303.511 243.022 304.723 249.285 304.319C260.597 303.309 271.91 298.864 278.779 289.37C279.789 287.956 277.566 286.744 276.556 288.158C270.092 297.45 258.779 301.289 247.871 302.097C242.416 302.501 236.76 301.491 231.71 303.915C226.255 306.339 222.215 310.783 216.357 312.803C209.892 315.025 203.832 313.813 197.367 312.399C191.711 311.187 185.852 311.389 180.398 312.803C175.146 314.217 170.297 317.046 166.257 320.682C161.611 324.924 157.571 329.368 151.308 331.591C148.076 332.803 144.642 333.409 141.208 333.207C137.571 333.005 133.935 332.197 130.097 332.197C123.43 331.995 116.764 333.813 110.906 337.247C109.289 337.853 110.502 340.075 111.916 339.267Z" fill="black"/>
<path d="M278.981 283.715C269.688 268.16 250.699 260.281 233.326 264.523C227.467 265.938 222.013 268.16 216.155 269.17C210.296 270.382 204.438 270.988 198.58 272.402C189.489 274.624 181.206 279.27 173.53 284.321C165.449 289.573 157.773 295.431 149.288 300.28C139.794 305.532 130.097 308.36 119.188 308.966C107.472 309.37 95.7549 309.168 84.0381 310.38C72.7254 311.593 61.4126 313.815 50.7059 317.653C30.5046 324.925 11.1113 338.662 1.81872 358.46C1.21268 359.874 3.23283 361.288 4.04088 359.672C12.3234 342.299 28.4845 329.774 45.8576 322.299C66.665 313.209 89.4924 311.795 111.916 311.593C122.219 311.593 132.319 310.785 142.016 306.542C150.298 303.108 157.773 298.058 165.045 293.007C172.52 287.755 179.994 282.503 188.479 278.664C198.378 274.018 208.882 273.614 219.387 271.19C225.447 269.776 231.104 267.352 237.164 266.342C242.214 265.534 247.467 265.938 252.315 267.15C262.416 269.776 271.304 276.24 276.557 285.129C277.567 286.543 279.789 285.129 278.981 283.715Z" fill="black"/>
<path d="M6.46484 350.378L8.687 344.116L12.7273 337.45L19.1917 328.359L34.7467 311.188L55.7561 289.976L65.2507 280.886L75.1493 272.603L88.2802 262.705L105.249 248.16C105.249 248.16 122.824 230.787 122.42 222.1C122.42 222.1 125.249 204.323 116.36 195.838L114.946 194.222C114.946 194.222 112.522 190.99 107.875 187.758C107.875 187.758 103.835 185.94 102.017 181.091C102.017 181.091 101.007 177.051 95.5527 177.253C95.5527 177.253 92.3205 177.455 89.4923 175.233C89.4923 175.233 86.4621 173.415 80.6037 175.031C80.6037 175.031 89.8963 169.173 93.9366 157.456L97.9768 143.921C97.9768 143.921 103.835 123.72 103.027 113.215C103.027 113.215 105.047 115.437 107.471 127.356C109.088 135.032 114.138 137.254 114.138 137.254C114.138 137.254 117.774 138.871 119.996 143.315C122.218 147.759 123.026 148.163 123.026 148.163C123.026 148.163 124.037 148.567 124.845 147.355C125.653 146.143 128.279 143.315 128.279 143.315C128.279 143.315 131.713 138.467 129.289 133.618C126.865 128.972 129.289 126.346 129.289 126.346C129.289 126.346 133.733 122.508 133.733 118.669C133.733 114.831 133.127 110.185 133.127 110.185C133.127 110.185 135.551 99.478 139.39 93.4176L142.016 88.3673C142.016 88.3673 149.692 74.6304 149.692 65.3378C149.692 65.3378 148.076 59.6814 152.52 54.025C156.965 48.3687 159.187 39.6821 159.187 39.6821C159.187 39.6821 161.409 28.5714 154.338 18.8748C154.338 18.8748 149.894 10.1882 140.602 11.1983C140.602 11.1983 127.067 10.7943 120.198 16.2486C120.198 16.2486 123.835 8.57207 134.541 4.32979C145.248 0.0875158 158.783 4.32979 158.783 4.32979C158.783 4.32979 178.782 10.1882 186.459 19.4808C194.135 28.5714 193.327 28.3694 195.145 34.4298L195.953 40.2882V42.9143C195.953 42.9143 195.953 48.3687 197.165 52.0049C198.377 55.6411 199.185 56.4492 199.185 56.4492L201.61 59.6814C201.61 59.6814 203.226 61.0955 202.62 64.5297C202.62 64.5297 202.216 68.57 205.246 72.6103L206.256 73.8224L207.064 74.6304L212.114 81.0948C212.114 81.0948 217.771 89.5794 220.397 95.8418C220.397 95.8418 229.083 116.043 230.295 125.942C230.295 125.942 236.558 149.577 230.295 155.84C230.295 155.84 222.821 163.314 225.043 167.354C227.265 171.395 230.901 172.809 230.901 172.809L232.72 173.617C232.72 173.617 240.194 175.637 245.648 175.031C245.648 175.031 254.335 175.031 257.769 176.445C257.769 176.445 274.536 178.465 280.395 176.445L283.829 175.031L286.253 173.415C286.253 173.415 296.354 165.738 301.202 165.536C301.202 165.536 293.324 174.627 292.112 201.495C292.112 201.495 290.899 214.626 297.162 223.716C297.162 223.716 292.718 221.292 286.253 222.908C286.253 222.908 281.405 222.706 277.769 219.272C277.769 219.272 266.052 210.181 252.921 225.332C239.79 240.483 251.103 253.816 255.547 258.26C255.547 258.26 270.698 261.089 272.718 269.371L275.142 275.431L276.556 282.3C276.556 282.3 262.416 258.26 229.689 265.937L223.831 267.755L216.559 269.775L208.276 271.593L199.993 273.007C199.993 273.007 186.459 275.835 169.691 287.148L158.379 295.431C158.379 295.431 143.43 307.754 122.016 309.774L110.704 310.178C111.108 309.168 33.9386 307.956 6.46484 350.378Z" fill="#4ADE80" stroke="black" stroke-miterlimit="10"/>
<path d="M132.117 143.315C135.753 143.315 139.39 142.103 142.824 140.891C156.157 136.043 168.682 128.972 179.59 119.882C181.812 123.518 184.843 126.75 188.479 129.174C191.913 131.397 195.751 133.013 199.59 134.225C207.67 136.649 215.953 137.861 224.437 137.861" fill="black"/>
<path d="M132.117 144.526C141.006 144.324 149.894 139.678 157.773 135.84C165.853 131.597 173.53 126.547 180.6 120.689C179.994 120.689 179.186 120.487 178.58 120.487C187.873 135.436 208.074 139.072 224.437 139.072C226.053 139.072 226.053 136.446 224.437 136.648C209.084 136.648 189.489 133.618 180.6 119.275C180.196 118.467 179.186 118.467 178.58 119.073C171.914 124.527 164.843 129.375 157.167 133.416C153.328 135.436 149.49 137.254 145.45 138.87C141.208 140.486 136.763 142.102 132.117 142.304C130.501 142.102 130.299 144.728 132.117 144.526Z" fill="black"/>
<path d="M132.117 143.315C133.935 149.779 137.168 157.658 142.016 162.506C144.44 164.93 147.268 166.95 149.894 168.97C152.319 170.788 154.743 172.607 157.369 173.819C161.409 175.839 166.055 176.647 170.702 177.253C176.358 177.859 182.014 178.263 187.469 177.657C196.963 176.445 206.256 172.001 213.124 165.132C219.993 158.264 223.225 147.355 224.437 137.86" fill="black"/>
<path d="M130.704 143.718C132.926 151.394 136.158 159.273 142.218 164.727C149.289 171.192 157.167 176.646 166.864 178.06C176.157 179.676 186.055 180.08 195.146 177.05C203.024 174.626 210.701 169.98 215.751 163.313C221.407 156.041 224.034 146.95 225.246 138.062C225.448 136.446 223.024 135.84 222.822 137.456C221.812 144.728 219.993 152.203 216.155 158.465C212.115 165.333 205.044 170.384 197.772 173.414C189.489 176.848 180.601 177.252 171.712 176.242C166.864 175.636 162.016 175.03 157.571 172.808C153.733 170.788 150.097 167.96 146.663 165.333C143.026 162.505 140.198 159.475 137.774 155.435C135.552 151.597 133.936 147.354 132.724 143.112C132.724 141.496 130.3 142.102 130.704 143.718Z" fill="black"/>
<path d="M148.884 149.981C148.884 149.981 149.086 154.022 152.722 155.638C156.561 157.254 171.51 151.8 171.51 151.8C171.51 151.8 148.682 152.608 148.884 149.981Z" fill="#E5F1E8"/>
<path d="M212.719 149.981C212.719 149.981 212.517 154.022 208.881 155.638C205.043 157.254 190.094 151.8 190.094 151.8C190.094 151.8 213.123 152.608 212.719 149.981Z" fill="#E5F1E8"/>
<path d="M3.03125 367.55L4.44534 359.066C4.44534 359.066 13.94 338.662 32.9292 328.36C51.9184 318.057 67.2714 315.633 67.2714 315.633C67.2714 315.633 97.3714 308.764 117.573 310.38C137.774 311.997 165.046 293.411 165.046 293.411L174.944 286.745L181.611 282.705L186.257 280.281L193.732 277.048L199.792 275.23L219.387 271.19L229.892 267.554L237.367 265.938H251.709L260.396 269.574L268.275 274.624L273.931 280.482L277.567 285.533L274.941 291.997L263.224 299.876L248.881 301.896L239.387 302.906L230.296 304.926L224.438 309.774L216.559 313.007L210.297 314.623L201.408 314.219L186.661 312.199L176.763 315.229L165.652 322.501L149.491 334.218C149.491 334.218 129.896 333.612 128.885 333.814C128.077 334.016 112.118 336.844 112.118 336.844L106.866 341.086L98.1795 343.107L86.6647 343.713C86.6647 343.713 72.3218 341.692 71.7157 341.692C71.1097 341.692 46.2621 342.096 46.2621 342.096C46.2621 342.096 30.505 346.339 30.101 346.541C29.697 346.743 12.3239 357.854 12.3239 357.854L3.83929 368.156H3.03125V367.55Z" fill="black"/>
<path d="M305.244 163.517C305.244 163.517 319.587 165.941 319.385 209.778C319.385 209.778 321.809 229.171 306.052 226.343C290.295 223.717 295.143 203.111 295.143 203.111C295.143 203.111 294.537 169.779 305.244 163.517Z" fill="black"/>
<path d="M190.096 66.5497C192.925 68.7718 195.551 71.196 197.773 73.8222C200.197 76.6504 202.217 79.6805 204.439 82.7107C206.459 85.5389 208.884 88.3671 211.106 91.1953C213.126 93.4174 215.348 96.8516 218.58 97.2557C220.196 97.4577 220.196 94.8315 218.58 94.8315C217.166 94.6295 215.954 92.8114 214.944 91.8013C213.732 90.3872 212.52 89.1752 211.308 87.7611C209.086 85.1349 206.863 82.1047 204.843 79.2765C201.005 73.8221 196.763 68.9738 191.51 64.9335C190.702 63.7215 188.884 65.5396 190.096 66.5497Z" fill="black"/>
<path d="M148.885 13.0169C149.087 12.8149 149.289 12.4108 149.289 12.2088C149.289 12.2088 149.289 12.0068 149.491 12.0068C149.693 11.8048 149.693 11.8048 149.895 11.6028C150.097 11.4007 150.097 11.4008 150.299 11.1988C150.299 11.1988 150.703 10.9967 150.501 10.9967C150.703 10.7947 151.107 10.5927 151.309 10.3907C151.713 10.1886 151.915 9.98666 152.319 9.78465C152.319 9.78465 152.521 9.78463 152.521 9.58262C152.723 9.58262 152.319 9.78463 152.723 9.58262C152.925 9.58262 153.127 9.38059 153.127 9.38059C153.935 9.17858 154.743 8.97659 155.349 8.77458C155.955 8.57257 156.359 7.76454 156.157 7.1585C155.955 6.55246 155.349 6.14838 154.541 6.3504C151.309 7.15845 147.875 8.57255 146.461 11.6028C146.259 12.2088 146.259 13.0168 146.865 13.4209C147.673 13.6229 148.481 13.6229 148.885 13.0169Z" fill="black"/>
<path d="M133.53 112.407C134.743 110.386 135.551 107.962 136.763 105.942C137.773 104.326 139.187 103.114 141.005 102.71C141.611 102.508 142.015 101.7 141.813 101.094C141.611 100.286 141.005 100.084 140.197 100.286C137.773 100.69 135.955 102.306 134.541 104.326C133.126 106.548 132.318 108.972 130.904 111.195C130.5 112.407 132.52 113.821 133.53 112.407Z" fill="black"/>
<path d="M127.673 132.204C134.743 131.396 139.794 126.143 144.238 121.295C145.248 120.083 143.632 118.265 142.42 119.477C138.38 123.921 133.935 128.971 127.673 129.78C127.067 129.78 126.461 130.386 126.461 130.992C126.461 131.598 127.067 132.204 127.673 132.204Z" fill="black"/>
<path d="M67.2706 294.218C79.9975 289.572 92.9263 284.926 105.451 279.875C117.168 275.229 128.885 270.179 139.591 263.31C141.005 262.502 139.793 260.28 138.379 261.088C127.471 267.957 115.754 273.007 103.835 277.653C91.5122 282.501 78.9874 287.148 66.4626 291.794C65.0485 292.198 65.6545 294.622 67.2706 294.218Z" fill="black"/>
<path d="M254.335 254.019C248.679 253.009 243.023 253.413 237.568 254.827C235.952 255.231 236.76 257.655 238.174 257.251C243.225 255.837 248.477 255.433 253.729 256.443C254.335 256.645 255.143 256.241 255.345 255.635C255.345 255.029 254.941 254.019 254.335 254.019Z" fill="black"/>
<path d="M251.304 248.564C244.233 247.756 236.961 246.746 229.89 247.958C228.274 248.16 228.88 250.584 230.496 250.382C233.93 249.776 237.365 249.978 240.799 250.18C244.233 250.382 247.667 250.786 251.102 251.19C252.92 251.392 252.92 248.766 251.304 248.564Z" fill="black"/>
<path d="M235.547 223.313C235.345 228.161 236.557 233.009 238.779 237.252C241.002 241.494 244.436 245.736 249.486 245.938C251.102 245.938 251.102 243.514 249.486 243.514C245.244 243.312 242.416 238.868 240.598 235.433C238.779 231.797 237.971 227.555 237.971 223.313C238.173 221.697 235.547 221.697 235.547 223.313Z" fill="black"/>
<path d="M271.912 199.273C270.498 200.687 270.498 202.909 270.498 204.929C270.498 207.151 270.7 209.575 271.508 211.797C272.72 215.636 275.144 219.07 278.377 221.292C279.791 222.1 281.003 220.08 279.589 219.07C276.962 217.252 274.942 214.626 273.932 211.393C273.326 209.575 273.124 207.757 272.922 205.939C272.922 204.929 272.922 203.919 272.922 203.111C272.922 202.505 272.922 201.697 273.528 201.091C274.942 200.081 273.124 198.262 271.912 199.273Z" fill="black"/>
<path d="M281 205.129C281 211.998 284.232 218.664 289.687 222.906C290.293 223.31 290.899 223.512 291.505 222.906C291.909 222.502 292.111 221.492 291.505 221.088C286.656 217.25 283.626 211.19 283.626 204.927C283.626 203.513 281 203.513 281 205.129Z" fill="black"/>
<path d="M284.436 174.019C285.042 175.434 285.446 176.848 285.446 178.262C285.446 179.474 285.042 180.686 284.032 181.494C283.628 181.898 283.628 182.706 284.032 183.312C284.436 183.716 285.244 183.716 285.85 183.312C287.264 182.1 287.87 180.282 287.87 178.464C288.072 176.444 287.264 174.423 286.456 172.605C286.254 171.999 285.244 171.797 284.638 172.201C284.234 172.807 284.031 173.413 284.436 174.019Z" fill="black"/>
<path d="M114.744 136.244C112.522 137.456 112.724 140.891 113.128 143.113C113.532 145.537 114.946 147.759 116.764 149.375C117.37 149.779 117.976 149.981 118.582 149.375C118.986 148.971 119.188 147.961 118.582 147.557C117.168 146.345 116.158 144.729 115.754 142.911C115.552 142.103 115.552 141.093 115.552 140.285C115.552 139.679 115.754 138.669 116.158 138.467C117.37 137.659 116.158 135.436 114.744 136.244Z" fill="black"/>
<path d="M120.805 206.948C120.603 208.767 121.209 210.585 122.017 212.403C122.623 214.019 123.633 215.635 124.845 216.645C127.269 218.867 130.501 219.675 133.532 220.483C135.148 220.887 135.754 218.463 134.138 218.059C131.511 217.453 128.683 216.847 126.663 215.029C125.653 214.019 124.845 212.807 124.239 211.595C123.633 210.181 123.027 208.565 123.229 206.948C123.431 205.332 120.805 205.332 120.805 206.948Z" fill="black"/>
<path d="M143.63 206.748C147.671 213.212 154.943 216.444 162.418 217.05C172.114 217.858 181.609 214.222 190.902 211.192C192.518 210.788 191.71 208.162 190.295 208.768C182.013 211.394 173.528 214.828 164.64 214.626C157.569 214.424 150.095 211.596 146.055 205.536C145.045 204.122 142.822 205.334 143.63 206.748Z" fill="black"/>
<path d="M174.136 276.846C179.59 270.179 188.883 269.169 196.963 268.361C198.579 268.159 198.579 265.735 196.963 265.937C188.277 266.745 178.378 267.957 172.317 275.229C171.307 276.239 173.126 278.058 174.136 276.846Z" fill="black"/>
<path d="M113.128 302.704C114.34 299.472 118.582 298.664 121.411 298.058C125.653 297.048 129.895 296.442 134.339 296.442C135.956 296.442 135.956 293.816 134.339 294.018C129.289 294.018 124.441 294.826 119.592 296.038C115.956 297.048 112.118 298.462 110.704 302.098C110.098 303.513 112.522 304.119 113.128 302.704Z" fill="black"/>
<path d="M62.6245 137.051C60.2003 136.849 57.7761 137.051 55.352 136.647C53.5339 136.243 51.9178 135.233 50.7057 133.819C49.2916 132.203 48.8876 129.981 49.4936 127.96C50.0996 125.738 52.3218 125.334 54.3419 125.334C54.9479 125.334 54.9479 124.324 54.3419 124.324C52.7258 124.324 50.9077 124.526 49.6956 125.738C48.4836 127.152 48.0795 129.172 48.4835 130.789C49.0896 134.223 52.1198 136.647 55.352 137.455C57.7761 138.061 60.4023 137.657 62.8265 137.859C63.2305 138.061 63.2305 137.051 62.6245 137.051Z" fill="black"/>
<path d="M57.5748 129.173C57.7768 128.163 57.3728 127.355 56.7667 126.547C56.1607 125.739 55.5546 124.931 54.9486 124.123C54.3426 123.315 53.7365 122.709 52.9285 122.305C52.1204 121.901 51.1104 121.699 50.1003 121.901C49.4943 122.103 49.6963 122.911 50.3023 122.911C51.1104 122.709 51.7164 122.911 52.5245 123.315C53.1305 123.719 53.7365 124.325 54.1406 124.931C54.7466 125.537 55.1506 126.345 55.5547 126.951C55.9587 127.557 56.5647 128.365 56.3627 128.971C56.3627 129.173 56.3627 129.577 56.7667 129.577C57.1708 129.577 57.3728 129.577 57.5748 129.173Z" fill="black"/>
<path d="M78.7857 125.739C80.8058 121.093 78.1797 116.043 75.5535 112.003C74.9474 110.992 74.1394 109.78 73.3314 108.77C72.7253 107.962 72.1193 107.154 71.3112 106.548C69.6951 105.538 67.675 105.538 65.8569 105.538C65.2508 105.538 65.2508 106.548 65.8569 106.548C67.473 106.548 69.4931 106.548 70.7052 107.356C71.5132 107.962 72.3213 108.972 72.7253 109.78C73.3313 110.79 74.1394 111.801 74.7454 112.811C76.9676 116.447 79.3917 121.093 77.5736 125.335C77.5736 126.143 78.5837 126.345 78.7857 125.739Z" fill="black"/>
<path d="M69.2919 109.578C69.0899 108.366 68.0798 107.356 67.2718 106.548C66.4637 105.74 65.4536 104.729 64.0395 104.527C62.8275 104.325 61.2114 104.325 59.7973 104.527C58.5852 104.729 57.7771 105.538 57.1711 106.548C56.9691 107.154 57.9791 107.356 58.1812 106.75C58.5852 105.74 59.5952 105.336 60.6053 105.336C61.6154 105.134 63.0295 105.134 64.0395 105.538C65.0496 105.942 65.8576 106.548 66.4637 107.356C67.0697 107.962 67.8778 108.77 68.0798 109.78C68.2818 110.386 69.2919 110.184 69.2919 109.578Z" fill="black"/>
<path d="M57.9781 106.347C57.1701 106.347 56.16 106.145 55.3519 106.347C54.5439 106.549 53.7358 106.953 52.9278 107.357C52.3217 107.761 51.5137 108.165 51.1097 108.771C50.5036 109.377 50.3016 110.185 50.0996 110.993C50.0996 111.599 51.1097 111.599 51.1097 110.993C51.3117 109.579 52.3217 108.771 53.5338 107.963C54.1399 107.559 54.7459 107.357 55.554 107.155C56.362 106.953 57.1701 107.155 57.7761 107.155C57.9781 107.155 58.1801 106.953 58.1801 106.751C58.3821 106.549 58.1801 106.549 57.9781 106.347Z" fill="black"/>
<path d="M50.3036 125.334C48.2834 124.324 46.8694 122.506 46.0613 120.486C45.6573 119.476 45.4553 118.466 45.4553 117.254C45.4553 115.84 46.0613 114.83 47.0714 113.82C50.7076 110.79 56.768 110.588 59.3941 115.032C59.7982 115.638 60.6062 115.032 60.2022 114.426C57.9801 110.789 53.3338 109.577 49.4955 111.194C47.6774 112.002 45.4553 113.416 44.6472 115.234C43.8392 117.052 44.4452 119.476 45.2532 121.294C46.2633 123.314 47.8794 125.132 49.6975 126.143C50.3036 126.547 50.7076 125.536 50.3036 125.334Z" fill="black"/>
<path d="M64.0378 110.993C63.2297 109.983 62.2197 108.973 61.4116 108.165C60.4015 107.357 59.3915 106.751 58.1794 106.549C57.9774 106.549 57.7754 106.751 57.7754 106.953C57.7754 107.155 57.9774 107.357 58.1794 107.357C59.1895 107.559 60.1995 108.165 60.8056 108.771C61.6136 109.579 62.6237 110.589 63.2297 111.397C63.4318 111.599 63.8358 111.599 64.0378 111.397C64.2398 111.599 64.2398 111.195 64.0378 110.993Z" fill="black"/>
<path d="M62.8265 137.255C62.8265 133.821 65.2506 130.791 68.0788 128.972C71.109 127.154 74.5432 125.74 78.1795 126.144C78.7855 126.144 78.7855 125.134 78.1795 125.134C74.3412 124.73 70.3009 126.144 67.0687 128.366C64.0385 130.387 61.8164 133.417 61.8164 137.255C61.8164 138.063 62.8265 138.063 62.8265 137.255Z" fill="black"/>
<path d="M87.674 142.507C85.2498 140.891 83.0277 139.073 80.8055 137.053C79.9975 136.043 78.9874 135.235 78.1794 134.023C79.7955 131.599 80.6035 128.568 78.9874 125.74C78.5834 125.134 77.7753 125.74 78.1794 126.346C79.5935 128.771 78.9874 131.195 77.5733 133.215C76.5633 132.003 75.9572 130.589 75.5532 129.175C75.3512 128.568 74.3411 128.771 74.5431 129.377C74.9472 130.993 75.9572 132.609 76.9673 134.023C76.1593 135.033 75.1492 135.841 74.1391 136.649C72.523 137.861 70.5029 138.871 68.2807 139.073C67.4727 137.861 66.8666 136.447 66.2606 135.033C66.0586 134.427 65.0485 134.629 65.2505 135.235C65.6546 136.447 66.2606 137.659 67.0686 138.871C65.4525 138.669 64.0385 138.063 62.8264 137.053C62.4224 136.649 61.6143 137.255 62.0183 137.861C63.6344 139.275 65.6546 140.083 67.6747 140.083C69.2908 142.709 71.1089 145.134 72.927 147.558C75.7552 151.396 78.9874 155.032 82.2196 158.668" fill="black"/>
<path d="M87.674 142.507C85.2498 140.891 83.0277 139.073 80.8055 137.053C79.9975 136.043 78.9874 135.235 78.1794 134.023C79.7955 131.599 80.6035 128.568 78.9874 125.74C78.5834 125.134 77.7753 125.74 78.1794 126.346C79.5935 128.771 78.9874 131.195 77.5733 133.215C76.5633 132.003 75.9572 130.589 75.5532 129.175C75.3512 128.568 74.3411 128.771 74.5431 129.377C74.9472 130.993 75.9572 132.609 76.9673 134.023C76.1593 135.033 75.1492 135.841 74.1391 136.649C72.523 137.861 70.5029 138.871 68.2807 139.073C67.4727 137.861 66.8666 136.447 66.2606 135.033C66.0586 134.427 65.0485 134.629 65.2505 135.235C65.6546 136.447 66.2606 137.659 67.0686 138.871C65.4525 138.669 64.0385 138.063 62.8264 137.053C62.4224 136.649 61.6143 137.255 62.0183 137.861C63.6344 139.275 65.6546 140.083 67.6747 140.083C69.2908 142.709 71.1089 145.134 72.927 147.558C75.7552 151.396 78.9874 155.032 82.2196 158.668" stroke="black" stroke-width="0.1" stroke-miterlimit="10"/>
<path d="M83.0276 157.86C79.7954 154.425 76.7652 150.789 73.937 146.951C72.1189 144.729 70.5028 142.305 68.8867 139.88C71.1089 139.678 73.129 138.466 74.9471 137.254C75.9572 136.648 76.7652 135.638 77.5733 134.83C78.1793 135.638 78.9874 136.446 79.5934 137.254C81.8155 139.476 84.2397 141.497 86.6639 143.113" fill="black"/>
<path d="M83.0276 157.86C79.7954 154.425 76.7652 150.789 73.937 146.951C72.1189 144.729 70.5028 142.305 68.8867 139.88C71.1089 139.678 73.129 138.466 74.9471 137.254C75.9572 136.648 76.7652 135.638 77.5733 134.83C78.1793 135.638 78.9874 136.446 79.5934 137.254C81.8155 139.476 84.2397 141.497 86.6639 143.113" stroke="black" stroke-width="0.1" stroke-miterlimit="10"/>
<path d="M54.5429 125.538C54.5429 125.538 49.2905 124.73 49.0885 129.578C49.0885 134.426 53.9368 136.244 53.9368 136.244C53.9368 136.244 56.563 137.254 61.8154 137.052C61.8154 137.052 62.0174 126.144 77.9764 125.336C77.9764 125.336 80.8046 121.093 73.5321 110.589C73.5321 110.589 71.714 106.346 67.2697 106.75C67.2697 106.75 69.4919 108.569 69.2898 109.781C69.2898 109.781 68.8858 110.791 68.2798 109.781C68.2798 109.781 67.0677 106.346 63.4314 105.538C63.4314 105.538 59.3912 105.336 58.5831 106.75C58.5831 106.75 60.8053 106.75 64.2395 111.195C64.2395 111.195 64.4415 111.801 63.8355 112.003C63.2295 112.003 63.0274 111.195 63.0274 111.195C63.0274 111.195 59.1892 105.538 54.1389 107.962C54.1389 107.962 51.5127 109.377 51.3107 110.589C51.3107 110.589 56.765 109.579 59.7952 113.821L60.1993 114.427C60.1993 114.427 60.4013 115.033 59.7952 115.033C59.1892 115.033 58.9872 114.427 58.9872 114.427C58.9872 114.427 55.3509 109.175 48.6845 112.609C42.0181 115.841 47.2704 122.709 47.2704 122.709C47.2704 122.709 49.8966 125.538 50.5026 125.336C50.9066 125.134 51.1087 124.73 54.1389 124.528C54.1389 124.528 52.9268 122.507 50.7046 122.911C50.7046 122.911 50.0986 123.113 49.8966 122.305C49.8966 122.305 49.6946 121.699 51.7147 121.901C53.7348 122.103 55.1489 124.326 55.1489 124.326C55.1489 124.326 57.5731 127.356 57.5731 128.568C57.5731 128.568 57.7751 129.578 57.371 129.578C56.967 129.578 56.765 129.578 56.563 129.174C56.563 129.174 56.765 128.164 56.159 127.154L54.5429 125.538Z" fill="#E5F1E8"/>
<path d="M69.0898 139.88L70.3019 141.698L76.7664 150.788L81.2106 156.041L86.665 161.899L89.4932 164.929L89.6952 164.525L91.1093 159.475C91.1093 159.475 95.3516 149.172 96.3616 148.364C96.3616 148.364 82.4227 142.304 77.5744 135.031C77.5744 134.829 73.1301 139.88 69.0898 139.88Z" fill="#E5F1E8"/>
<path d="M77.7751 125.94C77.7751 125.94 64.2403 126.748 62.8262 136.647C62.8262 136.647 65.4523 139.475 68.6845 138.667C71.9168 137.859 72.3208 137.657 72.3208 137.657C72.3208 137.657 82.0174 131.193 77.7751 125.94Z" fill="#E5F1E8"/>
<path d="M61.6149 128.567C63.0289 131.395 65.4531 133.415 67.2712 135.839C67.0692 135.435 66.6652 135.233 66.4632 134.829C67.0692 135.435 67.4732 136.243 67.8773 137.052C68.4833 138.062 69.6954 139.072 70.9075 139.274C72.1196 139.678 73.7356 139.476 74.7457 138.668C75.7558 138.062 76.7659 136.85 76.9679 135.637C76.9679 135.233 77.1699 134.829 77.1699 134.223C77.1699 133.213 76.9678 132.405 76.5638 131.597C75.1497 128.769 72.7256 126.749 70.9075 124.325C71.1095 124.729 71.5135 124.931 71.7155 125.335C71.1095 124.729 70.7055 123.921 70.3014 123.113C69.6954 122.103 68.4833 121.093 67.2712 120.89C66.0592 120.486 64.443 120.688 63.433 121.497C62.4229 122.103 61.4128 123.315 61.2108 124.527C61.2108 124.931 61.0088 125.335 61.0088 125.941C60.8068 126.951 61.2108 127.759 61.6149 128.567Z" fill="#E5F1E8"/>
<path d="M58.787 131.597C58.989 132.204 59.191 132.608 59.393 133.012C59.393 133.214 59.595 133.214 59.595 133.416C59.7971 133.82 60.2011 134.022 60.4031 134.426C60.4031 134.426 60.4031 134.426 60.6051 134.628C61.0091 135.032 61.4132 135.234 61.8172 135.436C61.8172 135.436 62.0192 135.436 62.0192 135.638C62.6252 136.042 63.2313 136.244 63.8373 136.244C64.4434 136.446 65.2514 136.446 65.8575 136.244C66.4635 136.042 67.0695 135.84 67.6756 135.436C68.2816 135.032 68.6856 134.628 68.8877 134.022C69.0897 133.618 69.2917 133.214 69.4937 132.81C69.6957 132.002 69.6957 130.991 69.4937 130.183C69.2917 129.779 69.0897 129.375 68.8877 128.971C68.4836 128.163 67.8776 127.557 67.0695 127.153C67.0695 127.153 66.8675 127.153 66.8675 126.951C67.2716 127.153 67.4736 127.557 67.8776 127.759C67.6756 127.557 67.6756 127.557 67.4735 127.355C67.6756 127.759 68.0796 127.961 68.2816 128.365C68.0796 128.163 68.0796 127.961 68.0796 127.961C68.2816 128.365 68.4836 128.769 68.6856 129.173V128.971C68.4836 128.365 68.2816 127.759 67.8776 127.153C67.4736 126.547 67.0695 126.143 66.4635 125.941C65.8574 125.537 65.2514 125.335 64.6454 125.335C64.0393 125.133 63.2313 125.133 62.6252 125.335C62.2212 125.537 61.8172 125.739 61.4131 125.941C60.6051 126.345 59.9991 126.951 59.595 127.759C59.393 128.163 59.191 128.567 58.989 128.971C58.585 129.779 58.585 130.587 58.787 131.597Z" fill="#E5F1E8"/>
<path d="M62.2208 126.953C62.0188 126.953 61.6147 127.155 61.4127 127.155C60.8067 127.357 60.2007 127.559 59.5946 127.963C58.9886 128.367 58.5845 128.771 58.3825 129.377C58.1805 129.781 57.9785 130.185 57.7765 130.589C57.5745 131.195 57.5745 132.003 57.7765 132.609C57.7765 133.013 57.9785 133.417 58.1805 133.821C58.3825 134.427 58.7866 135.033 59.1906 135.437C59.5946 135.639 59.7966 136.043 60.2007 136.245C61.0087 136.65 61.8168 136.852 62.8268 136.852C63.2309 136.852 63.6349 136.852 64.0389 136.852C63.6349 136.852 63.2309 136.649 62.6248 136.649C63.0288 136.649 63.4329 136.852 63.6349 136.852C64.2409 137.054 65.049 137.054 65.655 136.852C66.2611 136.852 66.8671 136.65 67.4731 136.245C68.0792 135.841 68.4832 135.437 68.8872 135.033C69.2913 134.629 69.6953 134.023 69.6953 133.215C69.6953 132.811 69.8973 132.407 69.8973 131.801C69.8973 130.791 69.6953 129.983 69.2913 129.175C69.0892 128.771 68.6852 128.569 68.4832 128.165C67.8771 127.559 67.0691 127.155 66.2611 126.953C65.453 126.751 64.645 126.549 63.8369 126.549C63.4329 126.549 63.0288 126.549 62.6248 126.549C63.0288 129.781 63.4329 133.215 64.0389 136.448C64.2409 136.448 64.645 136.245 64.847 136.245C65.453 136.043 66.059 135.841 66.6651 135.437C67.2711 135.033 67.6752 134.629 67.8772 134.023C68.2812 133.417 68.4832 132.811 68.4832 132.205C68.6852 131.599 68.6852 130.791 68.4832 130.185C68.2812 129.781 68.0792 129.377 67.8772 128.973C67.4731 128.165 66.8671 127.559 66.059 127.155C65.655 126.953 65.251 126.751 64.847 126.549C64.0389 126.751 63.0288 126.751 62.2208 126.953Z" fill="#E5F1E8"/>
<path d="M70.7033 133.214C70.9053 133.012 71.1073 132.81 71.3093 132.608C70.9053 132.81 70.7033 133.214 70.2993 133.416C71.1073 132.81 71.9154 132.406 72.7234 132.002C72.3194 132.204 71.9154 132.406 71.5113 132.608C72.5214 132.204 73.3295 132.002 74.3395 131.8C74.9456 131.598 75.5516 131.396 76.1576 130.992C76.7637 130.588 77.1677 130.184 77.3697 129.578C77.7738 128.972 77.9758 128.366 77.9758 127.76C78.1778 127.154 78.1778 126.346 77.9758 125.74C77.5718 124.528 76.7637 123.316 75.7536 122.71C75.3496 122.508 74.9456 122.306 74.5415 122.104C73.7335 121.902 72.7234 121.902 71.9154 122.104C70.2993 122.306 68.8852 122.912 67.4711 123.518C66.057 124.124 64.8449 125.134 63.6328 126.144C63.2288 126.548 62.8248 127.154 62.6228 127.76C62.2187 128.366 62.2188 128.972 62.2188 129.78C62.2188 130.386 62.4208 131.194 62.6228 131.8C62.8248 132.406 63.2288 133.012 63.6328 133.416C64.6429 134.224 65.855 135.032 67.2691 134.83C67.6731 134.83 68.0771 134.628 68.6832 134.628C69.4912 134.224 70.0973 133.82 70.7033 133.214Z" fill="#E5F1E8"/>
<path d="M68.2804 135.84C68.0784 136.446 68.0784 137.052 68.2804 137.658C68.4824 138.062 68.4824 138.466 68.6844 138.668C68.8864 139.073 69.0885 139.275 69.2905 139.679C69.4925 139.881 69.4925 139.881 69.6945 140.083C70.0985 140.487 70.5026 140.891 70.9066 141.093C71.1086 141.295 71.5126 141.497 71.9167 141.699C72.1187 141.901 72.5227 141.901 72.9267 141.901C73.3308 141.901 73.5328 141.901 73.9368 141.901C74.3408 141.901 74.5428 141.699 74.7448 141.497C74.9468 141.295 75.1489 141.093 75.3509 140.689C75.7549 140.083 75.7549 139.477 75.5529 138.668C75.3509 138.062 74.9469 137.456 74.3408 137.254C73.9368 137.052 73.7348 136.85 73.3307 136.648C73.5328 136.85 73.7348 136.85 73.9368 137.052C73.5328 136.648 73.1287 136.244 72.7247 135.84C72.9267 136.042 72.9267 136.244 73.1287 136.446C72.9267 136.244 72.7247 136.042 72.7247 135.84C72.7247 136.042 72.9267 136.244 72.9267 136.446V136.244C72.9267 136.446 72.9267 136.648 72.9267 136.85V136.648C72.9267 136.85 72.9267 137.052 72.9267 137.254C72.9267 137.254 72.9267 137.254 72.9267 137.052C73.1287 136.648 73.1287 136.446 72.9267 136.042C72.9267 135.638 72.7247 135.436 72.7247 135.032C72.5227 134.83 72.3207 134.426 72.1187 134.224C71.9166 134.022 71.5126 133.82 71.3106 133.82C70.7046 133.618 69.8965 133.618 69.2905 134.022C68.8865 134.628 68.2804 135.234 68.2804 135.84Z" fill="#E5F1E8"/>
<path d="M68.6861 139.476C68.8881 139.678 68.8881 139.88 69.0901 140.082C69.2922 140.284 69.2922 140.486 69.4942 140.486C69.8982 140.688 70.1002 141.092 70.5042 141.294C70.7062 141.496 70.9083 141.496 71.1103 141.698C71.3123 141.9 71.7163 141.9 72.1203 141.9C72.5244 141.9 72.7264 141.9 73.1304 141.9C73.5344 141.9 73.7365 141.698 73.9385 141.496C74.1405 141.294 74.3425 141.092 74.5445 140.688C74.5445 140.486 74.7465 140.284 74.7465 140.082C74.9485 139.678 74.9485 139.274 74.7465 138.667C74.7465 138.465 74.5445 138.263 74.5445 138.061C74.3425 137.657 73.9385 137.455 73.7365 137.253C73.5344 137.051 73.3324 136.849 73.1304 136.647C72.9284 136.445 72.9284 136.445 72.9284 136.243C72.9284 136.041 72.7264 136.041 72.5244 135.839C72.3223 135.637 72.1203 135.435 71.7163 135.233C71.5143 135.031 71.1103 135.031 70.7063 135.031C70.3022 135.031 70.1002 135.031 69.6962 135.233C69.2922 135.435 69.0902 135.435 68.8881 135.839C68.6861 136.041 68.6861 136.243 68.4841 136.445C68.2821 136.849 68.0801 137.253 68.0801 137.657C68.0801 137.859 68.0801 138.061 68.0801 138.263C68.0801 138.87 68.2821 139.274 68.6861 139.476Z" fill="#E5F1E8"/>
<path d="M71.3113 135.234C72.1193 136.446 72.9274 137.86 73.7354 139.274C73.9374 139.88 74.7455 140.284 75.1495 140.486C75.7556 140.688 76.5636 140.486 77.1696 140.284C77.7757 139.88 78.1797 139.476 78.3817 138.87C78.5838 138.264 78.3817 137.456 78.1797 136.85C77.3717 135.436 76.5636 134.224 75.7556 132.809C75.3515 132.203 74.9475 131.799 74.3415 131.597C73.7354 131.395 72.9274 131.597 72.3213 131.799C71.7153 132.203 71.3113 132.607 71.1093 133.213C70.9072 134.022 70.9073 134.628 71.3113 135.234Z" fill="#E5F1E8"/>
<path d="M63.6345 137.455H63.8365C63.6345 137.455 63.4325 137.253 63.2305 137.253C63.4325 137.455 63.6345 137.455 63.6345 137.455C64.0385 137.657 64.4426 137.859 64.8466 138.061C65.4526 138.263 66.0587 138.263 66.4627 138.465C66.8667 138.465 67.0687 138.465 67.4728 138.263C67.8768 138.061 68.0788 138.061 68.2808 137.657C68.4828 137.455 68.6849 137.253 68.8869 136.849C69.0889 136.647 69.0889 136.243 69.0889 135.839C69.0889 135.637 69.0889 135.435 69.0889 135.233C68.8868 134.829 68.6848 134.425 68.4828 134.021C68.2808 133.819 68.0788 133.818 67.8768 133.616C67.4728 133.414 67.0687 133.212 66.6647 133.212H66.4627C66.6647 133.212 66.8667 133.212 67.0687 133.212C66.6647 133.212 66.2607 133.01 66.0587 133.01C66.0587 133.01 65.8567 133.01 65.8567 132.808C65.6547 132.606 65.2506 132.606 65.0486 132.404C64.6446 132.202 64.4426 132.202 64.0385 132.404C63.6345 132.404 63.4325 132.606 63.0285 132.606C62.8265 132.808 62.4224 133.01 62.2204 133.212C62.0184 133.414 61.8164 133.819 61.8164 134.021C61.8164 134.223 61.8164 134.425 61.8164 134.627C61.8164 135.031 62.0184 135.435 62.2204 135.839C62.4224 136.041 62.4224 136.243 62.6244 136.445C62.8265 137.253 63.2305 137.455 63.6345 137.455Z" fill="#E5F1E8"/>
<path d="M326.048 203.514C327.26 205.736 328.068 208.16 329.684 210.18C331.099 211.998 333.119 213.412 335.341 213.816C337.563 214.22 339.987 213.614 341.603 211.998C343.623 210.18 343.017 207.756 342.007 205.534C341.805 204.928 340.795 205.534 341.199 206.14C341.603 207.15 342.209 208.564 342.007 209.776C341.805 210.786 340.997 211.594 340.189 212.2C338.371 213.412 336.351 213.412 334.331 212.806C330.088 211.19 329.078 206.948 327.058 203.514C326.452 202.504 325.644 202.908 326.048 203.514Z" fill="black"/>
<path d="M336.757 205.332C337.363 204.928 338.171 204.928 338.979 205.13C339.787 205.332 340.797 205.534 341.605 205.736C342.413 205.938 343.221 206.14 343.827 206.746C344.433 207.15 344.837 207.756 344.837 208.564C345.039 209.17 346.049 208.968 345.847 208.362C345.645 207.554 345.241 206.746 344.635 206.14C343.827 205.534 343.019 205.13 342.009 204.928C340.999 204.726 339.989 204.524 338.979 204.322C337.969 204.12 337.161 204.12 336.353 204.726C335.746 204.726 336.151 205.534 336.757 205.332Z" fill="black"/>
<path d="M331.101 184.323C334.131 181.091 339.181 181.091 343.423 181.697C345.444 181.899 347.868 182.101 349.686 182.909C351.504 183.515 352.312 185.535 353.12 187.354C353.322 187.96 354.332 187.758 354.13 187.151C353.524 185.535 352.514 183.515 351.1 182.505C349.282 181.293 346.454 181.091 344.231 180.889C339.585 180.283 333.929 180.081 330.495 183.717C330.091 184.121 330.697 184.929 331.101 184.323Z" fill="black"/>
<path d="M349.485 186.545C350.495 186.343 351.707 186.747 352.717 187.151C353.727 187.555 354.535 187.959 355.141 188.767C355.747 189.575 356.151 190.585 356.555 191.595C356.757 192.605 356.959 193.817 356.151 194.625C355.747 195.029 356.353 195.837 356.959 195.433C357.767 194.423 357.969 193.211 357.767 191.999C357.565 190.787 356.959 189.373 356.151 188.363C355.343 187.353 354.333 186.747 353.121 186.343C351.909 185.939 350.697 185.333 349.283 185.737C348.475 185.737 348.879 186.747 349.485 186.545Z" fill="black"/>
<path d="M355.745 195.03C356.149 195.636 356.553 196.242 356.755 197.05C356.957 197.858 356.957 198.464 356.957 199.272C356.755 200.686 356.553 202.1 355.341 202.908C354.735 203.313 355.341 204.121 355.947 203.717C357.563 202.909 357.967 201.292 358.169 199.676C358.169 198.868 358.371 197.858 358.169 197.05C357.967 196.242 357.563 195.434 356.957 194.828C356.351 194.02 355.543 194.626 355.745 195.03Z" fill="black"/>
<path d="M342.211 210.182C343.828 211.394 346.05 212.202 348.07 212.202C350.09 212.202 352.312 212 353.928 210.788C355.544 209.576 356.15 206.95 356.15 204.929C356.15 202.909 355.544 200.687 354.332 199.071C352.918 197.253 350.898 196.243 348.676 195.839C348.07 195.839 348.07 196.849 348.676 196.849C350.898 197.051 352.918 198.465 353.928 200.283C355.14 202.303 355.342 205.131 354.736 207.354C354.332 208.566 353.726 209.576 352.514 210.182C351.504 210.788 350.292 210.99 349.08 210.99C346.858 211.192 344.636 210.384 342.616 209.172C342.211 208.97 341.605 209.98 342.211 210.182Z" fill="black"/>
<path d="M349.684 191.797C350.897 192.201 352.109 192.403 353.321 193.009C354.331 193.413 355.139 194.019 355.745 194.827C356.149 195.433 356.957 194.827 356.553 194.221C355.947 193.211 354.937 192.605 353.927 191.999C352.715 191.393 351.3 190.989 350.088 190.585C349.28 190.787 349.078 191.595 349.684 191.797Z" fill="black"/>
<path d="M327.059 203.919C330.493 202.303 332.311 198.869 332.917 195.233C333.523 191.394 333.322 187.354 331.301 183.92C330.897 183.314 330.089 183.92 330.493 184.526C332.311 187.556 332.513 191.596 332.109 195.031C331.503 198.465 329.887 201.495 326.655 203.111C325.847 203.313 326.453 204.121 327.059 203.919Z" fill="black"/>
<path d="M311.706 182.504C314.131 184.12 316.757 185.332 319.585 186.342C320.797 186.746 322.009 187.15 323.423 187.554C324.837 184.928 327.261 183.11 330.494 183.514C331.1 183.514 331.1 184.524 330.292 184.524C327.665 184.322 325.645 185.736 324.231 187.756C325.847 188.16 327.261 188.16 328.878 187.958C329.484 187.756 329.686 188.766 329.08 188.968C327.261 189.372 325.645 189.17 323.827 188.766C323.221 189.978 322.817 191.191 322.615 192.403C322.211 194.423 322.009 196.645 322.817 198.665C324.231 198.867 325.847 198.867 327.261 198.867C327.868 198.867 328.07 199.877 327.463 199.877C326.049 199.877 324.635 199.877 323.423 199.877C324.231 201.291 325.443 202.301 326.857 203.109C327.463 203.311 327.059 204.321 326.453 204.119C324.635 203.311 323.019 201.695 322.211 199.877C319.181 199.473 316.151 198.867 313.121 198.261C308.474 197.251 303.828 195.837 299.182 194.423" fill="black"/>
<path d="M311.706 182.504C314.131 184.12 316.757 185.332 319.585 186.342C320.797 186.746 322.009 187.15 323.423 187.554C324.837 184.928 327.261 183.11 330.494 183.514C331.1 183.514 331.1 184.524 330.292 184.524C327.665 184.322 325.645 185.736 324.231 187.756C325.847 188.16 327.261 188.16 328.878 187.958C329.484 187.756 329.686 188.766 329.08 188.968C327.261 189.372 325.645 189.17 323.827 188.766C323.221 189.978 322.817 191.191 322.615 192.403C322.211 194.423 322.009 196.645 322.817 198.665C324.231 198.867 325.847 198.867 327.261 198.867C327.868 198.867 328.07 199.877 327.463 199.877C326.049 199.877 324.635 199.877 323.423 199.877C324.231 201.291 325.443 202.301 326.857 203.109C327.463 203.311 327.059 204.321 326.453 204.119C324.635 203.311 323.019 201.695 322.211 199.877C319.181 199.473 316.151 198.867 313.121 198.261C308.474 197.251 303.828 195.837 299.182 194.423" stroke="black" stroke-width="0.1" stroke-miterlimit="10"/>
<path d="M340.796 205.737C340.796 205.737 343.826 210.181 339.382 212.201C334.937 214.222 331.301 210.585 331.301 210.585C331.301 210.585 329.281 208.565 327.463 203.717C327.463 203.717 337.362 199.071 331.503 184.122C331.503 184.122 334.129 179.677 346.856 182.101C346.856 182.101 351.502 181.899 352.917 186.142C352.917 186.142 350.492 184.93 349.28 185.536C349.28 185.536 348.472 186.344 349.684 186.546C349.684 186.546 353.321 186.142 355.543 189.172C355.543 189.172 357.563 192.808 356.553 194.02C356.553 194.02 355.543 192 350.088 190.788C350.088 190.788 349.482 190.788 349.684 191.394C349.886 192 350.694 192 350.694 192C350.694 192 357.361 193.212 357.361 198.667C357.361 198.667 357.159 201.697 356.149 202.303C356.149 202.303 354.735 196.848 349.684 196.04L348.876 195.838C348.876 195.838 348.27 195.838 348.472 196.444C348.674 197.051 349.482 196.848 349.482 196.848C349.482 196.848 355.745 198.061 355.341 205.535C355.139 213.01 346.856 210.989 346.856 210.989C346.856 210.989 343.22 209.777 343.22 209.171C343.22 208.767 343.624 208.363 342.412 205.535C342.412 205.535 344.634 205.737 345.24 207.959C345.24 207.959 345.24 208.767 346.048 208.363C346.048 208.363 346.654 208.161 345.644 206.545C344.634 204.929 342.008 204.323 342.008 204.323C342.008 204.323 338.17 203.313 337.159 203.919C337.159 203.919 336.149 204.121 336.351 204.727C336.553 205.131 336.553 205.131 336.957 205.333C336.957 205.333 337.766 204.727 338.978 204.929L340.796 205.737Z" fill="#E5F1E8"/>
<path d="M293.525 191.798L294.333 186.546C294.333 186.546 295.748 180.283 295.95 179.071C295.95 179.071 314.333 187.354 322.817 188.566C322.817 188.566 320.191 194.626 321.807 198.465L319.585 198.061L308.676 195.838L302.01 194.02L294.333 191.596" fill="#E5F1E8"/>
<path d="M330.695 184.727C330.695 184.727 335.543 197.454 327.26 202.707C327.26 202.707 323.624 201.494 323.018 198.262C322.412 195.03 322.412 194.424 322.412 194.424C322.412 194.424 324.23 183.111 330.695 184.727Z" fill="#E5F1E8"/>
<path d="M335.545 190.384C334.13 190.182 332.514 189.778 331.1 189.172C329.282 188.566 327.262 188.162 325.242 188.162C324.03 188.162 322.616 188.768 321.606 189.576C320.798 190.384 319.99 191.798 320.192 193.212C320.394 196.041 322.414 198.263 325.242 198.263C325.646 198.263 326.05 198.263 326.454 198.263C326.05 198.263 325.646 198.061 325.04 198.061C326.656 198.263 328.07 198.869 329.686 199.273C331.504 199.879 333.524 200.283 335.545 200.283C336.757 200.283 338.171 199.677 339.181 198.869C339.989 198.061 340.797 196.647 340.595 195.233C340.595 194.02 340.191 192.606 339.181 191.596C338.171 190.99 336.959 190.384 335.545 190.384Z" fill="#E5F1E8"/>
<path d="M332.718 194.222C332.516 194.222 332.313 194.222 332.111 194.222C332.515 194.222 332.92 194.424 333.526 194.424C333.324 194.424 333.121 194.424 332.919 194.222C333.324 194.424 333.728 194.626 334.132 194.828C333.93 194.828 333.93 194.626 333.728 194.626C333.122 194.222 332.515 194.02 331.909 194.02C331.303 193.818 330.495 193.818 329.889 194.02C329.283 194.222 328.677 194.424 328.071 194.828C327.465 195.232 327.061 195.636 326.859 196.242C326.657 196.646 326.455 197.05 326.253 197.454C326.051 198.262 326.051 199.272 326.253 200.08C326.455 200.484 326.657 200.888 326.859 201.292C327.263 202.1 327.869 202.706 328.677 203.11C328.879 203.11 328.879 203.312 329.081 203.312C329.485 203.514 330.091 203.716 330.495 203.918H330.697C331.303 204.12 331.909 204.12 332.313 204.12C332.515 204.12 332.516 204.12 332.718 204.12C333.324 204.12 334.132 203.918 334.738 203.716C335.344 203.514 335.95 203.11 336.354 202.706C336.758 202.302 337.162 201.696 337.364 201.09C337.768 200.484 337.768 199.878 337.768 199.07C337.768 198.666 337.566 198.262 337.566 197.656C337.364 196.848 336.96 196.04 336.354 195.434C335.95 195.232 335.748 194.828 335.344 194.626C334.334 194.424 333.526 194.222 332.718 194.222Z" fill="#E5F1E8"/>
<path d="M326.251 200.081C326.251 200.485 326.251 200.687 326.453 201.091C329.685 200.283 332.716 199.475 335.948 198.465C335.746 198.061 335.544 197.657 335.342 197.455C335.14 197.253 335.14 197.051 334.938 197.051C334.534 196.647 334.332 196.243 333.928 195.839L333.726 195.637C333.322 195.233 332.716 194.829 332.11 194.627C331.503 194.223 330.897 194.223 330.089 194.223C329.483 194.223 328.675 194.425 328.069 194.627C327.463 194.829 326.857 195.233 326.453 195.637C326.251 196.041 325.847 196.243 325.645 196.647C325.241 197.455 325.039 198.263 325.039 199.273C325.039 199.677 325.241 200.081 325.241 200.687C325.443 201.495 325.847 202.303 326.453 202.909C326.453 202.909 326.655 203.111 326.655 203.313C326.453 202.909 326.049 202.707 325.847 202.303C326.251 202.909 326.655 203.313 326.857 203.919C327.059 204.323 327.463 204.525 327.665 204.929C328.069 205.333 328.675 205.737 329.281 205.939C329.685 206.141 330.089 206.343 330.493 206.343C331.099 206.545 331.908 206.545 332.514 206.343C332.918 206.141 333.322 205.939 333.726 205.737C334.13 205.535 334.332 205.131 334.736 204.929C335.14 204.525 335.544 203.919 335.746 203.313C336.15 202.707 336.15 202.101 336.15 201.293C336.15 200.889 336.15 200.687 335.948 200.283C335.948 199.677 335.746 198.869 335.544 198.263C335.342 197.657 334.938 197.051 334.534 196.647C334.13 196.243 333.524 195.839 332.918 195.637C332.312 195.233 331.705 195.233 330.897 195.233C330.493 195.233 330.089 195.435 329.483 195.435C328.675 195.637 327.867 196.041 327.261 196.647C327.059 197.051 326.655 197.253 326.453 197.657C326.453 198.263 326.251 199.071 326.251 200.081Z" fill="#E5F1E8"/>
<path d="M336.553 197.051C336.755 196.445 336.755 195.839 336.957 195.233C337.159 194.223 337.159 193.213 337.159 192.405C337.159 190.789 336.957 189.173 336.553 187.758C336.149 186.546 335.341 185.334 334.331 184.728C333.725 184.324 333.119 184.122 332.513 184.122C331.907 183.92 331.099 183.92 330.493 184.122C329.281 184.526 328.069 185.334 327.463 186.344C326.857 187.557 326.655 188.971 326.857 190.183C327.059 190.789 327.059 191.395 327.261 192.001C327.261 191.597 327.059 191.193 327.059 190.587C327.261 191.597 327.261 192.607 327.059 193.617C327.059 193.213 327.261 192.809 327.261 192.203C327.261 192.809 327.059 193.415 326.857 194.021C326.655 194.627 326.655 195.435 326.857 196.041C326.857 196.647 327.059 197.253 327.463 197.859C327.867 198.465 328.271 198.869 328.675 199.273C329.079 199.677 329.685 200.081 330.493 200.081C331.705 200.283 333.321 200.283 334.331 199.475C335.543 199.475 336.351 198.465 336.553 197.051Z" fill="#E5F1E8"/>
<path d="M325.849 189.576C324.031 189.374 322.213 188.97 320.597 188.97C319.991 188.97 319.183 189.374 318.779 189.778C318.375 190.182 317.971 190.99 317.971 191.596C317.971 192.202 318.173 193.01 318.779 193.414C318.981 193.616 319.183 193.616 319.385 193.818C319.789 194.02 320.193 194.222 320.597 194.222C321.607 194.222 322.617 194.424 323.627 194.424C323.425 194.424 323.223 194.424 323.021 194.424C323.627 194.424 324.233 194.626 324.839 194.626C325.243 194.828 325.445 194.828 325.849 194.626C326.253 194.626 326.455 194.424 326.859 194.424C327.465 194.02 327.869 193.616 328.071 193.01C328.273 192.404 328.273 191.596 327.869 190.99C327.061 190.182 326.455 189.576 325.849 189.576Z" fill="#E5F1E8"/>
<path d="M330.091 199.476C329.889 199.274 329.687 198.87 329.485 198.668C329.283 198.466 328.879 198.264 328.676 198.062C328.879 198.264 329.08 198.264 329.283 198.466C329.08 198.264 328.676 198.062 328.474 197.658C328.676 197.86 328.676 198.062 328.878 198.264C328.676 198.062 328.676 198.062 328.474 197.86C328.272 197.658 328.07 197.254 327.868 197.052C327.666 196.85 327.262 196.648 327.06 196.648C326.656 196.446 326.454 196.446 326.05 196.648C325.646 196.648 325.444 196.85 325.04 196.85C324.838 197.052 324.636 197.052 324.434 197.254C324.03 197.658 323.828 197.86 323.828 198.466C323.828 198.668 323.828 198.87 323.828 199.072C323.828 199.476 324.03 199.88 324.232 200.284C324.232 200.486 324.434 200.486 324.434 200.688C324.636 200.89 324.838 201.294 325.04 201.496C325.444 201.9 325.848 202.102 326.252 202.506C326.05 202.304 325.848 202.304 325.646 202.102C325.848 202.102 325.848 202.304 325.848 202.304C325.646 202.102 325.646 201.9 325.444 201.698C325.646 201.9 325.848 202.304 326.05 202.506C326.252 202.708 326.656 202.91 326.858 202.91C327.262 203.112 327.464 203.112 327.868 202.91C328.272 202.91 328.474 202.708 328.878 202.708C329.08 202.506 329.283 202.506 329.485 202.304C329.889 201.9 330.091 201.698 330.091 201.092C330.091 200.89 330.091 200.688 330.091 200.486C330.495 200.284 330.293 199.88 330.091 199.476Z" fill="#E5F1E8"/>
<path d="M96.3621 148.162L96.7661 148.566C96.7661 148.566 93.5339 161.091 90.3017 164.929L89.4936 164.525L88.6855 150.384" fill="#E5F1E8"/>
<circle cx="69.079" cy="491.04" r="18.0399" fill="white"/>
<circle cx="265.938" cy="454.597" r="18.0399" fill="white"/>
<circle cx="69.5" cy="490.789" r="5.5" fill="black"/>
<circle cx="266.5" cy="454.5" r="5.5" fill="black"/>
<circle cx="37.0399" cy="470.04" r="18.0399" fill="white"/>
<circle cx="235.04" cy="434.04" r="18.0399" fill="white"/>
<circle cx="237.5" cy="438.5" r="5.5" fill="black"/>
<rect width="322.238" height="72.3797" rx="31.6799" transform="matrix(0.981627 -0.190809 0.819152 0.573576 -41.5312 446.486)" fill="white"/>
<path d="M70.4818 445.357C72.2795 445.007 74.1156 444.897 75.9899 445.026C77.8676 445.14 79.6578 445.478 81.3606 446.042C83.0839 446.602 84.6181 447.352 85.9632 448.294L86.2218 448.475C87.5668 449.417 88.3864 450.314 88.6806 451.167C88.9575 452.008 88.7106 452.75 87.9399 453.394C87.1519 454.025 85.8591 454.516 84.0613 454.865C81.8709 455.291 79.5886 455.31 77.2144 454.923L78.2026 455.726L74.0181 456.54L56.0156 443.934L60.51 443.06L66.5626 447.298C67.1296 446.402 68.436 445.754 70.4818 445.357ZM81.3137 449.198C80.2964 448.485 79.0795 448.012 77.6633 447.779C76.247 447.545 74.7743 447.577 73.2451 447.874C72.2739 448.063 71.5044 448.328 70.9365 448.67C70.3892 449.007 70.1125 449.377 70.1062 449.78L73.9343 452.46C74.8579 452.682 75.8606 452.811 76.9424 452.847C78.007 452.872 79.0249 452.79 79.9961 452.601C81.5252 452.304 82.4289 451.873 82.7071 451.31C82.9853 450.747 82.607 450.103 81.5724 449.379L81.3137 449.198ZM95.0299 440.863L98.3407 443.181L94.8692 443.856C92.9267 444.233 91.9681 444.782 91.9934 445.502L100.426 451.406L95.9622 452.274L83.0034 443.2L87.1879 442.387L88.5017 443.196C89.0103 442.387 90.2255 441.796 92.1473 441.423L95.0299 440.863ZM122.077 442.385L108.253 445.072C109.208 445.611 110.304 445.954 111.541 446.099C112.778 446.244 114.079 446.184 115.442 445.919C116.682 445.678 117.557 445.385 118.066 445.039C118.576 444.693 118.651 444.339 118.292 443.977L123.003 443.061C124.293 444.168 124.557 445.166 123.793 446.054C123.033 446.927 121.31 447.625 118.624 448.147C116.723 448.516 114.811 448.657 112.889 448.567C110.949 448.466 109.116 448.144 107.389 447.6C105.662 447.057 104.135 446.32 102.807 445.39L102.315 445.046C100.97 444.104 100.178 443.217 99.9394 442.384C99.7039 441.535 100.02 440.795 100.887 440.164C101.757 439.516 103.143 439.008 105.044 438.638C107.937 438.076 110.757 438.045 113.504 438.544C116.253 439.028 118.663 439.994 120.732 441.443L122.077 442.385ZM108.143 440.836C106.945 441.069 106.134 441.388 105.711 441.795C105.288 442.201 105.28 442.657 105.687 443.164L114.645 441.423C113.742 441.013 112.727 440.755 111.6 440.65C110.473 440.545 109.321 440.607 108.143 440.836ZM122.337 435.555L135.296 444.628L130.833 445.496L117.874 436.422L122.337 435.555ZM118.606 434.938C117.779 435.099 116.909 435.09 115.996 434.913C115.065 434.724 114.273 434.399 113.617 433.941C112.962 433.482 112.694 433.063 112.814 432.685C112.917 432.295 113.382 432.02 114.208 431.859C115.056 431.694 115.934 431.709 116.844 431.902C117.757 432.079 118.541 432.397 119.197 432.856C119.852 433.315 120.128 433.739 120.025 434.13C119.905 434.508 119.432 434.777 118.606 434.938ZM137.276 435.613L142.19 439.054C142.656 439.38 143.173 439.603 143.742 439.724C144.314 439.829 144.899 439.823 145.499 439.706L149.156 438.996L152.441 441.296L148.195 442.121C146.418 442.467 144.616 442.462 142.789 442.107C140.946 441.741 139.334 441.074 137.955 440.109L132.782 436.486L127.605 437.492L124.294 435.174L128.448 434.367C128.882 434.282 129.112 434.176 129.14 434.047C129.167 433.918 129 433.727 128.638 433.474L126.155 431.735L130.525 430.886L133.965 433.294L140.412 432.041L143.723 434.359L137.276 435.613ZM164.157 439.296C161.244 439.862 158.591 440.039 156.2 439.825C153.812 439.595 151.912 438.984 150.498 437.994L150.368 437.904L154.677 437.066L154.806 437.157C155.289 437.495 156.035 437.666 157.044 437.671C158.037 437.663 159.411 437.488 161.167 437.147C164.06 436.584 165.162 436.062 164.472 435.579L164.343 435.488C164.084 435.307 163.7 435.204 163.19 435.18C162.68 435.156 161.905 435.214 160.865 435.354L156.53 435.896C154.047 436.209 151.976 436.257 150.319 436.039C148.661 435.821 147.281 435.326 146.177 434.553L145.919 434.372C144.625 433.467 144.381 432.612 145.186 431.807C146.012 430.999 147.799 430.328 150.547 429.793C153.399 429.239 155.968 429.079 158.256 429.313C160.544 429.547 162.404 430.165 163.835 431.167L163.99 431.276L159.682 432.114L159.526 432.005C159.044 431.667 158.327 431.498 157.376 431.497C156.428 431.481 155.128 431.633 153.475 431.955C152.132 432.216 151.176 432.471 150.608 432.72C150.04 432.969 149.903 433.197 150.196 433.402L150.351 433.511C150.61 433.692 150.973 433.799 151.442 433.831C151.931 433.859 152.603 433.821 153.457 433.717L157.854 433.163C160.499 432.834 162.671 432.774 164.37 432.984C166.089 433.19 167.518 433.691 168.656 434.488L168.915 434.669C170.225 435.587 170.457 436.452 169.611 437.264C168.765 438.076 166.947 438.754 164.157 439.296ZM172.91 425.447C175.596 424.924 178.218 424.939 180.775 425.491C183.315 426.031 185.714 427.092 187.973 428.674L194.362 433.147L189.868 434.021L183.479 429.547C182.358 428.762 181.132 428.237 179.802 427.971C178.475 427.689 177.109 427.685 175.704 427.958C174.733 428.147 174.044 428.45 173.639 428.868C173.233 429.287 173.142 429.759 173.367 430.286L181.127 435.72L176.632 436.593L158.63 423.988L163.124 423.114L169.28 427.425C169.716 426.492 170.926 425.832 172.91 425.447ZM190.111 422.381L203.07 431.454L198.607 432.322L185.648 423.248L190.111 422.381ZM186.379 421.764C185.553 421.925 184.683 421.916 183.77 421.739C182.839 421.55 182.046 421.226 181.391 420.767C180.736 420.308 180.468 419.889 180.588 419.511C180.691 419.121 181.156 418.846 181.982 418.685C182.829 418.52 183.708 418.535 184.618 418.728C185.531 418.905 186.315 419.223 186.97 419.682C187.626 420.141 187.902 420.566 187.799 420.956C187.679 421.334 187.206 421.603 186.379 421.764ZM206.543 419.187L209.854 421.505L206.383 422.18C204.44 422.557 203.482 423.106 203.507 423.826L211.939 429.73L207.476 430.598L194.517 421.524L198.701 420.711L200.015 421.52C200.524 420.711 201.739 420.12 203.661 419.747L206.543 419.187ZM225.806 418.404L219.328 419.663L228.976 426.419L224.482 427.292L214.834 420.537L210.029 421.471L206.719 419.152L211.523 418.219L210.799 417.711C209.471 416.782 208.905 415.951 209.1 415.219C209.316 414.483 210.271 413.95 211.965 413.62L216.212 412.795L219.445 415.059L215.819 415.764C214.744 415.973 214.629 416.373 215.474 416.965L216.017 417.345L222.496 416.086L225.806 418.404ZM231.838 417.232L236.753 420.673C237.218 420.999 237.736 421.222 238.304 421.343C238.876 421.448 239.462 421.442 240.061 421.325L243.719 420.614L247.004 422.915L242.757 423.74C240.98 424.085 239.178 424.081 237.352 423.726C235.508 423.36 233.897 422.693 232.517 421.727L227.344 418.105L222.168 419.111L218.857 416.793L223.01 415.986C223.444 415.901 223.675 415.795 223.702 415.666C223.73 415.537 223.562 415.346 223.2 415.093L220.717 413.354L225.087 412.504L228.528 414.913L234.975 413.66L238.286 415.978L231.838 417.232Z" fill="black"/>
<circle cx="4.5" cy="4.5" r="4.5" transform="matrix(0.981627 -0.190809 0.819152 0.573576 39 449.717)" fill="black"/>
<circle cx="4.5" cy="4.5" r="4.5" transform="matrix(0.981627 -0.190809 0.819152 0.573576 27 452.717)" fill="black"/>
<circle cx="4.5" cy="4.5" r="4.5" transform="matrix(0.981627 -0.190809 0.819152 0.573576 254 404.717)" fill="black"/>
<circle cx="4.5" cy="4.5" r="4.5" transform="matrix(0.981627 -0.190809 0.819152 0.573576 47 457.434)" fill="black"/>
<circle cx="4.5" cy="4.5" r="4.5" transform="matrix(0.981627 -0.190809 0.819152 0.573576 262 412.434)" fill="black"/>
<circle cx="4.5" cy="4.5" r="4.5" transform="matrix(0.981627 -0.190809 0.819152 0.573576 34 460.434)" fill="black"/>
<circle cx="4.5" cy="4.5" r="4.5" transform="matrix(0.981627 -0.190809 0.819152 0.573576 249 415.434)" fill="black"/>
<circle cx="4.5" cy="4.5" r="4.5" transform="matrix(0.981627 -0.190809 0.819152 0.573576 240 407.434)" fill="black"/>
</svg>
