<svg width="1327" height="347" viewBox="0 0 1327 347" fill="none" xmlns="http://www.w3.org/2000/svg">
<path d="M47.6 23.96C50.9333 23.96 53.48 24.7867 55.24 26.44C57 28.0933 57.88 30.4933 57.88 33.64V44H56V33.64C56 31.0533 55.2667 29.0933 53.8 27.76C52.3333 26.4 50.2133 25.72 47.44 25.72C45.6 25.72 43.8933 26.1333 42.32 26.96C40.7733 27.7867 39.5867 28.88 38.76 30.24V44H36.88V16.16H38.76V27.8C39.8267 26.6 41.1333 25.6667 42.68 25C44.2267 24.3067 45.8667 23.96 47.6 23.96ZM89.9975 42.32V44H87.8775C86.5175 44 85.4242 43.68 84.5975 43.04C83.7975 42.3733 83.3442 41.4667 83.2375 40.32C80.9442 43.0667 77.5442 44.44 73.0375 44.44C70.2375 44.44 68.1175 44 66.6775 43.12C65.2375 42.24 64.5175 40.9333 64.5175 39.2C64.5175 37.6267 65.1175 36.4 66.3175 35.52C67.5175 34.6133 69.3575 34.0267 71.8375 33.76L83.2375 32.6V32.12C83.2375 30.0667 82.5175 28.4933 81.0775 27.4C79.6375 26.3067 77.5575 25.76 74.8375 25.76C73.2108 25.76 71.7575 26 70.4775 26.48C69.2242 26.9333 68.2375 27.5867 67.5175 28.44C66.8242 29.2667 66.4775 30.2133 66.4775 31.28V31.56H64.6375V31.28C64.6375 29.8667 65.0642 28.6 65.9175 27.48C66.7975 26.36 68.0108 25.4933 69.5575 24.88C71.1042 24.2667 72.8775 23.96 74.8775 23.96C78.1042 23.96 80.6108 24.68 82.3975 26.12C84.1842 27.5333 85.0775 29.5333 85.0775 32.12V39.48C85.0775 40.3867 85.3442 41.0933 85.8775 41.6C86.4375 42.08 87.2242 42.32 88.2375 42.32H89.9975ZM72.9975 42.76C75.3175 42.76 77.3708 42.36 79.1575 41.56C80.9708 40.76 82.3308 39.64 83.2375 38.2V34.16L72.1975 35.32C70.1975 35.5333 68.7308 35.9467 67.7975 36.56C66.8642 37.1733 66.3975 38.0533 66.3975 39.2C66.3975 41.5733 68.5975 42.76 72.9975 42.76ZM96.7103 24.4V44H94.8703V24.4H96.7103ZM95.7903 20.36C95.3636 20.36 95.0036 20.2267 94.7103 19.96C94.417 19.6667 94.2703 19.3067 94.2703 18.88C94.2703 18.4533 94.4036 18.1067 94.6703 17.84C94.9636 17.5733 95.337 17.44 95.7903 17.44C96.2436 17.44 96.6036 17.5733 96.8703 17.84C97.1636 18.1067 97.3103 18.4533 97.3103 18.88C97.3103 19.3067 97.1636 19.6667 96.8703 19.96C96.577 20.2267 96.217 20.36 95.7903 20.36ZM119.996 24.4V26.08H115.756C114.102 26.08 112.596 26.4133 111.236 27.08C109.902 27.7467 108.876 28.6667 108.156 29.84V44H106.316V24.4H108.076L108.116 27.64C108.996 26.6 110.116 25.8 111.476 25.24C112.862 24.68 114.369 24.4 115.996 24.4H119.996ZM130.342 44C128.582 44 127.289 43.6267 126.462 42.88C125.635 42.1067 125.222 40.92 125.222 39.32V16.16H127.062V39.04C127.062 40.2133 127.329 41.0533 127.862 41.56C128.422 42.0667 129.342 42.32 130.622 42.32H132.302V44H130.342ZM139.835 24.4V44H137.995V24.4H139.835ZM138.915 20.36C138.489 20.36 138.129 20.2267 137.835 19.96C137.542 19.6667 137.395 19.3067 137.395 18.88C137.395 18.4533 137.529 18.1067 137.795 17.84C138.089 17.5733 138.462 17.44 138.915 17.44C139.369 17.44 139.729 17.5733 139.995 17.84C140.289 18.1067 140.435 18.4533 140.435 18.88C140.435 19.3067 140.289 19.6667 139.995 19.96C139.702 20.2267 139.342 20.36 138.915 20.36ZM159.241 23.96C162.601 23.96 165.147 24.7867 166.881 26.44C168.641 28.0667 169.521 30.4667 169.521 33.64V44H167.641V33.64C167.641 31.0533 166.907 29.0933 165.441 27.76C164.001 26.4 161.881 25.72 159.081 25.72C157.241 25.72 155.534 26.1333 153.961 26.96C152.387 27.76 151.201 28.8533 150.401 30.24V44H148.521V24.4H150.281L150.361 27.84C151.401 26.6133 152.694 25.6667 154.241 25C155.787 24.3333 157.454 23.9867 159.241 23.96ZM197.678 34.8H177.278C177.278 37.2267 178.118 39.1467 179.798 40.56C181.505 41.9733 183.798 42.68 186.678 42.68C188.411 42.68 189.958 42.44 191.318 41.96C192.678 41.48 193.731 40.8133 194.478 39.96C195.251 39.1067 195.651 38.12 195.678 37H197.678C197.625 38.4933 197.131 39.8 196.198 40.92C195.265 42.04 193.971 42.9067 192.318 43.52C190.691 44.1333 188.811 44.44 186.678 44.44C184.385 44.44 182.385 44.04 180.678 43.24C178.971 42.44 177.651 41.3067 176.718 39.84C175.785 38.3467 175.318 36.6267 175.318 34.68V33.76C175.318 31.7867 175.785 30.0667 176.718 28.6C177.651 27.1067 178.971 25.96 180.678 25.16C182.385 24.36 184.385 23.96 186.678 23.96C188.891 23.96 190.825 24.36 192.478 25.16C194.158 25.9333 195.438 27.0533 196.318 28.52C197.225 29.9867 197.678 31.6933 197.678 33.64V34.8ZM186.678 25.72C183.878 25.72 181.638 26.4 179.958 27.76C178.278 29.0933 177.385 30.9067 177.278 33.2H195.718C195.665 30.9067 194.825 29.0933 193.198 27.76C191.571 26.4 189.398 25.72 186.678 25.72Z" fill="white"/>
<path d="M352.28 309.08V321.44C352.28 322.667 352.627 323.627 353.32 324.32C354.013 324.987 354.987 325.32 356.24 325.32H360.92V327H356.12C354.333 327 352.933 326.52 351.92 325.56C350.907 324.573 350.4 323.213 350.4 321.48V309.08H342.36V307.4H349.64C349.933 307.4 350.133 307.347 350.24 307.24C350.373 307.107 350.44 306.893 350.44 306.6V302.08H352.28V307.4H362.12V309.08H352.28ZM377.381 306.96C380.715 306.96 383.261 307.787 385.021 309.44C386.781 311.093 387.661 313.493 387.661 316.64V327H385.781V316.64C385.781 314.053 385.048 312.093 383.581 310.76C382.115 309.4 379.995 308.72 377.221 308.72C375.381 308.72 373.675 309.133 372.101 309.96C370.555 310.787 369.368 311.88 368.541 313.24V327H366.661V299.16H368.541V310.8C369.608 309.6 370.915 308.667 372.461 308C374.008 307.307 375.648 306.96 377.381 306.96ZM397.859 307.4V327H396.019V307.4H397.859ZM396.939 303.36C396.512 303.36 396.152 303.227 395.859 302.96C395.565 302.667 395.419 302.307 395.419 301.88C395.419 301.453 395.552 301.107 395.819 300.84C396.112 300.573 396.485 300.44 396.939 300.44C397.392 300.44 397.752 300.573 398.019 300.84C398.312 301.107 398.459 301.453 398.459 301.88C398.459 302.307 398.312 302.667 398.019 302.96C397.725 303.227 397.365 303.36 396.939 303.36ZM417.264 306.96C420.624 306.96 423.171 307.787 424.904 309.44C426.664 311.067 427.544 313.467 427.544 316.64V327H425.664V316.64C425.664 314.053 424.931 312.093 423.464 310.76C422.024 309.4 419.904 308.72 417.104 308.72C415.264 308.72 413.557 309.133 411.984 309.96C410.411 310.76 409.224 311.853 408.424 313.24V327H406.544V307.4H408.304L408.384 310.84C409.424 309.613 410.717 308.667 412.264 308C413.811 307.333 415.477 306.987 417.264 306.96Z" fill="white"/>
<path d="M603.84 23.96C606.853 23.96 609.16 24.7867 610.76 26.44C612.36 28.0933 613.16 30.44 613.16 33.48V44H611.32V33.48C611.32 30.9733 610.667 29.0533 609.36 27.72C608.053 26.3867 606.187 25.72 603.76 25.72C601.947 25.72 600.24 26.1467 598.64 27C597.067 27.8533 595.853 28.9867 595 30.4C595.213 31.4133 595.32 32.44 595.32 33.48V44H593.44V33.48C593.44 31 592.787 29.0933 591.48 27.76C590.173 26.4 588.307 25.72 585.88 25.72C584.093 25.72 582.427 26.1333 580.88 26.96C579.36 27.76 578.213 28.84 577.44 30.2V44H575.56V24.4H577.32L577.4 27.8C578.44 26.6 579.707 25.6667 581.2 25C582.693 24.3067 584.307 23.96 586.04 23.96C588.093 23.96 589.813 24.36 591.2 25.16C592.613 25.9333 593.667 27.08 594.36 28.6C595.427 27.1333 596.787 26 598.44 25.2C600.093 24.3733 601.893 23.96 603.84 23.96ZM640.936 34.8H620.536C620.536 37.2267 621.376 39.1467 623.056 40.56C624.763 41.9733 627.056 42.68 629.936 42.68C631.669 42.68 633.216 42.44 634.576 41.96C635.936 41.48 636.989 40.8133 637.736 39.96C638.509 39.1067 638.909 38.12 638.936 37H640.936C640.883 38.4933 640.389 39.8 639.456 40.92C638.523 42.04 637.229 42.9067 635.576 43.52C633.949 44.1333 632.069 44.44 629.936 44.44C627.643 44.44 625.643 44.04 623.936 43.24C622.229 42.44 620.909 41.3067 619.976 39.84C619.043 38.3467 618.576 36.6267 618.576 34.68V33.76C618.576 31.7867 619.043 30.0667 619.976 28.6C620.909 27.1067 622.229 25.96 623.936 25.16C625.643 24.36 627.643 23.96 629.936 23.96C632.149 23.96 634.083 24.36 635.736 25.16C637.416 25.9333 638.696 27.0533 639.576 28.52C640.483 29.9867 640.936 31.6933 640.936 33.64V34.8ZM629.936 25.72C627.136 25.72 624.896 26.4 623.216 27.76C621.536 29.0933 620.643 30.9067 620.536 33.2H638.976C638.923 30.9067 638.083 29.0933 636.456 27.76C634.829 26.4 632.656 25.72 629.936 25.72ZM667.692 16.16V44H665.932L665.852 40.68C664.759 41.88 663.425 42.8133 661.852 43.48C660.305 44.12 658.612 44.44 656.772 44.44C654.452 44.44 652.439 44.04 650.732 43.24C649.025 42.44 647.705 41.3067 646.772 39.84C645.865 38.3467 645.412 36.6 645.412 34.6V33.8C645.412 31.8 645.865 30.0667 646.772 28.6C647.705 27.1067 649.025 25.96 650.732 25.16C652.439 24.36 654.452 23.96 656.772 23.96C658.585 23.96 660.265 24.2933 661.812 24.96C663.385 25.6 664.719 26.5067 665.812 27.68V16.16H667.692ZM656.932 42.68C658.772 42.68 660.479 42.32 662.052 41.6C663.652 40.88 664.905 39.8933 665.812 38.64V29.76C664.905 28.5067 663.665 27.52 662.092 26.8C660.519 26.08 658.799 25.72 656.932 25.72C653.945 25.72 651.599 26.44 649.892 27.88C648.185 29.32 647.332 31.2933 647.332 33.8V34.6C647.332 37.1067 648.185 39.08 649.892 40.52C651.625 41.96 653.972 42.68 656.932 42.68ZM678.21 24.4V44H676.37V24.4H678.21ZM677.29 20.36C676.864 20.36 676.504 20.2267 676.21 19.96C675.917 19.6667 675.77 19.3067 675.77 18.88C675.77 18.4533 675.904 18.1067 676.17 17.84C676.464 17.5733 676.837 17.44 677.29 17.44C677.744 17.44 678.104 17.5733 678.37 17.84C678.664 18.1067 678.81 18.4533 678.81 18.88C678.81 19.3067 678.664 19.6667 678.37 19.96C678.077 20.2267 677.717 20.36 677.29 20.36ZM707.576 24.4V44H705.816L705.736 40.56C704.696 41.7867 703.402 42.7333 701.856 43.4C700.309 44.0667 698.642 44.4133 696.856 44.44C693.496 44.44 690.936 43.6267 689.176 42C687.442 40.3467 686.576 37.9333 686.576 34.76V24.4H688.456V34.76C688.456 37.3467 689.176 39.32 690.616 40.68C692.082 42.0133 694.216 42.68 697.016 42.68C698.856 42.68 700.562 42.28 702.136 41.48C703.709 40.6533 704.896 39.5467 705.696 38.16V24.4H707.576ZM743.293 23.96C746.306 23.96 748.613 24.7867 750.213 26.44C751.813 28.0933 752.613 30.44 752.613 33.48V44H750.773V33.48C750.773 30.9733 750.12 29.0533 748.813 27.72C747.506 26.3867 745.64 25.72 743.213 25.72C741.4 25.72 739.693 26.1467 738.093 27C736.52 27.8533 735.306 28.9867 734.453 30.4C734.666 31.4133 734.773 32.44 734.773 33.48V44H732.893V33.48C732.893 31 732.24 29.0933 730.933 27.76C729.626 26.4 727.76 25.72 725.333 25.72C723.546 25.72 721.88 26.1333 720.333 26.96C718.813 27.76 717.666 28.84 716.893 30.2V44H715.013V24.4H716.773L716.853 27.8C717.893 26.6 719.16 25.6667 720.653 25C722.146 24.3067 723.76 23.96 725.493 23.96C727.546 23.96 729.266 24.36 730.653 25.16C732.066 25.9333 733.12 27.08 733.813 28.6C734.88 27.1333 736.24 26 737.893 25.2C739.546 24.3733 741.346 23.96 743.293 23.96Z" fill="white"/>
<path d="M907.8 306.96C910.12 306.96 912.133 307.36 913.84 308.16C915.547 308.96 916.853 310.107 917.76 311.6C918.693 313.067 919.16 314.8 919.16 316.8V317.6C919.16 319.6 918.693 321.347 917.76 322.84C916.853 324.307 915.547 325.44 913.84 326.24C912.133 327.04 910.12 327.44 907.8 327.44C905.96 327.44 904.253 327.12 902.68 326.48C901.133 325.813 899.813 324.88 898.72 323.68L898.64 327H896.88V299.16H898.76V310.68C899.853 309.507 901.173 308.6 902.72 307.96C904.293 307.293 905.987 306.96 907.8 306.96ZM917.24 316.8C917.24 314.293 916.387 312.32 914.68 310.88C912.973 309.44 910.627 308.72 907.64 308.72C905.773 308.72 904.053 309.08 902.48 309.8C900.907 310.52 899.667 311.507 898.76 312.76V321.64C899.667 322.893 900.907 323.88 902.48 324.6C904.08 325.32 905.8 325.68 907.64 325.68C910.6 325.68 912.933 324.96 914.64 323.52C916.373 322.08 917.24 320.107 917.24 317.6V316.8ZM935.158 327.44C932.812 327.44 930.772 327.053 929.038 326.28C927.305 325.48 925.972 324.347 925.038 322.88C924.105 321.387 923.638 319.653 923.638 317.68V316.84C923.638 314.84 924.105 313.093 925.038 311.6C925.972 310.107 927.305 308.96 929.038 308.16C930.772 307.36 932.812 306.96 935.158 306.96C937.452 306.96 939.452 307.36 941.158 308.16C942.892 308.96 944.225 310.107 945.158 311.6C946.092 313.093 946.558 314.84 946.558 316.84V317.68C946.558 319.653 946.092 321.373 945.158 322.84C944.225 324.307 942.892 325.44 941.158 326.24C939.452 327.04 937.452 327.44 935.158 327.44ZM935.158 325.68C938.065 325.68 940.372 324.96 942.078 323.52C943.785 322.08 944.638 320.133 944.638 317.68V316.84C944.638 314.333 943.785 312.36 942.078 310.92C940.398 309.453 938.092 308.72 935.158 308.72C932.172 308.72 929.825 309.44 928.118 310.88C926.412 312.32 925.558 314.307 925.558 316.84V317.68C925.558 320.133 926.425 322.08 928.158 323.52C929.892 324.96 932.225 325.68 935.158 325.68ZM958.701 327C956.941 327 955.648 326.627 954.821 325.88C953.995 325.107 953.581 323.92 953.581 322.32V299.16H955.421V322.04C955.421 323.213 955.688 324.053 956.221 324.56C956.781 325.067 957.701 325.32 958.981 325.32H960.661V327H958.701ZM986.075 299.16V327H984.315L984.235 323.68C983.141 324.88 981.808 325.813 980.235 326.48C978.688 327.12 976.995 327.44 975.155 327.44C972.835 327.44 970.821 327.04 969.115 326.24C967.408 325.44 966.088 324.307 965.155 322.84C964.248 321.347 963.795 319.6 963.795 317.6V316.8C963.795 314.8 964.248 313.067 965.155 311.6C966.088 310.107 967.408 308.96 969.115 308.16C970.821 307.36 972.835 306.96 975.155 306.96C976.968 306.96 978.648 307.293 980.195 307.96C981.768 308.6 983.101 309.507 984.195 310.68V299.16H986.075ZM975.315 325.68C977.155 325.68 978.861 325.32 980.435 324.6C982.035 323.88 983.288 322.893 984.195 321.64V312.76C983.288 311.507 982.048 310.52 980.475 309.8C978.901 309.08 977.181 308.72 975.315 308.72C972.328 308.72 969.981 309.44 968.275 310.88C966.568 312.32 965.715 314.293 965.715 316.8V317.6C965.715 320.107 966.568 322.08 968.275 323.52C970.008 324.96 972.355 325.68 975.315 325.68Z" fill="white"/>
<path d="M1163.8 23.96C1166.12 23.96 1168.13 24.36 1169.84 25.16C1171.55 25.96 1172.85 27.1067 1173.76 28.6C1174.69 30.0667 1175.16 31.8 1175.16 33.8V34.6C1175.16 36.6 1174.69 38.3467 1173.76 39.84C1172.85 41.3067 1171.55 42.44 1169.84 43.24C1168.13 44.04 1166.12 44.44 1163.8 44.44C1161.96 44.44 1160.25 44.12 1158.68 43.48C1157.13 42.8133 1155.81 41.88 1154.72 40.68L1154.64 44H1152.88V16.16H1154.76V27.68C1155.85 26.5067 1157.17 25.6 1158.72 24.96C1160.29 24.2933 1161.99 23.96 1163.8 23.96ZM1173.24 33.8C1173.24 31.2933 1172.39 29.32 1170.68 27.88C1168.97 26.44 1166.63 25.72 1163.64 25.72C1161.77 25.72 1160.05 26.08 1158.48 26.8C1156.91 27.52 1155.67 28.5067 1154.76 29.76V38.64C1155.67 39.8933 1156.91 40.88 1158.48 41.6C1160.08 42.32 1161.8 42.68 1163.64 42.68C1166.6 42.68 1168.93 41.96 1170.64 40.52C1172.37 39.08 1173.24 37.1067 1173.24 34.6V33.8ZM1187.32 44C1185.56 44 1184.27 43.6267 1183.44 42.88C1182.61 42.1067 1182.2 40.92 1182.2 39.32V16.16H1184.04V39.04C1184.04 40.2133 1184.31 41.0533 1184.84 41.56C1185.4 42.0667 1186.32 42.32 1187.6 42.32H1189.28V44H1187.32ZM1218.73 42.32V44H1216.61C1215.25 44 1214.16 43.68 1213.33 43.04C1212.53 42.3733 1212.08 41.4667 1211.97 40.32C1209.68 43.0667 1206.28 44.44 1201.77 44.44C1198.97 44.44 1196.85 44 1195.41 43.12C1193.97 42.24 1193.25 40.9333 1193.25 39.2C1193.25 37.6267 1193.85 36.4 1195.05 35.52C1196.25 34.6133 1198.09 34.0267 1200.57 33.76L1211.97 32.6V32.12C1211.97 30.0667 1211.25 28.4933 1209.81 27.4C1208.37 26.3067 1206.29 25.76 1203.57 25.76C1201.95 25.76 1200.49 26 1199.21 26.48C1197.96 26.9333 1196.97 27.5867 1196.25 28.44C1195.56 29.2667 1195.21 30.2133 1195.21 31.28V31.56H1193.37V31.28C1193.37 29.8667 1193.8 28.6 1194.65 27.48C1195.53 26.36 1196.75 25.4933 1198.29 24.88C1199.84 24.2667 1201.61 23.96 1203.61 23.96C1206.84 23.96 1209.35 24.68 1211.13 26.12C1212.92 27.5333 1213.81 29.5333 1213.81 32.12V39.48C1213.81 40.3867 1214.08 41.0933 1214.61 41.6C1215.17 42.08 1215.96 42.32 1216.97 42.32H1218.73ZM1201.73 42.76C1204.05 42.76 1206.11 42.36 1207.89 41.56C1209.71 40.76 1211.07 39.64 1211.97 38.2V34.16L1200.93 35.32C1198.93 35.5333 1197.47 35.9467 1196.53 36.56C1195.6 37.1733 1195.13 38.0533 1195.13 39.2C1195.13 41.5733 1197.33 42.76 1201.73 42.76ZM1232.56 44.44C1230.24 44.44 1228.22 44.04 1226.48 43.24C1224.75 42.44 1223.4 41.3067 1222.44 39.84C1221.51 38.3467 1221.04 36.6267 1221.04 34.68V33.84C1221.04 31.84 1221.51 30.0933 1222.44 28.6C1223.4 27.1067 1224.75 25.96 1226.48 25.16C1228.22 24.36 1230.24 23.96 1232.56 23.96C1234.62 23.96 1236.47 24.3067 1238.12 25C1239.8 25.6933 1241.11 26.6533 1242.04 27.88C1243 29.1067 1243.48 30.48 1243.48 32V32.2H1241.56V32C1241.56 30.8 1241.16 29.7333 1240.36 28.8C1239.59 27.84 1238.52 27.0933 1237.16 26.56C1235.8 26 1234.27 25.72 1232.56 25.72C1229.6 25.72 1227.26 26.4533 1225.52 27.92C1223.82 29.36 1222.96 31.3333 1222.96 33.84V34.68C1222.96 37.1333 1223.82 39.08 1225.52 40.52C1227.26 41.96 1229.6 42.68 1232.56 42.68C1234.27 42.68 1235.8 42.4133 1237.16 41.88C1238.55 41.3467 1239.63 40.6 1240.4 39.64C1241.18 38.68 1241.56 37.6133 1241.56 36.44V36.24H1243.48V36.44C1243.48 37.96 1243.02 39.3333 1242.08 40.56C1241.15 41.76 1239.84 42.7067 1238.16 43.4C1236.51 44.0933 1234.64 44.44 1232.56 44.44ZM1271.24 43.68V44H1268.88L1257.6 33.88L1251.36 38.24V44H1249.48V16.16H1251.36V35.96L1268.2 24.4H1270.68V24.72L1259.08 32.84L1271.24 43.68Z" fill="white"/>
<path d="M665 275.6C632.8 275.6 608.4 269.9 591.8 258.5C575.2 247.1 566.9 230.4 566.9 208.4V205.7H604.4V208.4C604.4 230.8 625.2 242 666.8 242C684.8 242 698.5 239.9 707.9 235.7C717.5 231.5 722.3 225.4 722.3 217.4V215.3C722.3 208.3 719.5 203.1 713.9 199.7C708.3 196.3 698.1 193.6 683.3 191.6L635.9 185C592.5 179 570.8 161.4 570.8 132.2V129.2C570.8 111.2 578.7 97.1 594.5 86.9C610.5 76.7 633 71.6 662 71.6C692.6 71.6 715.9 77.1 731.9 88.1C748.1 99.1 756.2 115.1 756.2 136.1V138.8H718.7V136.1C718.7 115.5 699.8 105.2 662 105.2C644.8 105.2 631.6 107.2 622.4 111.2C613.4 115.2 608.9 120.9 608.9 128.3V130.7C608.9 136.7 611.5 141.3 616.7 144.5C622.1 147.5 631.4 149.9 644.6 151.7L692.3 158.3C715.7 161.5 732.9 167.6 743.9 176.6C754.9 185.4 760.4 197.7 760.4 213.5V216.5C760.4 235.1 752.1 249.6 735.5 260C718.9 270.4 695.4 275.6 665 275.6Z" fill="white"/>
<path d="M388.3 275.3C357.3 275.3 333.9 270.1 318.1 259.7C302.3 249.1 294.4 233.7 294.4 213.5V210.2H309.1V213.5C309.1 245.9 335.7 262.1 388.9 262.1C413.7 262.1 432.4 258.7 445 251.9C457.8 245.1 464.2 235.1 464.2 221.9V219.2C464.2 207.6 459.7 198.9 450.7 193.1C441.9 187.3 426.8 183.2 405.4 180.8L365.8 176.3C343.4 173.7 326.8 168.5 316 160.7C305.2 152.7 299.8 141.7 299.8 127.7V124.7C299.8 108.1 307.3 95.2 322.3 86C337.5 76.6 358.7 71.9 385.9 71.9C415.3 71.9 437.5 77.1 452.5 87.5C467.5 97.7 475 112.8 475 132.8V136.1H460.6V132.8C460.6 101 435.7 85.1 385.9 85.1C363.1 85.1 345.5 88.5 333.1 95.3C320.7 102.1 314.5 111.8 314.5 124.4V127.4C314.5 138 318.8 146.2 327.4 152C336 157.6 349.7 161.4 368.5 163.4L408.4 167.6C433.2 170.2 451.1 175.5 462.1 183.5C473.3 191.5 478.9 203.2 478.9 218.6V221.6C478.9 239 471.1 252.3 455.5 261.5C440.1 270.7 417.7 275.3 388.3 275.3Z" fill="#4ADE80"/>
<path d="M117.3 275C87.1 275 64.3 270.1 48.9 260.3C33.5 250.3 25.8 235.5 25.8 215.9V212.3H28.8V215.9C28.8 253.3 58.3 272 117.3 272C145.5 272 166.7 268 180.9 260C195.3 252 202.5 240.1 202.5 224.3V221.3C202.5 207.1 197.2 196.5 186.6 189.5C176.2 182.3 158.6 177.6 133.8 175.4L98.1 172.1C75.7 170.1 59 165.3 48 157.7C37.2 149.9 31.8 139.2 31.8 125.6V122.6C31.8 106.6 39.1 94.2 53.7 85.4C68.3 76.6 88.9 72.2 115.5 72.2C144.1 72.2 165.6 77.2 180 87.2C194.6 97 201.9 111.7 201.9 131.3V134.9H198.9V131.3C198.9 93.9 171.1 75.2 115.5 75.2C89.9 75.2 70 79.3 55.8 87.5C41.8 95.7 34.8 107.4 34.8 122.6V125.6C34.8 138.4 39.9 148.4 50.1 155.6C60.5 162.6 76.5 167.1 98.1 169.1L133.8 172.4C159.6 174.8 178 179.8 189 187.4C200 194.8 205.5 206.1 205.5 221.3V224.3C205.5 240.9 198 253.5 183 262.1C168.2 270.7 146.3 275 117.3 275Z" fill="#4ADE80"/>
<path d="M941.4 275.6C909 275.6 884.4 269.8 867.6 258.2C850.8 246.6 842.4 229.6 842.4 207.2V204.2H886.8V207.2C886.8 216.8 891.6 224.1 901.2 229.1C910.8 234.1 924.8 236.6 943.2 236.6C959.6 236.6 972 234.9 980.4 231.5C989 227.9 993.3 222.7 993.3 215.9V213.8C993.3 208.4 990.9 204.3 986.1 201.5C981.3 198.5 972.8 196.1 960.6 194.3L910.5 187.1C867.3 180.7 845.7 162.9 845.7 133.7V130.7C845.7 112.1 853.8 97.6 870 87.2C886.4 76.8 909.3 71.6 938.7 71.6C969.9 71.6 993.7 77.2 1010.1 88.4C1026.5 99.6 1034.7 115.8 1034.7 137V139.7H990.3V137C990.3 119.4 973.1 110.6 938.7 110.6C923.3 110.6 911.5 112.2 903.3 115.4C895.3 118.6 891.3 123.3 891.3 129.5V131.9C891.3 136.5 893.5 140.1 897.9 142.7C902.5 145.3 910.3 147.4 921.3 149L971.7 156.2C994.7 159.6 1011.6 165.8 1022.4 174.8C1033.4 183.6 1038.9 195.9 1038.9 211.7V214.7C1038.9 233.9 1030.4 248.9 1013.4 259.7C996.4 270.3 972.4 275.6 941.4 275.6Z" fill="#4ADE80"/>
<path d="M1210.2 275.9C1177.4 275.9 1152.3 269.8 1134.9 257.6C1117.7 245.4 1109.1 227.7 1109.1 204.5V201.5H1167.6V204.5C1167.6 211.3 1171.5 216.6 1179.3 220.4C1187.1 224 1198.1 225.8 1212.3 225.8C1238.1 225.8 1251 221.5 1251 212.9V211.1C1251 205.7 1244.5 202 1231.5 200L1176 191.3C1154.4 187.9 1138.3 181.7 1127.7 172.7C1117.1 163.7 1111.8 151.7 1111.8 136.7V133.7C1111.8 113.9 1120.2 98.6 1137 87.8C1153.8 76.8 1177.4 71.3 1207.8 71.3C1240 71.3 1264.6 77.2 1281.6 89C1298.8 100.6 1307.4 117.3 1307.4 139.1V141.5H1249.5V139.1C1249.5 133.1 1246.1 128.7 1239.3 125.9C1232.5 122.9 1222 121.4 1207.8 121.4C1183.8 121.4 1171.8 125 1171.8 132.2V134C1171.8 136.2 1173.2 138.1 1176 139.7C1179 141.1 1183.9 142.3 1190.7 143.3L1246.5 152C1268.7 155.4 1285.2 161.8 1296 171.2C1306.8 180.4 1312.2 192.8 1312.2 208.4V211.4C1312.2 231.8 1303.2 247.7 1285.2 259.1C1267.4 270.3 1242.4 275.9 1210.2 275.9Z" fill="#4ADE80"/>
<rect x="280" y="66" width="215" height="215" stroke="white" stroke-width="4"/>
<rect x="9" y="66" width="215" height="215" stroke="white" stroke-width="4"/>
<rect x="557" y="66" width="215" height="215" stroke="white" stroke-width="4"/>
<rect x="834" y="66" width="215" height="215" stroke="white" stroke-width="4"/>
<rect x="1104" y="66" width="215" height="215" stroke="white" stroke-width="4"/>
</svg>
