<svg width="352" height="398" viewBox="0 0 352 398" fill="none" xmlns="http://www.w3.org/2000/svg">
<path d="M84.6776 79.6475C104.212 83.7171 123.164 92.9772 140.423 102.681C159.876 113.619 180.754 126.513 191.91 146.62C213.309 185.184 195.846 240.283 183.587 279.886C174.216 310.163 147.862 336.827 123.874 356.343C104.808 371.854 83.1781 384.799 58.5469 386.248" stroke="#4ADE80" stroke-width="7" stroke-linecap="round" stroke-dasharray="14 14"/>
<circle cx="96.3954" cy="288.395" r="15.3954" fill="white"/>
<circle cx="248.395" cy="370.395" r="15.3954" fill="white"/>
<circle cx="96" cy="291.018" r="6" fill="black"/>
<circle cx="248" cy="373.018" r="6" fill="black"/>
<rect width="275" height="61.7695" rx="27.0359" transform="matrix(0.866025 0.5 -0.866025 0.5 77.5254 224)" fill="white"/>
<circle cx="217.849" cy="382.378" r="15.3954" fill="white"/>
<circle cx="65.3954" cy="295.378" r="15.3954" fill="white"/>
<path d="M5.68402 125.231C3.98017 125.475 2.27631 126.449 1.7895 128.152C1.30269 130.1 3.00654 131.317 4.71039 132.047C6.90105 132.777 9.33511 133.264 11.7692 133.994C14.2032 134.724 16.3939 135.454 18.8279 135.698C19.5582 135.698 19.5582 134.481 18.8279 134.481C16.8807 134.237 15.1769 133.751 13.473 133.264C11.7692 132.777 9.82193 132.29 8.11808 131.803C6.65764 131.317 4.46698 131.317 3.49336 129.856C2.27632 128.152 4.46698 126.692 5.92742 126.448C6.41423 126.448 6.41424 125.231 5.68402 125.231Z" fill="black"/>
<path d="M7.38976 145.673C5.68592 144.943 4.46889 143.483 4.46889 141.535C4.22549 140.562 4.7123 139.588 5.68592 139.345C6.65955 139.101 7.63317 139.588 8.60679 140.075C10.3106 141.049 11.7711 141.779 13.7183 142.266C15.4222 142.509 17.6128 142.509 19.3167 141.779C20.0469 141.535 19.3167 140.318 18.5865 140.805C17.6128 141.292 16.1524 141.292 14.9354 141.292C13.7183 141.292 12.5013 141.049 11.2843 140.562C9.33701 139.832 7.63316 137.884 5.1991 138.371C3.00844 138.615 2.52163 140.805 3.00844 142.509C3.49525 144.456 4.71228 146.16 6.65953 146.89C7.63316 146.89 8.11998 145.917 7.38976 145.673Z" fill="black"/>
<path d="M53.1496 51.9667C53.1496 51.9667 45.1172 35.1717 54.1232 27.6261C63.1293 20.0805 62.6425 17.8898 62.6425 17.8898C62.6425 17.8898 66.2936 9.12721 79.4375 6.93656C92.8249 4.7459 96.7194 4.25907 96.7194 4.25907C96.7194 4.25907 135.421 -3.52992 172.662 22.758C209.903 49.0459 220.37 73.6299 220.37 73.6299C220.37 73.6299 228.889 81.4189 228.889 86.0436C228.889 86.0436 229.863 88.4777 226.942 100.405C226.942 100.405 226.455 101.135 227.429 101.865C228.402 102.595 232.297 104.299 232.297 104.299C232.297 104.299 239.112 107.707 244.954 103.082L246.901 101.622C246.901 101.622 249.822 95.2931 257.854 96.5101C257.854 96.5101 258.828 101.622 251.282 105.76L250.065 106.49C250.065 106.49 249.579 106.977 250.065 107.463C250.552 107.707 251.039 107.463 251.039 107.463L254.203 105.516C254.203 105.516 259.558 101.865 259.071 96.7535L260.775 96.5101C260.775 96.5101 266.617 96.0233 271.485 88.9645V89.9381C271.485 89.9381 272.702 92.859 267.591 99.9178L266.374 101.622L265.887 102.352C265.887 102.352 265.4 103.812 266.86 103.326L267.347 102.595L270.268 97.9705L271.242 96.5101C271.242 96.5101 273.919 93.1024 272.702 87.5041C272.702 87.5041 277.083 81.6623 279.274 80.9321C279.274 80.9321 277.083 87.0173 278.787 92.1288C280.491 97.2403 282.438 102.839 282.438 102.839C282.438 102.839 286.09 111.358 285.359 117.2C284.629 123.041 284.386 130.344 284.386 130.344C284.386 130.344 284.142 143.731 294.365 146.652C294.365 146.652 288.524 150.546 278.301 147.382C278.301 147.382 271.485 145.922 264.426 148.843C257.368 151.763 256.151 151.033 256.151 151.033H253.96C253.96 151.033 240.573 148.356 234.731 153.224C234.731 153.224 232.784 156.145 234.244 159.066C235.948 161.986 235.704 163.69 235.704 163.69L235.461 165.881C235.461 165.881 234.001 170.262 236.191 172.453C238.382 174.887 240.086 176.347 240.086 176.347C240.086 176.347 247.875 185.84 247.631 191.925L244.467 187.301C244.467 187.301 230.106 166.855 209.173 171.236C209.173 171.236 200.167 172.453 192.865 186.327C185.563 200.201 183.859 202.149 183.859 202.149L179.234 208.72L177.043 211.398C177.043 211.398 172.175 217.727 162.196 216.996L158.301 216.509L153.19 215.536C153.19 215.536 137.125 210.424 126.902 211.154C116.679 211.885 110.594 219.187 110.594 219.187C110.594 219.187 109.62 211.641 114.488 206.773C119.6 201.905 120.33 200.201 120.33 200.201C120.33 200.201 123.494 193.142 126.658 192.412C129.579 191.682 134.691 192.169 135.178 191.682C135.178 191.682 143.94 193.386 149.539 201.418C149.539 201.418 150.756 201.905 150.512 200.931C150.512 200.931 144.67 192.656 137.368 191.195C137.368 191.195 140.289 190.222 141.506 187.544C141.506 187.544 142.723 185.353 141.75 182.189C140.776 179.025 135.908 169.045 135.908 169.045C135.908 169.045 133.961 166.124 132.987 165.394C132.987 165.394 128.606 162.717 124.224 167.341L121.547 169.532C121.547 169.532 119.113 172.453 114.001 170.506C114.001 170.506 111.567 169.775 105.239 171.236C105.239 171.236 101.344 172.696 97.4496 166.368C97.4496 166.368 94.5287 160.526 86.4963 159.309C78.4639 158.092 74.0826 141.784 74.0826 141.784C74.0826 141.784 68.4842 129.37 74.8128 128.883H76.76C76.76 128.883 81.8716 130.344 85.5227 129.613C88.9304 128.883 93.5551 126.693 93.5551 126.693C93.5551 126.693 105.239 121.824 113.758 123.285C122.277 124.745 125.928 123.772 125.928 123.772C125.928 123.772 132.257 121.824 127.389 115.496C127.389 115.496 122.52 111.115 121.06 107.463C119.6 103.812 118.869 96.5101 118.869 96.5101L119.356 90.425C119.356 90.425 124.954 67.3014 119.113 57.5651C119.113 57.5651 114.488 49.5327 114.245 47.0986C114.245 47.0986 112.784 40.77 102.805 39.553L99.3968 38.5794L90.8776 32.7376C90.8776 32.7376 79.6809 22.0278 63.6161 33.9547C63.6161 34.9283 55.0969 41.5003 53.1496 51.9667Z" fill="#4ADE80"/>
<path d="M110.838 227.458C112.785 215.288 127.146 213.34 137.126 215.288C148.079 217.235 159.519 222.59 170.716 219.426C175.584 217.965 178.992 214.557 181.913 210.663C185.32 206.282 188.485 201.9 191.162 197.032C196.03 188.269 199.925 176.829 211.121 174.395C222.561 172.205 232.541 179.263 239.843 187.296C243.738 191.677 247.389 196.545 249.093 202.387C250.553 207.742 250.553 215.044 246.902 219.669C243.494 224.05 237.409 224.78 232.541 225.511C226.456 226.241 220.127 226.241 214.042 226.241C208.687 226.241 203.332 226.728 198.464 228.918C193.84 230.866 189.702 234.03 185.32 236.22C178.748 239.628 172.176 239.872 164.874 239.385C158.059 238.898 151.243 238.655 144.185 238.655C137.613 238.655 130.797 239.385 124.225 239.141C121.304 239.141 116.193 238.898 114.002 236.464C112.785 235.247 112.542 233.3 112.055 231.596C111.568 229.892 111.081 228.188 110.595 226.241C110.108 224.294 107.187 225.267 107.674 226.971C109.134 231.839 109.621 237.924 114.732 240.115C120.574 242.549 127.146 242.062 133.231 241.575C140.29 241.332 147.349 241.089 154.408 241.332C161.223 241.576 168.038 242.549 174.61 242.062C187.268 241.089 195.787 230.135 208.444 229.162C215.259 228.432 222.318 229.162 229.133 228.432C234.488 227.945 240.33 227.458 245.198 224.78C254.935 219.425 254.448 205.308 250.553 196.302C246.172 186.566 236.679 177.073 226.943 172.691C216.963 168.31 205.28 170.014 198.221 178.777C194.813 182.915 192.622 188.026 189.945 192.894C186.781 198.736 183.13 204.334 178.748 209.689C176.314 212.61 173.637 215.044 169.742 216.018C165.604 216.991 161.466 216.748 157.329 216.018C149.783 214.801 142.724 212.123 135.179 211.15C124.225 209.689 110.351 213.34 108.16 225.997C107.43 228.432 110.595 229.405 110.838 227.458Z" fill="black"/>
<path d="M251.768 201.419C251.525 191.683 248.847 181.46 242.032 174.401C241.058 173.428 240.085 172.697 239.355 171.967C237.651 170.02 238.381 168.316 238.624 166.125C239.111 163.935 238.868 162.231 237.894 160.04C236.921 157.85 236.19 156.389 238.624 154.685C239.841 153.955 242.519 153.712 243.979 153.712C247.387 153.468 250.551 153.955 253.716 154.442C256.15 154.685 258.584 154.685 261.018 153.955C263.695 152.981 265.886 151.521 268.563 150.791C274.649 149.087 280.734 152.251 286.819 152.251C298.016 152.008 304.831 141.785 308.725 132.292C313.837 119.878 318.218 105.761 313.837 92.3733C313.107 90.426 310.186 91.3996 310.916 93.1035C315.054 105.761 310.673 119.148 306.048 130.831C303.857 136.673 300.693 142.515 295.581 146.166C289.74 150.304 283.898 148.844 277.326 147.627C271.971 146.653 267.833 147.627 262.965 149.817C259.557 151.521 256.88 151.764 252.985 151.278C250.064 150.791 247.387 150.547 244.466 150.547C240.815 150.791 234.486 151.278 233.756 155.902C233.513 158.093 234.73 160.04 235.46 161.988C236.434 164.665 234.73 167.342 234.973 170.02C235.46 172.697 237.407 174.158 239.111 175.862C241.302 178.052 243.006 180.486 244.466 183.164C247.387 188.762 248.604 195.091 248.604 201.419C248.847 203.367 251.768 203.367 251.768 201.419Z" fill="black"/>
<path d="M110.351 226.729C110.594 222.105 110.351 217.236 111.324 212.855C112.055 208.717 115.462 206.527 118.383 203.606C120.817 200.928 121.791 197.277 123.982 194.843C126.902 191.679 131.527 192.896 135.178 192.166C137.856 191.679 140.533 190.462 141.75 188.028C143.211 184.863 141.507 181.699 140.29 178.778C138.586 175.127 136.882 170.502 134.448 167.338C132.744 165.147 130.067 164.661 127.633 165.634C124.468 166.851 122.765 170.016 119.6 171.476C117.653 172.45 115.949 171.476 114.002 171.233C112.055 170.989 110.351 171.233 108.647 171.476C106.456 171.719 104.266 172.45 102.075 171.719C100.128 170.989 98.9108 169.285 97.9371 167.825C96.2333 165.391 94.7729 162.957 91.852 161.74C88.4443 160.279 84.7932 160.036 81.8723 157.358C79.1949 154.681 77.491 151.03 76.0306 147.622C74.5701 143.971 73.1097 140.32 72.3795 136.425C71.8927 133.505 71.1625 130.34 75.057 129.853C77.2476 129.61 79.6817 130.584 81.8723 130.827C86.2537 131.314 89.6613 129.61 93.3124 127.906C98.1806 125.716 103.779 124.012 109.134 124.012C113.272 124.012 117.41 124.985 121.548 125.229C123.982 125.229 127.389 125.472 128.606 122.795C129.337 121.091 126.902 119.387 125.929 121.334C124.955 123.282 117.653 122.064 115.949 121.821C111.568 121.091 107.673 120.604 103.292 121.578C99.641 122.308 95.9899 123.525 92.5822 124.985C90.3916 125.959 88.4443 127.176 86.2536 127.906C83.3327 128.636 80.8987 127.906 77.9778 127.419C75.0569 126.933 71.4059 126.933 69.4586 129.61C67.7548 132.044 68.7284 136.182 69.2152 138.86C70.6756 145.432 73.5965 153.464 78.2212 158.819C80.4119 161.253 82.846 162.957 86.0102 163.687C87.9575 164.174 90.1482 164.417 91.6086 165.634C93.3124 166.851 94.286 168.799 95.5031 170.502C96.9635 172.45 98.6674 174.397 101.101 175.127C104.996 176.344 108.647 174.397 112.542 174.64C115.706 174.884 118.14 176.101 121.061 174.64C124.225 173.18 128.85 165.878 132.257 170.259C133.474 171.963 134.205 174.153 135.178 176.101C136.152 178.048 137.126 179.995 138.099 182.186C139.073 184.62 140.046 187.054 137.612 188.758C135.909 189.975 133.231 189.975 131.284 190.218C127.389 190.462 123.738 190.705 121.304 194.113C118.87 197.277 117.896 200.685 114.976 203.606C112.055 206.283 109.377 208.961 108.404 212.855C107.43 217.723 107.673 222.835 107.187 227.703C107.187 228.676 110.351 228.677 110.351 226.729Z" fill="black"/>
<path d="M227.427 102.106C230.835 104.053 234.486 105.757 238.624 105.757C242.275 105.514 244.709 103.81 247.143 101.132C248.603 99.672 249.82 97.9681 251.768 96.9945C254.202 95.7775 256.636 96.5077 259.313 96.5077C263.208 96.2643 266.129 94.5604 268.806 91.8829C271.727 88.9621 273.674 85.5544 276.595 82.6335C280.246 78.9824 284.871 78.2522 289.739 78.9824C298.502 80.1995 306.047 85.7978 310.915 92.8566C312.133 94.5605 314.567 92.8566 313.593 91.3962C305.561 79.9561 285.845 68.2725 273.674 81.1731C270.753 84.0939 268.806 87.9884 265.642 90.6659C263.451 92.6132 261.017 93.3434 258.096 93.3434C255.906 93.3434 253.958 93.1 251.768 93.5868C248.36 94.5604 246.413 97.7247 243.979 99.9154C239.354 104.053 233.756 102.106 229.131 99.1851C227.427 98.4549 225.967 101.132 227.427 102.106Z" fill="black"/>
<path d="M296.798 144.214C289.983 143.24 287.549 136.425 287.305 130.34C287.305 124.255 288.766 118.169 288.279 112.084C287.305 101.618 276.839 90.1776 282.924 79.7111C283.898 78.0073 281.22 76.5469 280.247 78.2507C272.944 90.6644 285.601 102.835 285.358 115.492C285.358 122.307 283.411 129.366 285.115 136.181C286.575 141.536 290.47 146.161 296.068 147.135C298.015 147.378 298.745 144.457 296.798 144.214Z" fill="black"/>
<path d="M282.682 95.7779C282.682 95.7779 304.832 84.0943 288.523 54.1553C288.523 54.1553 289.984 50.2608 293.878 52.9383L294.852 53.6686L295.582 54.3988L297.286 57.0763L298.746 59.7537L299.72 61.4575C299.72 61.4575 303.128 67.0559 308.483 65.8389C313.838 64.6219 317.976 58.5367 317.976 58.5367L319.436 54.8856L320.166 53.1817L324.061 43.9323L325.521 40.768C325.521 40.768 327.225 37.8471 328.929 38.8208C328.929 38.8208 329.902 39.3076 329.659 41.4983L328.929 46.8532L328.199 50.7477L327.712 54.1553C327.712 54.1553 327.225 55.129 328.199 55.129C329.172 55.129 329.659 53.4252 329.659 53.4252L331.119 51.7213L334.527 46.6098L336.961 42.9587L338.178 41.2548C338.178 41.2548 340.126 38.8208 342.073 40.0378C342.073 40.0378 343.777 41.2548 342.073 45.1494L341.099 46.8532L336.474 53.4252L334.771 55.8592L333.797 57.0763C333.797 57.0763 331.85 59.0235 333.554 60.2405C335.501 61.4575 339.152 57.0763 339.152 57.0763L341.099 55.129L342.803 53.1817L344.507 51.2345L345.48 50.5042C345.48 50.5042 348.401 48.557 348.645 50.5042C348.888 52.4515 347.184 55.6158 347.184 55.6158L344.507 59.2669L341.829 62.6746L339.395 65.1086L337.448 67.0559L335.744 68.273C335.744 68.273 334.771 69.2466 335.988 69.7334C337.205 70.2202 341.829 68.5164 341.829 68.5164L344.507 67.0559C344.507 67.0559 347.915 63.4048 350.105 65.5955C350.105 65.5955 353.513 68.2729 350.349 70.2202C347.184 72.4108 344.75 72.1675 344.75 72.1675C344.75 72.1675 337.205 73.6279 335.744 77.279C334.284 80.6866 332.823 80.6867 332.823 80.6867C332.823 80.6867 327.712 86.5284 323.574 87.502C319.679 88.4757 314.811 92.6136 314.811 92.6136C314.811 92.6136 304.832 92.857 296.799 101.62C288.767 110.382 289.01 110.626 289.01 110.626C289.01 110.626 285.359 101.863 282.682 95.7779Z" fill="#E5F2E9"/>
<path d="M243.495 186.084C238.14 174.157 227.43 164.177 213.799 163.934C206.984 163.934 201.142 164.42 196.517 169.775C191.649 175.374 188.972 184.38 180.453 185.597C179.722 185.597 179.966 186.814 180.696 186.814C186.294 186.084 189.945 181.702 192.866 177.078C194.814 174.157 196.517 171.236 198.951 168.802C202.359 165.881 206.01 165.151 210.392 165.151C214.043 165.151 217.937 164.907 221.345 166.124C224.753 167.098 228.16 169.289 230.838 171.479C235.949 175.617 239.6 180.729 242.278 186.57C242.765 187.544 243.982 186.814 243.495 186.084Z" fill="black"/>
<path d="M207.713 149.573C204.549 153.954 200.898 159.066 195.056 160.283C194.326 160.526 194.569 161.743 195.3 161.5C201.385 160.039 205.279 154.928 208.687 150.303C209.174 149.573 208.2 149.086 207.713 149.573Z" fill="black"/>
<path d="M243.007 131.071C241.06 132.531 240.086 134.722 238.869 136.913C237.409 139.347 235.218 141.537 233.271 143.728C229.62 147.866 226.455 152.491 224.021 157.602C223.778 158.332 224.751 158.819 224.995 158.333C227.429 153.221 230.593 148.596 234.244 144.458C235.948 142.511 237.652 140.564 239.112 138.617C240.573 136.426 241.546 133.992 243.494 132.288C244.467 131.314 243.737 130.584 243.007 131.071Z" fill="black"/>
<path d="M267.103 112.085C268.32 116.223 267.59 120.604 266.373 124.742C265.399 128.393 264.425 132.044 263.452 135.695C262.965 137.399 262.478 139.103 261.261 140.32C260.044 141.78 258.097 142.024 256.636 142.997C254.446 144.701 253.229 147.379 253.472 150.299C253.472 151.03 254.689 151.03 254.689 150.299C254.446 148.352 254.933 146.162 256.636 144.701C258.097 143.241 260.044 142.997 261.505 141.78C263.695 140.076 264.425 137.156 264.912 134.478C266.616 127.176 270.511 119.387 268.077 111.841C267.833 111.111 266.859 111.354 267.103 112.085Z" fill="black"/>
<path d="M279.763 121.09C280.006 126.688 279.763 132.286 279.52 137.641C279.52 138.372 280.737 138.372 280.737 137.641C280.98 132.043 280.98 126.688 280.98 121.09C280.98 120.359 279.763 120.359 279.763 121.09Z" fill="black"/>
<path d="M257.612 95.5345C258.343 97.7252 257.612 100.159 256.152 102.107C254.448 104.054 252.258 105.271 250.31 106.488C249.58 106.975 250.31 107.948 251.041 107.461C253.475 106.001 255.909 104.541 257.612 102.35C259.073 100.403 260.047 97.4818 259.073 95.0478C258.586 94.3175 257.369 94.8043 257.612 95.5345Z" fill="black"/>
<path d="M271.485 87.0134C271.972 89.9343 272.215 92.3684 270.755 95.0458C269.294 97.4799 267.834 99.914 266.374 102.348C265.887 103.078 267.104 103.565 267.347 103.078C268.077 101.618 269.051 100.401 269.781 98.9403C270.512 97.7233 271.485 96.5063 271.972 95.0458C273.189 92.3684 272.946 89.6909 272.459 86.77C272.459 86.0398 271.242 86.2832 271.485 87.0134Z" fill="black"/>
<path d="M108.889 143.485C118.625 148.596 126.658 156.629 132.013 166.365C132.5 167.095 133.473 166.365 132.986 165.635C127.631 155.655 119.356 147.623 109.376 142.268C108.889 142.268 108.402 143.241 108.889 143.485Z" fill="black"/>
<path d="M134.205 191.921C140.533 193.138 146.131 196.546 149.783 201.658C150.269 202.388 151.243 201.658 150.756 200.927C146.862 195.573 141.02 191.678 134.448 190.461C133.718 190.461 133.474 191.678 134.205 191.921Z" fill="black"/>
<path d="M139.315 187.541C145.4 188.028 150.999 190.462 155.623 194.357C156.11 194.843 157.084 194.113 156.597 193.383C151.729 189.488 145.644 186.811 139.315 186.324C138.585 186.324 138.585 187.541 139.315 187.541Z" fill="black"/>
<path d="M166.82 158.575C169.741 159.792 173.149 160.522 176.557 160.522C177.287 160.522 177.287 159.305 176.557 159.305C173.392 159.305 170.471 158.819 167.551 157.358C166.577 157.115 166.09 158.332 166.82 158.575Z" fill="black"/>
<path d="M128.605 122.309C130.552 117.684 125.684 115.007 123.25 112.086C119.599 107.705 118.868 101.619 118.868 96.021C119.112 84.8243 123.737 73.1408 120.572 61.9441C119.842 59.2667 118.625 57.076 117.165 54.6419C115.461 51.9645 114.731 48.8002 113.27 45.8793C110.593 41.0112 105.481 41.498 101.1 39.7941C95.7448 37.8469 91.8503 33.4655 86.7388 31.0315C81.8707 28.8408 76.5157 28.8409 71.4042 30.5447C60.2075 34.4392 52.9053 45.8793 52.4185 57.5628C53.3921 57.3194 54.3657 57.076 55.3393 56.8326C53.3921 52.9381 52.1751 49.0436 51.2014 44.9057C50.2278 41.0112 49.0108 35.8997 50.958 32.0052C52.4185 28.8409 55.8262 26.6502 58.0168 24.2161C60.2075 22.0255 61.9113 19.348 63.6152 16.6705C66.0492 13.2628 68.4833 10.342 72.3778 8.63813C76.0289 7.1777 80.1668 6.44746 84.0613 5.96065C92.8239 4.50021 101.83 3.52656 110.593 3.03974C126.657 2.30952 142.235 7.17767 156.596 14.2365C169.01 20.3216 180.694 27.8672 190.917 37.1166C202.6 47.5831 212.58 59.9968 220.369 73.6276C221.342 75.3314 224.02 73.8711 223.046 72.1672C208.199 46.1227 185.318 24.7029 158.3 11.559C142.966 4.25678 126.657 -0.854715 109.376 0.118911C100.37 0.605723 91.1201 1.82273 82.114 3.28316C74.325 4.7436 67.2663 6.44745 62.3982 13.0194C59.7207 16.6705 57.53 20.5651 54.3657 23.4859C51.6883 25.92 48.7674 28.3541 47.5503 31.7617C46.0899 35.8997 47.0636 40.7678 47.7938 44.9057C48.7674 49.5304 50.4712 54.1551 52.4185 58.5364C53.1487 59.9969 55.0959 59.2666 55.3393 57.8062C55.5828 47.3397 62.1547 37.3601 72.1344 33.709C77.4893 31.7617 82.8443 32.2486 87.7124 35.4128C91.6069 37.8469 94.7712 41.0112 99.1525 42.715C101.343 43.4452 103.534 43.6887 105.724 44.1755C109.132 44.9057 110.349 46.8529 111.566 50.0172C113.27 54.8853 116.921 58.7798 117.895 64.1348C120.085 74.3578 116.434 84.5809 115.948 94.5606C115.704 99.1853 116.191 104.053 117.895 108.435C118.625 110.382 119.842 112.329 121.302 114.033C122.52 115.494 127.144 118.414 126.171 120.605C125.197 122.552 127.874 124.256 128.605 122.309Z" fill="black"/>
<path d="M229.862 100.887C231.322 95.7751 233.026 89.4466 231.566 84.0917C230.105 78.9801 225.967 75.5724 222.803 71.6779C221.586 70.2175 219.395 72.4081 220.612 73.8686C223.29 77.5197 227.428 80.4405 228.645 85.0653C229.862 89.9334 228.158 95.5318 226.941 100.156C226.454 101.86 229.375 102.834 229.862 100.887Z" fill="black"/>
<path d="M118.141 58.2918C123.009 59.2654 123.252 50.2593 123.252 47.3385C123.739 41.2533 123.739 35.4116 122.278 29.5698C122.035 28.8396 120.818 29.083 121.061 29.8132C122.278 34.4379 122.278 39.3061 122.035 44.1742C122.035 46.3649 122.035 58.0484 118.141 57.3181C117.654 57.0747 117.41 58.0483 118.141 58.2918Z" fill="black"/>
<path d="M122.764 98.9398C125.198 98.453 129.336 97.2359 131.526 96.0189C142.236 89.9337 151.486 81.9013 159.031 72.1651C159.518 71.6783 159.761 71.1914 160.492 70.948C161.222 70.7046 161.952 70.948 162.682 71.4348C177.043 78.2502 192.621 82.6315 208.686 83.8485C212.824 84.092 216.962 84.3354 220.613 82.6315C221.587 90.4205 218.179 98.4529 212.581 104.295C207.226 110.136 199.924 114.031 192.865 117.439C189.214 119.142 185.319 120.846 181.668 122.307C178.991 123.524 176.07 124.497 173.149 124.984C168.281 125.714 163.169 125.228 158.301 124.011C143.697 120.603 129.336 112.327 122.764 98.9398Z" fill="black"/>
<path d="M123.252 100.4C131.528 98.6962 138.1 94.3149 144.672 89.2034C148.323 86.2825 151.73 83.3616 154.895 79.9539C156.355 78.2501 157.816 76.7896 159.276 75.0858C160.25 73.8688 160.98 72.8952 162.684 73.1386C163.901 73.382 165.118 74.3556 166.335 74.8424C175.341 78.7369 184.59 81.6578 194.327 83.605C198.708 84.5786 203.333 85.0655 207.957 85.5523C212.582 86.0391 217.207 86.2825 221.345 84.3353C220.614 83.8485 220.128 83.3616 219.397 82.8748C220.614 94.3149 213.312 103.808 204.306 109.893C199.925 112.814 195.3 115.248 190.432 117.438C185.32 119.873 180.209 122.307 174.611 123.524C164.631 125.958 152.947 121.82 143.941 117.438C135.666 113.057 128.607 106.729 124.225 98.4528C123.252 96.749 120.818 98.2094 121.548 99.9133C128.85 114.274 143.941 122.793 159.033 126.201C163.657 127.175 168.282 127.662 172.907 127.175C177.531 126.445 182.156 124.497 186.538 122.55C195.057 118.899 203.819 114.761 210.635 108.676C217.937 102.347 223.048 92.8545 222.075 82.8748C222.075 81.9012 221.101 80.9276 220.128 81.4144C215.259 83.3616 210.148 82.8748 205.28 82.1446C200.168 81.6578 195.3 80.6842 190.432 79.4672C185.807 78.4935 181.183 77.0331 176.558 75.5726C171.933 73.8688 167.308 71.4347 162.684 69.7309C158.789 68.5139 157.085 72.6517 154.895 75.0858C151.974 78.4935 148.81 81.6578 145.645 84.3353C138.83 90.177 131.284 95.532 122.522 97.4792C120.331 97.7226 121.305 100.643 123.252 100.4Z" fill="black"/>
<path d="M137.855 96.9961C137.855 97.2395 141.02 104.785 142.967 104.785C144.914 104.785 162.926 98.2131 162.926 98.2131L137.855 96.9961Z" fill="white"/>
<path d="M203.817 96.5068C203.817 96.7502 200.653 104.296 198.705 104.296C196.758 104.296 178.746 97.7239 178.746 97.7239L203.817 96.5068Z" fill="white"/>
<path d="M76.2754 152.493C76.2754 152.736 76.2754 152.736 76.2754 152.98C76.2754 152.98 76.2754 153.223 76.5188 153.223C76.5188 153.223 76.5188 153.223 76.7622 153.467H77.0056C77.0056 153.467 77.0056 153.467 77.249 153.467C77.249 153.467 77.4924 153.467 77.4924 153.223C77.4924 153.223 77.4924 153.223 77.4924 152.98V152.736C77.4924 152.736 77.4924 152.736 77.4924 152.493V152.25C77.4924 152.25 77.4924 152.006 77.249 152.006C77.249 152.006 77.249 152.006 77.0056 151.763H76.7622C76.7622 151.763 76.7622 151.763 76.5188 151.763C76.5188 151.763 76.2754 151.763 76.2754 152.006C76.2754 152.006 76.2754 152.006 76.2754 152.25V152.493Z" fill="black"/>
<path d="M335.258 70.4606C338.179 68.5133 340.369 66.0793 342.56 63.6452C344.751 61.2112 346.941 58.5336 348.158 55.3693C348.645 54.1523 349.375 52.4485 348.888 50.9881C348.645 50.0144 347.671 49.2842 346.454 49.2842C343.29 49.2842 341.343 52.9353 339.639 54.8826C338.179 56.343 336.718 57.8034 335.258 59.0204C335.014 59.2638 332.824 60.9677 333.31 59.5073C333.554 58.7771 334.528 58.0469 335.014 57.5601C335.501 56.8298 334.284 56.343 334.041 56.8298C333.31 57.8034 331.85 58.5337 332.093 59.9941C332.337 60.9677 333.31 61.4546 334.041 61.2112C335.501 60.7243 336.718 59.5073 337.692 58.5337C338.909 57.3166 340.126 56.0996 341.343 54.6391C342.317 53.4221 343.29 52.2051 344.751 51.2315C345.237 50.7447 345.968 50.5012 346.698 50.5012C347.915 50.7446 347.915 51.7183 347.671 52.6919C346.941 55.8562 344.751 58.7771 342.56 61.2112C340.126 64.132 337.692 67.2963 334.528 69.2435C334.041 69.7303 334.771 70.9474 335.258 70.4606Z" fill="black"/>
<path d="M328.199 55.1271C328.686 51.476 329.416 48.0682 329.903 44.4171C330.146 42.2265 331.12 39.5491 329.173 38.0886C325.278 34.6809 322.601 44.904 321.627 47.0946C319.193 53.6666 316.516 59.265 310.917 63.4029C309.457 64.3765 307.753 65.3501 305.806 65.1067C303.858 64.8633 302.155 63.4029 300.938 61.9424C298.99 59.5083 297.773 56.5874 295.826 54.1534C294.366 52.2061 291.688 50.2589 289.254 51.476C287.063 52.4496 287.55 54.6403 288.28 56.3441C288.524 57.0743 289.741 56.3441 289.254 55.6138C289.011 55.127 288.767 54.6402 288.524 54.1534C288.767 52.6929 289.497 51.9628 290.714 52.2062C291.931 52.2062 292.905 52.9364 293.635 53.6666C294.852 54.8836 295.826 56.3441 296.8 58.0479C298.26 60.482 299.477 62.9161 301.911 64.6199C307.023 68.5144 312.378 64.3765 316.029 60.482C319.923 56.1006 321.627 50.2589 323.818 44.904C324.548 43.2001 325.035 41.7397 326.008 40.2793C326.982 38.5754 328.929 38.332 329.416 40.766C329.659 41.7397 329.173 42.7133 329.173 43.6869C328.686 47.338 327.956 50.9891 327.469 54.6402C326.982 55.6138 328.199 56.1007 328.199 55.1271Z" fill="black"/>
<path d="M86.2518 15.6944C87.9557 18.6153 89.1727 21.5362 89.9029 24.7005C90.6331 27.6214 91.12 31.029 88.9293 33.4631C88.4425 33.9499 89.4161 34.9236 89.9029 34.4368C91.8502 31.7593 91.8502 28.595 91.3634 25.4307C90.6331 21.7796 89.1727 18.1285 87.2255 14.9643C86.7387 14.4774 85.765 15.2076 86.2518 15.6944Z" fill="black"/>
<path d="M122.519 72.1669C122.519 68.5158 125.927 65.1081 128.361 62.674C130.551 60.24 133.229 58.0494 135.663 56.1021C141.018 52.2076 147.103 49.2867 153.432 47.096C160.247 44.9054 167.549 43.445 174.608 42.9582C181.91 42.4714 190.429 41.4977 197.245 44.662C198.949 45.3922 200.652 42.9581 198.705 41.9845C191.403 38.5768 182.884 39.307 175.095 39.7938C166.576 40.5241 158.3 41.9845 150.267 44.9054C143.452 47.3395 137.123 50.7472 131.525 55.1285C126.657 59.023 119.355 65.3516 119.111 72.1669C119.598 74.1142 122.519 74.1142 122.519 72.1669Z" fill="black"/>
<path d="M86.0117 31.0287C86.9853 28.8381 86.7419 26.1606 85.2815 24.2134C85.0381 23.97 84.7946 23.7266 84.5512 23.97C84.3078 24.2134 84.0645 24.4568 84.3079 24.7002C85.5249 26.4041 85.7683 28.5947 85.038 30.7854C84.7946 31.0288 85.2815 31.5156 85.5249 31.5156C85.7683 31.5156 86.0117 31.2721 86.0117 31.0287Z" fill="black"/>
<path d="M60.4516 19.5905C62.3988 21.7811 65.5631 23.2415 66.7801 26.1624C67.0235 26.4058 67.2669 26.6492 67.5103 26.4058C67.7537 26.1624 67.7537 25.9191 67.7537 25.6756C66.2933 22.7548 63.3724 21.2943 61.1818 18.8602C60.695 18.13 59.9647 19.1037 60.4516 19.5905Z" fill="black"/>
<path d="M328.685 55.125C330.632 52.2041 332.579 49.2832 334.283 46.6057C335.257 45.1453 336.23 43.6848 337.204 42.4678C337.934 41.4942 339.394 40.0337 340.855 40.7639C342.315 41.2507 342.072 43.198 341.829 44.415C341.585 46.1189 340.368 47.3359 339.638 48.553C337.691 51.4738 335.5 54.1513 333.553 57.0722C333.066 57.8024 334.04 58.2892 334.526 57.8024C336.474 55.1249 338.177 52.4475 340.125 50.0134C341.829 47.8228 343.532 45.6321 343.289 42.7112C343.046 40.2772 341.098 38.8167 338.908 39.7903C337.691 40.2771 336.96 41.0073 336.23 41.981C335.257 43.198 334.526 44.415 333.553 45.6321C331.605 48.5529 329.415 51.7173 327.468 54.8815C327.224 55.1249 328.441 55.8552 328.685 55.125Z" fill="black"/>
<path d="M335.259 70.4635C338.179 70.4635 341.1 69.7333 343.534 68.2728C344.995 67.5426 346.455 66.0822 347.916 66.0822C349.133 66.0822 350.106 66.569 350.35 67.786C350.593 69.003 349.133 69.9767 348.403 70.7069C346.942 71.4371 345.238 71.9239 343.778 72.6541C342.561 73.1409 341.344 73.6278 340.127 74.1146C338.179 74.8448 336.232 75.575 335.015 77.5223C329.66 84.8245 321.141 88.719 313.595 93.3437C312.865 93.8305 313.595 94.8041 314.326 94.3173C320.898 89.936 328.687 86.5283 334.042 80.6866C335.502 79.2261 336.232 77.2789 338.179 76.3052C340.37 75.0882 343.291 74.1146 345.725 73.141C347.672 72.4108 349.863 71.9239 351.08 69.9766C352.054 68.7596 352.054 66.8124 350.837 65.5954C349.133 64.1349 346.942 64.8652 345.238 65.8388C342.074 67.786 339.153 69.0031 335.259 69.2465C334.528 69.2465 334.528 70.4635 335.259 70.4635Z" fill="black"/>
<path d="M288.28 56.5864C291.931 63.1583 294.365 71.6776 293.148 79.2232C292.175 85.7952 288.037 91.3935 282.195 94.8012C281.465 95.288 282.195 96.2616 282.925 95.7748C289.01 92.3671 293.148 86.282 294.365 79.4666C295.582 71.4342 293.148 62.6716 289.254 55.8562C289.01 55.126 288.037 55.8562 288.28 56.5864Z" fill="black"/>
<path d="M311.403 93.5865C306.291 94.8035 301.666 97.481 297.772 101.132C293.634 105.027 289.983 109.408 286.332 114.033C285.845 114.763 286.819 115.25 287.306 114.763C290.713 110.382 294.364 106.244 298.015 102.593C301.666 98.9415 306.291 96.264 311.403 95.047C312.62 94.5602 312.133 93.3431 311.403 93.5865Z" fill="black"/>
<path d="M293.39 79.2267C293.39 79.2267 285.114 77.7663 282.68 78.9833C282.68 78.9833 278.056 84.0949 282.193 95.0481C282.193 95.0481 292.417 89.2064 293.39 79.2267Z" fill="black"/>
<path d="M312.378 93.8301C312.378 93.8301 299.964 97.2378 288.524 113.303L287.307 129.367C287.307 129.367 288.28 142.025 291.445 142.511L296.313 145.432L297.773 146.162L300.207 143.728C300.207 143.728 307.509 131.558 308.483 130.584C309.457 129.611 312.134 121.822 312.621 119.631C313.351 117.197 314.081 105.757 314.081 105.27C314.081 104.783 312.378 93.8301 312.378 93.8301Z" fill="black"/>
<path d="M68.9714 135.21L71.1621 143.729C71.1621 143.729 68.728 150.545 51.933 147.38C51.933 147.38 51.2028 146.893 50.716 147.624C50.2291 148.354 49.7423 148.597 49.7423 148.597L46.5781 149.328L43.6571 150.058L40.0061 152.492C40.0061 152.492 35.6247 154.926 25.6451 153.465C25.6451 153.465 11.2841 153.709 8.60664 149.084C8.60664 149.084 6.41599 145.19 10.7973 145.19L11.7709 145.433L13.9616 146.163L15.9088 146.893C15.9088 146.893 18.5863 147.38 20.0467 146.407C20.0467 146.407 20.777 145.433 19.3165 145.433C19.3165 145.433 17.8561 146.407 14.9352 145.19C14.9352 145.19 10.0671 142.269 7.63302 145.19C7.63302 145.19 3.2517 142.999 5.19895 139.104C5.19895 139.104 6.17257 138.131 7.87642 139.104C9.58026 140.078 10.7973 140.565 10.7973 140.565C10.7973 140.565 14.9352 142.512 18.0995 141.539C18.0995 141.539 21.2638 141.052 19.3165 139.835C19.3165 139.835 17.8561 140.565 15.9088 140.565C13.9616 140.565 12.2577 140.078 12.2577 140.078L10.0671 138.861C10.0671 138.861 6.6594 136.427 4.46874 137.887C4.46874 137.887 -0.155989 134.967 0.330824 133.019C0.330824 133.019 0.817637 131.802 2.76489 131.315C2.76489 131.315 3.73851 131.559 3.98192 131.315L4.95555 131.802L11.2841 133.506L14.4484 134.236L16.8825 134.723L18.5863 134.967C18.5863 134.967 19.5599 135.21 19.3165 134.236C19.3165 134.236 19.3165 133.75 18.0995 133.75L15.9088 133.263L6.41598 130.829C6.41598 130.829 3.2517 130.342 2.76489 128.395C2.76489 128.395 2.52148 126.691 5.19895 125.96L5.92918 125.717C5.92918 125.717 6.9028 125.474 8.85005 125.717C10.5539 126.204 11.7709 126.691 11.7709 126.691L17.1259 128.151L22.4808 129.125H25.1583C25.1583 129.125 27.3489 129.368 29.0528 127.421L29.783 125.96L30.5132 122.309V118.902L30.2698 115.494V113.547C30.2698 113.547 31.9737 106.488 36.1116 110.139L37.0852 111.6L37.572 113.79L37.8154 118.415C37.8154 118.415 38.3022 122.309 40.7363 124.743L42.4401 126.691C42.4401 126.691 44.6308 129.125 45.6044 129.368C46.578 129.612 47.0649 129.855 47.0649 129.855C47.0649 129.855 49.0121 129.855 51.2028 132.776C51.2028 132.776 52.9066 134.236 59.9654 133.75C59.9654 134.236 67.2676 133.993 68.9714 135.21Z" fill="#E5F2E9"/>
<path d="M308.482 108.675C308.726 108.675 308.726 108.675 308.482 108.675C308.726 108.431 309.212 107.701 309.456 107.214C309.456 107.214 309.456 107.214 309.456 106.971C309.699 106.484 309.943 105.997 310.186 105.51C310.429 104.78 310.429 103.807 310.186 103.076C310.186 102.346 309.943 101.616 309.456 100.886C308.969 100.156 308.482 99.6687 307.995 99.1819C307.508 98.6951 306.778 98.2083 305.805 98.2083C305.318 98.2083 304.831 97.9648 304.101 97.9648C302.884 97.9648 301.91 98.2083 300.937 98.6951C300.45 98.9385 300.206 99.4253 299.719 99.6687C298.989 100.399 298.502 101.373 298.259 102.346C298.502 101.859 298.746 101.373 298.989 100.886C298.989 100.886 298.989 101.129 298.746 101.129C298.989 100.642 299.476 100.399 299.719 99.9121C299.233 100.399 298.746 101.129 298.502 101.859C298.016 102.59 298.016 103.32 298.016 104.293C298.016 105.024 298.259 105.997 298.502 106.727C298.746 107.458 299.233 108.188 299.719 108.675C300.206 108.918 300.45 109.405 300.937 109.648C301.91 110.135 302.884 110.379 304.101 110.379C304.588 110.379 305.074 110.135 305.805 110.135C307.022 109.892 307.752 109.405 308.482 108.675Z" fill="black"/>
<path d="M133.695 214.678C133.695 214.678 114.075 211.994 110.396 227.367L112.604 235.664L115.056 237.86L118.49 239.08L122.413 239.324L144.731 238.836H151.597L171.462 239.568L177.593 238.836L183.724 236.884L190.591 232.98C190.591 232.98 199.91 226.147 208.984 226.391C218.058 226.635 226.397 225.903 226.397 225.903C226.397 225.903 245.035 226.879 248.714 217.118C252.392 207.358 247.487 195.889 247.487 195.889C247.487 195.889 231.056 169.779 210.456 173.927C210.456 173.927 200.646 177.343 196.722 186.616L194.024 191.008L190.346 198.085C190.346 198.085 180.536 216.874 170.972 219.071C161.407 221.023 155.031 219.315 155.031 219.315C155.031 219.315 136.638 214.922 133.695 214.678Z" fill="black" stroke="black" stroke-width="0.187749" stroke-miterlimit="10"/>
<path d="M51.6877 148.597C57.7729 149.327 71.4036 151.274 73.1075 142.511C73.5943 139.591 72.6207 136.426 70.1866 134.479C66.7789 132.045 60.9371 133.019 57.0426 133.019C55.5822 133.019 53.1481 133.262 51.9311 132.288C51.6877 132.045 51.4443 131.315 50.9575 131.071C49.497 129.854 47.5498 129.611 46.0893 128.637C44.1421 127.42 41.9514 124.743 40.7344 122.795C39.0306 120.118 39.274 117.197 38.7872 114.033C38.3003 111.355 36.8399 107.948 33.6756 108.435C30.9982 108.678 29.5377 111.599 29.2943 114.033C29.0509 117.441 30.0245 120.848 29.2943 124.256C28.8075 126.447 26.6168 128.15 24.4262 128.15C22.7223 128.15 21.0185 127.907 19.5581 127.664C15.1767 126.933 10.552 124.743 6.17071 124.986C5.44049 124.986 5.44049 126.203 6.17071 126.203C11.0388 125.716 16.1504 128.394 20.7751 129.124C23.9394 129.611 28.0773 130.585 29.7811 126.933C30.7547 124.986 30.9982 122.552 30.7548 120.605C30.7548 117.684 29.5377 114.52 30.9982 111.842C32.9454 108.191 36.5965 110.382 37.3267 113.303C37.8135 115.007 37.5701 116.71 37.8135 118.171C38.0569 120.118 38.5438 121.822 39.7608 123.526C40.9778 125.23 42.4383 126.933 43.8987 128.394C45.3591 129.854 47.063 129.854 48.7668 130.828C50.2273 131.558 50.4707 133.019 51.9311 133.749C54.1218 134.722 57.286 133.992 59.7201 133.992C62.8844 133.992 67.5091 133.262 69.9432 135.696C71.8904 137.887 72.6207 141.781 70.9168 144.215C67.5091 149.57 56.7992 147.623 51.6877 147.136C50.9575 147.38 50.9575 148.597 51.6877 148.597Z" fill="black"/>
<path d="M50.9585 147.38C49.2546 149.328 46.5772 149.084 44.3865 150.058C42.4393 151.031 40.7354 152.492 38.5448 153.222C33.6766 154.926 27.5915 153.952 22.7234 153.465C20.2893 153.222 17.8552 153.222 15.1777 152.735C12.7437 152.248 9.0926 151.031 8.11897 148.597C6.90194 146.407 9.09259 145.19 11.0398 145.433C12.2569 145.676 13.4739 146.407 14.6909 146.65C16.3948 147.38 18.0986 147.38 19.5591 146.65C20.2893 146.407 19.5591 145.19 18.8288 145.676C15.6646 147.38 12.7437 143.729 9.57941 144.216C8.11897 144.459 6.41512 145.433 6.41512 147.137C5.9283 152.005 14.2041 153.952 17.6118 154.439C20.7761 154.926 24.1838 154.926 27.3481 155.169C30.5123 155.413 33.6766 155.413 36.5975 154.926C39.7618 154.439 41.4657 152.735 44.1431 151.518C46.5772 150.301 49.7414 150.545 51.6887 148.354C52.4189 147.624 51.4453 146.894 50.9585 147.38Z" fill="black"/>
<path d="M65.562 138.371C65.562 138.371 65.5621 138.615 65.8055 138.615C65.8055 138.371 65.562 138.128 65.562 137.885C66.0489 138.858 66.0489 140.075 66.2923 141.049C66.5357 142.022 66.7791 143.239 67.2659 144.213C67.2659 144.7 67.5093 144.943 67.7527 145.187C67.9961 145.43 68.2395 145.673 68.7263 145.917C69.4566 146.404 70.4302 146.404 71.1604 146.16C71.8906 145.917 72.6208 145.43 72.8642 144.7C73.1076 143.97 73.5945 142.996 73.1077 142.266C72.6208 141.292 72.3775 140.075 72.134 138.858C71.8906 137.398 71.6472 136.181 70.917 134.964C70.6736 134.233 69.7 133.747 69.2131 133.503C68.4829 133.26 67.5093 133.503 66.7791 133.747C65.3186 134.964 64.8318 136.911 65.562 138.371Z" fill="black"/>
<path d="M69.7026 145.429C69.2158 142.265 68.7289 139.1 68.2421 135.936C67.9987 135.206 67.5119 134.476 66.7817 134.232C66.0515 133.746 65.0778 133.746 64.3476 133.989C62.6438 134.476 61.9136 135.936 62.157 137.64C62.6438 140.318 63.1306 142.995 63.374 145.429C63.374 146.159 63.6174 146.89 64.3476 147.62C64.8344 148.107 65.8081 148.593 66.5383 148.593C67.2685 148.593 68.2421 148.35 68.7289 147.62C69.2157 147.133 69.7026 146.159 69.7026 145.429Z" fill="black"/>
<path d="M67.9977 135.212C68.2411 134.969 68.2411 134.725 68.4846 134.482C68.4846 134.725 68.2411 134.969 67.9977 135.212C68.2411 134.969 68.4845 134.482 68.7279 134.238C68.4845 134.482 68.2411 134.482 67.9977 134.725C68.2411 134.482 68.7279 134.238 69.2147 133.995C68.9713 133.995 68.728 134.238 68.4846 134.238C68.728 133.995 69.2148 133.995 69.7016 133.995C70.1884 133.995 70.4318 133.752 70.6752 133.508C70.9186 133.265 71.162 133.021 71.4054 132.535C71.6488 132.291 71.6488 131.804 71.6488 131.318C71.6488 130.831 71.6488 130.587 71.6488 130.1C71.4054 129.37 70.9186 128.64 70.1884 128.397C69.945 128.397 69.7016 128.153 69.4582 128.153C68.9713 127.91 68.4845 127.91 67.7543 128.153C67.2675 128.153 67.0241 128.397 66.5373 128.397C66.0505 128.64 65.3203 128.883 64.8335 129.127C64.3466 129.37 63.8598 129.857 63.373 130.344C63.1296 130.587 62.8862 131.074 62.6428 131.318C62.6428 131.561 62.3994 131.561 62.3994 131.804C61.9126 132.535 61.9126 133.265 62.156 134.238C62.156 134.725 62.3994 134.969 62.6428 135.212C62.8862 135.455 63.1296 135.699 63.6164 135.942C64.3466 136.429 65.0769 136.429 66.0505 136.186C67.0241 136.429 67.7543 135.942 67.9977 135.212Z" fill="black"/>
<path d="M67.2659 151.029C67.5093 151.029 67.5093 151.029 67.2659 151.029C67.2659 151.029 67.0224 151.029 66.779 151.029C66.779 151.029 67.0224 151.029 67.2659 151.029C66.779 151.029 66.5356 150.786 66.2922 150.786C67.5092 151.273 68.4829 151.759 69.6999 152.003C70.9169 152.246 72.134 152.49 73.351 152.246C74.0812 152.246 75.0548 152.003 75.5417 151.273C76.0285 150.786 76.5153 149.812 76.5153 149.082C76.5153 148.352 76.2719 147.378 75.5417 146.891C75.0548 146.405 74.3246 145.918 73.351 145.918C72.6208 145.918 72.134 145.918 71.4038 145.918C71.6472 145.918 71.8906 145.918 72.134 145.918C71.1604 145.674 69.9433 145.431 68.9697 145.188C69.2131 145.188 69.4565 145.431 69.6999 145.431C69.2131 145.187 68.9697 144.944 68.4829 144.944H68.2395C67.9961 144.944 67.5093 144.701 67.2659 144.944C66.5356 144.944 65.8054 145.188 65.0752 145.918C64.5884 146.405 64.1016 147.378 64.1016 148.108C64.1016 148.839 64.345 149.812 65.0752 150.299C65.8054 150.786 66.5356 151.273 67.2659 151.029Z" fill="black"/>
<path d="M72.6225 150.055C72.8659 149.812 72.8659 149.812 72.6225 150.055C72.6225 150.055 72.3791 150.298 72.1357 150.298C72.3791 150.298 72.3791 150.055 72.6225 150.055C72.1357 150.299 71.8923 150.298 71.6489 150.542H71.8923C72.3791 150.542 72.6225 150.299 72.8659 150.055C73.1093 149.812 73.3527 149.568 73.5961 149.081C73.8395 148.838 73.8395 148.351 73.8395 147.864C73.8395 147.378 73.8395 147.134 73.8395 146.647C73.8395 146.404 73.5961 146.161 73.5961 145.917C73.3527 145.43 72.8659 145.187 72.6225 144.944C72.3791 144.944 72.1357 144.7 71.8923 144.7C71.4055 144.457 70.9187 144.457 70.1884 144.7H69.945C69.7016 144.7 69.4582 144.944 69.2148 144.944C68.9714 145.187 68.728 145.187 68.4846 145.43C68.4846 145.43 68.4846 145.43 68.2412 145.674C67.9978 145.917 67.7544 146.161 67.511 146.647C67.2676 146.891 67.2676 147.378 67.2676 147.864C67.2676 148.351 67.2676 148.595 67.511 149.081C67.7544 149.568 67.7544 149.812 68.2412 150.055C68.4846 150.299 68.728 150.298 68.9714 150.542C69.4582 150.785 69.945 151.029 70.4318 151.029C70.6752 151.029 70.9187 151.029 71.1621 151.029C71.8923 150.542 72.3791 150.299 72.6225 150.055Z" fill="black"/>
<path d="M4.22569 131.073C3.00866 131.073 2.03505 131.073 1.06142 131.804C0.0877949 132.534 -0.155615 133.751 0.0877912 134.724C0.574604 136.915 2.52185 138.132 4.22569 139.106C4.95591 139.349 5.44273 138.375 4.95592 138.132C3.49548 137.402 1.79163 136.672 1.54823 134.968C1.30482 134.238 1.30482 133.264 1.79163 132.777C2.52185 132.29 3.49547 132.29 4.22569 132.29C4.95591 132.29 4.95591 131.073 4.22569 131.073Z" fill="black"/>
<circle cx="65" cy="294.982" r="6" fill="black"/>
<circle cx="218" cy="381.982" r="6" fill="black"/>
<path d="M127.628 275.36C130.63 277.093 132.12 278.86 132.097 280.66C132.097 282.447 130.584 284.213 127.559 285.96L119.002 290.9L113.98 288L122.536 283.06C124.037 282.193 124.764 281.293 124.718 280.36C124.718 279.427 123.933 278.507 122.363 277.6C121.277 276.973 120.042 276.553 118.656 276.34C117.27 276.127 115.919 276.133 114.603 276.36L104.211 282.36L99.1878 279.46L123.298 265.54L128.321 268.44L120.076 273.2C122.894 273.36 125.411 274.08 127.628 275.36ZM150.247 303.859L145.847 306.399L142.903 304.699C141.84 304.085 141.09 303.452 140.651 302.799C140.258 302.145 140.201 301.512 140.478 300.899C137.06 300.845 133.734 299.885 130.501 298.019C128.053 296.605 126.61 295.239 126.171 293.919C125.732 292.599 126.344 291.459 128.007 290.499C129.416 289.685 131.044 289.332 132.891 289.439C134.762 289.532 136.771 290.079 138.919 291.079L148.411 295.479C149.842 294.332 149.15 292.945 146.332 291.319C144.854 290.465 143.492 289.919 142.244 289.679C141.044 289.439 140.085 289.525 139.369 289.939L139.265 289.999L134.208 287.079L134.312 287.019C135.674 286.232 137.256 285.772 139.057 285.639C140.882 285.519 142.81 285.725 144.843 286.259C146.875 286.792 148.872 287.625 150.835 288.759C153.884 290.519 155.57 292.279 155.893 294.039C156.239 295.812 155.212 297.392 152.81 298.779L148.514 301.259C147.591 301.792 147.66 302.365 148.722 302.979L150.247 303.859ZM134.866 295.899C136.344 296.752 137.868 297.379 139.439 297.779C141.055 298.179 142.51 298.312 143.803 298.179L144.981 297.499L136.875 293.779C136.021 293.392 135.293 293.159 134.693 293.079C134.092 292.999 133.584 293.079 133.168 293.319C132.245 293.852 132.811 294.712 134.866 295.899ZM154.363 311.315C152.515 310.248 151.522 309.168 151.383 308.075C151.268 306.968 152.007 305.955 153.6 305.035L172.653 294.035L177.641 296.915L159.489 307.395C158.958 307.702 158.704 308.008 158.727 308.315C158.75 308.622 159.074 308.955 159.697 309.315L161.187 310.175L156.787 312.715L154.363 311.315ZM197.344 316.091L196.617 316.511L171.849 321.411L165.336 317.651L173.789 303.331L174.516 302.911L179.781 305.951L173.13 316.911L192.079 313.051L197.344 316.091ZM208.974 337.765L204.574 340.305L201.63 338.605C200.568 337.992 199.817 337.358 199.378 336.705C198.986 336.052 198.928 335.418 199.205 334.805C195.787 334.752 192.462 333.792 189.228 331.925C186.781 330.512 185.337 329.145 184.898 327.825C184.46 326.505 185.072 325.365 186.734 324.405C188.143 323.592 189.771 323.238 191.619 323.345C193.489 323.438 195.499 323.985 197.646 324.985L207.138 329.385C208.57 328.238 207.877 326.852 205.059 325.225C203.581 324.372 202.219 323.825 200.972 323.585C199.771 323.345 198.812 323.432 198.097 323.845L197.993 323.905L192.935 320.985L193.039 320.925C194.402 320.138 195.983 319.678 197.785 319.545C199.609 319.425 201.538 319.632 203.57 320.165C205.602 320.698 207.6 321.532 209.563 322.665C212.611 324.425 214.297 326.185 214.62 327.945C214.967 329.718 213.939 331.298 211.537 332.685L207.242 335.165C206.318 335.698 206.387 336.272 207.45 336.885L208.974 337.765ZM193.593 329.805C195.071 330.658 196.595 331.285 198.166 331.685C199.782 332.085 201.237 332.218 202.531 332.085L203.708 331.405L195.602 327.685C194.748 327.298 194.02 327.065 193.42 326.985C192.82 326.905 192.312 326.985 191.896 327.225C190.972 327.758 191.538 328.618 193.593 329.805ZM238.066 339.601L233.632 342.161L229.752 339.921C227.581 338.668 225.514 338.101 223.551 338.221L212.259 344.741L207.27 341.861L224.625 331.841L229.302 334.541L227.847 335.541C230.364 335.768 232.697 336.501 234.844 337.741L238.066 339.601Z" fill="black"/>
<path d="M178.172 238.885C181.698 237.124 185.204 235.355 188.607 233.361C192.524 231.067 196.28 228.526 200.133 226.13C203.182 224.235 206.317 222.258 209.78 221.219" stroke="black" stroke-width="4" stroke-linecap="round"/>
<path d="M202.57 227.319C201.318 227.81 200.132 228.473 198.926 229.062" stroke="black" stroke-width="4" stroke-linecap="round"/>
<path d="M199.879 227.24C205.249 227.08 210.611 226.423 215.96 225.973" stroke="black" stroke-width="4" stroke-linecap="round"/>
<circle cx="2.84654" cy="2.84654" r="2.84654" transform="matrix(0.866025 0.5 -0.866025 0.5 79.9297 257.913)" fill="black"/>
<circle cx="2.84654" cy="2.84654" r="2.84654" transform="matrix(0.866025 0.5 -0.866025 0.5 242.93 351.913)" fill="black"/>
<circle cx="2.84654" cy="2.84654" r="2.84654" transform="matrix(0.866025 0.5 -0.866025 0.5 89.0527 253)" fill="black"/>
<circle cx="2.84654" cy="2.84654" r="2.84654" transform="matrix(0.866025 0.5 -0.866025 0.5 252.053 347)" fill="black"/>
<circle cx="2.84654" cy="2.84654" r="2.84654" transform="matrix(0.866025 0.5 -0.866025 0.5 88.3516 262.824)" fill="black"/>
<circle cx="2.84654" cy="2.84654" r="2.84654" transform="matrix(0.866025 0.5 -0.866025 0.5 251.352 356.824)" fill="black"/>
<circle cx="2.84654" cy="2.84654" r="2.84654" transform="matrix(0.866025 0.5 -0.866025 0.5 96.0703 257.913)" fill="black"/>
<circle cx="2.84654" cy="2.84654" r="2.84654" transform="matrix(0.866025 0.5 -0.866025 0.5 259.07 351.913)" fill="black"/>
</svg>
