<svg width="868" height="208" viewBox="0 0 868 208" fill="none" xmlns="http://www.w3.org/2000/svg">
<path d="M283.896 44.92L281.556 50.32L193.356 163H148.716L157.176 91.72L102.456 163H57.4563L69.3363 50.32L71.6763 44.92H105.696L96.8763 119.44L154.296 44.92H194.976L186.156 119.98L242.496 44.92H283.896ZM327.108 165.34C314.028 165.34 302.568 163.3 292.728 159.22C282.888 155.14 275.268 149.5 269.868 142.3C264.588 134.98 261.948 126.64 261.948 117.28C261.948 110.44 263.328 103.6 266.088 96.76L266.448 95.86C280.728 60.34 307.308 42.58 346.188 42.58C359.268 42.58 370.728 44.62 380.568 48.7C390.408 52.78 397.968 58.48 403.248 65.8C408.648 73 411.348 81.22 411.348 90.46C411.348 97.18 409.908 104.14 407.028 111.34L406.668 112.24C399.588 130 389.448 143.32 376.248 152.2C363.048 160.96 346.668 165.34 327.108 165.34ZM329.988 133.3C339.228 133.3 347.268 131.14 354.108 126.82C361.068 122.5 366.348 116.32 369.948 108.28L370.848 106.3C372.528 102.58 373.368 99.1 373.368 95.86C373.368 89.62 370.548 84.52 364.908 80.56C359.268 76.6 351.708 74.62 342.228 74.62C332.868 74.62 324.948 76.72 318.468 80.92C312.108 85 306.948 91.3 302.988 99.82L302.088 101.8C300.288 105.76 299.388 109.42 299.388 112.78C299.388 119.02 302.088 124 307.488 127.72C313.008 131.44 320.508 133.3 329.988 133.3ZM523.119 44.92C530.679 44.92 537.339 46.3 543.099 49.06C548.859 51.7 553.299 55.42 556.419 60.22C559.539 65.02 561.099 70.36 561.099 76.24C561.099 80.92 560.139 85.54 558.219 90.1L557.499 91.9C553.419 101.98 547.419 109.3 539.499 113.86C531.699 118.42 520.599 120.94 506.199 121.42L524.919 157.6L522.579 163H489.819L469.299 121.6H456.159L437.619 163H399.999L452.559 44.92H523.119ZM522.219 85.6C522.819 84.04 523.119 82.66 523.119 81.46C523.119 79.3 522.279 77.62 520.599 76.42C518.919 75.22 516.579 74.62 513.579 74.62H477.039L467.319 96.22H506.379C513.939 96.22 518.979 93.28 521.499 87.4L522.219 85.6ZM635.199 44.92L596.319 132.22H668.859L655.179 163H545.019L597.579 44.92H635.199ZM776.233 44.92C793.273 44.92 806.473 48.52 815.833 55.72C825.193 62.8 829.873 72.7 829.873 85.42C829.873 92.86 828.193 101.02 824.833 109.9L824.293 111.34C819.373 124.42 813.493 134.68 806.653 142.12C799.813 149.44 791.113 154.78 780.553 158.14C769.993 161.38 756.493 163 740.053 163H668.593L721.153 44.92H776.233ZM747.433 132.22C758.593 132.22 767.293 130.24 773.533 126.28C779.893 122.2 784.873 115.48 788.473 106.12L789.373 103.78C791.053 99.34 791.893 95.44 791.893 92.08C791.893 86.8 789.793 82.78 785.593 80.02C781.513 77.14 775.513 75.7 767.593 75.7H745.093L719.893 132.22H747.433Z" fill="white"/>
<path d="M6 45L0.226497 55H11.7735L6 45ZM6 163L11.7735 153H0.226497L6 163ZM5 54V154H7V54H5Z" fill="white"/>
<path d="M862 45L856.226 55H867.774L862 45ZM862 163L867.774 153H856.226L862 163ZM861 54V154H863V54H861Z" fill="white"/>
<path d="M44.5 15L54.5 20.7735V9.2265L44.5 15ZM815.5 15L805.5 9.2265V20.7735L815.5 15ZM53.5 16H806.5V14H53.5V16Z" fill="white"/>
<path d="M44.5 195L54.5 200.774V189.226L44.5 195ZM815.5 195L805.5 189.226V200.774L815.5 195ZM53.5 196H806.5V194H53.5V196Z" fill="white"/>
</svg>
